<?xml version="1.0" standalone="no"?>
<!DOCTYPE svg PUBLIC "-//W3C//DTD SVG 1.1//EN" "http://www.w3.org/Graphics/SVG/1.1/DTD/svg11.dtd" >
<svg xmlns="http://www.w3.org/2000/svg" xmlns:xlink="http://www.w3.org/1999/xlink" version="1.1">
<metadata>
Created by FontForge 20201107 at Mon May 13 08:27:56 2024
 By 
(c) 2000 Adobe Systems Incorporated. All Rights Reserved.
</metadata>
<defs>
<font id="ChaparralPro-Semibold" horiz-adv-x="735" >
  <font-face 
    font-family="Chaparral Pro SmBd"
    font-weight="600"
    font-stretch="normal"
    units-per-em="2048"
    panose-1="2 6 6 3 4 5 5 2 2 3"
    ascent="1516"
    descent="-532"
    x-height="877"
    cap-height="1331"
    bbox="-82 -647 2310 1812"
    underline-thickness="110"
    underline-position="-204"
    unicode-range="U+0020-FB04"
  />
<missing-glyph horiz-adv-x="1024" 
d="M0 0v1434h1024v-1434h-1024zM512 809l348 522h-696zM573 717l349 -522v1044zM164 102h696l-348 523zM102 1239v-1044l349 522z" />
    <glyph glyph-name="T_h" unicode="Th" horiz-adv-x="2162" 
d="M727 1192l-4 -1055l170 -6q2 -44 -2 -131q-37 0 -135.5 1t-147.5 1q-45 0 -144 -1t-145 -1q0 64 3 129l153 6q8 0 8 8v1051q-148 0 -213 -10q-25 -3 -34.5 -11.5t-12.5 -27.5l-35 -197q-29 2 -85 7t-72 6q4 60 11 183.5t11 186.5q16 0 81.5 -1t109.5 -1h372q386 0 437 2
h352q0 -257 -6 -547l10 -2q149 77 206.5 96t121.5 19q67 0 131 -46t102 -110q29 -49 29 -151q0 -157 -4 -461l123 -4q0 -19 -1 -61t-1 -62h-228q-39 0 -118 -1t-113 -1q0 82 2 123l100 6q6 0 6 8v342q0 61 -0.5 85.5t-6 56.5t-17.5 51q-35 55 -109 55q-100 0 -229 -90
q-4 -290 -4 -508l131 -4q0 -45 -4 -123h-250q-32 0 -113 -1t-112 -1q0 84 2 123l108 6q8 0 8 8q2 317 2 1008q0 40 -57 43q-78 4 -387 4z" />
    <glyph glyph-name="T_h.caron" unicode="&#x164;h" horiz-adv-x="2162" 
d="M727 1192l-4 -1055l170 -6q2 -44 -2 -131q-37 0 -135.5 1t-147.5 1q-45 0 -144 -1t-145 -1q0 64 3 129l153 6q8 0 8 8v1051q-148 0 -213 -10q-25 -3 -34.5 -11.5t-12.5 -27.5l-35 -197q-29 2 -85 7t-72 6q4 60 11 183.5t11 186.5q16 0 81.5 -1t109.5 -1h372q386 0 437 2
h352q0 -257 -6 -547l10 -2q149 77 206.5 96t121.5 19q67 0 131 -46t102 -110q29 -49 29 -151q0 -157 -4 -461l123 -4q0 -19 -1 -61t-1 -62h-228q-39 0 -118 -1t-113 -1q0 82 2 123l100 6q6 0 6 8v342q0 61 -0.5 85.5t-6 56.5t-17.5 51q-35 55 -109 55q-100 0 -229 -90
q-4 -290 -4 -508l131 -4q0 -45 -4 -123h-250q-32 0 -113 -1t-112 -1q0 84 2 123l108 6q8 0 8 8q2 317 2 1008q0 40 -57 43q-78 4 -387 4zM711 1606q119 73 237 151q31 -29 68 -82q-46 -36 -142.5 -115.5t-123.5 -101.5q-55 0 -80 2q-113 97 -262 215q33 48 65 80
q41 -26 130 -81.5t108 -67.5z" />
    <glyph glyph-name="T_h.commaaccent" unicode="&#x162;h" horiz-adv-x="2162" 
d="M727 1192l-4 -1055l170 -6q2 -44 -2 -131q-37 0 -135.5 1t-147.5 1q-45 0 -144 -1t-145 -1q0 64 3 129l153 6q8 0 8 8v1051q-148 0 -213 -10q-25 -3 -34.5 -11.5t-12.5 -27.5l-35 -197q-29 2 -85 7t-72 6q4 60 11 183.5t11 186.5q16 0 81.5 -1t109.5 -1h372q386 0 437 2
h352q0 -257 -6 -547l10 -2q149 77 206.5 96t121.5 19q67 0 131 -46t102 -110q29 -49 29 -151q0 -157 -4 -461l123 -4q0 -19 -1 -61t-1 -62h-228q-39 0 -118 -1t-113 -1q0 82 2 123l100 6q6 0 6 8v342q0 61 -0.5 85.5t-6 56.5t-17.5 51q-35 55 -109 55q-100 0 -229 -90
q-4 -290 -4 -508l131 -4q0 -45 -4 -123h-250q-32 0 -113 -1t-112 -1q0 84 2 123l108 6q8 0 8 8q2 317 2 1008q0 40 -57 43q-78 4 -387 4zM618 -82h3q53 0 96 -50.5t43 -115.5q0 -101 -60 -190t-159 -144q-9 12 -30 37t-30 37q123 83 123 180q0 68 -92 92q-7 64 25 109t81 45
z" />
    <glyph glyph-name="f_f_j" unicode="ffj" horiz-adv-x="1816" 
d="M76 123l110 6q9 0 9 10q0 399 -2 592h-148q0 94 2 135q53 0 131 4q12 0 12 13q2 125 28 206.5t91 149.5q144 154 340 154q108 0 185 -35q0 -36 -29 -94.5t-53 -73.5q-100 45 -164 45q-82 0 -113 -57q-56 -79 -53 -308h397q10 0 10 15q0 152 28.5 228t103.5 149
q84 83 166.5 113t181.5 30q82 0 163.5 -16t129.5 -41q0 -39 -33 -99.5t-64 -81.5q-138 80 -266 80q-82 0 -121 -51q-33 -42 -46.5 -105t-10.5 -221q37 0 117.5 1t136.5 1q59 1 147 6t152.5 10t68.5 5q5 0 5 -6q0 -107 -1 -361t-1 -364q0 -121 -15 -196.5t-57 -158.5
q-105 -223 -260 -305q-36 0 -91 43t-61 78q146 69 191 152q34 59 50.5 142.5t16.5 227.5l-2 584q-57 2 -172 2h-225q-2 -168 -2 -602l149 -4q0 -84 -2 -123h-262q-36 0 -115.5 -1t-115.5 -1q0 82 2 123l110 6q9 0 9 8q0 305 -3 594h-409q0 -82 -1 -294.5t-1 -307.5l158 -4
q0 -61 -3 -123h-270q-36 0 -116 -1t-115 -1q0 82 2 123z" />
    <glyph glyph-name="f_j" unicode="fj" horiz-adv-x="1183" 
d="M672 1405h2q79 0 159 -16t132 -41q0 -39 -32.5 -99.5t-62.5 -81.5q-150 80 -268 80q-83 0 -119 -51q-34 -41 -47 -104t-10 -222q42 0 254 4q57 1 148 6t155 9.5t70 3.5q2 0 2 -6q0 -107 -1 -361t-1 -364q0 -121 -15 -196.5t-57 -158.5q-46 -98 -113 -180t-147 -125
q-36 0 -91 43t-61 78q145 67 191 152q34 59 50 142.5t15 227.5l-4 584q-106 4 -164 4q-161 0 -231 -2q0 -81 -1 -294t-1 -308l147 -4q0 -21 -1 -62t-1 -61h-262q-36 0 -116 -1t-115 -1q0 82 2 123l110 6q9 0 9 8q0 401 -2 594h-150q0 53 4 135q86 4 133 4q11 0 11 15
q0 105 14 172.5t40.5 111.5t76.5 93q84 83 166 113t182 30z" />
    <glyph glyph-name="ff" unicode="ff" horiz-adv-x="1366" 
d="M649 1393h2q110 0 183 -33q0 -41 -27.5 -97t-54.5 -71q-104 43 -162 43q-78 0 -113 -57q-54 -82 -51 -308h393q12 0 12 15q0 150 24 225t89 145q143 150 330 150q93 0 170 -29q0 -39 -27.5 -98t-52.5 -78l-24 8q-23 9 -41 15t-45 12t-46 6q-68 0 -100 -51
q-27 -41 -34.5 -100t-6.5 -220q46 0 142 1t141 1q0 -66 -7 -141h-278q0 -81 -1 -294t-1 -308l192 -4q0 -82 -2 -123h-307q-36 0 -116 -1t-115 -1q0 20 1 61t1 62l110 6q9 0 9 8q0 401 -2 594h-408q0 -81 -1 -294t-1 -308l154 -4q0 -61 -3 -123h-268q-36 0 -116 -1t-115 -1
q0 82 2 123l110 6q9 0 9 8q0 401 -2 594h-150q0 53 4 135q21 1 65.5 2t65.5 2q13 0 13 13q2 125 27 206.5t89 151.5q147 152 340 152z" />
    <glyph glyph-name="fi" unicode="fi" horiz-adv-x="1220" 
d="M672 1405h2q78 0 158 -16t133 -41q0 -39 -32.5 -99.5t-62.5 -81.5q-157 80 -268 80q-82 0 -121 -51q-33 -41 -45.5 -104t-9.5 -222q42 0 254 4q57 1 148 6t155 9.5t70 3.5q4 0 4 -6q-4 -450 -4 -758l131 -4q0 -84 -2 -123h-250q-37 0 -115.5 -1t-114.5 -1q0 64 3 123
l112 6q6 0 6 8v592q-90 4 -168 4q-157 0 -229 -2q0 -81 -1 -294t-1 -308l145 -4v-123h-262q-36 0 -116 -1t-115 -1q0 82 2 123l110 6q9 0 9 8q0 401 -2 594h-150q0 53 4 135q86 4 133 4q11 0 11 15q0 105 14 172.5t40.5 111.5t76.5 93q84 83 166 113t182 30z" />
    <glyph glyph-name="fl" unicode="fl" horiz-adv-x="1230" 
d="M420 129l151 -4v-123h-264q-36 0 -116 -1t-115 -1q0 82 2 123l110 6q9 0 9 8q0 401 -2 594h-150q0 53 4 135q22 1 67 2t66 2q11 0 11 17q0 155 24.5 230.5t97.5 146.5q87 83 168.5 112t194.5 29q97 0 207.5 -16t171.5 -39q8 -3 8 -15q-1 -138 -4 -567t-4 -639l143 -4
q0 -21 -1 -62.5t-1 -60.5h-258q-39 0 -120 -1t-113 -1q0 19 1 61.5t1 61.5l116 6q6 0 6 10q3 273 3 592h-412q0 -82 -1 -294.5t-1 -307.5zM618 1262h-2q-101 0 -149 -60q-28 -36 -37 -102.5t-8 -231.5q62 0 202 1t210 1q0 45 0.5 121t0.5 134.5t-1 107.5q-82 29 -216 29z
" />
    <glyph glyph-name="ffi" unicode="ffi" horiz-adv-x="1853" 
d="M76 123l110 6q9 0 9 10q0 399 -2 592h-148q0 94 2 135q53 0 131 4q12 0 12 13q2 125 28 206.5t91 149.5q144 154 340 154q108 0 185 -35q0 -36 -29 -94.5t-53 -73.5q-100 45 -164 45q-82 0 -113 -57q-56 -79 -53 -308h397q10 0 10 15q0 152 28.5 228t103.5 149
q84 83 166.5 113t181.5 30q81 0 161.5 -16t128.5 -41q0 -39 -32 -99.5t-62 -81.5q-144 80 -266 80q-82 0 -121 -51q-33 -42 -46.5 -105t-10.5 -221q37 0 117 1t135 1q59 1 147.5 6t153.5 10t69 5q5 0 5 -6q-5 -563 -5 -758l132 -4q0 -64 -3 -123h-247q-36 0 -113 -1t-113 -1
v123l115 6q6 0 6 8v592q-49 2 -174 2h-225q-2 -168 -2 -602l149 -4q0 -84 -2 -123h-262q-36 0 -115.5 -1t-115.5 -1q0 82 2 123l110 6q9 0 9 8q0 305 -3 594h-409q0 -82 -1 -294.5t-1 -307.5l158 -4q0 -61 -3 -123h-270q-36 0 -116 -1t-115 -1q0 82 2 123z" />
    <glyph glyph-name="ffl" unicode="ffl" horiz-adv-x="1861" 
d="M1325 1405h2q89 0 196.5 -15t168.5 -36q6 -3 6 -15q-1 -141 -4 -571t-4 -639l143 -4q0 -21 -1 -62.5t-1 -60.5h-254q-39 0 -120.5 -1t-113.5 -1q0 64 3 123l116 6q6 0 6 10q2 182 2 592h-413q0 -81 -1 -294t-1 -308l155 -4q0 -21 -1 -62t-1 -61h-264q-36 0 -116 -1
t-115 -1q0 82 2 123l110 6q9 0 9 8q0 305 -3 594h-409q-2 -166 -2 -602l158 -4q0 -61 -3 -123h-270q-36 0 -116 -1t-115 -1q0 82 2 123l110 6q9 0 9 8q0 401 -2 594h-150q0 53 4 135q21 1 66 2t65 2q12 0 12 13q2 123 28 205.5t91 152.5q145 152 338 152q115 0 187 -33
q0 -36 -29.5 -94.5t-54.5 -73.5q-95 43 -164 43q-79 0 -113 -55q-54 -72 -51 -310h397q10 0 10 17q0 155 25 231t96 146q89 83 173 112t202 29zM1253 1264h-2q-45 0 -85.5 -18t-61.5 -48q-30 -39 -39 -102.5t-8 -229.5q63 0 204 1t209 1v367q-79 29 -217 29z" />
    <glyph glyph-name=".notdef" horiz-adv-x="1024" 
d="M0 0v1434h1024v-1434h-1024zM512 809l348 522h-696zM573 717l349 -522v1044zM164 102h696l-348 523zM102 1239v-1044l349 522z" />
    <glyph glyph-name=".null" horiz-adv-x="0" 
 />
    <glyph glyph-name="nonmarkingreturn" horiz-adv-x="682" 
 />
    <glyph glyph-name="space" unicode=" " horiz-adv-x="454" 
 />
    <glyph glyph-name="exclam" unicode="!" horiz-adv-x="593" 
d="M434 1343h2v-4q-5 -87 -30 -447.5t-33 -500.5q-43 -12 -148 -20q-2 45 -15.5 219t-16.5 219q-18 263 -43 489q42 12 147.5 28.5t136.5 16.5zM301 240h2q60 0 95.5 -40t35.5 -94t-38 -90t-97 -36q-58 0 -96.5 34.5t-38.5 89.5q0 56 38.5 96t98.5 40z" />
    <glyph glyph-name="quotedbl" unicode="&#x22;" horiz-adv-x="763" 
d="M317 1430q-25 -373 -30 -537q-66 -16 -119 -16q-24 309 -49 522q37 11 105 21t93 10zM653 1430q-25 -373 -30 -537q-66 -16 -119 -16q-24 319 -49 522q34 12 101.5 21.5t96.5 9.5z" />
    <glyph glyph-name="numbersign" unicode="#" horiz-adv-x="1107" 
d="M498 969l211 2q13 71 33.5 197.5t25.5 152.5q70 3 143 0q-8 -51 -29.5 -171.5t-31.5 -178.5q36 0 104 1t97 1q0 -41 -9 -129q-139 0 -217 2q-21 -124 -45 -281h215q0 -61 -6 -123q-31 0 -109.5 -1t-121.5 -1q-13 -73 -36 -204t-32 -179q-87 -4 -129 -2q23 131 64 385
q-36 0 -108.5 -1t-108.5 -1q-16 -88 -68 -381q-52 -5 -129 -2q7 46 29 179t32 204q-37 0 -107 -1t-97 -1q0 76 6 131h221q5 36 20 131t23 148h-219q0 66 6 121q39 0 116.5 1t116.5 1q14 88 60 352q47 4 143 4q-53 -294 -63 -356zM688 846h-215q-9 -60 -43 -279q66 -2 215 -2
q7 46 21.5 140.5t21.5 140.5z" />
    <glyph glyph-name="dollar" unicode="$" horiz-adv-x="1107" 
d="M139 915v3q0 71 40.5 137.5t103.5 109.5q105 75 254 84q1 35 2 101t2 100q51 13 129 16q-4 -127 -6 -213q171 3 282 -59q0 -32 -27 -86t-55 -74q-116 76 -207 88q-1 -57 -4 -178t-4 -186q81 -25 138.5 -52.5t103 -66.5t68 -91.5t22.5 -119.5q0 -79 -30 -146t-83 -112
q-110 -96 -282 -109q-1 -34 -2 -100.5t-2 -101.5q-92 -9 -121 -9q4 136 4 207q-94 -2 -197 20t-170 58q6 33 35 84t57 72q165 -98 279 -107q6 381 6 398q-50 19 -78 30t-69 30.5t-64 36t-50.5 42t-41.5 52.5t-23.5 63t-9.5 79zM336 950v-2q0 -63 43 -97t149 -67q1 30 4 153
t3 185q-87 -3 -140 -47q-59 -48 -59 -125zM788 371v2q0 71 -45 111t-147 69q-1 -63 -4 -186t-4 -181q89 6 143 52q57 48 57 133z" />
    <glyph glyph-name="percent" unicode="%" horiz-adv-x="1638" 
d="M1079 1237l-8 6q-64 -1 -211.5 -2t-222.5 -2q38 -30 64 -95.5t26 -142.5q0 -191 -123 -299q-85 -75 -207 -75q-117 0 -192 61q-54 42 -88.5 116.5t-34.5 176.5q0 88 32.5 161t88.5 120q87 73 227 73q156 0 415 7.5t359 15.5q29 -36 56 -82q-85 -142 -388 -653
q-295 -505 -401 -684q-74 32 -111 57q77 130 402 686q242 423 317 555zM410 1235h-2q-54 0 -86 -37q-58 -64 -58 -217q0 -159 53 -215q39 -39 89 -39t81 31q58 62 58 227q0 148 -49 211q-24 39 -86 39zM1247 688h2q127 0 201 -67q47 -44 75.5 -115.5t28.5 -161.5
q0 -89 -31 -167.5t-85 -125.5q-80 -74 -205 -74q-119 0 -195 58q-54 41 -89.5 115.5t-35.5 168.5q0 88 34 167.5t91 125.5q88 76 209 76zM1239 588h-2q-52 0 -88 -39q-53 -59 -53 -223q0 -159 49 -211q40 -37 90 -37q53 0 86 33q53 56 53 223q0 152 -47 213q-28 41 -88 41z
" />
    <glyph glyph-name="ampersand" unicode="&#x26;" horiz-adv-x="1507" 
d="M684 737l-2 -10q169 -120 358 -334q39 47 72.5 134.5t38.5 152.5q0 8 -0.5 10.5t-2.5 4t-7 1.5l-105 6q0 82 2 117h230q34 0 100 1t96 1q3 -60 0 -121l-114 -4q-77 -257 -213 -405q46 -47 129 -139q23 -27 55 -27l147 -4q0 -80 -4 -121q-211 -11 -348 -14
q-20 22 -64.5 75.5t-70.5 81.5q-195 -163 -459 -163q-178 0 -295 69q-168 106 -168 287q0 120 76 222t211 169v8q-166 123 -166 279q0 65 29 124.5t78 102.5q116 100 295 100q162 0 252 -73q100 -81 100 -201q0 -207 -250 -330zM395 1044v-2q0 -69 43.5 -122.5t132.5 -112.5
q162 94 162 233q0 85 -49 134q-42 45 -119 45q-74 0 -119 -48q-51 -48 -51 -127zM594 123h2q167 0 295 121q-102 117 -219 226.5t-213 174.5q-68 -41 -114 -107t-46 -155q0 -120 90 -197q78 -63 205 -63z" />
    <glyph glyph-name="quotesingle" unicode="'" horiz-adv-x="421" 
d="M313 1430q-25 -373 -30 -537q-66 -16 -119 -16q-24 309 -49 522q36 12 103 21.5t95 9.5z" />
    <glyph glyph-name="parenleft" unicode="(" horiz-adv-x="739" 
d="M154 559v2q0 152 41.5 296t111.5 258.5t156 203.5t182 149q44 -52 64 -86q-147 -120 -244.5 -331.5t-97.5 -475.5q0 -150 28 -279.5t80.5 -230.5t106 -172.5t125.5 -144.5q-43 -46 -80 -76q-76 60 -134.5 114t-125.5 138t-110.5 172t-73 208.5t-29.5 254.5z" />
    <glyph glyph-name="parenright" unicode=")" horiz-adv-x="739" 
d="M584 590v-2q0 -556 -484 -916q-21 21 -73 82q344 316 344 821q0 270 -92.5 474t-243.5 340q35 41 69 75q95 -60 178 -144.5t152 -193t109.5 -247.5t40.5 -289z" />
    <glyph glyph-name="asterisk" unicode="*" horiz-adv-x="774" 
d="M434 1001q1 -43 4 -132.5t4 -135.5q-54 -3 -112 0q8 180 12 268q-98 -70 -217 -157q-47 68 -62 94q47 28 131 79t109 66q-40 24 -120 72.5t-120 73.5q22 38 62 92q134 -95 217 -156q-2 44 -6 132.5t-6 132.5q9 0 28.5 1t28.5 1q10 0 29 -1t28 -1q-2 -44 -6 -132.5
t-6 -132.5q30 22 104.5 76t114.5 82q50 -72 60 -92q-142 -89 -238 -148q208 -128 238 -147q-17 -32 -64 -92q-125 95 -213 157z" />
    <glyph glyph-name="plus" unicode="+" horiz-adv-x="1107" 
d="M975 414h-346q0 -74 -1 -208.5t-1 -187.5q-67 -6 -146 -6v402h-352q0 49 4 139q221 0 348 2v379q147 6 154 6q-1 -57 -2 -187t-2 -196q59 1 178.5 2t171.5 2q2 -53 -6 -147z" />
    <glyph glyph-name="comma" unicode="," horiz-adv-x="546" 
d="M248 254h2q66 0 120 -61t54 -138q0 -121 -74 -228t-196 -173q-28 31 -74 88q151 102 151 217q0 78 -114 111q-9 78 31 131t100 53z" />
    <glyph glyph-name="hyphen" unicode="-" horiz-adv-x="696" 
d="M311 424h-2h-239q1 23 2 70t2 69q42 0 124.5 1t123.5 1q51 1 153.5 2t151.5 2q0 -77 -6 -145h-310z" />
    <glyph glyph-name="period" unicode="." horiz-adv-x="546" 
d="M279 256h2q63 0 98 -41t35 -96q0 -59 -39 -99t-101 -40q-58 0 -98.5 38.5t-40.5 98.5q0 55 39.5 97t104.5 42z" />
    <glyph glyph-name="slash" unicode="/" horiz-adv-x="815" 
d="M147 -121q-46 11 -135 41q45 103 338 791q47 109 150.5 355t150.5 355q72 -15 152 -43q-48 -109 -162 -369t-152 -347q-157 -366 -342 -783z" />
    <glyph glyph-name="zero" unicode="0" horiz-adv-x="1107" 
d="M1020 674v-2q0 -391 -193 -584q-108 -108 -292 -108q-163 0 -271 100q-178 168 -178 532q0 419 197 613q119 116 299 116q175 0 280 -114q68 -72 113 -212t45 -341zM561 1219h-2q-77 0 -131 -70q-41 -55 -67.5 -199.5t-26.5 -322.5q0 -151 20.5 -271t53.5 -172
q57 -84 145 -84q80 0 131 68q90 116 90 467q0 185 -21 318.5t-53 181.5q-30 44 -62 64t-77 20z" />
    <glyph glyph-name="one" unicode="1" horiz-adv-x="1107" 
d="M698 133l303 -6q2 -44 -2 -125h-424q-63 0 -206.5 -1t-225.5 -1q-2 43 2 127l314 6q10 0 10 10v936q-56 -12 -167 -36t-171 -37q-2 11 -12 54.5t-13 67.5q99 33 246 88.5t243.5 93.5t102.5 38q7 0 7 -11q0 -214 -3.5 -665.5t-3.5 -538.5z" />
    <glyph glyph-name="two" unicode="2" horiz-adv-x="1107" 
d="M983 961v-3q0 -64 -18.5 -129t-54 -125t-71 -109.5t-86 -101.5t-82 -81t-75.5 -68q-69 -62 -205 -172v-8q136 0 610 12l7 -2q0 -79 -11 -176q-35 0 -274 1t-324 1h-278q-33 91 -41 125q214 167 336 287q66 62 114.5 115t98.5 122t77 143t27 148q0 120 -61 190
q-27 32 -73.5 50t-96.5 18q-109 0 -174 -51q-9 -9 -11 -23l-45 -200q-71 6 -151 16q8 144 22 324q67 32 170.5 54.5t206.5 22.5q220 0 336 -96q59 -50 93 -124.5t34 -159.5z" />
    <glyph glyph-name="three" unicode="3" horiz-adv-x="1107" 
d="M315 1143l-36 -191q-96 8 -152 17q1 25 8 134.5t10 166.5q160 71 379 71q214 0 320 -77q52 -37 86.5 -98t34.5 -126q0 -118 -78 -202.5t-201 -118.5v-14q150 -24 231.5 -114.5t81.5 -203.5q0 -177 -168 -305q-133 -102 -428 -102q-163 0 -272 28q-24 154 -43 314
q69 15 154 28l49 -190q4 -13 16 -21q55 -24 135 -24q144 0 222 65q81 68 81 185q0 114 -88.5 179.5t-226.5 65.5h-131q-4 90 -4 140q219 -1 323.5 70.5t104.5 189.5q0 86 -53 139q-57 57 -183 57q-98 0 -159 -43q-10 -7 -13 -20z" />
    <glyph glyph-name="four" unicode="4" horiz-adv-x="1107" 
d="M844 125l143 -4q0 -80 -2 -119h-268q-49 0 -150.5 -1t-150.5 -1q0 41 4 119l198 6q3 0 6 3.5t3 6.5v207q-61 -2 -529 -2q-36 71 -63 160q119 176 278 393q228 311 328 436q75 2 209 -6q0 -125 -2 -408t-2 -421q168 0 215 2q0 -78 -6 -148h-209q-2 -72 -2 -223zM629 1081
h-11q-93 -134 -202 -295q-60 -87 -183 -276q-7 -14 5 -14q192 -4 389 -4z" />
    <glyph glyph-name="five" unicode="5" horiz-adv-x="1107" 
d="M989 461v-2q0 -118 -49.5 -213.5t-128.5 -153.5q-159 -112 -414 -112q-158 0 -254 22q-16 103 -45 309q80 20 150 29l51 -184q6 -18 16 -21q43 -22 115 -22q147 0 232 73q88 75 88 211q0 138 -95 213.5t-270 75.5q-92 0 -203 -12l-24 24q35 336 78 621h356q244 0 373 2
q0 -57 -13 -180q-96 1 -289 2t-276 2q-4 -23 -49 -293q57 8 162 8q119 0 214 -32.5t154 -88.5t90 -127t31 -151z" />
    <glyph glyph-name="six" unicode="6" horiz-adv-x="1107" 
d="M334 711h10q59 48 140 80t161 32q162 0 254 -92q53 -49 88 -129t35 -160q0 -226 -164 -368q-110 -94 -299 -94q-86 0 -162 26.5t-129 73.5q-174 162 -174 473q0 375 180 598q158 190 437 190q117 0 194 -26q17 -118 35 -289q-12 -2 -64.5 -12t-82.5 -15l-41 166
q-3 15 -11 23q-36 18 -92 18q-65 0 -120.5 -33.5t-90.5 -89.5q-89 -145 -104 -372zM580 98h2q85 0 141 68q63 75 63 225q0 71 -21 132t-50 91q-51 60 -140 60q-61 0 -129 -35t-104 -96q-5 -244 76 -357q57 -88 162 -88z" />
    <glyph glyph-name="seven" unicode="7" horiz-adv-x="1107" 
d="M836 1124l-5 11q-438 3 -495 -5q-35 -3 -49 -43l-47 -157q-124 21 -146 26q17 131 56 365q6 0 74.5 -1t109.5 -1h672q29 -72 51 -164q-160 -256 -276 -498t-163 -407q-24 -84 -24 -246q-66 -10 -236 -10q-3 162 37 266q50 133 153.5 332t287.5 532z" />
    <glyph glyph-name="eight" unicode="8" horiz-adv-x="1107" 
d="M760 725v-10q130 -55 200 -144t70 -196q0 -187 -162 -305q-130 -90 -340 -90q-197 0 -313 79q-139 94 -139 258q0 112 73.5 204.5t196.5 154.5v10q-207 108 -207 307q0 80 41 148t99 110q131 90 309 90q183 0 284 -84q44 -38 74.5 -94.5t30.5 -120.5q0 -107 -61.5 -187
t-155.5 -130zM358 1022v-2q0 -84 59 -137t204 -105q147 90 147 242q0 86 -47 139q-54 60 -148 60q-93 0 -151 -50q-64 -57 -64 -147zM801 328v2q0 99 -73 162.5t-245 123.5q-79 -46 -126.5 -119t-47.5 -157q0 -107 64 -168q31 -32 79 -51t99 -19q109 0 174 56q76 60 76 170z
" />
    <glyph glyph-name="nine" unicode="9" horiz-adv-x="1107" 
d="M774 608h-10q-140 -102 -291 -102q-78 0 -147.5 27.5t-114.5 70.5q-54 53 -87.5 126.5t-33.5 158.5q0 105 43 195.5t121 156.5q124 100 303 100q180 0 289 -106q74 -74 120 -197.5t46 -292.5q0 -200 -50 -352.5t-131 -242.5q-149 -170 -421 -170q-125 0 -215 20
q-8 46 -25 140.5t-25 140.5q53 17 144 32l53 -168q4 -16 16 -20q35 -21 107 -21q66 0 124 33.5t89 83.5q88 135 96 387zM537 1223h-2q-89 0 -142 -64q-67 -78 -67 -237q0 -139 61 -213q55 -64 152 -64q61 0 124 31t103 84q3 120 -19 223.5t-53 149.5q-57 90 -157 90z" />
    <glyph glyph-name="colon" unicode=":" horiz-adv-x="546" 
d="M279 881h2q64 0 98.5 -41.5t34.5 -94.5q0 -59 -38.5 -98t-99.5 -39q-58 0 -98.5 37.5t-40.5 95.5q0 55 39 97.5t103 42.5zM279 254h2q64 0 98.5 -41t34.5 -94q0 -59 -38.5 -98t-99.5 -39q-58 0 -98.5 38t-40.5 97q0 53 39 95t103 42z" />
    <glyph glyph-name="semicolon" unicode=";" horiz-adv-x="546" 
d="M279 881h2q63 0 98 -41.5t35 -94.5q0 -59 -38.5 -98t-99.5 -39q-58 0 -98.5 37.5t-40.5 95.5q0 55 39 97.5t103 42.5zM248 254h2q66 0 120 -61t54 -138q0 -121 -74 -228t-196 -173q-28 31 -74 88q151 102 151 217q0 45 -34.5 72.5t-79.5 38.5q-9 78 31 131t100 53z" />
    <glyph glyph-name="less" unicode="&#x3c;" horiz-adv-x="1107" 
d="M395 494q225 -190 477 -396q-44 -67 -81 -104q-179 137 -576 436q-4 39 -4 121q522 376 584 420q43 -50 75 -109q-291 -222 -475 -368z" />
    <glyph glyph-name="equal" unicode="=" horiz-adv-x="1107" 
d="M127 586q0 51 4 141q84 0 852 6q0 -79 -6 -147h-850zM127 240q-1 32 4 147h850q0 -47 -4 -141q-100 0 -850 -6z" />
    <glyph glyph-name="greater" unicode="&#x3e;" horiz-adv-x="1107" 
d="M674 487q-191 157 -473 381q43 70 78 107q114 -82 322.5 -236t254.5 -188q2 -37 2 -123q-108 -79 -307.5 -227t-274.5 -203q-29 31 -81 104q250 199 479 385z" />
    <glyph glyph-name="question" unicode="?" horiz-adv-x="927" 
d="M850 1034v-2q0 -128 -82 -228.5t-250 -205.5q-47 -30 -47 -57q0 -38 27 -148q-61 -26 -152 -37q-28 38 -57.5 115.5t-30.5 130.5q95 67 148.5 109.5t100 93t65 99.5t18.5 110q0 87 -50 138.5t-132 51.5q-77 0 -123 -35q-13 -9 -15 -24l-41 -172q-88 7 -155 18
q8 124 22 293q57 29 157.5 48.5t201.5 19.5q186 0 290.5 -90t104.5 -228zM418 233h2q58 0 94.5 -38.5t36.5 -92.5q0 -52 -38 -87t-97 -35q-56 0 -95.5 34t-39.5 86q0 54 38.5 93.5t98.5 39.5z" />
    <glyph glyph-name="at" unicode="@" horiz-adv-x="1339" 
d="M827 723h9l32 59q61 -11 133 -30q-18 -69 -59 -244.5t-49 -206.5q-1 -5 3 -8.5t9 -3.5q75 0 142 59q90 90 90 234q0 78 -25.5 147.5t-75 125.5t-132.5 89t-189 33q-101 0 -193.5 -41t-163 -114t-112 -182t-41.5 -237q0 -108 36 -190.5t96.5 -129.5t131.5 -70t149 -23
q151 0 263 71q30 -37 41 -71q-132 -86 -340 -86q-76 0 -147 18.5t-134.5 58t-111 96t-75.5 138t-28 178.5q0 146 52.5 272t141.5 212t209.5 135t253.5 49q225 0 366.5 -128.5t141.5 -328.5q0 -106 -40.5 -190t-100.5 -131q-59 -47 -128.5 -70t-184.5 -23q-14 0 -36.5 13
t-31.5 26q3 41 19 99l-13 6q-56 -56 -127.5 -100t-120.5 -44q-26 0 -73.5 28.5t-65.5 60.5q-4 24 -4 45q0 75 31 180q16 46 42.5 91.5t63 88.5t87 69.5t104.5 26.5q92 0 155 -57zM522 360v-2q0 -41 39 -41t109.5 59.5t89.5 106.5q10 26 41 146q-37 47 -105 47
q-42 0 -78 -41.5t-59 -102.5q-37 -90 -37 -172z" />
    <glyph glyph-name="A" unicode="A" horiz-adv-x="1267" 
d="M-23 127l105 6q9 0 12 10q78 202 455 1200q72 5 184 5q73 -201 225 -641.5t199 -573.5l117 -4q0 -86 -2 -129h-215h-295q0 86 2 127l135 6q9 5 4 10q-67 199 -78 226q-3 8 -12 8l-444 -2q-50 -153 -78 -242l153 -4q0 -86 -2 -129h-278h-189q0 86 2 127zM606 1053h-10
q-29 -84 -92 -268t-92 -267q-3 -12 4 -12h370q-83 247 -180 547z" />
    <glyph glyph-name="B" unicode="B" horiz-adv-x="1230" 
d="M98 125l129 6q11 0 11 10v1057l-140 4q0 22 1 64.5t1 62.5q192 4 385 4q159 0 254.5 -10.5t167.5 -44.5q72 -33 120 -102.5t48 -147.5q0 -104 -68 -184t-173 -119v-14q136 -19 227.5 -111t91.5 -217q0 -170 -144.5 -277.5t-385.5 -107.5q-31 0 -140.5 1t-126.5 1h-260
q0 21 1 63.5t1 61.5zM475 1204l-2 -452q8 -4 78 -4q123 0 206 65t83 170q0 99 -71 163t-196 64q-74 0 -98 -6zM473 621l-4 -433q0 -40 31.5 -53.5t107.5 -13.5q123 0 209 63t86 185q0 47 -19.5 91t-58.5 82t-106.5 60.5t-153.5 22.5q-82 0 -92 -4z" />
    <glyph glyph-name="C" unicode="C" horiz-adv-x="1220" 
d="M94 588v2q0 200 76.5 352t200.5 252q194 158 481 158q173 0 264 -37q17 -216 25 -377q-42 -7 -158 -20l-39 217q-7 23 -16 28q-50 33 -137 33q-160 0 -271 -111q-164 -170 -164 -440q0 -134 28.5 -225t94.5 -160q52 -55 132.5 -86t166.5 -31q78 0 176.5 22.5t167.5 51.5
q19 -67 29 -141q-241 -96 -420 -96q-249 0 -412 122q-102 76 -163.5 203.5t-61.5 282.5z" />
    <glyph glyph-name="D" unicode="D" horiz-adv-x="1431" 
d="M100 125l127 6q9 0 9 8v1057l-138 4q0 88 2 129q254 4 455 4q173 0 287 -24t202 -76q130 -74 211.5 -214.5t81.5 -305.5q0 -192 -73 -346.5t-201 -245.5q-173 -123 -467 -123q-39 0 -126.5 1t-115.5 1q-40 0 -128 -1t-128 -1q0 86 2 127zM479 1200l-4 -1016
q0 -35 22.5 -48t90.5 -13q214 0 342 113q69 65 109 176.5t40 230.5q0 164 -40 268.5t-132 188.5q-120 108 -329 108q-75 0 -99 -8z" />
    <glyph glyph-name="E" unicode="E" horiz-adv-x="1159" 
d="M104 127l125 6q9 0 9 8v1057l-138 4q0 47 4 129h250h465h187q12 -164 18 -332q-18 -2 -68 -8t-77 -8l-33 170q-7 30 -45 35q-108 10 -279 10h-43l-2 -455q43 1 129 2.5t133 2.5q19 0 27.5 9t11.5 29l10 91q78 0 142 -3q-1 -32 -2 -100t-2 -102v-195q-90 -4 -142 -4l-8 96
q-1 23 -11 32t-32 9q-159 4 -256 2l-2 -436q0 -28 18 -35.5t93 -7.5q198 0 252 14q27 5 39 39l63 179q55 -9 145 -29q-51 -245 -73 -338q-98 2 -652 2h-258q0 86 2 127z" />
    <glyph glyph-name="F" unicode="F" horiz-adv-x="1107" 
d="M238 1196l-138 6q0 45 4 127h248q32 0 237 1t228 1q142 0 189 2q15 -177 24 -350q-20 -3 -44.5 -6t-55.5 -6.5t-47 -5.5l-39 186q-3 17 -12 25.5t-31 9.5q-86 12 -291 12q-6 0 -17 -1t-14 -1l-2 -494q43 1 132 2.5t134 2.5q27 0 37 8.5t13 29.5l12 95q49 2 141 -2
q-4 -136 -4 -211q-2 -68 -2 -197q-90 -4 -141 -4l-8 102q-2 22 -13 30.5t-39 8.5q-113 3 -262 6l-2 -438l232 -4q0 -77 -5 -131q-45 0 -163 1t-177 1q-46 0 -133.5 -1t-126.5 -1q0 21 1 64.5t1 62.5l125 6q9 5 9 8v1055z" />
    <glyph glyph-name="G" unicode="G" horiz-adv-x="1374" 
d="M1036 915l-32 211q-10 26 -17 31q-61 49 -174 49q-168 0 -283 -110q-79 -75 -123.5 -190.5t-44.5 -254.5q0 -265 132 -403q124 -137 329 -137q54 0 91.5 11.5t37.5 24.5v320l-194 4q0 22 1 67.5t1 65.5h309h229q0 -90 -2 -133l-96 -4q-8 0 -8 -8l-6 -410
q-118 -69 -377 -69q-312 0 -487 139q-226 190 -226 504q0 194 82.5 345.5t218.5 248.5q98 71 225 103t248 32q200 0 308 -54q18 -357 18 -366q-61 -9 -160 -17z" />
    <glyph glyph-name="H" unicode="H" horiz-adv-x="1519" 
d="M106 129l121 6q9 0 9 8v1053l-132 6q0 88 2 129q37 0 127.5 -1t133.5 -1q45 0 137.5 1t130.5 1q0 -88 -2 -129l-148 -6q-4 0 -4 -8l-2 -424q0 -6 6 -6l559 -2v440l-153 6q0 88 2 129q38 0 133.5 -1t144.5 -1q43 0 127 1t117 1q0 -88 -2 -129l-119 -6q-4 0 -4 -8l-6 -1053
l135 -6q0 -86 -2 -129q-36 0 -124 1t-130 1q-47 0 -142 -1t-134 -1q0 88 2 129l147 6q8 0 8 8v467q0 8 -8 8l-559 -4l-2 -479l160 -6q0 -86 -2 -129q-36 0 -131.5 1t-143.5 1q-40 0 -128 -1t-126 -1q0 86 2 129z" />
    <glyph glyph-name="I" unicode="I" horiz-adv-x="712" 
d="M238 1196l-146 6q0 88 2 129q38 0 135 -1t142 -1t136.5 1t129.5 1q0 -88 -2 -129l-148 -6q-4 0 -4 -8l-6 -1051l158 -6q2 -44 -2 -131q-36 0 -130 1t-141 1q-43 0 -135.5 -1t-134.5 -1q0 88 2 129l137 6q7 0 7 8v1053z" />
    <glyph glyph-name="J" unicode="J" horiz-adv-x="1052" 
d="M989 1206l-129 -4q-6 0 -6 -8q0 -572 -2 -686q-2 -138 -25.5 -227t-85.5 -162q-136 -164 -407 -164q-135 0 -246 25q-3 27 -43 348q56 15 148 30l51 -208q3 -13 16 -23q45 -27 121 -27q57 0 107 23t77 65q23 35 34.5 85t13 89t1.5 119q0 239 -4 719l-239 6q0 86 2 125
h368h250q0 -84 -2 -125z" />
    <glyph glyph-name="K" unicode="K" horiz-adv-x="1331" 
d="M236 1196l-132 6q0 88 2 129q37 0 128 -1t135 -1q43 0 127 1t118 1q2 -44 -2 -129l-125 -6q-6 0 -6 -10l-4 -449q50 0 123 13q55 55 162.5 187.5t193.5 246.5q4 4 2.5 7t-6.5 3l-121 6q0 68 3 129h282q32 0 93 1t85 1q0 -88 -2 -129l-94 -6q-246 -279 -416 -461v-12
q115 -83 219 -274q110 -192 152 -256q29 -51 70 -54l127 -8q0 -88 -2 -127q-106 -4 -189 -4q-45 -2 -170 -2q-16 21 -40.5 62t-44.5 77.5t-54 99.5t-51 93q-150 284 -217 284q-55 0 -105 -4l-2 -473l143 -6q2 -44 -2 -131q-33 0 -122.5 1t-135.5 1q-42 0 -130.5 -1
t-125.5 -1q0 88 2 129l123 6q9 5 9 8v1053z" />
    <glyph glyph-name="L" unicode="L" horiz-adv-x="1099" 
d="M238 1194l-136 6q0 47 4 129h261h280q0 -45 -4 -131l-158 -4q-6 0 -6 -8l-4 -1014q0 -29 13 -36t77 -7q196 0 258 12q27 10 35 41l74 213q84 -13 147 -30q-34 -170 -82 -367q-26 0 -250.5 1t-386.5 1q-46 0 -134 -1t-126 -1q0 47 4 129l125 6q9 0 9 8v1053z" />
    <glyph glyph-name="M" unicode="M" horiz-adv-x="1783" 
d="M231 1192l-131 4q0 49 4 135h424q57 -142 193.5 -507t175.5 -466h14q329 868 371 973h397q0 -90 -2 -133l-118 -6q-7 0 -7 -10q0 -373 4 -1049l130 -4q2 -34 -3 -129h-231h-262q0 21 1 64.5t1 62.5l139 6q8 0 8 8q-1 159 -3.5 493t-2.5 394h-14q-186 -502 -391 -958
q-8 0 -53 -1t-74 -1q-188 422 -387 976h-17q-1 -112 -5.5 -428.5t-6.5 -480.5l166 -6q0 -21 -1 -64.5t-1 -64.5h-258h-199v127l123 6q8 3 8 8q1 164 4 529.5t4 521.5z" />
    <glyph glyph-name="N" unicode="N" horiz-adv-x="1466" 
d="M90 129l119 6q8 0 8 8l-2 1055l-137 4q0 88 2 127h338q306 -446 672 -1014l12 2q-4 590 -8 881l-174 2q0 22 1 65.5t1 63.5h260q37 0 107 1t97 1q1 -18 1 -39.5t-0.5 -47.5t-0.5 -40l-110 -6q-6 0 -6 -10l-8 -1176q-66 -28 -168 -28q-378 500 -695 979h-14
q0 -140 -1 -415t-1 -413l182 -4q0 -20 -1 -64.5t-1 -66.5q-41 0 -136.5 1t-143.5 1q-35 0 -101.5 -1t-93.5 -1q0 88 2 129z" />
    <glyph glyph-name="O" unicode="O" horiz-adv-x="1484" 
d="M713 -20h-2q-131 0 -243 45.5t-189 124.5q-185 188 -185 503q0 191 83 346.5t210 239.5q177 113 397 113q198 0 351 -103q116 -78 185 -224.5t69 -322.5q0 -160 -54.5 -306t-158.5 -246q-176 -170 -463 -170zM748 113h2q156 0 247 108q127 154 127 436q0 285 -118 439
q-92 123 -250 123q-152 0 -246 -99q-66 -66 -108 -181.5t-42 -266.5q0 -156 30.5 -264t98.5 -183q101 -112 259 -112z" />
    <glyph glyph-name="P" unicode="P" horiz-adv-x="1173" 
d="M238 1196l-129 4q0 22 1 65.5t1 63.5q234 4 403 4q111 0 178 -6t142 -29q123 -37 195.5 -140t72.5 -224q0 -127 -71 -232.5t-179 -152.5q-114 -57 -289 -57q-74 0 -90 2l-2 -361l211 -4q0 -88 -2 -129h-332h-237q0 86 2 127l116 6q9 0 9 8v1055zM477 1202l-4 -561
q7 -18 94 -18q114 0 185 53q108 72 108 237q0 135 -81 215t-214 80q-70 0 -88 -6z" />
    <glyph glyph-name="Q" unicode="Q" horiz-adv-x="1484" 
d="M94 649v2q0 193 83 348.5t216 243.5q168 109 391 109q196 0 336 -92q127 -81 199 -231t72 -331q0 -172 -58.5 -315t-156.5 -236q-97 -92 -207 -129v-8q131 -84 268 -141q70 -29 166 -29q82 0 164 23q13 -69 16 -139q-71 -25 -160 -44.5t-133 -19.5q-73 0 -147 39
q-153 78 -391 281h-37q-132 0 -247 46.5t-196 127.5q-178 181 -178 495zM360 664v-2q0 -156 32 -260.5t102 -180.5q102 -108 256 -108q160 0 247 108q129 153 129 424q0 309 -127 459q-95 115 -237 115q-153 0 -254 -101q-64 -64 -106 -184.5t-42 -269.5z" />
    <glyph glyph-name="R" unicode="R" horiz-adv-x="1259" 
d="M238 1196l-129 4q1 22 2 65t2 64q250 4 426 4q102 0 158.5 -5t131.5 -25q114 -27 191.5 -120t77.5 -198q0 -127 -74.5 -221t-194.5 -141v-11q16 -7 29.5 -16t28 -24t25 -26.5t25.5 -35.5t23.5 -38t26 -46.5t26 -49t29.5 -58.5l31 -62q37 -72 54 -94.5t36 -24.5l115 -8
q0 -20 -1 -62.5t-1 -64.5q-100 0 -143 -2q-20 0 -94.5 -1t-90.5 -1q-36 54 -125 239.5t-106 215.5q-29 51 -64.5 71.5t-93.5 20.5q-72 0 -88 -4l-2 -408l147 -6q0 -20 -1 -62.5t-1 -64.5h-266h-239q2 43 2 127l118 6q9 0 9 6v1057zM475 1200l-4 -526q10 -4 84 -4
q146 0 221.5 77.5t75.5 184.5q0 128 -78.5 202t-202.5 74q-80 0 -96 -8z" />
    <glyph glyph-name="S" unicode="S" horiz-adv-x="1046" 
d="M236 397l45 -209q3 -17 14 -22q62 -43 168 -43q59 0 111.5 16.5t82.5 46.5q58 58 58 144q0 52 -10.5 85t-51 63.5t-69 44.5t-114.5 51q-9 4 -13 6q-159 67 -246.5 155t-87.5 219q0 85 37.5 160t99.5 127q130 111 375 111q77 0 150 -12t110 -31q8 -72 27 -332
q-141 -18 -154 -19l-41 191q-7 16 -12 20q-43 37 -131 37q-99 0 -162 -51q-68 -56 -68 -147q0 -32 4.5 -55t18.5 -44t30 -35t50 -32.5t66 -32t91 -37.5q169 -68 250.5 -154t81.5 -221q0 -91 -34.5 -169.5t-98.5 -133.5q-135 -114 -395 -114q-75 0 -163 12t-144 33
q-16 157 -33 348q63 13 158 24z" />
    <glyph glyph-name="T" unicode="T" horiz-adv-x="1204" 
d="M322 129l153 6q8 0 8 8v1051q-135 0 -213 -8q-24 -3 -34 -12.5t-13 -26.5l-35 -199q-96 8 -157 15q4 60 11 183t11 185q16 0 81.5 -1t109.5 -1h372q310 0 361 2h184q14 -211 19 -366q-27 -3 -82.5 -8.5t-77.5 -8.5l-31 199q-3 19 -12.5 27.5t-34.5 9.5q-68 10 -215 10
l-4 -1059l170 -6q0 -86 -2 -129q-37 0 -135.5 1t-147.5 1q-45 0 -144 -1t-145 -1q0 64 3 129z" />
    <glyph glyph-name="U" unicode="U" horiz-adv-x="1376" 
d="M438 1198l-4 -651q-1 -129 18.5 -200t61.5 -126q75 -90 211 -90q72 0 118 22.5t85 63.5q39 40 62.5 127t23.5 207q0 446 -2 639q0 6 -8 6l-160 6q0 20 1 63t1 64h254q40 0 116 1t109 1q0 -86 -2 -129l-117 -6l-4 -631q-3 -306 -147 -454q-127 -131 -350 -131
q-247 0 -375 120q-81 77 -110.5 183.5t-29.5 251.5v651q0 12 -10 12l-110 4q0 88 2 129q35 0 120.5 -1t126.5 -1q51 0 147 1t138 1q0 -88 -2 -129z" />
    <glyph glyph-name="V" unicode="V" horiz-adv-x="1314" 
d="M1321 1202l-111 -6q-158 -421 -206 -539q-194 -498 -269 -673q-18 -4 -188 -4q-143 375 -252 696q-158 477 -170 514q0 5 -10 8l-111 4q0 22 1 65.5t1 63.5q33 0 115.5 -1t122.5 -1q59 0 174.5 1t163.5 1q0 -21 -1 -65t-1 -64l-177 -6q71 -266 119 -422q16 -52 71.5 -235
t88.5 -285h14q19 54 52 146.5t58.5 164.5t45.5 131q135 419 152 490q1 3 -1.5 6.5t-5.5 3.5l-153 4q0 90 2 129h282q32 0 99 1t96 1q0 -86 -2 -129z" />
    <glyph glyph-name="W" unicode="W" horiz-adv-x="1820" 
d="M1827 1202l-107 -6q-26 -101 -73.5 -277.5t-69.5 -259.5q-75 -291 -195 -677q-27 -2 -192 -2q-154 478 -268 888h-11q-111 -337 -309 -886q-31 -2 -190 -2q-88 357 -166 698l-111 510q0 8 -10 8l-111 6q0 86 2 127h228h331q0 -20 -1 -63.5t-1 -65.5l-174 -4
q24 -198 64 -414q9 -50 39 -228.5t49 -285.5h14q45 137 162 526.5t141 467.5q25 4 179 4q43 -155 151.5 -564.5t116.5 -437.5h16q20 91 53.5 249.5t45.5 211.5q68 336 86 459q2 10 -7 10l-159 6q0 88 2 127q43 0 140.5 1t145.5 1q134 0 191 2q0 -88 -2 -129z" />
    <glyph glyph-name="X" unicode="X" horiz-adv-x="1267" 
d="M-16 129l108 6q12 0 17 8q79 99 217.5 278t179.5 232v15q-94 133 -359 522q-3 6 -12 6l-117 6q0 88 2 127h242q59 0 168 1t154 1q0 -88 -2 -129l-152 -6q101 -175 238 -379h12q46 62 123 183t112 186q2 3 0 6.5t-6 3.5l-137 4q0 90 2 129h281q33 0 98 1t92 1
q0 -88 -2 -129l-106 -6q-194 -261 -375 -489v-13q56 -76 124 -172t153 -218t118 -169l117 -6q0 -86 -2 -129q-33 0 -114.5 1t-121.5 1q-57 0 -167 -1t-156 -1q0 88 2 129l139 6q14 3 8 12q-195 309 -258 392h-12q-108 -144 -273 -402l150 -8q0 -86 -2 -127h-287
q-32 0 -100 -1t-98 -1q0 88 2 129z" />
    <glyph glyph-name="Y" unicode="Y" horiz-adv-x="1204" 
d="M322 129l147 6q10 0 10 10v361q-83 147 -373 682q-4 8 -10 8l-96 6q0 88 2 127h225q58 0 167 1t153 1q0 -88 -2 -129l-158 -8q93 -206 262 -535h10q179 327 265 527q1 3 -1 5.5t-5 2.5l-144 6q0 88 2 129h271q31 0 92 1t86 1q0 -88 -2 -129l-99 -6q-38 -64 -184.5 -317
t-218.5 -369l-2 -373l172 -6q0 -88 -2 -131q-38 0 -137.5 1t-149.5 1q-44 0 -141 -1t-142 -1q0 68 3 129z" />
    <glyph glyph-name="Z" unicode="Z" horiz-adv-x="1212" 
d="M344 156l2 -9q424 0 520 21q44 12 60 57l65 197q82 -12 160 -29q-58 -263 -92 -395q-9 0 -103.5 0.5t-237.5 1t-269 0.5h-345q-21 44 -49 121q207 269 783 1053l-4 10h-252q-158 0 -205 -8q-30 -10 -43 -50l-68 -211q-64 10 -157 29q54 300 71 389q63 0 199 -4h692
q32 -87 49 -162q-450 -610 -776 -1011z" />
    <glyph glyph-name="bracketleft" unicode="[" 
d="M231 -297v1735q71 1 216.5 4t214.5 4q3 -58 -3 -115l-219 -8q-14 0 -14 -18l-6 -1485l244 -8q0 -22 -5 -115q-69 1 -213.5 3t-214.5 3z" />
    <glyph glyph-name="backslash" unicode="\" horiz-adv-x="815" 
d="M662 -119q-264 615 -338 791q-156 362 -308 706q100 49 150 64q181 -431 299 -721q64 -149 186.5 -438t145.5 -342q-10 -5 -40 -19.5t-51.5 -24t-43.5 -16.5z" />
    <glyph glyph-name="bracketright" unicode="]" 
d="M506 1438l-6 -1735q-70 -1 -213.5 -4t-212.5 -4q-4 74 -4 117l241 8v1485q0 18 -14 18l-219 8q-5 51 -2 115q71 -1 216 -4t214 -4z" />
    <glyph glyph-name="asciicircum" unicode="^" horiz-adv-x="1107" 
d="M506 1296q33 2 110 2q148 -223 392 -593q-38 -31 -111 -82q-150 209 -340 471q-260 -369 -332 -469q-75 49 -112 82q315 474 393 589z" />
    <glyph glyph-name="underscore" unicode="_" horiz-adv-x="1024" 
d="M0 -150h1024v-110h-1024v110z" />
    <glyph glyph-name="grave" unicode="`" horiz-adv-x="782" 
d="M293 1358q29 -29 132.5 -134.5t154.5 -154.5q-31 -39 -74 -82q-236 188 -322 254q59 70 109 117z" />
    <glyph glyph-name="a" unicode="a" horiz-adv-x="989" 
d="M608 72h-10q-178 -92 -299 -92q-84 0 -165 65t-81 152q0 45 25.5 93.5t74.5 93t134 73t190 28.5h125q5 126 -31.5 185t-119.5 59q-110 0 -252 -127q-47 53 -86 107q100 88 199 138t220 50q123 0 208 -87t85 -235q0 -60 -2 -220.5t-2 -200.5q0 -28 15 -25l125 4v-121
q-30 -10 -114.5 -21t-166.5 -11q-19 17 -72 92zM287 221v-2q0 -40 35.5 -67t83.5 -27q92 0 190 68q4 4 4 14v162q-1 0 -30.5 1t-53.5 1q-115 0 -172 -42.5t-57 -107.5z" />
    <glyph glyph-name="b" unicode="b" horiz-adv-x="1085" 
d="M369 801l10 -4q139 66 193.5 83t117.5 17q87 0 162.5 -56t117.5 -143t42 -180q0 -151 -54 -276q-23 -55 -65.5 -108.5t-97.5 -90.5q-39 -28 -105.5 -45.5t-144.5 -17.5q-127 0 -226 59l-57 -74q-43 5 -133 23q12 159 12 243v1022l-143 7q0 85 2 122q43 4 132.5 17.5
t160.5 24t78 10.5q6 0 6 -7q0 -204 -8 -626zM766 436v2q0 140 -43 213q-22 36 -57.5 58t-75.5 22q-105 0 -217 -80q-4 -278 -4 -446q0 -37 55 -66.5t117 -29.5q93 0 151 67q74 90 74 260z" />
    <glyph glyph-name="c" unicode="c" horiz-adv-x="858" 
d="M74 381v2q0 221 149 367.5t387 146.5q60 0 117.5 -13t87.5 -32q0 -34 -30 -95.5t-54 -74.5q-1 1 -19 8.5t-35 14.5t-41 15t-50 12.5t-49 4.5q-98 0 -150 -69q-72 -93 -72 -244q0 -141 70 -227q54 -64 166 -64q96 0 246 57q22 -82 28 -120q-86 -43 -182 -66.5t-166 -23.5
q-171 0 -287 108.5t-116 292.5z" />
    <glyph glyph-name="d" unicode="d" horiz-adv-x="1107" 
d="M735 72h-12q-122 -60 -176.5 -76t-106.5 -16q-147 0 -245 98q-121 121 -121 313q0 222 145 379q54 60 131.5 93.5t163.5 33.5q88 0 193 -33l10 6q0 125 -4 383l-164 4q0 84 2 123q47 5 142 18.5t168.5 24.5t82.5 11q4 0 4 -7q0 -170 -3 -617.5t-3 -645.5q0 -33 19 -33
l124 6v-121q-27 -10 -118.5 -23t-163.5 -13q-39 26 -68 92zM713 223v2v484q-81 43 -168 43q-106 0 -162 -80q-64 -92 -64 -254q0 -136 56 -215q25 -34 62 -53t77 -19q91 0 188 62q11 8 11 30z" />
    <glyph glyph-name="e" unicode="e" horiz-adv-x="958" 
d="M74 395v2q0 138 57.5 251.5t165.5 181t246 67.5q171 0 256 -106q90 -109 90 -287q-4 -20 -38.5 -56t-49.5 -38q-105 -7 -488 -7q0 -134 62 -202q38 -41 82 -54.5t106 -13.5q121 0 277 62q22 -70 30 -125q-86 -40 -185.5 -65t-170.5 -25q-202 0 -321 110.5t-119 304.5z
M514 770h-2q-82 0 -129 -59q-64 -83 -66 -185q189 0 330 6q23 0 23 23q0 92 -41 154q-45 61 -115 61z" />
    <glyph glyph-name="f" unicode="f" horiz-adv-x="727" 
d="M424 129l192 -4q0 -82 -2 -123h-307q-36 0 -116 -1t-115 -1q0 82 2 123l110 6q9 0 9 8q0 401 -2 594h-150q0 53 4 135q21 1 65.5 2t65.5 2q13 0 13 15q0 149 24.5 224.5t89.5 145.5q140 150 328 150q93 0 170 -29q0 -40 -27 -98.5t-53 -77.5q-109 41 -156 41
q-72 0 -100 -49q-26 -41 -34 -102t-7 -220q193 0 281 2q0 -25 -3.5 -80t-3.5 -63h-276q0 -81 -1 -293.5t-1 -306.5z" />
    <glyph glyph-name="g" unicode="g" horiz-adv-x="1015" 
d="M283 238v10q-83 40 -143 113t-60 180q0 149 122 252.5t308 103.5q72 0 164 -16q31 -6 45 -4q33 1 97 3.5t113 4.5t75 4q6 -60 2 -137h-183l-2 -9q60 -63 60 -174q0 -57 -24 -119.5t-69 -111.5q-124 -127 -368 -117q-76 -61 -76 -90q0 -35 46 -45.5t194 -15.5
q141 -5 209 -17t116 -45q53 -36 74 -72t21 -102q0 -92 -62 -168.5t-176 -120.5q-142 -57 -328 -57q-199 0 -310.5 62.5t-111.5 177.5q0 25 9 42t34 37q33 23 94.5 64.5t88.5 62.5v13q-63 21 -99.5 56t-36.5 103q0 14 27 35t150 97zM315 557v-2q0 -119 45.5 -171t120.5 -52
t121.5 61.5t46.5 177.5q0 105 -41 160q-38 53 -119 53q-79 0 -126.5 -60t-47.5 -167zM776 -213v2q0 56 -38.5 76.5t-155.5 28.5q-122 10 -213 14q-44 -42 -62.5 -62.5t-35.5 -50.5t-17 -59q0 -63 67 -96t158 -33q133 0 209 43q88 53 88 137z" />
    <glyph glyph-name="h" unicode="h" horiz-adv-x="1161" 
d="M397 784l11 -2q149 77 206.5 96t120.5 19q67 0 131.5 -46t102.5 -110q28 -47 28 -151q0 -157 -4 -461l123 -4q0 -21 -1 -62.5t-1 -60.5h-227q-39 0 -118.5 -1t-113.5 -1q0 82 2 123l101 6q6 0 6 8v342q0 58 -1 84.5t-6.5 58t-17.5 50.5q-35 55 -108 55q-101 0 -230 -90
q-4 -290 -4 -508l129 -4q0 -84 -2 -123h-250q-36 0 -113 -1t-112 -1v123l111 6q8 0 8 8v1120l-145 3q0 85 2 122q41 4 131.5 17.5t163 24t79.5 10.5t7 -9q0 -153 -9 -641z" />
    <glyph glyph-name="i" unicode="i" horiz-adv-x="589" 
d="M295 1335h2q65 0 100 -39.5t35 -91.5q0 -62 -41 -101.5t-102 -39.5q-56 0 -97.5 39.5t-41.5 97.5q0 55 40 95t105 40zM195 715l-146 6v123q42 4 132.5 17.5t163 24.5t79.5 11q2 0 2 -6q0 -113 -2 -385t-2 -377l131 -4q0 -84 -2 -123h-250q-38 0 -121 -1t-121 -1
q0 84 2 123l125 6q9 0 9 8v578z" />
    <glyph glyph-name="j" unicode="j" horiz-adv-x="544" 
d="M268 1339h2q65 0 100.5 -41.5t35.5 -93.5q0 -61 -40 -101t-104 -40q-55 0 -97 40t-42 99q0 53 40.5 95t104.5 42zM180 713l-162 2q0 27 5 125q366 57 387 57q4 0 4 -6q0 -109 -1 -364.5t-1 -366.5q0 -121 -15 -196.5t-57 -158.5q-46 -99 -112 -179.5t-146 -123.5
q-36 0 -92 43t-62 76q147 71 193 152q66 118 63 370z" />
    <glyph glyph-name="k" unicode="k" horiz-adv-x="1083" 
d="M168 1255l-145 2q0 21 1 62.5t1 60.5q38 5 130 19t164 24.5t80 10.5q7 0 7 -9q0 -143 -3 -462t-4 -424q68 0 121 6q111 100 189 190q3 3 1 5.5t-5 2.5l-89 5q0 87 2 126h238q85 3 172 3q0 -86 -2 -125l-86 -7q-189 -171 -254 -227v-12q96 -77 160 -203q70 -128 90 -153
q14 -19 35 -19l112 -4q0 -84 -2 -125q-239 0 -329 -4q-48 76 -115 231q-83 173 -141 189q-70 0 -97 -2q0 -42 -1 -144t-1 -143l107 -6q0 -82 -2 -121h-228q-38 0 -117 -1t-114 -1q0 84 2 123l117 6q6 0 6 8v1118z" />
    <glyph glyph-name="l" unicode="l" horiz-adv-x="571" 
d="M170 1255l-154 5q0 44 4 122q42 4 134.5 17.5t166 24t80.5 10.5t7 -9q-1 -158 -4.5 -620t-4.5 -676l142 -4v-123h-258q-41 0 -125.5 -1t-122.5 -1q0 19 1 61.5t1 61.5l125 6q8 0 8 8v1118z" />
    <glyph glyph-name="m" unicode="m" horiz-adv-x="1705" 
d="M195 717l-142 4q0 20 1 60.5t1 58.5q36 5 119 19t148 25t71 11t6 -6q13 -79 17 -113l8 -2q137 81 192 102t115 21q40 0 77 -15t64.5 -38.5t44.5 -43t29 -38.5h8q142 86 200 108.5t124 22.5q125 0 215 -125q51 -77 51 -166q0 -36 -6 -471l121 -4q0 -47 -4 -125h-228
q-40 0 -114.5 -1t-104.5 -1q0 86 2 123l97 6q6 3 6 10q2 123 2 381q0 96 -21 139q-32 66 -112 66q-85 0 -203 -82q1 -83 -0.5 -273.5t-1.5 -238.5l115 -4q0 -86 -2 -125h-240q-36 0 -104.5 -1t-94.5 -1q0 84 2 125l97 6q8 0 8 8v398q0 98 -21 137q-31 55 -104 55
q-41 0 -101 -25.5t-108 -62.5q-4 -304 -4 -510l119 -6q0 -84 -2 -123h-242q-35 0 -112 -1t-109 -1q0 86 2 125l112 6q7 0 7 8v578z" />
    <glyph glyph-name="n" unicode="n" horiz-adv-x="1187" 
d="M195 717l-146 4q0 20 1 60.5t1 58.5q39 4 121.5 18t147.5 25.5t69 11.5t4 -6q3 -15 12.5 -59t12.5 -64l10 -2q145 88 205.5 110.5t132.5 22.5q67 0 124 -41.5t93 -99.5q41 -71 41 -164q0 -34 -6 -463l119 -4q0 -84 -2 -123h-236q-38 0 -114.5 -1t-106.5 -1v123l104 6
q5 0 9 8v330q0 56 -1 83t-6 59t-16 50q-21 39 -48.5 51.5t-66.5 12.5q-45 0 -108.5 -28.5t-114.5 -69.5q-6 -212 -6 -496l123 -4q0 -21 -1 -62.5t-1 -60.5h-242q-37 0 -116 -1t-113 -1q0 84 2 123l112 6q7 0 7 8v580z" />
    <glyph glyph-name="o" unicode="o" horiz-adv-x="1069" 
d="M518 -20h-2q-189 0 -299 98q-143 124 -143 340q0 116 46 214.5t136 168.5q122 96 303 96q157 0 266 -76q170 -123 170 -364q0 -124 -53 -228t-141 -168q-115 -81 -283 -81zM535 100h2q86 0 135 60q40 46 56.5 114.5t16.5 174.5q0 175 -63 256q-52 71 -141 71
q-88 0 -138 -61q-77 -89 -77 -275q0 -194 75 -278q50 -62 134 -62z" />
    <glyph glyph-name="p" unicode="p" horiz-adv-x="1112" 
d="M387 784l12 -2q147 79 198.5 97t117.5 18q93 1 169 -58t115.5 -149.5t38.5 -187.5q0 -140 -55 -262q-54 -122 -160 -199q-34 -25 -97.5 -43t-125.5 -18q-116 0 -197 38l-10 -4v-356l180 -4q0 -84 -2 -123q-194 0 -292 -2q-162 0 -232 -2q0 82 2 121l111 8q6 0 6 10
l2 1051l-145 2q0 45 4 119q37 5 119.5 20.5t148 28t70.5 12.5q4 0 4 -6q3 -17 9 -54.5t9 -54.5zM793 438v2q0 134 -39 203q-21 36 -57.5 59t-78.5 23q-105 0 -217 -80q-4 -274 -4 -440q0 -32 57 -61t115 -29q93 0 148 63q76 86 76 260z" />
    <glyph glyph-name="q" unicode="q" horiz-adv-x="1081" 
d="M717 63h-15q-108 -55 -157 -69t-101 -14q-146 0 -247 98q-123 116 -123 313q0 219 143 377q117 129 311 129q98 0 226 -45l80 66q58 -9 122 -25q-10 -92 -10 -201q-1 -89 -3 -322.5t-3 -410.5t0 -299l121 -2q0 -84 -4 -123q-34 0 -113.5 -1t-124.5 -1q-22 -1 -280 -6
q0 82 2 123l166 10q8 0 8 10zM547 752h-2q-47 0 -90 -20.5t-70 -59.5q-63 -88 -63 -252q0 -143 57 -219q24 -32 63.5 -51t77.5 -19q79 0 182 64q11 7 11 32v480q-73 45 -166 45z" />
    <glyph glyph-name="r" unicode="r" horiz-adv-x="837" 
d="M195 721l-138 2q0 82 2 121q37 5 120 18.5t147.5 24t68.5 10.5t4 -6q7 -121 13 -268l12 -2q60 116 105.5 177t83 81t87.5 20q72 0 134 -25q0 -48 -25.5 -119.5t-48.5 -92.5q-81 18 -117 18q-28 0 -63 -25q-57 -45 -123 -172q-33 -62 -33 -180q-2 -55 -2 -174l182 -6
q0 -82 -2 -121h-283q-39 0 -122.5 -1t-120.5 -1q0 84 2 123l108 4q9 5 9 8v586z" />
    <glyph glyph-name="s" unicode="s" horiz-adv-x="862" 
d="M203 295l30 -125q7 -17 17 -25q52 -36 129 -36q84 0 121 24q53 29 53 92q0 25 -7 42.5t-17.5 29.5t-39.5 24.5t-55 21t-82 24.5q-131 38 -190.5 97t-59.5 150q0 75 43.5 135.5t106.5 92.5q102 55 262 55q74 0 133.5 -10.5t85.5 -22.5q17 -143 25 -246q-134 -20 -137 -20
l-31 121q-4 17 -12 22q-41 27 -105 27t-104 -29q-45 -29 -45 -92q0 -48 35 -69t161 -58q62 -17 103 -34.5t79 -46t56 -71t18 -100.5q0 -75 -39.5 -136t-111.5 -101q-91 -51 -273 -51q-157 0 -256 36q-5 42 -15 127t-15 127q68 16 137 25z" />
    <glyph glyph-name="t" unicode="t" horiz-adv-x="790" 
d="M406 -20h-3q-93 0 -155 57q-41 35 -52.5 70t-11.5 90q0 63 1 167.5t1 116.5q0 29 1 131t1 119h-141q0 90 4 131q22 1 66.5 4t64.5 4q5 0 10 4.5t5 10.5q3 86 10 182q33 18 85 39.5t88 34t40 12.5t4 -6q0 -129 -4 -277q52 0 161 1t158 1q0 -8 -6 -143q-44 0 -152 1t-163 1
v-205q-2 -84 -2 -282q0 -53 33.5 -82t82.5 -29q75 0 207 31q13 -63 19 -125q-165 -59 -352 -59z" />
    <glyph glyph-name="u" unicode="u" horiz-adv-x="1116" 
d="M733 86h-10q-124 -71 -178 -88.5t-121 -17.5q-64 0 -127.5 43t-103 109t-39.5 130q0 89 1 249.5t1 227.5l-111 2q0 45 4 127q40 2 181 7t153 6q6 0 6 -9q-6 -450 -6 -483q0 -54 0.5 -74.5t7.5 -55t21 -56.5q39 -62 114 -62q88 0 193 78q1 69 1 163t-0.5 204t-0.5 153
l-119 4q0 22 1 65.5t1 63.5q266 7 348 7q2 0 2 -9q0 -110 -2 -351.5t-2 -362.5q0 -23 13 -23l126 2q0 -82 -2 -121q-21 -9 -110.5 -21.5t-163.5 -12.5q-33 26 -78 106z" />
    <glyph glyph-name="v" unicode="v" horiz-adv-x="1007" 
d="M1010 752l-90 -4q-17 -43 -162 -371q-60 -139 -183 -395q-41 -2 -192 -2q-97 251 -166 452q-67 195 -106 307q-3 6 -11 6l-94 5q0 88 2 127h217h256q0 -86 -2 -125l-117 -7q39 -147 72 -256q89 -284 90 -288h13q66 173 100 264q65 185 90 272q0 8 -6 8l-96 5q0 87 2 124
h219q30 0 86 1.5t80 1.5q0 -84 -2 -125z" />
    <glyph glyph-name="w" unicode="w" horiz-adv-x="1445" 
d="M1450 754l-86 -6q-19 -60 -121 -367q-32 -95 -141 -397q-90 -4 -199 -4q-123 374 -170 544h-12q-101 -272 -221 -540q-94 -4 -189 -4q-51 177 -116 426q-15 58 -44 171.5t-42 159.5q0 8 -11 8l-86 7q0 86 2 125h201h264q0 -84 -2 -123l-131 -4q2 -13 45 -258
q9 -51 58 -289l12 -2q85 251 217 608q46 4 184 4q109 -399 174 -616h13q14 52 35.5 138t35.5 138q43 166 60 264q3 8 -6 8l-109 5q1 21 2 63t2 61h231q26 0 79 1.5t73 1.5q2 -42 -2 -123z" />
    <glyph glyph-name="x" unicode="x" horiz-adv-x="1024" 
d="M4 125l80 4q11 3 22 10q135 143 279 289v16q-41 49 -125.5 152t-118.5 143l-12 6l-88 7q0 86 2 125h211h256q0 -86 -2 -125l-100 -4q121 -164 149 -199h12q87 103 148 188q4 8 -4 8l-82 5q0 21 1 63t1 61h205q29 0 83.5 1.5t75.5 1.5q0 -84 -2 -123l-80 -6
q-28 -29 -117 -126.5t-149 -160.5v-10q30 -37 124 -154.5t134 -165.5l99 -4q0 -86 -2 -127q-28 0 -98 1t-109 1q-43 0 -132 -1t-128 -1q0 88 2 125l86 6q7 0 9 3.5t-1 6.5q-44 66 -152 199h-14q-45 -52 -170 -209l92 -4q0 -86 -2 -127q-29 0 -102 1t-109 1q-29 0 -88.5 -1
t-85.5 -1q0 86 2 125z" />
    <glyph glyph-name="y" unicode="y" horiz-adv-x="991" 
d="M995 752l-84 -4q-74 -195 -170 -422q-64 -156 -152.5 -344t-160.5 -297q-103 -158 -168 -197q-37 0 -107.5 49t-70.5 76q88 54 170 139q106 113 151 223q-111 273 -174 439q-93 249 -123 325q0 6 -10 6l-92 5q1 21 2 64t2 63h205h266q0 -86 -2 -125l-123 -7
q22 -76 82 -251q23 -71 101 -289h12q43 115 90 256q54 162 82 274q0 10 -8 10l-101 5q0 87 2 124h220q28 0 84 1.5t79 1.5q0 -84 -2 -125z" />
    <glyph glyph-name="z" unicode="z" horiz-adv-x="954" 
d="M328 135l2 -8q215 0 309 6q57 3 68 39l61 162q33 -6 137 -31q-31 -136 -76 -305l-113 1q-114 1 -200 1h-248h-180q-23 55 -39 113q119 133 561 626l-2 11q-219 0 -276 -2q-46 0 -56 -31l-55 -162q-25 3 -143 25q11 54 32.5 154.5t30.5 144.5q11 0 39 -1t74.5 -2t91.5 -2
h488q23 -67 40 -151q-38 -46 -145.5 -161.5t-235 -250t-165.5 -176.5z" />
    <glyph glyph-name="braceleft" unicode="{" horiz-adv-x="747" 
d="M315 590v-15q69 -18 112.5 -71t43.5 -125q0 -69 -21.5 -188t-21.5 -193q0 -218 244 -215q4 -73 2 -113q-198 0 -319.5 91t-121.5 245q0 81 27.5 203t28.5 172q0 34 -5.5 56t-22.5 42.5t-54 30t-94 8.5q-2 35 -2 115q56 0 93 9.5t54.5 28.5t23.5 39t7 50q0 44 -26 155
t-27 187q0 168 114 261t330 93q4 -62 -2 -113q-137 0 -191.5 -57.5t-54.5 -163.5q0 -69 20.5 -180t20.5 -166q0 -73 -42.5 -120.5t-115.5 -65.5z" />
    <glyph glyph-name="bar" unicode="|" horiz-adv-x="1107" 
d="M483 1536h144v-2048h-144v2048z" />
    <glyph glyph-name="braceright" unicode="}" horiz-adv-x="747" 
d="M432 573v15q-73 19 -114.5 66t-41.5 118q0 56 23 168t23 182q-1 54 -12 92t-38 68t-75.5 44.5t-120.5 14.5q-6 51 -2 113q217 0 329.5 -90.5t112.5 -261.5q0 -77 -27.5 -188.5t-27.5 -153.5q0 -62 35 -94.5t141 -32.5q0 -80 -2 -115q-56 1 -92.5 -8.5t-54 -30t-23.5 -43
t-6 -55.5q0 -52 27.5 -173.5t27.5 -201.5q0 -153 -122 -244.5t-320 -91.5q-2 40 2 113q125 0 185 57t60 156q0 76 -21.5 195.5t-21.5 187.5q0 71 44 123.5t112 70.5z" />
    <glyph glyph-name="asciitilde" unicode="~" horiz-adv-x="1107" 
d="M371 635h2q38 0 77.5 -11t63 -23t66.5 -36q8 -4 32 -17.5t36 -19.5t32 -14.5t37 -12t33 -3.5q41 0 70 40t32 101q45 4 127 0q-2 -122 -68 -212.5t-166 -90.5q-19 0 -39.5 3.5t-36 8t-37 14t-32 14.5t-32.5 17t-29 15q-8 4 -31 17.5t-34.5 19.5t-31.5 14.5t-37.5 12
t-35.5 3.5q-45 0 -76 -38.5t-39 -100.5q-17 -2 -38 -2t-47 1t-40 1q8 127 76.5 213t165.5 86z" />
    <glyph glyph-name="uni00A0" unicode="&#xa0;" horiz-adv-x="454" 
 />
    <glyph glyph-name="exclamdown" unicode="&#xa1;" horiz-adv-x="593" 
d="M160 -461h-2q-2 2 -2 6q5 88 30 445t33 497q24 7 74.5 13t73.5 6q2 -45 15.5 -219t16.5 -219q19 -276 43 -484q-42 -12 -147 -28.5t-135 -16.5zM291 639h-2q-61 0 -96 39t-35 92q0 52 39.5 89.5t97.5 37.5q56 0 94.5 -35.5t38.5 -89.5q0 -55 -38 -94t-99 -39z" />
    <glyph glyph-name="cent" unicode="&#xa2;" horiz-adv-x="1107" 
d="M135 606v2q0 187 120 325t329 171v209q72 13 133 16q0 -33 -1 -105.5t-1 -111.5q6 2 26 2q130 0 236 -49q0 -36 -24.5 -93t-49.5 -71q-125 64 -194 66q-10 -477 -11 -605q111 3 254 62q25 -88 31 -115q-155 -70 -285 -84q0 -41 -1 -117t-1 -110q-20 -2 -62 -6l-63 -6
q0 149 2 231q-65 1 -126.5 15.5t-118.5 45t-99.5 74t-68 109.5t-25.5 145zM356 649v-2q0 -130 66 -207q56 -62 151 -78q1 100 3.5 303.5t3.5 299.5q-98 -18 -161 -111t-63 -205z" />
    <glyph glyph-name="sterling" unicode="&#xa3;" horiz-adv-x="1107" 
d="M719 1339h2q122 0 207 -32q16 -179 22 -324q-21 -3 -45.5 -6t-55 -6.5t-46.5 -5.5l-39 196q-4 22 -16 27q-37 12 -91 12q-79 0 -131 -55q-53 -59 -53 -187q0 -42 27 -258q52 0 350 5q3 -64 -4 -140h-324q0 -13 1 -37.5t1 -33.5q0 -192 -133 -338q-12 -12 -9 -16.5
t21 -4.5q344 0 398 15q25 5 41 43l65 200q59 -9 148 -33q-13 -60 -41 -181t-41 -181q-17 0 -250.5 1t-411.5 1h-284q0 47 4 133l147 6q20 0 31 11q90 97 90 299q0 64 -8 116h-203q0 47 4 129q111 0 166 2q9 0 6 9q-28 168 -28 237q0 185 139 293q134 104 344 104z" />
    <glyph glyph-name="currency" unicode="&#xa4;" horiz-adv-x="1107" 
d="M573 1038h2q120 0 195 -47q136 163 148 178q54 -41 102 -96q-10 -11 -143 -164q43 -46 67.5 -113.5t24.5 -140.5q0 -85 -29.5 -159t-85.5 -123q26 -30 82 -94.5t82 -94.5q-57 -53 -100 -84q-77 90 -166 189q-77 -51 -207 -51q-117 0 -193 43q-77 -89 -166 -185
q-55 45 -96 86q29 32 87 99.5t69 80.5q-45 44 -73 113.5t-28 147.5q0 77 29.5 148.5t79.5 123.5q-36 43 -152 174q57 57 105 94q80 -94 151 -182q87 57 215 57zM561 911h-2q-99 0 -160 -55q-92 -92 -92 -221q0 -137 82 -215q28 -25 73 -40t91 -15q100 0 160 51q94 73 94 231
q0 139 -92 217q-56 47 -154 47z" />
    <glyph glyph-name="yen" unicode="&#xa5;" horiz-adv-x="1107" 
d="M451 143v146q-46 0 -154 -1t-154 -1q0 44 4 110q45 0 147 -1t157 -1v117h-308q0 38 4 104q82 2 269 2q-59 108 -172 312.5t-127 230.5q-7 10 -19 13l-73 4q0 85 2 122h192q56 0 158 1.5t139 1.5q0 -84 -2 -125l-152 -7q40 -84 120 -251.5t120 -251.5h10q128 255 234 491
q2 5 -1 8.5t-9 3.5l-138 5q0 83 2 124h246q28 0 82 1.5t72 1.5q0 -86 -2 -125l-80 -7q-133 -247 -305 -548q47 0 134 1t124 1q2 -38 -2 -113h-307l-3 -115h310q0 -71 -4 -106q-40 0 -147 -1t-159 -1l-2 -156l185 -6q0 -86 -2 -127q-38 0 -136 1t-147 1q-45 0 -141 -1
t-140 -1q0 66 3 125l159 6q13 0 13 12z" />
    <glyph glyph-name="brokenbar" unicode="&#xa6;" horiz-adv-x="1107" 
d="M483 1382h144v-716h-144v716zM483 358h144v-716h-144v716z" />
    <glyph glyph-name="section" unicode="&#xa7;" horiz-adv-x="946" 
d="M846 432v-2q0 -165 -111 -289q47 -61 47 -164q0 -156 -116 -260q-108 -102 -273 -102q-212 0 -354 117q13 39 48.5 79.5t74.5 53.5q47 -47 115.5 -81t134.5 -34q84 0 135 51q45 48 45 125q0 76 -47 125t-180 129q-133 79 -197 164.5t-64 204.5q0 161 123 291
q-61 74 -61 182q0 65 33 128t90 107q108 86 278 86q88 0 166.5 -26.5t130.5 -71.5q-8 -35 -42 -75t-72 -54q-35 35 -101 64.5t-121 29.5q-81 0 -122 -41q-52 -49 -52 -116t45 -110.5t172 -122.5q17 -10 25 -15q124 -77 187 -164.5t63 -208.5zM268 616v-2q0 -45 12.5 -81.5
t41.5 -67.5t57.5 -53t77.5 -54q15 -10 47.5 -31.5t52 -35t44.5 -32t42 -34.5q39 53 39 146q0 83 -43 137t-143 123q-20 14 -57 39.5t-66.5 47t-53.5 42.5q-51 -58 -51 -144z" />
    <glyph glyph-name="dieresis" unicode="&#xa8;" horiz-adv-x="782" 
d="M219 1233h2q49 0 75 -31.5t26 -71.5q0 -43 -28.5 -72.5t-76.5 -29.5q-43 0 -73.5 29t-30.5 73q0 39 28.5 71t77.5 32zM567 1233h2q46 0 74.5 -32t28.5 -71q0 -44 -31 -73t-74 -29q-48 0 -76 29.5t-28 72.5q0 40 26.5 71.5t77.5 31.5z" />
    <glyph glyph-name="copyright" unicode="&#xa9;" horiz-adv-x="1554" 
d="M784 1352h2q189 0 343 -89t240.5 -244.5t86.5 -344.5t-90.5 -348.5t-248.5 -252.5t-347 -93t-343 89t-240.5 244.5t-86.5 345.5q0 141 53.5 269t144.5 221t218 148t268 55zM778 1264h-2q-160 0 -289.5 -82t-200.5 -219.5t-71 -300.5q0 -164 70 -299.5t199.5 -215
t291.5 -79.5q161 0 291.5 82t202 219.5t71.5 300.5q0 164 -70.5 299.5t-200.5 215t-292 79.5zM932 774l-23 129q0 11 -8 19q-26 16 -72 16q-81 0 -135 -51q-92 -89 -92 -242q0 -122 66 -188q60 -60 166 -60q44 0 99 12.5t91 30.5q11 -47 18 -96q-124 -59 -243 -59
q-153 0 -242 69q-58 41 -93.5 111.5t-35.5 155.5q0 200 154 331q56 44 131 67t149 23q108 0 158 -22q12 -142 14 -232q-35 -7 -102 -14z" />
    <glyph glyph-name="ordfeminine" unicode="&#xaa;" horiz-adv-x="780" 
d="M471 696h-6q-121 -67 -223 -67q-64 0 -125.5 48t-61.5 114q0 35 19.5 73t56 72t98.5 56t138 22h98q2 92 -24 134t-87 42q-43 0 -94.5 -27.5t-95.5 -66.5q-40 44 -68 84q155 141 322 141q89 0 156 -66t67 -176q0 -46 -1 -166t-1 -149q0 -19 10 -19l96 5q0 -66 -2 -95
q-120 -26 -221 -26q-27 20 -51 67zM236 811v-2q0 -30 27.5 -48t64.5 -18q64 0 133 48q4 4 4 8v121q-6 2 -53 2q-87 0 -131.5 -30t-44.5 -81z" />
    <glyph glyph-name="guillemotleft" unicode="&#xab;" horiz-adv-x="905" 
d="M287 455q127 -201 198 -303q-39 -42 -79 -72q-134 143 -310 319q-2 33 -2 103q187 187 312 323q50 -37 77 -71q-123 -182 -196 -299zM633 455q101 -159 194 -293q-27 -32 -73 -68q-226 240 -299 314q-2 29 -2 88q100 104 297 317q25 -20 75 -70q-117 -174 -192 -288z" />
    <glyph glyph-name="logicalnot" unicode="&#xac;" horiz-adv-x="1107" 
d="M829 49v387h-708q0 74 6 142q60 0 840 6q8 0 8 -9q0 -83 -2 -268.5t-2 -251.5q-67 -6 -142 -6z" />
    <glyph glyph-name="uni00AD" unicode="&#xad;" horiz-adv-x="696" 
d="M311 424h-2h-239q1 23 2 70t2 69q42 0 124.5 1t123.5 1q51 1 153.5 2t151.5 2q0 -77 -6 -145h-310z" />
    <glyph glyph-name="registered" unicode="&#xae;" horiz-adv-x="999" 
d="M504 1352h2q170 0 282.5 -114.5t112.5 -283.5q0 -168 -117.5 -285.5t-287.5 -117.5q-172 0 -284 112.5t-112 282.5q0 168 117.5 287t286.5 119zM500 1284h-2q-138 0 -228 -97.5t-90 -238.5q0 -142 89.5 -236t228.5 -94t230 96.5t91 237.5t-90 236.5t-229 95.5zM350 801
v301h-41v61q53 2 158 2q77 0 121 -10q42 -10 66 -38.5t24 -61.5q0 -41 -25 -70.5t-63 -42.5v-10q20 -10 34.5 -32t41.5 -77q12 -22 28 -22l29 -2v-60h-131q-9 13 -21.5 39t-26.5 58.5t-20 44.5q-11 20 -45 20h-20v-100l43 -2v-60h-193v60zM459 1104v-141h20q42 0 65 20
t23 53q0 34 -24.5 51t-61.5 17h-22z" />
    <glyph glyph-name="macron" unicode="&#xaf;" horiz-adv-x="782" 
d="M614 1174q3 -61 0 -121q-62 0 -215.5 1t-228.5 1q-3 55 0 114q375 5 444 5z" />
    <glyph glyph-name="degree" unicode="&#xb0;" horiz-adv-x="704" 
d="M354 1341h2q114 0 183 -65.5t69 -169.5t-74 -174t-180 -70q-109 0 -182.5 63.5t-73.5 172.5q0 98 73 170.5t183 72.5zM356 1239h-2q-51 0 -82.5 -40.5t-31.5 -98.5q0 -60 33 -97.5t81 -37.5q54 0 83.5 38t29.5 99q0 63 -28 100t-83 37z" />
    <glyph glyph-name="plusminus" unicode="&#xb1;" horiz-adv-x="1107" 
d="M485 682v309q94 8 150 8q-1 -45 -2 -152.5t-2 -162.5q60 1 181 2t175 2q0 -78 -6 -149h-350q-2 -102 -2 -283q-65 -6 -144 -6v289h-352q0 96 4 141q221 0 348 2zM979 4l-850 -6q0 78 6 143q125 1 425.5 1t422.5 1q0 -53 -4 -139z" />
    <glyph glyph-name="twosuperior" unicode="&#xb2;" 
d="M623 1341v-2q0 -48 -20 -94t-57 -85.5t-66 -65t-68 -54.5q-40 -31 -95 -65l2 -10q37 0 164.5 5t145.5 5q4 0 4 -4q0 -63 -6 -119h-353h-165q-3 11 -13 40.5t-14 45.5q105 67 184 135q38 31 63.5 55.5t54 59t43.5 71t15 74.5q0 51 -30 84q-23 29 -78 29q-56 0 -84 -25
q-6 -3 -6 -12l-21 -115q-20 1 -58 4.5t-56 4.5q5 101 12 204q94 41 233 41q140 0 203 -57q66 -60 66 -150z" />
    <glyph glyph-name="threesuperior" unicode="&#xb3;" 
d="M211 1063l25 -105q2 -6 8 -12q24 -14 71 -14q70 0 99 26q41 26 41 78q0 55 -43 85t-123 30h-76q-2 35 -2 98q231 -3 231 117q0 40 -24 61q-26 23 -82 23q-52 0 -82 -20q-6 -6 -6 -11l-19 -100q-10 1 -51 3t-65 3q4 63 8 182q103 39 237 39q140 0 199 -45q64 -49 64 -112
q0 -124 -152 -166v-9q82 -11 125 -58.5t43 -106.5q0 -102 -90 -158q-78 -55 -244 -55q-115 0 -188 16q-6 42 -23 195q87 13 119 16z" />
    <glyph glyph-name="acute" unicode="&#xb4;" horiz-adv-x="782" 
d="M512 1356q42 -37 109 -117q-50 -38 -163 -125t-169 -129q-21 23 -72 82q47 45 147.5 144.5t147.5 144.5z" />
    <glyph glyph-name="mu" unicode="&#xb5;" horiz-adv-x="1120" 
d="M354 41l-10 -4q1 -73 12 -479q-34 -26 -106 -43t-111 -17q6 289 6 764q0 154 5 559q44 25 114.5 41.5t112.5 16.5q4 0 4 -7q-4 -308 -4 -477q0 -52 0.5 -72.5t8 -55t22.5 -58.5q22 -37 51.5 -51.5t72.5 -14.5q58 0 122.5 42.5t64.5 86.5v547q44 26 115.5 43t113.5 17
q4 0 4 -9q0 -111 -2 -319t-2 -287q0 -133 56 -133q30 0 100 19q13 -73 18 -117q-40 -20 -120.5 -36.5t-163.5 -16.5q-51 37 -99 122l-12 2q-85 -74 -140 -98t-104 -24q-70 0 -129 59z" />
    <glyph glyph-name="mu" unicode="&#x3bc;" horiz-adv-x="1120" 
d="M354 41l-10 -4q1 -73 12 -479q-34 -26 -106 -43t-111 -17q6 289 6 764q0 154 5 559q44 25 114.5 41.5t112.5 16.5q4 0 4 -7q-4 -308 -4 -477q0 -52 0.5 -72.5t8 -55t22.5 -58.5q22 -37 51.5 -51.5t72.5 -14.5q58 0 122.5 42.5t64.5 86.5v547q44 26 115.5 43t113.5 17
q4 0 4 -9q0 -111 -2 -319t-2 -287q0 -133 56 -133q30 0 100 19q13 -73 18 -117q-40 -20 -120.5 -36.5t-163.5 -16.5q-51 37 -99 122l-12 2q-85 -74 -140 -98t-104 -24q-70 0 -129 59z" />
    <glyph glyph-name="paragraph" unicode="&#xb6;" horiz-adv-x="1183" 
d="M995 1198l-6 -1466q-61 -15 -137 -25l-4 1495h-135l-6 -1476q-85 -20 -142 -27l-2 719h-35q-32 0 -86.5 9.5t-95.5 27.5q-118 49 -192 148.5t-74 248.5q0 99 40 185.5t97.5 141t126.5 87.5q133 65 418 65q37 0 364 -6q2 -39 2 -129z" />
    <glyph glyph-name="periodcentered" unicode="&#xb7;" horiz-adv-x="546" 
d="M276 672h3q63 0 98 -41t35 -96q0 -58 -39 -98t-101 -40q-58 0 -98.5 38t-40.5 97q0 55 39 97.5t104 42.5z" />
    <glyph glyph-name="cedilla" unicode="&#xb8;" horiz-adv-x="782" 
d="M307 -150l168 152h131l-143 -135q57 -11 92 -49t35 -92q0 -85 -78 -138.5t-215 -54.5q-5 25 -10 90q157 10 157 94q0 32 -24 56q-28 25 -92 22q-2 3 -21 55z" />
    <glyph glyph-name="onesuperior" unicode="&#xb9;" 
d="M481 948l162 -2v-94h-242h-270q0 61 2 94l176 2q4 0 4 6v424q-88 -17 -180 -35q-12 66 -16 97q58 17 148.5 47t147.5 48.5t68 18.5q2 0 2 -6q0 -90 -1 -297t-1 -303z" />
    <glyph glyph-name="ordmasculine" unicode="&#xba;" horiz-adv-x="815" 
d="M395 629h-2q-145 0 -223 78q-102 96 -102 251q0 86 33.5 161.5t95.5 127.5q92 74 227 74q124 0 201 -57q123 -91 123 -273q0 -96 -37.5 -174.5t-104.5 -126.5q-81 -61 -211 -61zM406 725h2q62 0 100 41q51 59 51 215q0 133 -45 193q-37 51 -100 51q-61 0 -103 -45
q-55 -68 -55 -201q0 -147 51 -207q38 -47 99 -47z" />
    <glyph glyph-name="guillemotright" unicode="&#xbb;" horiz-adv-x="905" 
d="M272 451q-111 173 -190 290q28 36 74 72q34 -36 136.5 -146.5t160.5 -170.5q0 -32 -4 -90q-37 -39 -138.5 -146t-158.5 -168q-20 16 -74 70q101 142 194 289zM616 453q-115 182 -194 301q36 39 76 71q58 -61 313 -323q0 -37 -4 -103q-60 -61 -171.5 -177.5t-137.5 -143.5
q-65 59 -78 74q96 138 196 301z" />
    <glyph glyph-name="onequarter" unicode="&#xbc;" horiz-adv-x="1638" 
d="M510 737l164 -2q0 -15 -1 -47t-1 -47h-242h-270q0 61 2 94l176 2q4 0 4 6v424q-177 -33 -180 -34q-14 71 -17 96q60 17 149 46.5t147 48.5t69 19q2 0 2 -6q0 -90 -1 -297t-1 -303zM526 -35q-66 30 -106 53q144 245 350 603q201 347 416 733q70 -25 117 -56
q-246 -423 -426 -737q-55 -95 -181.5 -309t-169.5 -287zM1401 84l86 -2v-82h-180h-195q0 55 2 80l137 4q6 0 6 4v76h-315q-30 61 -47 102q69 85 162 207q167 206 176 217q62 0 172 -4q0 -62 -1 -204.5t-1 -211.5h125q0 -28 -4 -102h-123v-84zM1260 551h-15
q-52 -71 -110 -145q-16 -22 -48.5 -65t-42.5 -58q-3 -5 -1 -9t8 -4h206z" />
    <glyph glyph-name="onehalf" unicode="&#xbd;" horiz-adv-x="1638" 
d="M487 737l162 -2v-94h-241h-271q0 61 2 94l176 2q4 0 4 6v424q-177 -33 -180 -34q-11 56 -16 96q60 17 148.5 46.5t146.5 48.5t69 19q2 0 2 -6q0 -90 -1 -297t-1 -303zM498 -35q-87 42 -107 53q144 245 350 603q70 120 416 733q70 -27 115 -56q-100 -171 -424 -737
q-56 -97 -182.5 -311.5t-167.5 -284.5zM1513 489v-2q0 -149 -210 -299q-29 -24 -95 -65l2 -10q37 0 164.5 5t145.5 5q4 0 4 -4q0 -63 -6 -119h-353h-166q-2 8 -11.5 38.5t-14.5 47.5q105 67 184 135q38 31 63.5 55.5t54 59t43.5 71t15 74.5q0 51 -30 84q-23 29 -78 29
q-56 0 -84 -25q-6 -3 -6 -12l-21 -115q-20 1 -58.5 4.5t-56.5 4.5q2 33 4 68t5 75t4 61q94 41 233 41q140 0 203 -57q65 -59 65 -150z" />
    <glyph glyph-name="threequarters" unicode="&#xbe;" horiz-adv-x="1638" 
d="M270 852l23 -104q3 -8 8 -13q25 -14 72 -14q65 0 100 27q41 29 41 77q0 56 -43 85.5t-125 29.5h-76q-2 35 -2 98q232 -3 232 117q0 40 -25 62q-22 22 -80 22q-52 0 -82 -20q-6 -6 -6 -11l-20 -100q-20 1 -58 3l-57 3q4 63 8 182q103 39 238 39q141 0 196 -45
q64 -49 64 -112q0 -124 -150 -166v-8q82 -11 125 -59t43 -107q0 -102 -90 -158q-78 -55 -246 -55q-115 0 -188 16q-9 72 -20 195q89 13 118 16zM514 -35q-64 29 -108 53q65 108 190.5 323.5t161.5 276.5q212 376 413 736q70 -25 117 -56q-74 -127 -219 -378.5t-207 -358.5
q-44 -78 -106.5 -185t-136 -231.5t-105.5 -179.5zM1384 84l86 -2v-82h-180h-194q0 55 2 80l137 4q6 0 6 4v76h-313q-30 55 -47 102q23 29 47.5 61t56.5 74t55 72q151 187 177 217q62 0 172 -4q0 -62 -1.5 -205t-1.5 -211h125q0 -28 -4 -102h-123v-84zM1243 551h-14
q-39 -54 -111 -145q-82 -114 -88 -123q-3 -5 -1.5 -9t7.5 -4h205z" />
    <glyph glyph-name="questiondown" unicode="&#xbf;" horiz-adv-x="927" 
d="M504 643h-2q-59 0 -95 38t-36 93q0 48 40 85.5t97 37.5q55 0 95 -34t40 -87q0 -54 -39 -93.5t-100 -39.5zM74 -152v2q0 86 41 162t110.5 137.5t180.5 131.5q47 30 47 57q0 37 -27 147q65 26 152 37q28 -38 58.5 -115.5t31.5 -130.5q-96 -66 -150 -108t-100.5 -92t-65 -99
t-18.5 -110q0 -86 50 -137.5t132 -51.5q77 0 123 35q11 8 14 25l41 172q77 -6 156 -19q-4 -68 -23 -292q-58 -29 -157.5 -48.5t-200.5 -19.5q-186 0 -290.5 90t-104.5 227z" />
    <glyph glyph-name="Agrave" unicode="&#xc0;" horiz-adv-x="1267" 
d="M-23 127l105 6q9 0 12 10q78 202 455 1200q72 5 184 5q73 -201 225 -641.5t199 -573.5l117 -4q0 -86 -2 -129h-215h-295q0 86 2 127l135 6q9 5 4 10q-67 199 -78 226q-3 8 -12 8l-444 -2q-50 -153 -78 -242l153 -4q0 -86 -2 -129h-278h-189q0 86 2 127zM606 1053h-10
q-29 -84 -92 -268t-92 -267q-3 -12 4 -12h370q-83 247 -180 547zM451 1772q147 -105 337 -246q-12 -22 -59 -90q-67 34 -204.5 108.5t-166.5 89.5q51 86 93 138z" />
    <glyph glyph-name="Aacute" unicode="&#xc1;" horiz-adv-x="1267" 
d="M-23 127l105 6q9 0 12 10q78 202 455 1200q72 5 184 5q73 -201 225 -641.5t199 -573.5l117 -4q0 -86 -2 -129h-215h-295q0 86 2 127l135 6q9 5 4 10q-67 199 -78 226q-3 8 -12 8l-444 -2q-50 -153 -78 -242l153 -4q0 -86 -2 -129h-278h-189q0 86 2 127zM606 1053h-10
q-29 -84 -92 -268t-92 -267q-3 -12 4 -12h370q-83 247 -180 547zM817 1772q38 -47 92 -138q-50 -26 -179 -96t-191 -102q-52 75 -60 90q57 42 180.5 131.5t157.5 114.5z" />
    <glyph glyph-name="Acircumflex" unicode="&#xc2;" horiz-adv-x="1267" 
d="M-23 127l105 6q9 0 12 10q78 202 455 1200q72 5 184 5q73 -201 225 -641.5t199 -573.5l117 -4q0 -86 -2 -129h-215h-295q0 86 2 127l135 6q9 5 4 10q-67 199 -78 226q-3 8 -12 8l-444 -2q-50 -153 -78 -242l153 -4q0 -86 -2 -129h-278h-189q0 86 2 127zM606 1053h-10
q-29 -84 -92 -268t-92 -267q-3 -12 4 -12h370q-83 247 -180 547zM651 1593q-153 -94 -239 -149q-32 32 -66 78q198 162 264 217q25 2 80 2q139 -112 264 -215q-25 -40 -67 -82q-51 33 -236 149z" />
    <glyph glyph-name="Atilde" unicode="&#xc3;" horiz-adv-x="1267" 
d="M-23 127l105 6q9 0 12 10q78 202 455 1200q72 5 184 5q73 -201 225 -641.5t199 -573.5l117 -4q0 -86 -2 -129h-215h-295q0 86 2 127l135 6q9 5 4 10q-67 199 -78 226q-3 8 -12 8l-444 -2q-50 -153 -78 -242l153 -4q0 -86 -2 -129h-278h-189q0 86 2 127zM606 1053h-10
q-29 -84 -92 -268t-92 -267q-3 -12 4 -12h370q-83 247 -180 547zM520 1690h2q58 0 148 -54q4 -2 14.5 -8l14 -8t12.5 -6.5l13 -6.5t11.5 -5.5t12.5 -4.5t11.5 -3t12.5 -2.5t12 -0.5q30 0 50.5 26t23.5 66q46 3 96 0q-3 -94 -48 -161.5t-128 -67.5q-25 0 -53 10t-41 17.5
t-47 27.5q-6 3 -21.5 11.5t-21.5 11.5t-18 8.5t-19.5 7.5t-18.5 4t-22 2q-29 0 -51.5 -25t-26.5 -65q-47 -3 -94 0q3 91 53 158.5t123 67.5z" />
    <glyph glyph-name="Adieresis" unicode="&#xc4;" horiz-adv-x="1267" 
d="M-23 127l105 6q9 0 12 10q78 202 455 1200q72 5 184 5q73 -201 225 -641.5t199 -573.5l117 -4q0 -86 -2 -129h-215h-295q0 86 2 127l135 6q9 5 4 10q-67 199 -78 226q-3 8 -12 8l-444 -2q-50 -153 -78 -242l153 -4q0 -86 -2 -129h-278h-189q0 86 2 127zM606 1053h-10
q-29 -84 -92 -268t-92 -267q-3 -12 4 -12h370q-83 247 -180 547zM461 1671h2q47 0 73.5 -31.5t26.5 -70.5q0 -44 -29 -74.5t-77 -30.5q-43 0 -74 30t-31 75q0 39 28.5 70.5t80.5 31.5zM838 1671h2q49 0 76.5 -31.5t27.5 -70.5q0 -45 -30 -75t-72 -30q-49 0 -79 30.5
t-30 74.5q0 40 27.5 71t77.5 31z" />
    <glyph glyph-name="Aring" unicode="&#xc5;" horiz-adv-x="1267" 
d="M-23 127l105 6q9 0 12 10q78 202 455 1200q72 5 184 5q73 -201 225 -641.5t199 -573.5l117 -4q0 -86 -2 -129h-215h-295q0 86 2 127l135 6q9 5 4 10q-67 199 -78 226q-3 8 -12 8l-444 -2q-50 -153 -78 -242l153 -4q0 -86 -2 -129h-278h-189q0 86 2 127zM606 1053h-10
q-29 -84 -92 -268t-92 -267q-3 -12 4 -12h370q-83 247 -180 547zM639 1812h2q98 0 159.5 -53t61.5 -135q0 -83 -64.5 -137.5t-158.5 -54.5q-97 0 -160 50t-63 138q0 75 64 133.5t159 58.5zM641 1724h-2q-44 0 -72 -30t-28 -74t29.5 -72t72.5 -28q45 0 70.5 28.5t25.5 73.5
t-25.5 73.5t-70.5 28.5z" />
    <glyph glyph-name="AE" unicode="&#xc6;" horiz-adv-x="1792" 
d="M877 535l-371 -3q-28 -53 -72.5 -136t-78.5 -146.5t-60 -114.5l164 -8q0 -84 -2 -127h-301h-189q0 86 2 127l115 8q10 0 14 8q99 167 339.5 581t350.5 599q5 8 15 8h248h413h189q12 -162 18 -332q-72 -10 -145 -16l-35 168q-3 32 -43 37q-97 10 -274 10h-44l-2 -520
q23 0 254 6q38 0 41 39l13 90q98 0 141 -2q0 -31 -1 -99t-1 -104q-2 -63 -2 -178q-90 -4 -143 -4l-7 82q-1 23 -11 31t-32 8q-76 2 -252 2l-2 -373q0 -28 18 -35.5t93 -7.5q192 0 246 14q27 5 39 39l55 158q89 -14 145 -27q-27 -154 -65 -319q-96 2 -645 2h-279q0 86 2 127
l146 6q8 0 8 8v385q0 9 -12 9zM889 1194h-10q-103 -171 -299 -522q-6 -13 4 -13h305v535z" />
    <glyph glyph-name="Ccedilla" unicode="&#xc7;" horiz-adv-x="1220" 
d="M551 -164l154 146h-15q-97 0 -196 31t-175 89q-102 76 -163.5 203.5t-61.5 282.5q0 202 76.5 354t200.5 252q100 81 225.5 119.5t253.5 38.5q175 0 266 -37q17 -216 25 -377q-42 -7 -158 -20l-41 217q-3 23 -14 28q-50 33 -137 33q-160 0 -271 -111q-164 -170 -164 -440
q0 -134 28.5 -225t94.5 -160q53 -57 132.5 -87t166.5 -30q76 0 176 20t168 44q20 -70 29 -141q-151 -57 -299 -76l-135 -133q74 -10 111.5 -48t37.5 -96q0 -87 -86 -146t-233 -59q-11 42 -15 93q175 7 175 96q0 37 -29 59q-32 23 -105 23q-10 25 -22 57z" />
    <glyph glyph-name="Egrave" unicode="&#xc8;" horiz-adv-x="1159" 
d="M104 127l125 6q9 0 9 8v1057l-138 4q0 47 4 129h250h465h187q12 -164 18 -332q-18 -2 -68 -8t-77 -8l-33 170q-7 30 -45 35q-108 10 -279 10h-43l-2 -455q43 1 129 2.5t133 2.5q19 0 27.5 9t11.5 29l10 91q78 0 142 -3q-1 -32 -2 -100t-2 -102v-195q-90 -4 -142 -4l-8 96
q-1 23 -11 32t-32 9q-159 4 -256 2l-2 -436q0 -28 18 -35.5t93 -7.5q198 0 252 14q27 5 39 39l63 179q55 -9 145 -29q-51 -245 -73 -338q-98 2 -652 2h-258q0 86 2 127zM432 1772q179 -128 338 -246q-12 -22 -59 -90q-67 34 -204.5 108.5t-166.5 89.5q54 91 92 138z" />
    <glyph glyph-name="Eacute" unicode="&#xc9;" horiz-adv-x="1159" 
d="M104 127l125 6q9 0 9 8v1057l-138 4q0 47 4 129h250h465h187q12 -164 18 -332q-18 -2 -68 -8t-77 -8l-33 170q-7 30 -45 35q-108 10 -279 10h-43l-2 -455q43 1 129 2.5t133 2.5q19 0 27.5 9t11.5 29l10 91q78 0 142 -3q-1 -32 -2 -100t-2 -102v-195q-90 -4 -142 -4l-8 96
q-1 23 -11 32t-32 9q-159 4 -256 2l-2 -436q0 -28 18 -35.5t93 -7.5q198 0 252 14q27 5 39 39l63 179q55 -9 145 -29q-51 -245 -73 -338q-98 2 -652 2h-258q0 86 2 127zM784 1772q42 -52 93 -138q-49 -26 -179 -96t-192 -102q-52 75 -60 90q57 42 180.5 131.5t157.5 114.5z
" />
    <glyph glyph-name="Ecircumflex" unicode="&#xca;" horiz-adv-x="1159" 
d="M104 127l125 6q9 0 9 8v1057l-138 4q0 47 4 129h250h465h187q12 -164 18 -332q-18 -2 -68 -8t-77 -8l-33 170q-7 30 -45 35q-108 10 -279 10h-43l-2 -455q43 1 129 2.5t133 2.5q19 0 27.5 9t11.5 29l10 91q78 0 142 -3q-1 -32 -2 -100t-2 -102v-195q-90 -4 -142 -4l-8 96
q-1 23 -11 32t-32 9q-159 4 -256 2l-2 -436q0 -28 18 -35.5t93 -7.5q198 0 252 14q27 5 39 39l63 179q55 -9 145 -29q-51 -245 -73 -338q-98 2 -652 2h-258q0 86 2 127zM584 1595q-174 -107 -240 -149q-28 28 -65 78q198 162 264 217q25 2 80 2q139 -112 264 -215
q-23 -37 -68 -82q-94 60 -235 149z" />
    <glyph glyph-name="Edieresis" unicode="&#xcb;" horiz-adv-x="1159" 
d="M104 127l125 6q9 0 9 8v1057l-138 4q0 47 4 129h250h465h187q12 -164 18 -332q-18 -2 -68 -8t-77 -8l-33 170q-7 30 -45 35q-108 10 -279 10h-43l-2 -455q43 1 129 2.5t133 2.5q19 0 27.5 9t11.5 29l10 91q78 0 142 -3q-1 -32 -2 -100t-2 -102v-195q-90 -4 -142 -4l-8 96
q-1 23 -11 32t-32 9q-159 4 -256 2l-2 -436q0 -28 18 -35.5t93 -7.5q198 0 252 14q27 5 39 39l63 179q55 -9 145 -29q-51 -245 -73 -338q-98 2 -652 2h-258q0 86 2 127zM389 1673h2q48 0 74.5 -31.5t26.5 -70.5q0 -44 -29.5 -74.5t-77.5 -30.5q-43 0 -73.5 30t-30.5 75
q0 40 28 71t80 31zM766 1673h2q49 0 76.5 -31.5t27.5 -70.5q0 -45 -30 -75t-72 -30q-49 0 -78.5 30.5t-29.5 74.5q0 40 27 71t77 31z" />
    <glyph glyph-name="Igrave" unicode="&#xcc;" horiz-adv-x="712" 
d="M238 1196l-146 6q0 88 2 129q38 0 135 -1t142 -1t136.5 1t129.5 1q0 -88 -2 -129l-148 -6q-4 0 -4 -8l-6 -1051l158 -6q2 -44 -2 -131q-36 0 -130 1t-141 1q-43 0 -135.5 -1t-134.5 -1q0 88 2 129l137 6q7 0 7 8v1053zM193 1772q147 -105 337 -246q-12 -22 -59 -90
q-67 34 -204.5 108.5t-166.5 89.5q51 86 93 138z" />
    <glyph glyph-name="Iacute" unicode="&#xcd;" horiz-adv-x="712" 
d="M238 1196l-146 6q0 88 2 129q38 0 135 -1t142 -1t136.5 1t129.5 1q0 -88 -2 -129l-148 -6q-4 0 -4 -8l-6 -1051l158 -6q2 -44 -2 -131q-36 0 -130 1t-141 1q-43 0 -135.5 -1t-134.5 -1q0 88 2 129l137 6q7 0 7 8v1053zM539 1772q38 -47 92 -138q-49 -26 -179 -96
t-192 -102q-47 68 -59 90q57 42 180.5 131.5t157.5 114.5z" />
    <glyph glyph-name="Icircumflex" unicode="&#xce;" horiz-adv-x="712" 
d="M238 1196l-146 6q0 88 2 129q38 0 135 -1t142 -1t136.5 1t129.5 1q0 -88 -2 -129l-148 -6q-4 0 -4 -8l-6 -1051l158 -6q2 -44 -2 -131q-36 0 -130 1t-141 1q-43 0 -135.5 -1t-134.5 -1q0 88 2 129l137 6q7 0 7 8v1053zM369 1595q-174 -107 -240 -149q-32 32 -66 78
q253 207 265 217q25 2 80 2q139 -112 264 -215q-23 -37 -68 -82q-94 60 -235 149z" />
    <glyph glyph-name="Idieresis" unicode="&#xcf;" horiz-adv-x="712" 
d="M238 1196l-146 6q0 88 2 129q38 0 135 -1t142 -1t136.5 1t129.5 1q0 -88 -2 -129l-148 -6q-4 0 -4 -8l-6 -1051l158 -6q2 -44 -2 -131q-36 0 -130 1t-141 1q-43 0 -135.5 -1t-134.5 -1q0 88 2 129l137 6q7 0 7 8v1053zM184 1673h2q48 0 74.5 -31.5t26.5 -70.5
q0 -44 -29.5 -74.5t-77.5 -30.5q-43 0 -73.5 30t-30.5 75q0 40 28 71t80 31zM561 1673h2q49 0 77 -31.5t28 -70.5q0 -45 -30.5 -75t-72.5 -30q-49 0 -78.5 30.5t-29.5 74.5q0 40 27 71t77 31z" />
    <glyph glyph-name="Eth" unicode="&#xd0;" horiz-adv-x="1468" 
d="M272 727l2 469l-139 4q0 23 1 66t1 63q258 4 453 4q176 0 288.5 -24t202.5 -76q130 -74 211.5 -216.5t81.5 -303.5q0 -198 -73.5 -348t-200.5 -244q-170 -123 -467 -123q-40 0 -127.5 1t-114.5 1q-39 0 -127.5 -1t-128.5 -1q0 20 1 63t1 64l127 6q8 0 8 10v449h-166
q0 84 5 135q53 2 161 2zM514 590l-2 -408q0 -34 22 -46.5t89 -12.5q218 0 344 113q70 64 109.5 175.5t39.5 229.5q0 164 -39 266.5t-127 186.5q-123 114 -342 114q-69 0 -90 -8l-4 -471q49 0 154.5 1t165.5 1q0 -44 -9 -141h-311z" />
    <glyph glyph-name="Ntilde" unicode="&#xd1;" horiz-adv-x="1466" 
d="M90 129l119 6q8 0 8 8l-2 1055l-137 4q0 88 2 127h338q306 -446 672 -1014l12 2q-4 590 -8 881l-174 2q0 22 1 65.5t1 63.5h260q37 0 107 1t97 1q1 -18 1 -39.5t-0.5 -47.5t-0.5 -40l-110 -6q-6 0 -6 -10l-8 -1176q-66 -28 -168 -28q-378 500 -695 979h-14
q0 -140 -1 -415t-1 -413l182 -4q0 -20 -1 -64.5t-1 -66.5q-41 0 -136.5 1t-143.5 1q-35 0 -101.5 -1t-93.5 -1q0 88 2 129zM637 1690h2q27 0 55 -9t45 -18t47 -27q3 -2 9 -5q72 -40 106 -40q30 0 50.5 26t23.5 66q46 3 96 0q-3 -94 -48 -161.5t-128 -67.5q-25 0 -53 10
t-41 17.5t-47 27.5q-6 3 -21.5 11.5t-21.5 11.5t-18 8.5t-19.5 7.5t-18.5 4t-22 2q-29 0 -51.5 -25t-26.5 -65q-47 -3 -94 0q3 91 53 158.5t123 67.5z" />
    <glyph glyph-name="Ograve" unicode="&#xd2;" horiz-adv-x="1484" 
d="M713 -20h-2q-131 0 -243 45.5t-189 124.5q-185 188 -185 503q0 191 83 346.5t210 239.5q177 113 397 113q198 0 351 -103q116 -78 185 -224.5t69 -322.5q0 -160 -54.5 -306t-158.5 -246q-176 -170 -463 -170zM748 113h2q156 0 247 108q127 154 127 436q0 285 -118 439
q-92 123 -250 123q-152 0 -246 -99q-66 -66 -108 -181.5t-42 -266.5q0 -156 30.5 -264t98.5 -183q101 -112 259 -112zM598 1778q179 -128 338 -246q-12 -22 -59 -90q-67 34 -204.5 108.5t-166.5 89.5q54 91 92 138z" />
    <glyph glyph-name="Oacute" unicode="&#xd3;" horiz-adv-x="1484" 
d="M713 -20h-2q-131 0 -243 45.5t-189 124.5q-185 188 -185 503q0 191 83 346.5t210 239.5q177 113 397 113q198 0 351 -103q116 -78 185 -224.5t69 -322.5q0 -160 -54.5 -306t-158.5 -246q-176 -170 -463 -170zM748 113h2q156 0 247 108q127 154 127 436q0 285 -118 439
q-92 123 -250 123q-152 0 -246 -99q-66 -66 -108 -181.5t-42 -266.5q0 -156 30.5 -264t98.5 -183q101 -112 259 -112zM956 1778q42 -52 93 -138q-49 -26 -179 -96t-192 -102q-52 75 -60 90q57 42 180.5 131.5t157.5 114.5z" />
    <glyph glyph-name="Ocircumflex" unicode="&#xd4;" horiz-adv-x="1484" 
d="M713 -20h-2q-131 0 -243 45.5t-189 124.5q-185 188 -185 503q0 191 83 346.5t210 239.5q177 113 397 113q198 0 351 -103q116 -78 185 -224.5t69 -322.5q0 -160 -54.5 -306t-158.5 -246q-176 -170 -463 -170zM748 113h2q156 0 247 108q127 154 127 436q0 285 -118 439
q-92 123 -250 123q-152 0 -246 -99q-66 -66 -108 -181.5t-42 -266.5q0 -156 30.5 -264t98.5 -183q101 -112 259 -112zM778 1595q-153 -94 -239 -149q-32 32 -66 78q198 162 264 217q25 2 80 2q139 -112 264 -215q-25 -40 -67 -82q-51 33 -236 149z" />
    <glyph glyph-name="Otilde" unicode="&#xd5;" horiz-adv-x="1484" 
d="M713 -20h-2q-131 0 -243 45.5t-189 124.5q-185 188 -185 503q0 191 83 346.5t210 239.5q177 113 397 113q198 0 351 -103q116 -78 185 -224.5t69 -322.5q0 -160 -54.5 -306t-158.5 -246q-176 -170 -463 -170zM748 113h2q156 0 247 108q127 154 127 436q0 285 -118 439
q-92 123 -250 123q-152 0 -246 -99q-66 -66 -108 -181.5t-42 -266.5q0 -156 30.5 -264t98.5 -183q101 -112 259 -112zM649 1696h2q58 0 148 -54q4 -2 14.5 -8l14 -8t12.5 -6.5l13 -6.5t11.5 -5.5t12.5 -4.5t11.5 -3t12.5 -2.5t12 -0.5q30 0 50.5 26.5t23.5 66.5q46 3 96 0
q-3 -94 -48 -162t-128 -68q-9 0 -17 1t-17 3.5t-15.5 4t-16.5 6t-15 6.5t-15.5 8.5t-14 8.5t-15.5 9t-15 9q-6 3 -21.5 11.5t-21.5 11.5t-18 8.5t-19.5 7.5t-18.5 4t-22 2q-29 0 -51.5 -25.5t-26.5 -65.5q-47 -3 -94 0q3 91 53 158.5t123 67.5z" />
    <glyph glyph-name="Odieresis" unicode="&#xd6;" horiz-adv-x="1484" 
d="M713 -20h-2q-131 0 -243 45.5t-189 124.5q-185 188 -185 503q0 191 83 346.5t210 239.5q177 113 397 113q198 0 351 -103q116 -78 185 -224.5t69 -322.5q0 -160 -54.5 -306t-158.5 -246q-176 -170 -463 -170zM748 113h2q156 0 247 108q127 154 127 436q0 285 -118 439
q-92 123 -250 123q-152 0 -246 -99q-66 -66 -108 -181.5t-42 -266.5q0 -156 30.5 -264t98.5 -183q101 -112 259 -112zM592 1673h2q47 0 73.5 -31.5t26.5 -70.5q0 -44 -29 -74.5t-77 -30.5q-43 0 -74 30t-31 75q0 39 28.5 70.5t80.5 31.5zM969 1673h2q49 0 76.5 -31.5
t27.5 -70.5q0 -45 -30 -75t-72 -30q-49 0 -79 30.5t-30 74.5q0 40 27.5 71t77.5 31z" />
    <glyph glyph-name="multiply" unicode="&#xd7;" horiz-adv-x="1107" 
d="M657 479q69 -71 193 -200.5t131 -137.5q-37 -42 -98 -96q-16 17 -328 334l-332 -332q-66 61 -96 94q157 161 326 338q-71 73 -301 303q49 55 110 109q88 -93 293 -303q142 145 301 311q60 -47 111 -108q-199 -199 -310 -312z" />
    <glyph glyph-name="Oslash" unicode="&#xd8;" horiz-adv-x="1484" 
d="M791 1352h2q194 0 356 -115q22 26 68 78l69 78q37 -28 111 -97q-24 -27 -73 -80.5t-73 -80.5q61 -75 100.5 -194t39.5 -239q0 -160 -55 -304.5t-154 -243.5q-180 -174 -467 -174q-222 0 -373 116q-44 -49 -166 -180q-47 39 -96 88q116 128 168 184q-152 174 -152 467
q0 191 82.5 345.5t214.5 240.5q89 58 183.5 84.5t214.5 26.5zM758 1219h-2q-157 0 -256 -105q-152 -164 -152 -465q0 -194 58 -297q159 192 299 353q55 67 319 378q-43 64 -111 100t-155 36zM748 113h2q165 0 256 110q131 157 131 455q0 176 -52 280q-51 -59 -303 -358
q-53 -60 -172.5 -197t-138.5 -159q47 -60 120.5 -95.5t156.5 -35.5z" />
    <glyph glyph-name="Ugrave" unicode="&#xd9;" horiz-adv-x="1376" 
d="M438 1198l-4 -651q-1 -129 18.5 -200t61.5 -126q75 -90 211 -90q72 0 118 22.5t85 63.5q39 40 62.5 127t23.5 207q0 446 -2 639q0 6 -8 6l-160 6q0 20 1 63t1 64h254q40 0 116 1t109 1q0 -86 -2 -129l-117 -6l-4 -631q-3 -306 -147 -454q-127 -131 -350 -131
q-247 0 -375 120q-81 77 -110.5 183.5t-29.5 251.5v651q0 12 -10 12l-110 4q0 88 2 129q35 0 120.5 -1t126.5 -1q51 0 147 1t138 1q0 -88 -2 -129zM578 1772q147 -105 337 -246q-12 -22 -59 -90q-67 34 -204.5 108.5t-166.5 89.5q51 86 93 138z" />
    <glyph glyph-name="Uacute" unicode="&#xda;" horiz-adv-x="1376" 
d="M438 1198l-4 -651q-1 -129 18.5 -200t61.5 -126q75 -90 211 -90q72 0 118 22.5t85 63.5q39 40 62.5 127t23.5 207q0 446 -2 639q0 6 -8 6l-160 6q0 20 1 63t1 64h254q40 0 116 1t109 1q0 -86 -2 -129l-117 -6l-4 -631q-3 -306 -147 -454q-127 -131 -350 -131
q-247 0 -375 120q-81 77 -110.5 183.5t-29.5 251.5v651q0 12 -10 12l-110 4q0 88 2 129q35 0 120.5 -1t126.5 -1q51 0 147 1t138 1q0 -88 -2 -129zM920 1772q38 -47 92 -138q-49 -26 -179 -96t-192 -102q-47 68 -59 90q57 42 180.5 131.5t157.5 114.5z" />
    <glyph glyph-name="Ucircumflex" unicode="&#xdb;" horiz-adv-x="1376" 
d="M438 1198l-4 -651q-1 -129 18.5 -200t61.5 -126q75 -90 211 -90q72 0 118 22.5t85 63.5q39 40 62.5 127t23.5 207q0 446 -2 639q0 6 -8 6l-160 6q0 20 1 63t1 64h254q40 0 116 1t109 1q0 -86 -2 -129l-117 -6l-4 -631q-3 -306 -147 -454q-127 -131 -350 -131
q-247 0 -375 120q-81 77 -110.5 183.5t-29.5 251.5v651q0 12 -10 12l-110 4q0 88 2 129q35 0 120.5 -1t126.5 -1q51 0 147 1t138 1q0 -88 -2 -129zM737 1595q-153 -94 -239 -149q-32 32 -66 78q198 162 264 217q25 2 80 2q139 -112 264 -215q-25 -40 -67 -82
q-51 33 -236 149z" />
    <glyph glyph-name="Udieresis" unicode="&#xdc;" horiz-adv-x="1376" 
d="M438 1198l-4 -651q-1 -129 18.5 -200t61.5 -126q75 -90 211 -90q72 0 118 22.5t85 63.5q39 40 62.5 127t23.5 207q0 446 -2 639q0 6 -8 6l-160 6q0 20 1 63t1 64h254q40 0 116 1t109 1q0 -86 -2 -129l-117 -6l-4 -631q-3 -306 -147 -454q-127 -131 -350 -131
q-247 0 -375 120q-81 77 -110.5 183.5t-29.5 251.5v651q0 12 -10 12l-110 4q0 88 2 129q35 0 120.5 -1t126.5 -1q51 0 147 1t138 1q0 -88 -2 -129zM549 1673h2q47 0 73.5 -31.5t26.5 -70.5q0 -44 -29 -74.5t-77 -30.5q-43 0 -74 30t-31 75q0 39 28.5 70.5t80.5 31.5z
M926 1673h2q49 0 76.5 -31.5t27.5 -70.5q0 -45 -30 -75t-72 -30q-49 0 -79 30.5t-30 74.5q0 40 27.5 71t77.5 31z" />
    <glyph glyph-name="Yacute" unicode="&#xdd;" horiz-adv-x="1204" 
d="M322 129l147 6q10 0 10 10v361q-83 147 -373 682q-4 8 -10 8l-96 6q0 88 2 127h225q58 0 167 1t153 1q0 -88 -2 -129l-158 -8q93 -206 262 -535h10q179 327 265 527q1 3 -1 5.5t-5 2.5l-144 6q0 88 2 129h271q31 0 92 1t86 1q0 -88 -2 -129l-99 -6q-38 -64 -184.5 -317
t-218.5 -369l-2 -373l172 -6q0 -88 -2 -131q-38 0 -137.5 1t-149.5 1q-44 0 -141 -1t-142 -1q0 68 3 129zM874 1772q42 -52 93 -138q-49 -26 -179 -96t-192 -102q-47 68 -59 90q59 44 190.5 139.5t146.5 106.5z" />
    <glyph glyph-name="Thorn" unicode="&#xde;" horiz-adv-x="1196" 
d="M236 141v1057l-130 4q0 67 3 129h268h256q0 -82 -2 -121l-150 -6q-8 0 -8 -8v-127h90q173 0 287 -31q123 -36 195.5 -129t72.5 -207q0 -125 -68.5 -222.5t-170.5 -141.5q-125 -57 -301 -57h-109v-150l184 -4q0 -86 -2 -127h-305h-240q0 66 3 127l118 6q9 0 9 8zM473 934
l-4 -506q7 -18 98 -18q129 0 205 53q100 69 100 219q0 122 -82.5 191t-224.5 69q-68 0 -92 -8z" />
    <glyph glyph-name="germandbls" unicode="&#xdf;" horiz-adv-x="1280" 
d="M45 866l131 4q12 0 12 15q2 154 36 241.5t124 157.5q161 123 348 123q134 0 232 -82q57 -52 85.5 -141.5t18.5 -210.5q-106 -78 -133 -101q-76 -66 -76 -129q0 -54 32.5 -81t129.5 -68q123 -48 175 -116t52 -163q0 -173 -141 -268q-46 -31 -121 -49t-155 -18
q-101 0 -195 24q-25 215 -29 256q63 15 129 25l29 -127q3 -17 19 -23q39 -22 86 -22q69 0 108 32q47 35 47 111q0 63 -32 97t-140 79q-107 42 -150.5 104t-43.5 150q0 19 3 36.5t12 35.5t14.5 30t20 30t20 25t23 26t19.5 22q70 74 80 86q6 81 -15.5 143t-56.5 94
q-49 46 -120 46q-91 0 -148 -64q-32 -37 -42.5 -103t-12.5 -216q0 -101 -1 -368t-1 -380l55 -4q0 -21 -1 -62t-1 -61h-168q-36 0 -116 -1t-115 -1q0 82 2 123l110 6q9 0 9 10q0 303 -3 592h-149q0 53 4 135z" />
    <glyph glyph-name="agrave" unicode="&#xe0;" horiz-adv-x="989" 
d="M608 72h-10q-178 -92 -299 -92q-84 0 -165 65t-81 152q0 45 25.5 93.5t74.5 93t134 73t190 28.5h125q5 126 -31.5 185t-119.5 59q-110 0 -252 -127q-47 53 -86 107q100 88 199 138t220 50q123 0 208 -87t85 -235q0 -60 -2 -220.5t-2 -200.5q0 -28 15 -25l125 4v-121
q-30 -10 -114.5 -21t-166.5 -11q-19 17 -72 92zM287 221v-2q0 -40 35.5 -67t83.5 -27q92 0 190 68q4 4 4 14v162q-1 0 -30.5 1t-53.5 1q-115 0 -172 -42.5t-57 -107.5zM365 1358q33 -33 134.5 -136.5t151.5 -152.5q-35 -44 -73 -82q-236 188 -322 254q59 70 109 117z" />
    <glyph glyph-name="aacute" unicode="&#xe1;" horiz-adv-x="989" 
d="M608 72h-10q-178 -92 -299 -92q-84 0 -165 65t-81 152q0 45 25.5 93.5t74.5 93t134 73t190 28.5h125q5 126 -31.5 185t-119.5 59q-110 0 -252 -127q-47 53 -86 107q100 88 199 138t220 50q123 0 208 -87t85 -235q0 -60 -2 -220.5t-2 -200.5q0 -28 15 -25l125 4v-121
q-30 -10 -114.5 -21t-166.5 -11q-19 17 -72 92zM287 221v-2q0 -40 35.5 -67t83.5 -27q92 0 190 68q4 4 4 14v162q-1 0 -30.5 1t-53.5 1q-115 0 -172 -42.5t-57 -107.5zM674 1356q37 -34 108 -117q-51 -39 -163.5 -126t-167.5 -128q-21 23 -72 82q47 45 147.5 144.5
t147.5 144.5z" />
    <glyph glyph-name="acircumflex" unicode="&#xe2;" horiz-adv-x="989" 
d="M608 72h-10q-178 -92 -299 -92q-84 0 -165 65t-81 152q0 45 25.5 93.5t74.5 93t134 73t190 28.5h125q5 126 -31.5 185t-119.5 59q-110 0 -252 -127q-47 53 -86 107q100 88 199 138t220 50q123 0 208 -87t85 -235q0 -60 -2 -220.5t-2 -200.5q0 -28 15 -25l125 4v-121
q-30 -10 -114.5 -21t-166.5 -11q-19 17 -72 92zM287 221v-2q0 -40 35.5 -67t83.5 -27q92 0 190 68q4 4 4 14v162q-1 0 -30.5 1t-53.5 1q-115 0 -172 -42.5t-57 -107.5zM500 1174q-33 -30 -201 -193q-31 25 -78 68q29 34 110 128.5t120 139.5q33 2 98 2q38 -42 119.5 -139
t109.5 -129q-53 -53 -76 -70q-148 143 -202 193z" />
    <glyph glyph-name="atilde" unicode="&#xe3;" horiz-adv-x="989" 
d="M608 72h-10q-178 -92 -299 -92q-84 0 -165 65t-81 152q0 45 25.5 93.5t74.5 93t134 73t190 28.5h125q5 126 -31.5 185t-119.5 59q-110 0 -252 -127q-47 53 -86 107q100 88 199 138t220 50q123 0 208 -87t85 -235q0 -60 -2 -220.5t-2 -200.5q0 -28 15 -25l125 4v-121
q-30 -10 -114.5 -21t-166.5 -11q-19 17 -72 92zM287 221v-2q0 -40 35.5 -67t83.5 -27q92 0 190 68q4 4 4 14v162q-1 0 -30.5 1t-53.5 1q-115 0 -172 -42.5t-57 -107.5zM365 1257h2q14 0 28.5 -3t25 -6.5t25.5 -12.5t21.5 -13t23.5 -15.5t21 -14.5q5 -3 20 -14t20.5 -14
t17 -9t21.5 -8t21 -2q56 0 68 104q49 3 92 0q-5 -104 -44 -168.5t-120 -64.5q-24 0 -50 10t-40 19.5t-43 29.5q-6 4 -23.5 16t-24 16.5t-19.5 11t-23.5 9t-22.5 2.5q-56 0 -73 -104h-92q8 102 49.5 166.5t118.5 64.5z" />
    <glyph glyph-name="adieresis" unicode="&#xe4;" horiz-adv-x="989" 
d="M608 72h-10q-178 -92 -299 -92q-84 0 -165 65t-81 152q0 45 25.5 93.5t74.5 93t134 73t190 28.5h125q5 126 -31.5 185t-119.5 59q-110 0 -252 -127q-47 53 -86 107q100 88 199 138t220 50q123 0 208 -87t85 -235q0 -60 -2 -220.5t-2 -200.5q0 -28 15 -25l125 4v-121
q-30 -10 -114.5 -21t-166.5 -11q-19 17 -72 92zM287 221v-2q0 -40 35.5 -67t83.5 -27q92 0 190 68q4 4 4 14v162q-1 0 -30.5 1t-53.5 1q-115 0 -172 -42.5t-57 -107.5zM315 1231h2q49 0 75 -31.5t26 -71.5q0 -43 -28.5 -72.5t-76.5 -29.5q-43 0 -73.5 29t-30.5 73
q0 39 28.5 71t77.5 32zM664 1231h2q46 0 74 -32t28 -71q0 -44 -30.5 -73t-73.5 -29q-48 0 -76.5 29.5t-28.5 72.5q0 40 27 71.5t78 31.5z" />
    <glyph glyph-name="aring" unicode="&#xe5;" horiz-adv-x="989" 
d="M608 72h-10q-178 -92 -299 -92q-84 0 -165 65t-81 152q0 45 25.5 93.5t74.5 93t134 73t190 28.5h125q5 126 -31.5 185t-119.5 59q-110 0 -252 -127q-47 53 -86 107q100 88 199 138t220 50q123 0 208 -87t85 -235q0 -60 -2 -220.5t-2 -200.5q0 -28 15 -25l125 4v-121
q-30 -10 -114.5 -21t-166.5 -11q-19 17 -72 92zM287 221v-2q0 -40 35.5 -67t83.5 -27q92 0 190 68q4 4 4 14v162q-1 0 -30.5 1t-53.5 1q-115 0 -172 -42.5t-57 -107.5zM502 1384h2q94 0 152.5 -51.5t58.5 -130.5q0 -82 -61.5 -137t-153.5 -55t-154.5 51.5t-62.5 136.5
q0 72 63.5 129t155.5 57zM502 1298h-2q-43 0 -71 -30t-28 -72t29.5 -71t71.5 -29q47 0 71.5 28.5t24.5 73.5t-25 72.5t-71 27.5z" />
    <glyph glyph-name="ae" unicode="&#xe6;" horiz-adv-x="1474" 
d="M688 109h-14q-206 -129 -379 -129q-79 0 -160.5 65t-81.5 150q0 45 26 94t75 93.5t134 73.5t189 29h123q3 126 -31.5 185t-115.5 59q-58 0 -124.5 -35.5t-127.5 -91.5q-35 38 -86 107q99 88 195 138t202 50q168 0 225 -160h11q109 160 313 160q167 0 254 -104
q90 -109 90 -289q-4 -20 -38.5 -55t-49.5 -37q-90 -6 -488 -6q3 -138 64 -205q36 -39 81 -53.5t107 -14.5q119 0 275 62q22 -70 30 -125q-86 -41 -185 -65.5t-169 -24.5q-113 0 -201 34.5t-143 94.5zM1028 770h-2q-79 0 -127 -57q-61 -79 -65 -185q237 0 329 4q23 0 23 23
q0 94 -43 154q-41 61 -115 61zM410 123h2q51 0 112 24t101 54q9 6 6 14q-25 69 -31 154q-2 0 -12.5 0.5t-28.5 1t-39 0.5q-116 0 -173.5 -41t-57.5 -107q0 -43 35 -71.5t86 -28.5z" />
    <glyph glyph-name="ccedilla" unicode="&#xe7;" horiz-adv-x="858" 
d="M307 -150l146 132h-13q-42 0 -88.5 13.5t-96.5 44.5t-90 75.5t-65.5 113.5t-25.5 152q0 224 148.5 370t387.5 146q60 0 117.5 -13t87.5 -32q0 -34 -30 -95.5t-54 -74.5q-1 1 -19 8.5t-35 14.5t-41 15t-50 12.5t-49 4.5q-96 0 -150 -69q-72 -93 -72 -244q0 -141 70 -227
q56 -64 164 -64q105 0 246 53q14 -44 30 -120q-107 -54 -229 -74l-133 -125q57 -9 92 -47.5t35 -93.5q0 -85 -78 -138.5t-215 -54.5q-5 25 -10 90q157 10 157 88q0 38 -24 62q-28 25 -92 22q-2 3 -21 55z" />
    <glyph glyph-name="egrave" unicode="&#xe8;" horiz-adv-x="958" 
d="M74 395v2q0 138 57.5 251.5t165.5 181t246 67.5q171 0 256 -106q90 -109 90 -287q-4 -20 -38.5 -56t-49.5 -38q-105 -7 -488 -7q0 -134 62 -202q38 -41 82 -54.5t106 -13.5q121 0 277 62q22 -70 30 -125q-86 -40 -185.5 -65t-170.5 -25q-202 0 -321 110.5t-119 304.5z
M514 770h-2q-82 0 -129 -59q-64 -83 -66 -185q189 0 330 6q23 0 23 23q0 92 -41 154q-45 61 -115 61zM418 1358q29 -29 132.5 -134.5t154.5 -154.5q-31 -39 -74 -82q-236 188 -322 254q59 70 109 117z" />
    <glyph glyph-name="eacute" unicode="&#xe9;" horiz-adv-x="958" 
d="M74 395v2q0 138 57.5 251.5t165.5 181t246 67.5q171 0 256 -106q90 -109 90 -287q-4 -20 -38.5 -56t-49.5 -38q-105 -7 -488 -7q0 -134 62 -202q38 -41 82 -54.5t106 -13.5q121 0 277 62q22 -70 30 -125q-86 -40 -185.5 -65t-170.5 -25q-202 0 -321 110.5t-119 304.5z
M514 770h-2q-82 0 -129 -59q-64 -83 -66 -185q189 0 330 6q23 0 23 23q0 92 -41 154q-45 61 -115 61zM672 1356q37 -34 108 -117q-51 -39 -163.5 -126t-167.5 -128q-21 23 -72 82q47 45 147.5 144.5t147.5 144.5z" />
    <glyph glyph-name="ecircumflex" unicode="&#xea;" horiz-adv-x="958" 
d="M74 395v2q0 138 57.5 251.5t165.5 181t246 67.5q171 0 256 -106q90 -109 90 -287q-4 -20 -38.5 -56t-49.5 -38q-105 -7 -488 -7q0 -134 62 -202q38 -41 82 -54.5t106 -13.5q121 0 277 62q22 -70 30 -125q-86 -40 -185.5 -65t-170.5 -25q-202 0 -321 110.5t-119 304.5z
M514 770h-2q-82 0 -129 -59q-64 -83 -66 -185q189 0 330 6q23 0 23 23q0 92 -41 154q-45 61 -115 61zM539 1174q-33 -30 -201 -193q-31 25 -78 68q33 38 112 131t117 137q33 2 99 2q38 -42 119.5 -139t109.5 -129q-53 -53 -76 -70q-148 143 -202 193z" />
    <glyph glyph-name="edieresis" unicode="&#xeb;" horiz-adv-x="958" 
d="M74 395v2q0 138 57.5 251.5t165.5 181t246 67.5q171 0 256 -106q90 -109 90 -287q-4 -20 -38.5 -56t-49.5 -38q-105 -7 -488 -7q0 -134 62 -202q38 -41 82 -54.5t106 -13.5q121 0 277 62q22 -70 30 -125q-86 -40 -185.5 -65t-170.5 -25q-202 0 -321 110.5t-119 304.5z
M514 770h-2q-82 0 -129 -59q-64 -83 -66 -185q189 0 330 6q23 0 23 23q0 92 -41 154q-45 61 -115 61zM360 1231h2q49 0 75 -31.5t26 -71.5q0 -43 -28.5 -72.5t-76.5 -29.5q-43 0 -73.5 29t-30.5 73q0 39 28.5 71t77.5 32zM709 1231h2q46 0 74 -32t28 -71q0 -44 -30.5 -73
t-73.5 -29q-48 0 -76.5 29.5t-28.5 72.5q0 40 27 71.5t78 31.5z" />
    <glyph glyph-name="igrave" unicode="&#xec;" horiz-adv-x="589" 
d="M195 715l-146 6v123q42 4 132.5 17.5t163 24.5t79.5 11q2 0 2 -6q0 -113 -2 -385t-2 -377l131 -4q0 -84 -2 -123h-250q-38 0 -121 -1t-121 -1q0 84 2 123l125 6q9 0 9 8v578zM154 1358q33 -33 134.5 -136.5t151.5 -152.5q-34 -44 -73 -82q-236 188 -322 254
q59 70 109 117z" />
    <glyph glyph-name="iacute" unicode="&#xed;" horiz-adv-x="589" 
d="M195 715l-146 6v123q42 4 132.5 17.5t163 24.5t79.5 11q2 0 2 -6q0 -113 -2 -385t-2 -377l131 -4q0 -84 -2 -123h-250q-38 0 -121 -1t-121 -1q0 84 2 123l125 6q9 0 9 8v578zM436 1356q42 -37 109 -117q-50 -38 -163 -125t-169 -129q-21 23 -72 82q47 45 147.5 144.5
t147.5 144.5z" />
    <glyph glyph-name="icircumflex" unicode="&#xee;" horiz-adv-x="589" 
d="M195 715l-146 6v123q42 4 132.5 17.5t163 24.5t79.5 11q2 0 2 -6q0 -113 -2 -385t-2 -377l131 -4q0 -84 -2 -123h-250q-38 0 -121 -1t-121 -1q0 84 2 123l125 6q9 0 9 8v578zM301 1174q-33 -30 -201 -193q-24 19 -77 68q33 38 112 131t117 137q33 2 98 2
q38 -43 121 -140.5t109 -127.5q-53 -53 -76 -70q-124 120 -203 193z" />
    <glyph glyph-name="idieresis" unicode="&#xef;" horiz-adv-x="589" 
d="M195 715l-146 6v123q42 4 132.5 17.5t163 24.5t79.5 11q2 0 2 -6q0 -113 -2 -385t-2 -377l131 -4q0 -84 -2 -123h-250q-38 0 -121 -1t-121 -1q0 84 2 123l125 6q9 0 9 8v578zM117 1231h2q49 0 74.5 -31.5t25.5 -71.5q0 -43 -28 -72.5t-76 -29.5q-43 0 -74 29t-31 73
q0 39 29 71t78 32zM465 1231h2q46 0 74 -32t28 -71q0 -44 -30.5 -73t-73.5 -29q-48 0 -76.5 29.5t-28.5 72.5q0 40 27 71.5t78 31.5z" />
    <glyph glyph-name="eth" unicode="&#xf0;" horiz-adv-x="1060" 
d="M717 809l14 6q-57 195 -164 305q-83 -61 -200 -151q-48 55 -70 88q39 30 178 135q-50 43 -125.5 72.5t-159.5 40.5q14 67 27 116q106 -4 210 -38.5t179 -82.5q153 119 197 152q44 -51 69 -94q-11 -8 -72 -54.5t-95 -70.5q117 -98 194.5 -269.5t77.5 -361.5
q0 -341 -168 -506q-123 -116 -313 -116q-159 0 -258 77q-74 56 -118 144t-44 194q0 103 38.5 196t114.5 163q120 114 293 114q127 0 195 -59zM518 98h2q87 0 146 76q77 106 77 330q0 140 -32 174q-62 67 -176 67q-95 0 -154 -77q-62 -89 -62 -246q0 -198 80 -275
q46 -49 119 -49z" />
    <glyph glyph-name="ntilde" unicode="&#xf1;" horiz-adv-x="1187" 
d="M195 717l-146 4q0 20 1 60.5t1 58.5q39 4 121.5 18t147.5 25.5t69 11.5t4 -6q3 -15 12.5 -59t12.5 -64l10 -2q145 88 205.5 110.5t132.5 22.5q67 0 124 -41.5t93 -99.5q41 -71 41 -164q0 -34 -6 -463l119 -4q0 -84 -2 -123h-236q-38 0 -114.5 -1t-106.5 -1v123l104 6
q5 0 9 8v330q0 56 -1 83t-6 59t-16 50q-21 39 -48.5 51.5t-66.5 12.5q-45 0 -108.5 -28.5t-114.5 -69.5q-6 -212 -6 -496l123 -4q0 -21 -1 -62.5t-1 -60.5h-242q-37 0 -116 -1t-113 -1q0 84 2 123l112 6q7 0 7 8v580zM485 1257h2q14 0 29 -3.5t25 -6.5t26 -12t21.5 -12.5
t23.5 -16t21 -14.5q5 -3 20 -14t20.5 -14t17 -9t21.5 -8t21 -2q56 0 68 104q49 3 92 0q-5 -104 -44 -168.5t-120 -64.5q-24 0 -50 10t-40 19.5t-43 29.5q-6 4 -23.5 16t-24 16.5t-19.5 11t-23.5 9t-22.5 2.5q-56 0 -73 -104q-14 -1 -30 -1t-35 0.5t-28 0.5q8 102 49.5 166.5
t118.5 64.5z" />
    <glyph glyph-name="ograve" unicode="&#xf2;" horiz-adv-x="1069" 
d="M518 -20h-2q-189 0 -299 98q-143 124 -143 340q0 116 46 214.5t136 168.5q122 96 303 96q157 0 266 -76q170 -123 170 -364q0 -124 -53 -228t-141 -168q-115 -81 -283 -81zM535 100h2q86 0 135 60q40 46 56.5 114.5t16.5 174.5q0 175 -63 256q-52 71 -141 71
q-88 0 -138 -61q-77 -89 -77 -275q0 -194 75 -278q50 -62 134 -62zM426 1358q29 -29 133 -134.5t154 -154.5q-31 -39 -74 -82q-236 188 -322 254q59 70 109 117z" />
    <glyph glyph-name="oacute" unicode="&#xf3;" horiz-adv-x="1069" 
d="M518 -20h-2q-189 0 -299 98q-143 124 -143 340q0 116 46 214.5t136 168.5q122 96 303 96q157 0 266 -76q170 -123 170 -364q0 -124 -53 -228t-141 -168q-115 -81 -283 -81zM535 100h2q86 0 135 60q40 46 56.5 114.5t16.5 174.5q0 175 -63 256q-52 71 -141 71
q-88 0 -138 -61q-77 -89 -77 -275q0 -194 75 -278q50 -62 134 -62zM696 1356q42 -37 109 -117q-50 -38 -163 -125t-169 -129q-21 23 -72 82q47 45 147.5 144.5t147.5 144.5z" />
    <glyph glyph-name="ocircumflex" unicode="&#xf4;" horiz-adv-x="1069" 
d="M518 -20h-2q-189 0 -299 98q-143 124 -143 340q0 116 46 214.5t136 168.5q122 96 303 96q157 0 266 -76q170 -123 170 -364q0 -124 -53 -228t-141 -168q-115 -81 -283 -81zM535 100h2q86 0 135 60q40 46 56.5 114.5t16.5 174.5q0 175 -63 256q-52 71 -141 71
q-88 0 -138 -61q-77 -89 -77 -275q0 -194 75 -278q50 -62 134 -62zM557 1174q-33 -30 -201 -193q-24 19 -77 68q33 38 112 131t117 137q33 2 98 2q38 -43 121 -140.5t109 -127.5q-53 -53 -76 -70q-124 120 -203 193z" />
    <glyph glyph-name="otilde" unicode="&#xf5;" horiz-adv-x="1069" 
d="M518 -20h-2q-189 0 -299 98q-143 124 -143 340q0 116 46 214.5t136 168.5q122 96 303 96q157 0 266 -76q170 -123 170 -364q0 -124 -53 -228t-141 -168q-115 -81 -283 -81zM535 100h2q86 0 135 60q40 46 56.5 114.5t16.5 174.5q0 175 -63 256q-52 71 -141 71
q-88 0 -138 -61q-77 -89 -77 -275q0 -194 75 -278q50 -62 134 -62zM440 1257h2q14 0 29 -3.5t25 -6.5t26 -12t21.5 -12.5t23.5 -16t21 -14.5q5 -3 20 -14t20.5 -14t17 -9t21.5 -8t21 -2q56 0 68 104q49 3 92 0q-5 -104 -44 -168.5t-120 -64.5q-24 0 -50 10t-40 19.5
t-43 29.5q-6 4 -23.5 16t-24 16.5t-19.5 11t-23.5 9t-22.5 2.5q-56 0 -73 -104h-93q8 102 49.5 166.5t118.5 64.5z" />
    <glyph glyph-name="odieresis" unicode="&#xf6;" horiz-adv-x="1069" 
d="M518 -20h-2q-189 0 -299 98q-143 124 -143 340q0 116 46 214.5t136 168.5q122 96 303 96q157 0 266 -76q170 -123 170 -364q0 -124 -53 -228t-141 -168q-115 -81 -283 -81zM535 100h2q86 0 135 60q40 46 56.5 114.5t16.5 174.5q0 175 -63 256q-52 71 -141 71
q-88 0 -138 -61q-77 -89 -77 -275q0 -194 75 -278q50 -62 134 -62zM381 1231h2q49 0 74.5 -31.5t25.5 -71.5q0 -43 -28 -72.5t-76 -29.5q-43 0 -74 29t-31 73q0 39 29 71t78 32zM729 1231h2q46 0 74.5 -32t28.5 -71q0 -44 -31 -73t-74 -29q-48 0 -76 29.5t-28 72.5
q0 40 26.5 71.5t77.5 31.5z" />
    <glyph glyph-name="divide" unicode="&#xf7;" horiz-adv-x="1107" 
d="M438 811v2q0 50 33.5 84.5t85.5 34.5q50 0 81.5 -34t31.5 -85q0 -52 -31.5 -87.5t-85.5 -35.5q-50 0 -82.5 35.5t-32.5 85.5zM977 416h-850q0 51 4 141q96 0 852 6q0 -79 -6 -147zM438 168v2q0 48 34 83.5t85 35.5q50 0 81.5 -35t31.5 -90q-2 -48 -32 -82.5t-81 -34.5
q-54 0 -86.5 34.5t-32.5 86.5z" />
    <glyph glyph-name="oslash" unicode="&#xf8;" horiz-adv-x="1069" 
d="M559 897h2q132 0 234 -61q48 59 114 137q60 -47 101 -90q-41 -49 -113 -131q44 -49 71 -127t27 -166q0 -126 -53 -231.5t-147 -172.5q-115 -75 -277 -75q-144 0 -239 57q-24 -27 -136 -150q-25 19 -88 82q62 68 125 146q-50 53 -78 131.5t-28 169.5q0 115 46 214.5
t132 166.5q124 100 307 100zM543 776h-2q-88 0 -148 -63q-40 -48 -63 -121.5t-23 -157.5q0 -103 29 -162q53 63 112.5 136.5t130.5 160.5t111 136q-54 71 -147 71zM539 98h2q85 0 137 58q86 95 86 284q0 93 -25 150q-245 -295 -350 -424q54 -68 150 -68z" />
    <glyph glyph-name="ugrave" unicode="&#xf9;" horiz-adv-x="1116" 
d="M733 86h-10q-124 -71 -178 -88.5t-121 -17.5q-64 0 -127.5 43t-103 109t-39.5 130q0 89 1 249.5t1 227.5l-111 2q0 45 4 127q40 2 181 7t153 6q6 0 6 -9q-6 -450 -6 -483q0 -54 0.5 -74.5t7.5 -55t21 -56.5q39 -62 114 -62q88 0 193 78q1 69 1 163t-0.5 204t-0.5 153
l-119 4q0 22 1 65.5t1 63.5q266 7 348 7q2 0 2 -9q0 -110 -2 -351.5t-2 -362.5q0 -23 13 -23l126 2q0 -82 -2 -121q-21 -9 -110.5 -21.5t-163.5 -12.5q-33 26 -78 106zM412 1358q33 -33 134.5 -136.5t151.5 -152.5q-35 -44 -73 -82q-236 188 -322 254q59 70 109 117z" />
    <glyph glyph-name="uacute" unicode="&#xfa;" horiz-adv-x="1116" 
d="M733 86h-10q-124 -71 -178 -88.5t-121 -17.5q-64 0 -127.5 43t-103 109t-39.5 130q0 89 1 249.5t1 227.5l-111 2q0 45 4 127q40 2 181 7t153 6q6 0 6 -9q-6 -450 -6 -483q0 -54 0.5 -74.5t7.5 -55t21 -56.5q39 -62 114 -62q88 0 193 78q1 69 1 163t-0.5 204t-0.5 153
l-119 4q0 22 1 65.5t1 63.5q266 7 348 7q2 0 2 -9q0 -110 -2 -351.5t-2 -362.5q0 -23 13 -23l126 2q0 -82 -2 -121q-21 -9 -110.5 -21.5t-163.5 -12.5q-33 26 -78 106zM698 1356q42 -37 109 -117q-50 -38 -163 -125t-169 -129q-21 23 -72 82q47 45 147.5 144.5t147.5 144.5z
" />
    <glyph glyph-name="ucircumflex" unicode="&#xfb;" horiz-adv-x="1116" 
d="M733 86h-10q-124 -71 -178 -88.5t-121 -17.5q-64 0 -127.5 43t-103 109t-39.5 130q0 89 1 249.5t1 227.5l-111 2q0 45 4 127q40 2 181 7t153 6q6 0 6 -9q-6 -450 -6 -483q0 -54 0.5 -74.5t7.5 -55t21 -56.5q39 -62 114 -62q88 0 193 78q1 69 1 163t-0.5 204t-0.5 153
l-119 4q0 22 1 65.5t1 63.5q266 7 348 7q2 0 2 -9q0 -110 -2 -351.5t-2 -362.5q0 -23 13 -23l126 2q0 -82 -2 -121q-21 -9 -110.5 -21.5t-163.5 -12.5q-33 26 -78 106zM549 1174q-33 -30 -201 -193q-31 25 -78 68q29 34 110 128.5t120 139.5q33 2 98 2q38 -42 119.5 -139
t109.5 -129q-56 -56 -75 -70q-124 120 -203 193z" />
    <glyph glyph-name="udieresis" unicode="&#xfc;" horiz-adv-x="1116" 
d="M733 86h-10q-124 -71 -178 -88.5t-121 -17.5q-64 0 -127.5 43t-103 109t-39.5 130q0 89 1 249.5t1 227.5l-111 2q0 45 4 127q40 2 181 7t153 6q6 0 6 -9q-6 -450 -6 -483q0 -54 0.5 -74.5t7.5 -55t21 -56.5q39 -62 114 -62q88 0 193 78q1 69 1 163t-0.5 204t-0.5 153
l-119 4q0 22 1 65.5t1 63.5q266 7 348 7q2 0 2 -9q0 -110 -2 -351.5t-2 -362.5q0 -23 13 -23l126 2q0 -82 -2 -121q-21 -9 -110.5 -21.5t-163.5 -12.5q-33 26 -78 106zM371 1231h2q49 0 74.5 -31.5t25.5 -71.5q0 -43 -28 -72.5t-76 -29.5q-43 0 -74 29t-31 73q0 39 29 71
t78 32zM719 1231h2q46 0 74 -32t28 -71q0 -44 -30.5 -73t-73.5 -29q-48 0 -76.5 29.5t-28.5 72.5q0 40 27 71.5t78 31.5z" />
    <glyph glyph-name="yacute" unicode="&#xfd;" horiz-adv-x="991" 
d="M995 752l-84 -4q-74 -195 -170 -422q-64 -156 -152.5 -344t-160.5 -297q-103 -158 -168 -197q-37 0 -107.5 49t-70.5 76q88 54 170 139q106 113 151 223q-111 273 -174 439q-93 249 -123 325q0 6 -10 6l-92 5q1 21 2 64t2 63h205h266q0 -86 -2 -125l-123 -7
q22 -76 82 -251q23 -71 101 -289h12q43 115 90 256q54 162 82 274q0 10 -8 10l-101 5q0 87 2 124h220q28 0 84 1.5t79 1.5q0 -84 -2 -125zM705 1356q37 -34 108 -117q-50 -38 -163 -125t-169 -129q-5 5 -71 82q47 45 147.5 144.5t147.5 144.5z" />
    <glyph glyph-name="thorn" unicode="&#xfe;" horiz-adv-x="1093" 
d="M377 784h10q134 72 189.5 92.5t121.5 20.5q91 0 166.5 -58t115.5 -146.5t40 -184.5q0 -147 -51 -266q-47 -109 -156 -195q-37 -28 -101 -47.5t-130 -19.5q-116 0 -197 38l-12 -4q2 -109 2 -360l178 -4q0 -45 -4 -123q-193 0 -289 -2q-161 0 -231 -2v121l110 8q8 0 8 12
v1456l-147 4q0 82 2 121q38 5 130.5 19t165.5 25t81 11q4 0 4 -6q0 -111 -6 -510zM774 440v2q0 136 -37 199q-52 84 -141 84q-43 0 -101.5 -21t-113.5 -59q-2 -137 -2 -440q-1 -32 56.5 -61t115.5 -29q95 0 145 61q78 91 78 264z" />
    <glyph glyph-name="ydieresis" unicode="&#xff;" horiz-adv-x="991" 
d="M995 752l-84 -4q-74 -195 -170 -422q-64 -156 -152.5 -344t-160.5 -297q-103 -158 -168 -197q-37 0 -107.5 49t-70.5 76q88 54 170 139q106 113 151 223q-111 273 -174 439q-93 249 -123 325q0 6 -10 6l-92 5q1 21 2 64t2 63h205h266q0 -86 -2 -125l-123 -7
q22 -76 82 -251q23 -71 101 -289h12q43 115 90 256q54 162 82 274q0 10 -8 10l-101 5q0 87 2 124h220q28 0 84 1.5t79 1.5q0 -84 -2 -125zM350 1231h2q49 0 75 -31.5t26 -71.5q0 -43 -28.5 -72.5t-76.5 -29.5q-43 0 -73.5 29t-30.5 73q0 39 28.5 71t77.5 32zM698 1231h2
q46 0 74.5 -32t28.5 -71q0 -44 -31 -73t-74 -29q-48 0 -76 29.5t-28 72.5q0 40 26.5 71.5t77.5 31.5z" />
    <glyph glyph-name="Amacron" unicode="&#x100;" horiz-adv-x="1267" 
d="M-23 127l105 6q9 0 12 10q78 202 455 1200q72 5 184 5q73 -201 225 -641.5t199 -573.5l117 -4q0 -86 -2 -129h-215h-295q0 86 2 127l135 6q9 5 4 10q-67 199 -78 226q-3 8 -12 8l-444 -2q-50 -153 -78 -242l153 -4q0 -86 -2 -129h-278h-189q0 86 2 127zM606 1053h-10
q-29 -84 -92 -268t-92 -267q-3 -12 4 -12h370q-83 247 -180 547zM883 1626q3 -61 0 -121q-74 0 -245 1t-257 1q-3 54 0 115q86 1 251 2t251 2z" />
    <glyph glyph-name="amacron" unicode="&#x101;" horiz-adv-x="989" 
d="M608 72h-10q-178 -92 -299 -92q-84 0 -165 65t-81 152q0 45 25.5 93.5t74.5 93t134 73t190 28.5h125q5 126 -31.5 185t-119.5 59q-110 0 -252 -127q-47 53 -86 107q100 88 199 138t220 50q123 0 208 -87t85 -235q0 -60 -2 -220.5t-2 -200.5q0 -28 15 -25l125 4v-121
q-30 -10 -114.5 -21t-166.5 -11q-19 17 -72 92zM287 221v-2q0 -40 35.5 -67t83.5 -27q92 0 190 68q4 4 4 14v162q-1 0 -30.5 1t-53.5 1q-115 0 -172 -42.5t-57 -107.5zM719 1174q3 -61 0 -121q-63 0 -217 1t-228 1q-3 55 0 114q375 5 445 5z" />
    <glyph glyph-name="Abreve" unicode="&#x102;" horiz-adv-x="1267" 
d="M-23 127l105 6q9 0 12 10q78 202 455 1200q72 5 184 5q73 -201 225 -641.5t199 -573.5l117 -4q0 -86 -2 -129h-215h-295q0 86 2 127l135 6q9 5 4 10q-67 199 -78 226q-3 8 -12 8l-444 -2q-50 -153 -78 -242l153 -4q0 -86 -2 -129h-278h-189q0 86 2 127zM606 1053h-10
q-29 -84 -92 -268t-92 -267q-3 -12 4 -12h370q-83 247 -180 547zM639 1520h-2q-107 0 -188 64.5t-99 156.5q54 20 103 28q25 -55 76.5 -88.5t113.5 -33.5t113 35t71 81q54 -7 105 -22q-16 -83 -100 -152t-193 -69z" />
    <glyph glyph-name="abreve" unicode="&#x103;" horiz-adv-x="989" 
d="M608 72h-10q-178 -92 -299 -92q-84 0 -165 65t-81 152q0 45 25.5 93.5t74.5 93t134 73t190 28.5h125q5 126 -31.5 185t-119.5 59q-110 0 -252 -127q-47 53 -86 107q100 88 199 138t220 50q123 0 208 -87t85 -235q0 -60 -2 -220.5t-2 -200.5q0 -28 15 -25l125 4v-121
q-30 -10 -114.5 -21t-166.5 -11q-19 17 -72 92zM287 221v-2q0 -40 35.5 -67t83.5 -27q92 0 190 68q4 4 4 14v162q-1 0 -30.5 1t-53.5 1q-115 0 -172 -42.5t-57 -107.5zM494 1016h-2q-98 0 -171 63t-88 154q51 21 103 31q22 -57 64.5 -90t99.5 -33q56 0 97 34t58 80
q45 -5 105 -20q-15 -83 -90 -151t-176 -68z" />
    <glyph glyph-name="Aogonek" unicode="&#x104;" horiz-adv-x="1267" 
d="M606 1053h-10q-29 -84 -92 -268t-92 -267q-3 -12 4 -12h368q-28 85 -89.5 274t-88.5 273zM680 -260v2q0 65 48 133t142 125h-108q0 86 2 127l135 6q9 5 4 10q-67 199 -78 226q-3 8 -12 8l-444 -2q-50 -153 -78 -242l153 -4q0 -86 -2 -129h-278h-189q0 86 2 127l105 6
q9 0 12 10q78 202 455 1200q138 5 184 5q73 -201 225 -641.5t199 -573.5l117 -4q0 -86 -2 -129h-215h-88q-131 -107 -131 -225q0 -49 30 -77t72 -28q23 0 88 17q19 -54 23 -86q-67 -39 -152 -39q-89 0 -154 47t-65 131z" />
    <glyph glyph-name="aogonek" unicode="&#x105;" horiz-adv-x="989" 
d="M287 221v-2q0 -40 35.5 -67t83.5 -27q92 0 190 68q4 4 4 14v162q-1 0 -30.5 1t-53.5 1q-115 0 -172 -42.5t-57 -107.5zM506 -258v2q0 60 43.5 123t130.5 113q-19 17 -72 92h-10q-178 -92 -299 -92q-84 0 -165 65t-81 152q0 45 25.5 93.5t74.5 93t134 73t190 28.5h125
q5 126 -31.5 185t-119.5 59q-110 0 -252 -127q-47 53 -86 107q100 88 199 138t220 50q123 0 208 -87t85 -235q0 -68 -2 -214.5t-2 -206.5q0 -28 15 -25l125 4v-121q-4 -1 -75.5 -13t-115.5 -28q-119 -67 -119 -196q0 -49 28.5 -74t70.5 -25q36 0 79 17q19 -55 23 -82
q-61 -37 -141 -37q-82 0 -143.5 45t-61.5 123z" />
    <glyph glyph-name="Cacute" unicode="&#x106;" horiz-adv-x="1220" 
d="M94 588v2q0 200 76.5 352t200.5 252q194 158 481 158q173 0 264 -37q17 -216 25 -377q-42 -7 -158 -20l-39 217q-7 23 -16 28q-50 33 -137 33q-160 0 -271 -111q-164 -170 -164 -440q0 -134 28.5 -225t94.5 -160q52 -55 132.5 -86t166.5 -31q78 0 176.5 22.5t167.5 51.5
q19 -67 29 -141q-241 -96 -420 -96q-249 0 -412 122q-102 76 -163.5 203.5t-61.5 282.5zM971 1786q40 -50 92 -137q-50 -26 -179.5 -96.5t-191.5 -102.5q-47 68 -59 90q57 42 180.5 131.5t157.5 114.5z" />
    <glyph glyph-name="cacute" unicode="&#x107;" horiz-adv-x="858" 
d="M74 381v2q0 221 149 367.5t387 146.5q60 0 117.5 -13t87.5 -32q0 -34 -30 -95.5t-54 -74.5q-1 1 -19 8.5t-35 14.5t-41 15t-50 12.5t-49 4.5q-98 0 -150 -69q-72 -93 -72 -244q0 -141 70 -227q54 -64 166 -64q96 0 246 57q22 -82 28 -120q-86 -43 -182 -66.5t-166 -23.5
q-171 0 -287 108.5t-116 292.5zM715 1356q37 -34 108 -117q-51 -39 -163.5 -126t-167.5 -128q-21 23 -72 82q47 45 147.5 144.5t147.5 144.5z" />
    <glyph glyph-name="Ccaron" unicode="&#x10c;" horiz-adv-x="1220" 
d="M94 588v2q0 200 76.5 352t200.5 252q194 158 481 158q173 0 264 -37q17 -216 25 -377q-42 -7 -158 -20l-39 217q-7 23 -16 28q-50 33 -137 33q-160 0 -271 -111q-164 -170 -164 -440q0 -134 28.5 -225t94.5 -160q52 -55 132.5 -86t166.5 -31q78 0 176.5 22.5t167.5 51.5
q19 -67 29 -141q-241 -96 -420 -96q-249 0 -412 122q-102 76 -163.5 203.5t-61.5 282.5zM739 1616q132 81 238 151q30 -28 67 -81q-45 -36 -140 -114.5t-126 -103.5q-55 0 -80 2q-130 111 -262 216q29 42 66 79q8 -5 237 -149z" />
    <glyph glyph-name="ccaron" unicode="&#x10d;" horiz-adv-x="858" 
d="M74 381v2q0 221 149 367.5t387 146.5q60 0 117.5 -13t87.5 -32q0 -34 -30 -95.5t-54 -74.5q-1 1 -19 8.5t-35 14.5t-41 15t-50 12.5t-49 4.5q-98 0 -150 -69q-72 -93 -72 -244q0 -141 70 -227q54 -64 166 -64q96 0 246 57q22 -82 28 -120q-86 -43 -182 -66.5t-166 -23.5
q-171 0 -287 108.5t-116 292.5zM530 1151q48 45 203 195q23 -17 76 -70q-35 -41 -116.5 -136.5t-112.5 -131.5q-48 -3 -99 0q-34 39 -111.5 131t-117.5 137q39 39 78 67q35 -33 107 -102.5t93 -89.5z" />
    <glyph glyph-name="Dcaron" unicode="&#x10e;" horiz-adv-x="1431" 
d="M100 125l127 6q9 0 9 8v1057l-138 4q0 88 2 129q254 4 455 4q173 0 287 -24t202 -76q130 -74 211.5 -214.5t81.5 -305.5q0 -192 -73 -346.5t-201 -245.5q-173 -123 -467 -123q-39 0 -126.5 1t-115.5 1q-40 0 -128 -1t-128 -1q0 86 2 127zM479 1200l-4 -1016
q0 -35 22.5 -48t90.5 -13q214 0 342 113q69 65 109 176.5t40 230.5q0 164 -40 268.5t-132 188.5q-120 108 -329 108q-75 0 -99 -8zM621 1606q119 73 237 151q31 -29 68 -82q-47 -37 -147.5 -119.5t-119.5 -97.5q-54 0 -79 2q-100 85 -263 215q31 45 66 80
q41 -26 129.5 -81.5t108.5 -67.5z" />
    <glyph glyph-name="dcaron" unicode="&#x10f;" horiz-adv-x="1277" 
d="M735 72h-12q-122 -60 -176.5 -76t-106.5 -16q-147 0 -245 98q-121 121 -121 313q0 218 145 379q54 60 131.5 93.5t163.5 33.5q88 0 193 -33l10 6q0 121 -4 383l-164 4q0 84 2 123q47 5 142 18.5t168.5 24.5t82.5 11q4 0 4 -7q0 -170 -3 -617.5t-3 -645.5q0 -33 19 -33
l124 6v-121q-27 -10 -118.5 -23t-163.5 -13q-39 26 -68 92zM545 752h-2q-47 0 -90 -20.5t-70 -59.5q-64 -92 -64 -254q0 -136 56 -215q25 -34 62 -53t77 -19q91 0 188 62q11 8 11 30v486q-81 43 -168 43zM1153 1434h2q53 0 95 -46t42 -106q0 -92 -59.5 -173.5t-155.5 -129.5
q-37 37 -59 65q121 77 121 166q0 61 -90 84q-7 57 25 98.5t79 41.5z" />
    <glyph glyph-name="Dcroat" unicode="&#x110;" horiz-adv-x="1468" 
d="M272 727l2 469l-139 4q0 23 1 66t1 63q258 4 453 4q176 0 288.5 -24t202.5 -76q130 -74 211.5 -216.5t81.5 -303.5q0 -198 -73.5 -348t-200.5 -244q-170 -123 -467 -123q-40 0 -127.5 1t-114.5 1q-39 0 -127.5 -1t-128.5 -1q0 20 1 63t1 64l127 6q8 0 8 10v449h-166
q0 84 5 135q53 2 161 2zM514 590l-2 -408q0 -34 22 -46.5t89 -12.5q218 0 344 113q70 64 109.5 175.5t39.5 229.5q0 164 -39 266.5t-127 186.5q-123 114 -342 114q-69 0 -90 -8l-4 -471q49 0 154.5 1t165.5 1q0 -44 -9 -141h-311z" />
    <glyph glyph-name="dcroat" unicode="&#x111;" horiz-adv-x="1107" 
d="M319 418v-2q0 -134 56 -213q53 -72 141 -72q89 0 186 62q11 7 11 30v486q-81 43 -168 43q-106 0 -162 -80q-64 -92 -64 -254zM715 1034l-232 2q0 37 4 103q32 0 108.5 1t119.5 1q0 19 -1 56t-1 56l-164 4q0 84 2 123q47 5 142 18.5t168.5 24.5t82.5 11q4 0 4 -7v-284
q20 0 58 1t55 1q0 -59 -6 -111h-109q-4 -590 -4 -870q0 -33 19 -33l124 6v-121q-27 -10 -118.5 -23t-163.5 -13q-39 26 -68 92h-12q-122 -60 -176.5 -76t-106.5 -16q-147 0 -245 98q-121 121 -121 313q0 218 145 379q54 60 131.5 93.5t163.5 33.5q88 0 193 -33l10 6
q0 111 -2 164z" />
    <glyph glyph-name="Emacron" unicode="&#x112;" horiz-adv-x="1159" 
d="M104 127l125 6q9 0 9 8v1057l-138 4q0 47 4 129h250h465h187q12 -164 18 -332q-18 -2 -68 -8t-77 -8l-33 170q-7 30 -45 35q-108 10 -279 10h-43l-2 -455q43 1 129 2.5t133 2.5q19 0 27.5 9t11.5 29l10 91q78 0 142 -3q-1 -32 -2 -100t-2 -102v-195q-90 -4 -142 -4l-8 96
q-1 23 -11 32t-32 9q-159 4 -256 2l-2 -436q0 -28 18 -35.5t93 -7.5q198 0 252 14q27 5 39 39l63 179q55 -9 145 -29q-51 -245 -73 -338q-98 2 -652 2h-258q0 86 2 127zM821 1626q3 -61 0 -121q-74 0 -245 1t-257 1q-3 54 0 115q86 1 251 2t251 2z" />
    <glyph glyph-name="emacron" unicode="&#x113;" horiz-adv-x="958" 
d="M74 395v2q0 138 57.5 251.5t165.5 181t246 67.5q171 0 256 -106q90 -109 90 -287q-4 -20 -38.5 -56t-49.5 -38q-105 -7 -488 -7q0 -134 62 -202q38 -41 82 -54.5t106 -13.5q121 0 277 62q22 -70 30 -125q-86 -40 -185.5 -65t-170.5 -25q-202 0 -321 110.5t-119 304.5z
M514 770h-2q-82 0 -129 -59q-64 -83 -66 -185q189 0 330 6q23 0 23 23q0 92 -41 154q-45 61 -115 61zM733 1169q3 -60 0 -120q-62 0 -215.5 1t-228.5 1q-3 55 0 114q300 4 444 4z" />
    <glyph glyph-name="Edotaccent" unicode="&#x116;" horiz-adv-x="1159" 
d="M104 127l125 6q9 0 9 8v1057l-138 4q0 47 4 129h250h465h187q12 -164 18 -332q-18 -2 -68 -8t-77 -8l-33 170q-7 30 -45 35q-108 10 -279 10h-43l-2 -455q43 1 129 2.5t133 2.5q19 0 27.5 9t11.5 29l10 91q78 0 142 -3q-1 -32 -2 -100t-2 -102v-195q-90 -4 -142 -4l-8 96
q-1 23 -11 32t-32 9q-159 4 -256 2l-2 -436q0 -28 18 -35.5t93 -7.5q198 0 252 14q27 5 39 39l63 179q55 -9 145 -29q-51 -245 -73 -338q-98 2 -652 2h-258q0 86 2 127zM573 1690h2q53 0 83 -33.5t30 -77.5q0 -48 -33 -81.5t-84 -33.5q-47 0 -80.5 32t-33.5 81
q0 44 31.5 78.5t84.5 34.5z" />
    <glyph glyph-name="edotaccent" unicode="&#x117;" horiz-adv-x="958" 
d="M74 395v2q0 138 57.5 251.5t165.5 181t246 67.5q171 0 256 -106q90 -109 90 -287q-4 -20 -38.5 -56t-49.5 -38q-105 -7 -488 -7q0 -134 62 -202q38 -41 82 -54.5t106 -13.5q121 0 277 62q22 -70 30 -125q-86 -40 -185.5 -65t-170.5 -25q-202 0 -321 110.5t-119 304.5z
M514 770h-2q-82 0 -129 -59q-64 -83 -66 -185q189 0 330 6q23 0 23 23q0 92 -41 154q-45 61 -115 61zM528 1262h2q54 0 82.5 -33t28.5 -78q0 -47 -32 -80t-83 -33q-47 0 -79.5 32t-32.5 81q0 44 30.5 77.5t83.5 33.5z" />
    <glyph glyph-name="Eogonek" unicode="&#x118;" horiz-adv-x="1159" 
d="M715 -264v2q0 67 52.5 136t152.5 126q-75 0 -262.5 1t-297.5 1q-46 0 -133 -1t-125 -1q0 88 2 127l125 6q9 0 9 8v1057l-138 4q0 47 4 129h250h465q68 2 187 2q12 -168 18 -334q-18 -2 -68 -8t-77 -8l-33 170q-7 30 -45 35q-108 10 -279 10h-43l-2 -455q43 1 129 2.5
t133 2.5q19 0 27.5 9t11.5 29l10 91q78 0 142 -3q-1 -32 -2 -100t-2 -102v-195q-90 -4 -142 -4l-8 96q-3 23 -12 32t-31 9q-159 4 -256 2l-2 -436q0 -28 18 -35.5t93 -7.5q175 0 252 14q24 5 36 39l64 179q62 -10 145 -29q-42 -215 -73 -336q-60 -46 -101 -110t-41 -119
q0 -48 32 -76.5t75 -28.5q21 0 86 17q16 -45 24 -86q-70 -39 -153 -39q-89 0 -153 47t-64 131z" />
    <glyph glyph-name="eogonek" unicode="&#x119;" horiz-adv-x="958" 
d="M514 770h-2q-82 0 -127 -59q-64 -82 -68 -185q174 0 330 6q23 0 23 23q0 92 -41 154q-45 61 -115 61zM514 -203v2q0 92 115 193q-74 -12 -113 -12q-204 0 -323 110.5t-119 304.5q0 139 58 253t166.5 181.5t246.5 67.5q171 0 256 -106q90 -109 90 -287q-4 -20 -38.5 -56
t-49.5 -38q-165 -7 -488 -7q0 -134 62 -202q38 -41 81.5 -54.5t104.5 -13.5q118 0 279 62q22 -70 30 -125q-56 -24 -102 -50q-108 -70 -108 -190q0 -47 28 -72.5t70 -25.5q40 0 80 16q19 -70 22 -82q-61 -37 -141 -37q-83 0 -145 44.5t-62 123.5z" />
    <glyph glyph-name="Ecaron" unicode="&#x11a;" horiz-adv-x="1159" 
d="M104 127l125 6q9 0 9 8v1057l-138 4q0 47 4 129h250h465h187q12 -164 18 -332q-18 -2 -68 -8t-77 -8l-33 170q-7 30 -45 35q-108 10 -279 10h-43l-2 -455q43 1 129 2.5t133 2.5q19 0 27.5 9t11.5 29l10 91q78 0 142 -3q-1 -32 -2 -100t-2 -102v-195q-90 -4 -142 -4l-8 96
q-1 23 -11 32t-32 9q-159 4 -256 2l-2 -436q0 -28 18 -35.5t93 -7.5q198 0 252 14q27 5 39 39l63 179q55 -9 145 -29q-51 -245 -73 -338q-98 2 -652 2h-258q0 86 2 127zM578 1606q119 73 237 151q31 -29 68 -82q-47 -37 -147.5 -119.5t-119.5 -97.5q-54 0 -79 2
q-100 85 -263 215q31 45 66 80q41 -26 129.5 -81.5t108.5 -67.5z" />
    <glyph glyph-name="ecaron" unicode="&#x11b;" horiz-adv-x="958" 
d="M74 395v2q0 138 57.5 251.5t165.5 181t246 67.5q171 0 256 -106q90 -109 90 -287q-4 -20 -38.5 -56t-49.5 -38q-105 -7 -488 -7q0 -134 62 -202q38 -41 82 -54.5t106 -13.5q121 0 277 62q22 -70 30 -125q-86 -40 -185.5 -65t-170.5 -25q-202 0 -321 110.5t-119 304.5z
M514 770h-2q-82 0 -129 -59q-64 -83 -66 -185q189 0 330 6q23 0 23 23q0 92 -41 154q-45 61 -115 61zM532 1151q48 45 203 195q23 -17 76 -70q-35 -41 -116.5 -136.5t-112.5 -131.5q-48 -3 -99 0q-34 39 -111.5 131t-117.5 137q39 39 78 67q35 -33 107 -102.5t93 -89.5z" />
    <glyph glyph-name="Gbreve" unicode="&#x11e;" horiz-adv-x="1374" 
d="M1036 915l-32 211q-10 26 -17 31q-61 49 -174 49q-168 0 -283 -110q-79 -75 -123.5 -190.5t-44.5 -254.5q0 -265 132 -403q124 -137 329 -137q54 0 91.5 11.5t37.5 24.5v320l-194 4q0 22 1 67.5t1 65.5h309h229q0 -90 -2 -133l-96 -4q-8 0 -8 -8l-6 -410
q-118 -69 -377 -69q-312 0 -487 139q-226 190 -226 504q0 194 82.5 345.5t218.5 248.5q98 71 225 103t248 32q200 0 308 -54q18 -357 18 -366q-61 -9 -160 -17zM772 1473h-2q-107 0 -188 64.5t-99 156.5q54 20 103 28q25 -56 77 -89.5t113 -33.5q62 0 113.5 35.5t71.5 81.5
q52 -6 104 -22q-16 -83 -100 -152t-193 -69z" />
    <glyph glyph-name="gbreve" unicode="&#x11f;" horiz-adv-x="1015" 
d="M283 238v10q-83 40 -143 113t-60 180q0 149 122 252.5t308 103.5q72 0 164 -16q31 -6 45 -4q33 1 97 3.5t113 4.5t75 4q6 -60 2 -137h-183l-2 -9q60 -63 60 -174q0 -57 -24 -119.5t-69 -111.5q-124 -127 -368 -117q-76 -61 -76 -90q0 -35 46 -45.5t194 -15.5
q141 -5 209 -17t116 -45q53 -36 74 -72t21 -102q0 -92 -62 -168.5t-176 -120.5q-142 -57 -328 -57q-199 0 -310.5 62.5t-111.5 177.5q0 25 9 42t34 37q33 23 94.5 64.5t88.5 62.5v13q-63 21 -99.5 56t-36.5 103q0 14 27 35t150 97zM315 557v-2q0 -119 45.5 -171t120.5 -52
t121.5 61.5t46.5 177.5q0 105 -41 160q-38 53 -119 53q-79 0 -126.5 -60t-47.5 -167zM776 -213v2q0 56 -38.5 76.5t-155.5 28.5q-122 10 -213 14q-44 -42 -62.5 -62.5t-35.5 -50.5t-17 -59q0 -63 67 -96t158 -33q133 0 209 43q88 53 88 137zM526 1016h-2q-98 0 -170.5 63
t-87.5 154q51 21 103 31q22 -57 64 -90t99 -33q56 0 97.5 34t58.5 80q45 -5 105 -20q-15 -83 -90.5 -151t-176.5 -68z" />
    <glyph glyph-name="Gcommaaccent" unicode="&#x122;" horiz-adv-x="1374" 
d="M1036 915l-32 211q-10 26 -17 31q-61 49 -174 49q-168 0 -283 -110q-79 -75 -123.5 -190.5t-44.5 -254.5q0 -265 132 -403q124 -137 329 -137q54 0 91.5 11.5t37.5 24.5v320l-194 4q0 22 1 67.5t1 65.5h309h229q0 -90 -2 -133l-96 -4q-8 0 -8 -8l-6 -410
q-118 -69 -377 -69q-312 0 -487 139q-226 190 -226 504q0 194 82.5 345.5t218.5 248.5q98 71 225 103t248 32q200 0 308 -54q18 -357 18 -366q-61 -9 -160 -17zM786 -104h2q53 0 96.5 -50.5t43.5 -115.5q0 -101 -60 -190t-159 -144q-9 12 -30 36.5t-30 37.5q123 83 123 180
q0 68 -92 92q-7 64 25 109t81 45z" />
    <glyph glyph-name="gcommaaccent" unicode="&#x123;" horiz-adv-x="1015" 
d="M283 238v10q-83 40 -143 113t-60 180q0 149 122 252.5t308 103.5q72 0 164 -16q31 -6 45 -4q33 1 97 3.5t113 4.5t75 4q6 -60 2 -137h-183l-2 -9q60 -63 60 -174q0 -57 -24 -119.5t-69 -111.5q-124 -127 -368 -117q-76 -61 -76 -90q0 -35 46 -45.5t194 -15.5
q141 -5 209 -17t116 -45q53 -36 74 -72t21 -102q0 -92 -62 -168.5t-176 -120.5q-142 -57 -328 -57q-199 0 -310.5 62.5t-111.5 177.5q0 25 9 42t34 37q33 23 94.5 64.5t88.5 62.5v13q-63 21 -99.5 56t-36.5 103q0 14 27 35t150 97zM315 557v-2q0 -119 45.5 -171t120.5 -52
t121.5 61.5t46.5 177.5q0 105 -41 160q-38 53 -119 53q-79 0 -126.5 -60t-47.5 -167zM776 -213v2q0 56 -38.5 76.5t-155.5 28.5q-122 10 -213 14q-44 -42 -62.5 -62.5t-35.5 -50.5t-17 -59q0 -63 67 -96t158 -33q133 0 209 43q88 53 88 137zM520 1016h-2q-53 0 -95 45
t-42 104q0 92 60 173.5t157 129.5q39 -39 57 -65q-120 -76 -120 -164q0 -60 92 -84q7 -58 -25.5 -98.5t-81.5 -40.5z" />
    <glyph glyph-name="Imacron" unicode="&#x12a;" horiz-adv-x="712" 
d="M238 1196l-146 6q0 88 2 129q38 0 135 -1t142 -1t136.5 1t129.5 1q0 -88 -2 -129l-148 -6q-4 0 -4 -8l-6 -1051l158 -6q2 -44 -2 -131q-36 0 -130 1t-141 1q-43 0 -135.5 -1t-134.5 -1q0 88 2 129l137 6q7 0 7 8v1053zM616 1622q3 -60 0 -121q-74 0 -244.5 1t-256.5 1
q-3 54 0 115q86 1 250.5 2t250.5 2z" />
    <glyph glyph-name="imacron" unicode="&#x12b;" horiz-adv-x="589" 
d="M195 715l-146 6v123q42 4 132.5 17.5t163 24.5t79.5 11q2 0 2 -6q0 -113 -2 -385t-2 -377l131 -4q0 -84 -2 -123h-250q-38 0 -121 -1t-121 -1q0 84 2 123l125 6q9 0 9 8v578zM518 1174q3 -61 0 -121q-62 0 -216 1t-228 1q-3 55 0 114q375 5 444 5z" />
    <glyph glyph-name="Iogonek" unicode="&#x12e;" horiz-adv-x="712" 
d="M199 -256v2q0 66 46 133t138 123q-40 0 -143 -1t-148 -1q0 88 2 131l137 6q7 0 7 8v1051l-146 6q0 88 2 129q38 0 135 -1t142 -1t136.5 1t129.5 1q0 -88 -2 -129l-148 -6q-4 0 -4 -8l-6 -1051l158 -6q2 -44 -2 -131h-14q-14 1 -30.5 1.5t-37.5 0t-43.5 -3.5t-40.5 -8
q-52 -16 -84.5 -75.5t-32.5 -121.5q0 -52 27.5 -85.5t73.5 -33.5q29 0 94 17q16 -45 24 -86q-70 -39 -157 -39q-88 0 -150.5 46.5t-62.5 131.5z" />
    <glyph glyph-name="iogonek" unicode="&#x12f;" horiz-adv-x="589" 
d="M295 1335h2q65 0 100 -39.5t35 -91.5q0 -62 -41 -101.5t-102 -39.5q-56 0 -97.5 39.5t-41.5 97.5q0 55 40 95t105 40zM150 -236v3q0 58 42 119.5t125 113.5q-29 0 -123.5 -1t-134.5 -1v123l127 6q9 3 9 10v578l-146 6v123q42 4 132.5 17.5t163 24.5t79.5 11q2 0 2 -6
q0 -114 -2 -386t-2 -376l131 -6q0 -82 -2 -123q-103 9 -158 -18q-98 -52 -98 -172q0 -58 27.5 -85.5t70.5 -27.5q42 0 82 16q13 -35 23 -80q-59 -36 -142 -36t-144.5 44t-61.5 123z" />
    <glyph glyph-name="Idotaccent" unicode="&#x130;" horiz-adv-x="712" 
d="M238 1196l-146 6q0 88 2 129q38 0 135 -1t142 -1t136.5 1t129.5 1q0 -88 -2 -129l-148 -6q-4 0 -4 -8l-6 -1051l158 -6q2 -44 -2 -131q-36 0 -130 1t-141 1q-43 0 -135.5 -1t-134.5 -1q0 88 2 129l137 6q7 0 7 8v1053zM365 1688h2q53 0 82.5 -33.5t29.5 -77.5
q0 -48 -33 -81.5t-84 -33.5q-47 0 -80.5 32t-33.5 81q0 44 31.5 78.5t85.5 34.5z" />
    <glyph glyph-name="dotlessi" unicode="&#x131;" horiz-adv-x="589" 
d="M195 715l-146 6v123q42 4 132.5 17.5t163 24.5t79.5 11q2 0 2 -6q0 -113 -2 -385t-2 -377l131 -4q0 -84 -2 -123h-250q-38 0 -121 -1t-121 -1q0 84 2 123l125 6q9 0 9 8v578z" />
    <glyph glyph-name="Kcommaaccent" unicode="&#x136;" horiz-adv-x="1331" 
d="M236 1196l-132 6q0 88 2 129q37 0 128 -1t135 -1q43 0 127 1t118 1q2 -44 -2 -129l-125 -6q-6 0 -6 -10l-4 -449q50 0 123 13q55 55 162.5 187.5t193.5 246.5q4 4 2.5 7t-6.5 3l-121 6q0 68 3 129h282q32 0 93 1t85 1q0 -88 -2 -129l-94 -6q-246 -279 -416 -461v-12
q115 -83 219 -274q110 -192 152 -256q29 -51 70 -54l127 -8q0 -88 -2 -127q-106 -4 -189 -4q-45 -2 -170 -2q-16 21 -40.5 62t-44.5 77.5t-54 99.5t-51 93q-150 284 -217 284q-55 0 -105 -4l-2 -473l143 -6q2 -44 -2 -131q-33 0 -122.5 1t-135.5 1q-42 0 -130.5 -1
t-125.5 -1q0 88 2 129l123 6q9 5 9 8v1053zM686 -78h2q53 0 96 -50.5t43 -115.5q0 -101 -60 -190t-159 -144q-9 12 -29.5 37t-29.5 37q123 83 123 180q0 69 -92 93q-7 64 25 108.5t81 44.5z" />
    <glyph glyph-name="kcommaaccent" unicode="&#x137;" horiz-adv-x="1083" 
d="M168 1255l-145 2q0 21 1 62.5t1 60.5q38 5 130 19t164 24.5t80 10.5q7 0 7 -9q0 -143 -3 -462t-4 -424q68 0 121 6q111 100 189 190q3 3 1 5.5t-5 2.5l-89 5q0 87 2 126h238q85 3 172 3q0 -86 -2 -125l-86 -7q-189 -171 -254 -227v-12q96 -77 160 -203q70 -128 90 -153
q14 -19 35 -19l112 -4q0 -84 -2 -125q-239 0 -329 -4q-48 76 -115 231q-83 173 -141 189q-70 0 -97 -2q0 -42 -1 -144t-1 -143l107 -6q0 -82 -2 -121h-228q-38 0 -117 -1t-114 -1q0 84 2 123l117 6q6 0 6 8v1118zM543 -100h2q53 0 95 -45.5t42 -104.5q0 -91 -59 -171.5
t-156 -131.5q-34 34 -59 66q120 76 120 163q0 62 -92 84q-6 58 27 99t80 41z" />
    <glyph glyph-name="Lacute" unicode="&#x139;" horiz-adv-x="1099" 
d="M238 1194l-136 6q0 47 4 129h261h280q0 -45 -4 -131l-158 -4q-6 0 -6 -8l-4 -1014q0 -29 13 -36t77 -7q196 0 258 12q27 10 35 41l74 213q84 -13 147 -30q-34 -170 -82 -367q-26 0 -250.5 1t-386.5 1q-46 0 -134 -1t-126 -1q0 47 4 129l125 6q9 0 9 8v1053zM582 1772
q38 -47 92 -138q-49 -26 -179 -96t-192 -102q-47 68 -59 90q57 42 180.5 131.5t157.5 114.5z" />
    <glyph glyph-name="lacute" unicode="&#x13a;" horiz-adv-x="571" 
d="M170 1255l-154 5q0 44 4 122q42 4 134.5 17.5t166 24t80.5 10.5t7 -9q-1 -158 -4.5 -620t-4.5 -676l142 -4v-123h-258q-41 0 -125.5 -1t-122.5 -1q0 19 1 61.5t1 61.5l125 6q8 0 8 8v1118zM434 1812q40 -50 92 -137q-50 -26 -179 -96t-191 -102q-52 75 -60 90
q56 41 176.5 128t161.5 117z" />
    <glyph glyph-name="Lcommaaccent" unicode="&#x13b;" horiz-adv-x="1099" 
d="M238 1194l-136 6q0 47 4 129h261h280q0 -45 -4 -131l-158 -4q-6 0 -6 -8l-4 -1014q0 -29 13 -36t77 -7q196 0 258 12q27 10 35 41l74 213q84 -13 147 -30q-34 -170 -82 -367q-26 0 -250.5 1t-386.5 1q-46 0 -134 -1t-126 -1q0 47 4 129l125 6q9 0 9 8v1053zM602 -104h2
q53 0 96 -50.5t43 -115.5q0 -101 -60 -190t-159 -144q-9 13 -29.5 37t-29.5 37q123 83 123 180q0 68 -92 92q-7 64 25 109t81 45z" />
    <glyph glyph-name="lcommaaccent" unicode="&#x13c;" horiz-adv-x="571" 
d="M170 1255l-154 5q0 44 4 122q42 4 134.5 17.5t166 24t80.5 10.5t7 -9q-1 -158 -4.5 -620t-4.5 -676l142 -4v-123h-258q-41 0 -125.5 -1t-122.5 -1q0 19 1 61.5t1 61.5l125 6q8 0 8 8v1118zM295 -109h2q53 0 95 -45t42 -104q0 -91 -59 -171.5t-156 -131.5q-37 37 -59 65
q121 77 121 164q0 61 -93 84q-6 58 27 98.5t80 40.5z" />
    <glyph glyph-name="Lcaron" unicode="&#x13d;" horiz-adv-x="1099" 
d="M238 1194l-136 6q0 47 4 129h261h280q0 -45 -4 -131l-158 -4q-6 0 -6 -8l-4 -1014q0 -29 13 -36t77 -7q196 0 258 12q27 10 35 41l74 213q84 -13 147 -30q-34 -170 -82 -367q-26 0 -250.5 1t-386.5 1q-46 0 -134 -1t-126 -1q0 47 4 129l125 6q9 0 9 8v1053zM856 1327h2
q51 0 92 -48t41 -110q0 -95 -57 -179.5t-150 -137.5q-42 48 -57 70q117 80 117 172q0 35 -30 58.5t-58 27.5q-7 63 23.5 105t76.5 42z" />
    <glyph glyph-name="lcaron" unicode="&#x13e;" 
d="M170 1253l-154 7q0 44 4 122q42 4 134.5 17.5t166 24t80.5 10.5t7 -9q-1 -162 -4.5 -623.5t-4.5 -672.5l142 -4v-123h-258q-41 0 -125.5 -1t-122.5 -1q0 19 1 61.5t1 61.5l125 6q8 0 8 8v1116zM612 1434h2q53 0 95.5 -46t42.5 -104q0 -93 -59.5 -174.5t-155.5 -130.5
q-49 49 -60 65q121 77 121 166q0 62 -92 84q-7 59 25 99.5t81 40.5z" />
    <glyph glyph-name="Lslash" unicode="&#x141;" horiz-adv-x="1140" 
d="M276 1194l-133 6q-2 44 2 129h263h278q0 -88 -2 -131l-158 -4q-6 0 -6 -6l-2 -395q123 60 270 135q33 -67 52 -133q-185 -86 -322 -154l-4 -469q0 -29 13.5 -36t78.5 -7q196 0 254 12q27 6 39 41l74 213q89 -15 147 -30q-34 -170 -82 -367q-26 0 -251 1t-388 1
q-47 0 -134 -1t-124 -1q0 88 2 129l125 6q8 0 8 8v394q-154 -75 -155 -76q-32 66 -51 116q36 18 104 52.5t102 50.5v516z" />
    <glyph glyph-name="lslash" unicode="&#x142;" horiz-adv-x="665" 
d="M84 123l125 6q8 0 8 8v436q-96 -45 -149 -71q-31 64 -48 119q147 74 197 100v534l-154 5q0 21 1.5 62t1.5 60q43 4 135.5 17.5t166.5 24t81 10.5q6 0 6 -9q-1 -85 -2 -287t-2 -302q31 17 90.5 46t76.5 38q28 -60 50 -132q-9 -4 -92 -44t-127 -62q0 -98 -1.5 -285
t-1.5 -268l142 -4q0 -84 -2 -123h-256q-40 0 -125.5 -1t-122.5 -1q0 19 1 61.5t1 61.5z" />
    <glyph glyph-name="Nacute" unicode="&#x143;" horiz-adv-x="1466" 
d="M90 129l119 6q8 0 8 8l-2 1055l-137 4q0 88 2 127h338q306 -446 672 -1014l12 2q-4 590 -8 881l-174 2q0 22 1 65.5t1 63.5h260q37 0 107 1t97 1q1 -18 1 -39.5t-0.5 -47.5t-0.5 -40l-110 -6q-6 0 -6 -10l-8 -1176q-66 -28 -168 -28q-378 500 -695 979h-14
q0 -140 -1 -415t-1 -413l182 -4q0 -20 -1 -64.5t-1 -66.5q-41 0 -136.5 1t-143.5 1q-35 0 -101.5 -1t-93.5 -1q0 88 2 129zM895 1741q40 -50 92 -137q-50 -26 -179.5 -96.5t-191.5 -102.5q-47 68 -59 90q57 42 180.5 131.5t157.5 114.5z" />
    <glyph glyph-name="nacute" unicode="&#x144;" horiz-adv-x="1187" 
d="M195 717l-146 4q0 20 1 60.5t1 58.5q39 4 121.5 18t147.5 25.5t69 11.5t4 -6q3 -15 12.5 -59t12.5 -64l10 -2q145 88 205.5 110.5t132.5 22.5q67 0 124 -41.5t93 -99.5q41 -71 41 -164q0 -34 -6 -463l119 -4q0 -84 -2 -123h-236q-38 0 -114.5 -1t-106.5 -1v123l104 6
q5 0 9 8v330q0 56 -1 83t-6 59t-16 50q-21 39 -48.5 51.5t-66.5 12.5q-45 0 -108.5 -28.5t-114.5 -69.5q-6 -212 -6 -496l123 -4q0 -21 -1 -62.5t-1 -60.5h-242q-37 0 -116 -1t-113 -1q0 84 2 123l112 6q7 0 7 8v580zM756 1356q37 -34 108 -117q-50 -38 -163 -125t-169 -129
q-5 5 -71 82q47 45 147.5 144.5t147.5 144.5z" />
    <glyph glyph-name="Ncommaaccent" unicode="&#x145;" horiz-adv-x="1466" 
d="M90 129l119 6q8 0 8 8l-2 1055l-137 4q0 88 2 127h338q306 -446 672 -1014l12 2q-4 590 -8 881l-174 2q0 22 1 65.5t1 63.5h260q37 0 107 1t97 1q1 -18 1 -39.5t-0.5 -47.5t-0.5 -40l-110 -6q-6 0 -6 -10l-8 -1176q-66 -28 -168 -28q-378 500 -695 979h-14
q0 -140 -1 -415t-1 -413l182 -4q0 -20 -1 -64.5t-1 -66.5q-41 0 -136.5 1t-143.5 1q-35 0 -101.5 -1t-93.5 -1q0 88 2 129zM745 -76h3q53 0 96 -50.5t43 -115.5q0 -100 -60 -189t-159 -144q-9 13 -30 37t-30 36q123 83 123 180q0 69 -92 93q-7 64 25 108.5t81 44.5z" />
    <glyph glyph-name="ncommaaccent" unicode="&#x146;" horiz-adv-x="1187" 
d="M195 717l-146 4q0 20 1 60.5t1 58.5q39 4 121.5 18t147.5 25.5t69 11.5t4 -6q3 -15 12.5 -59t12.5 -64l10 -2q145 88 205.5 110.5t132.5 22.5q67 0 124 -41.5t93 -99.5q41 -71 41 -164q0 -34 -6 -463l119 -4q0 -84 -2 -123h-236q-38 0 -114.5 -1t-106.5 -1v123l104 6
q5 0 9 8v330q0 56 -1 83t-6 59t-16 50q-21 39 -48.5 51.5t-66.5 12.5q-45 0 -108.5 -28.5t-114.5 -69.5q-6 -212 -6 -496l123 -4q0 -21 -1 -62.5t-1 -60.5h-242q-37 0 -116 -1t-113 -1q0 84 2 123l112 6q7 0 7 8v580zM594 -109h2q53 0 95 -45t42 -104q0 -91 -59 -171.5
t-156 -131.5q-37 37 -59 65q121 77 121 164q0 61 -93 84q-6 58 27 98.5t80 40.5z" />
    <glyph glyph-name="Ncaron" unicode="&#x147;" horiz-adv-x="1466" 
d="M90 129l119 6q8 0 8 8l-2 1055l-137 4q0 88 2 127h338q306 -446 672 -1014l12 2q-4 590 -8 881l-174 2q0 22 1 65.5t1 63.5h260q37 0 107 1t97 1q1 -18 1 -39.5t-0.5 -47.5t-0.5 -40l-110 -6q-6 0 -6 -10l-8 -1176q-66 -28 -168 -28q-378 500 -695 979h-14
q0 -140 -1 -415t-1 -413l182 -4q0 -20 -1 -64.5t-1 -66.5q-41 0 -136.5 1t-143.5 1q-35 0 -101.5 -1t-93.5 -1q0 88 2 129zM715 1606q119 73 237 151q31 -29 68 -82q-46 -36 -142.5 -115.5t-123.5 -101.5q-55 0 -80 2q-113 97 -262 215q33 48 65 80q41 -26 129.5 -81.5
t108.5 -67.5z" />
    <glyph glyph-name="ncaron" unicode="&#x148;" horiz-adv-x="1187" 
d="M195 717l-146 4q0 20 1 60.5t1 58.5q39 4 121.5 18t147.5 25.5t69 11.5t4 -6q3 -15 12.5 -59t12.5 -64l10 -2q145 88 205.5 110.5t132.5 22.5q67 0 124 -41.5t93 -99.5q41 -71 41 -164q0 -34 -6 -463l119 -4q0 -84 -2 -123h-236q-38 0 -114.5 -1t-106.5 -1v123l104 6
q5 0 9 8v330q0 56 -1 83t-6 59t-16 50q-21 39 -48.5 51.5t-66.5 12.5q-45 0 -108.5 -28.5t-114.5 -69.5q-6 -212 -6 -496l123 -4q0 -21 -1 -62.5t-1 -60.5h-242q-37 0 -116 -1t-113 -1q0 84 2 123l112 6q7 0 7 8v580zM596 1151q48 45 203 195q19 -14 75 -70
q-35 -41 -116.5 -136.5t-112.5 -131.5q-47 -3 -98 0q-34 38 -112 130.5t-118 137.5q39 39 78 67q27 -25 61 -57.5t75.5 -72.5t64.5 -62z" />
    <glyph glyph-name="Omacron" unicode="&#x14c;" horiz-adv-x="1484" 
d="M713 -20h-2q-131 0 -243 45.5t-189 124.5q-185 188 -185 503q0 191 83 346.5t210 239.5q177 113 397 113q198 0 351 -103q116 -78 185 -224.5t69 -322.5q0 -160 -54.5 -306t-158.5 -246q-176 -170 -463 -170zM748 113h2q156 0 247 108q127 154 127 436q0 285 -118 439
q-92 123 -250 123q-152 0 -246 -99q-66 -66 -108 -181.5t-42 -266.5q0 -156 30.5 -264t98.5 -183q101 -112 259 -112zM999 1626q3 -60 0 -121q-74 0 -244.5 1t-256.5 1q-3 54 0 115q86 1 250.5 2t250.5 2z" />
    <glyph glyph-name="omacron" unicode="&#x14d;" horiz-adv-x="1069" 
d="M518 -20h-2q-189 0 -299 98q-143 124 -143 340q0 116 46 214.5t136 168.5q122 96 303 96q157 0 266 -76q170 -123 170 -364q0 -124 -53 -228t-141 -168q-115 -81 -283 -81zM535 100h2q86 0 135 60q40 46 56.5 114.5t16.5 174.5q0 175 -63 256q-52 71 -141 71
q-88 0 -138 -61q-77 -89 -77 -275q0 -194 75 -278q50 -62 134 -62zM778 1174q3 -61 0 -121q-62 0 -216 1t-228 1q-3 55 0 114q375 5 444 5z" />
    <glyph glyph-name="Ohungarumlaut" unicode="&#x150;" horiz-adv-x="1484" 
d="M713 -20h-2q-131 0 -243 45.5t-189 124.5q-185 188 -185 503q0 191 83 346.5t210 239.5q177 113 397 113q198 0 351 -103q116 -78 185 -224.5t69 -322.5q0 -160 -54.5 -306t-158.5 -246q-176 -170 -463 -170zM748 113h2q156 0 247 108q127 154 127 436q0 285 -118 439
q-92 123 -250 123q-152 0 -246 -99q-66 -66 -108 -181.5t-42 -266.5q0 -156 30.5 -264t98.5 -183q101 -112 259 -112zM776 1798q37 -35 88 -106q-53 -37 -158.5 -111t-158.5 -111q-28 30 -66 78q30 26 91 77t111.5 94t92.5 79zM1063 1790q34 -34 88 -104
q-142 -101 -313 -226q-42 46 -66 78q157 133 291 252z" />
    <glyph glyph-name="ohungarumlaut" unicode="&#x151;" horiz-adv-x="1069" 
d="M518 -20h-2q-189 0 -299 98q-143 124 -143 340q0 116 46 214.5t136 168.5q122 96 303 96q157 0 266 -76q170 -123 170 -364q0 -124 -53 -228t-141 -168q-115 -81 -283 -81zM535 100h2q86 0 135 60q40 46 56.5 114.5t16.5 174.5q0 175 -63 256q-52 71 -141 71
q-88 0 -138 -61q-77 -89 -77 -275q0 -194 75 -278q50 -62 134 -62zM557 1348q32 -26 96 -99q-268 -222 -286 -237q-15 12 -72 69q57 57 262 267zM848 1337q40 -32 96 -96q-51 -43 -147 -126t-135 -116q-47 43 -70 72q40 41 128 133t128 133z" />
    <glyph glyph-name="OE" unicode="&#x152;" horiz-adv-x="1984" 
d="M96 651v2q0 183 75.5 341t205.5 251q152 107 358 107q112 0 200.5 -40t137.5 -102v121h125h451h188q12 -162 18 -332q-73 -10 -147 -16l-33 168q-3 17 -13 25.5t-34 11.5q-103 10 -276 10h-43l-2 -453q42 1 127.5 2.5t130.5 2.5q21 0 30.5 10t12.5 31l10 88q100 0 143 -2
q-1 -32 -2 -100.5t-2 -102.5v-195q-90 -4 -143 -4l-8 96q-1 23 -11.5 32t-33.5 9q-156 4 -254 2l-2 -438q0 -28 17.5 -35.5t92.5 -7.5q196 0 254 14q23 5 39 41l61 174q79 -12 146 -28q-10 -57 -72 -336q-98 2 -633 2h-139v145q-129 -165 -389 -165q-111 0 -212.5 38.5
t-178.5 112.5q-195 189 -195 520zM362 676v-2q0 -155 28 -260t93 -183q104 -118 262 -118q107 0 192 57.5t130 167.5v674q-37 96 -120 151.5t-193 55.5q-156 0 -248 -103q-144 -152 -144 -440z" />
    <glyph glyph-name="oe" unicode="&#x153;" horiz-adv-x="1619" 
d="M852 145h-12q-50 -75 -135.5 -120t-198.5 -45q-185 0 -289 96q-143 128 -143 342q0 115 46 214.5t132 166.5q118 98 299 98q108 0 189.5 -52.5t117.5 -131.5h12q56 90 143.5 137t192.5 47q84 0 149.5 -29t104.5 -77q90 -112 90 -289q-4 -21 -37.5 -54.5t-50.5 -35.5
q-106 -6 -483 -6q0 -136 61 -203q38 -41 82 -55.5t105 -14.5q118 0 274 62q24 -77 31 -125q-86 -41 -185 -65.5t-171 -24.5q-120 0 -202 44t-122 121zM537 98h2q80 0 133 58q41 49 56 114.5t15 175.5q0 177 -61 259q-50 71 -137 71q-89 0 -144 -63q-75 -91 -75 -267
q0 -109 18.5 -175t56.5 -111q50 -62 136 -62zM1171 770h-2q-73 0 -120 -59q-64 -78 -66 -183q234 0 322 4q24 0 24 23q0 41 -12 84t-31 68q-43 63 -115 63z" />
    <glyph glyph-name="Racute" unicode="&#x154;" horiz-adv-x="1259" 
d="M238 1196l-129 4q1 22 2 65t2 64q250 4 426 4q102 0 158.5 -5t131.5 -25q114 -27 191.5 -120t77.5 -198q0 -127 -74.5 -221t-194.5 -141v-11q16 -7 29.5 -16t28 -24t25 -26.5t25.5 -35.5t23.5 -38t26 -46.5t26 -49t29.5 -58.5l31 -62q37 -72 54 -94.5t36 -24.5l115 -8
q0 -20 -1 -62.5t-1 -64.5q-100 0 -143 -2q-20 0 -94.5 -1t-90.5 -1q-36 54 -125 239.5t-106 215.5q-29 51 -64.5 71.5t-93.5 20.5q-72 0 -88 -4l-2 -408l147 -6q0 -20 -1 -62.5t-1 -64.5h-266h-239q2 43 2 127l118 6q9 0 9 6v1057zM475 1200l-4 -526q10 -4 84 -4
q146 0 221.5 77.5t75.5 184.5q0 128 -78.5 202t-202.5 74q-80 0 -96 -8zM797 1772q38 -47 92 -138q-49 -26 -179 -96t-192 -102q-47 68 -59 90q57 42 180.5 131.5t157.5 114.5z" />
    <glyph glyph-name="racute" unicode="&#x155;" horiz-adv-x="837" 
d="M195 721l-138 2q0 82 2 121q37 5 120 18.5t147.5 24t68.5 10.5t4 -6q7 -121 13 -268l12 -2q60 116 105.5 177t83 81t87.5 20q72 0 134 -25q0 -48 -25.5 -119.5t-48.5 -92.5q-81 18 -117 18q-28 0 -63 -25q-57 -45 -123 -172q-33 -62 -33 -180q-2 -55 -2 -174l182 -6
q0 -82 -2 -121h-283q-39 0 -122.5 -1t-120.5 -1q0 84 2 123l108 4q9 5 9 8v586zM623 1376q41 -37 108 -116q-50 -38 -163 -125t-169 -129q-19 20 -71 81q47 45 147.5 144.5t147.5 144.5z" />
    <glyph glyph-name="Rcommaaccent" unicode="&#x156;" horiz-adv-x="1259" 
d="M238 1196l-129 4q1 22 2 65t2 64q250 4 426 4q102 0 158.5 -5t131.5 -25q114 -27 191.5 -120t77.5 -198q0 -127 -74.5 -221t-194.5 -141v-11q16 -7 29.5 -16t28 -24t25 -26.5t25.5 -35.5t23.5 -38t26 -46.5t26 -49t29.5 -58.5l31 -62q37 -72 54 -94.5t36 -24.5l115 -8
q0 -20 -1 -62.5t-1 -64.5q-100 0 -143 -2q-20 0 -94.5 -1t-90.5 -1q-36 54 -125 239.5t-106 215.5q-29 51 -64.5 71.5t-93.5 20.5q-72 0 -88 -4l-2 -408l147 -6q0 -20 -1 -62.5t-1 -64.5h-266h-239q2 43 2 127l118 6q9 0 9 6v1057zM475 1200l-4 -526q10 -4 84 -4
q146 0 221.5 77.5t75.5 184.5q0 128 -78.5 202t-202.5 74q-80 0 -96 -8zM676 -76h2q53 0 96 -50.5t43 -115.5q0 -100 -60 -189t-159 -144q-9 13 -29.5 37t-29.5 36q123 83 123 180q0 38 -28 60.5t-65 32.5q-7 64 25.5 108.5t81.5 44.5z" />
    <glyph glyph-name="rcommaaccent" unicode="&#x157;" horiz-adv-x="837" 
d="M195 721l-138 2q0 82 2 121q37 5 120 18.5t147.5 24t68.5 10.5t4 -6q7 -121 13 -268l12 -2q60 116 105.5 177t83 81t87.5 20q72 0 134 -25q0 -48 -25.5 -119.5t-48.5 -92.5q-81 18 -117 18q-28 0 -63 -25q-57 -45 -123 -172q-33 -62 -33 -180q-2 -55 -2 -174l182 -6
q0 -82 -2 -121h-283q-39 0 -122.5 -1t-120.5 -1q0 84 2 123l108 4q9 5 9 8v586zM367 -109h2q53 0 95 -45t42 -104q0 -91 -59 -171.5t-156 -131.5q-42 42 -60 65q121 77 121 164q0 62 -92 84q-6 58 27 98.5t80 40.5z" />
    <glyph glyph-name="Rcaron" unicode="&#x158;" horiz-adv-x="1259" 
d="M238 1196l-129 4q1 22 2 65t2 64q250 4 426 4q102 0 158.5 -5t131.5 -25q114 -27 191.5 -120t77.5 -198q0 -127 -74.5 -221t-194.5 -141v-11q16 -7 29.5 -16t28 -24t25 -26.5t25.5 -35.5t23.5 -38t26 -46.5t26 -49t29.5 -58.5l31 -62q37 -72 54 -94.5t36 -24.5l115 -8
q0 -20 -1 -62.5t-1 -64.5q-100 0 -143 -2q-20 0 -94.5 -1t-90.5 -1q-36 54 -125 239.5t-106 215.5q-29 51 -64.5 71.5t-93.5 20.5q-72 0 -88 -4l-2 -408l147 -6q0 -20 -1 -62.5t-1 -64.5h-266h-239q2 43 2 127l118 6q9 0 9 6v1057zM475 1200l-4 -526q10 -4 84 -4
q146 0 221.5 77.5t75.5 184.5q0 128 -78.5 202t-202.5 74q-80 0 -96 -8zM596 1606q132 81 238 151q29 -26 67 -82q-46 -36 -142.5 -115.5t-123.5 -101.5q-55 0 -80 2q-113 97 -262 215q33 48 65 80q41 -26 129.5 -81.5t108.5 -67.5z" />
    <glyph glyph-name="rcaron" unicode="&#x159;" horiz-adv-x="837" 
d="M195 721l-138 2q0 82 2 121q37 5 120 18.5t147.5 24t68.5 10.5t4 -6q7 -121 13 -268l12 -2q60 116 105.5 177t83 81t87.5 20q72 0 134 -25q0 -48 -25.5 -119.5t-48.5 -92.5q-81 18 -117 18q-28 0 -63 -25q-57 -45 -123 -172q-33 -62 -33 -180q-2 -55 -2 -174l182 -6
q0 -82 -2 -121h-283q-39 0 -122.5 -1t-120.5 -1q0 84 2 123l108 4q9 5 9 8v586zM459 1151q48 45 203 195q19 -14 75 -70q-35 -41 -116.5 -136.5t-112.5 -131.5q-47 -3 -98 0q-34 38 -112 130.5t-118 137.5q39 39 78 67q27 -25 61 -57.5t75.5 -72.5t64.5 -62z" />
    <glyph glyph-name="Sacute" unicode="&#x15a;" horiz-adv-x="1046" 
d="M236 397l45 -209q3 -17 14 -22q62 -43 168 -43q59 0 111.5 16.5t82.5 46.5q58 58 58 144q0 52 -10.5 85t-51 63.5t-69 44.5t-114.5 51q-9 4 -13 6q-159 67 -246.5 155t-87.5 219q0 85 37.5 160t99.5 127q130 111 375 111q77 0 150 -12t110 -31q8 -72 27 -332
q-141 -18 -154 -19l-41 191q-7 16 -12 20q-43 37 -131 37q-99 0 -162 -51q-68 -56 -68 -147q0 -32 4.5 -55t18.5 -44t30 -35t50 -32.5t66 -32t91 -37.5q169 -68 250.5 -154t81.5 -221q0 -91 -34.5 -169.5t-98.5 -133.5q-135 -114 -395 -114q-75 0 -163 12t-144 33
q-16 157 -33 348q63 13 158 24zM748 1792q40 -50 92 -137q-50 -26 -179.5 -96.5t-191.5 -102.5q-47 68 -59 90q57 42 180.5 131.5t157.5 114.5z" />
    <glyph glyph-name="sacute" unicode="&#x15b;" horiz-adv-x="862" 
d="M203 295l30 -125q7 -17 17 -25q52 -36 129 -36q84 0 121 24q53 29 53 92q0 25 -7 42.5t-17.5 29.5t-39.5 24.5t-55 21t-82 24.5q-131 38 -190.5 97t-59.5 150q0 75 43.5 135.5t106.5 92.5q102 55 262 55q74 0 133.5 -10.5t85.5 -22.5q17 -143 25 -246q-134 -20 -137 -20
l-31 121q-4 17 -12 22q-41 27 -105 27t-104 -29q-45 -29 -45 -92q0 -48 35 -69t161 -58q62 -17 103 -34.5t79 -46t56 -71t18 -100.5q0 -75 -39.5 -136t-111.5 -101q-91 -51 -273 -51q-157 0 -256 36q-5 42 -15 127t-15 127q68 16 137 25zM633 1356q37 -34 108 -117
q-51 -39 -163.5 -126t-167.5 -128q-21 23 -72 82q47 45 147.5 144.5t147.5 144.5z" />
    <glyph glyph-name="Scedilla" unicode="&#x15e;" horiz-adv-x="1046" 
d="M283 -164l153 144q-53 0 -82 2q-149 7 -243 43q-15 139 -33 348q63 13 158 24l45 -209q3 -14 14 -22q62 -43 168 -43q59 0 111.5 16.5t82.5 46.5q58 58 58 144q0 52 -10.5 85t-51 63.5t-69 44.5t-114.5 51q-9 4 -13 6q-159 67 -246.5 155t-87.5 219q0 85 37.5 160
t99.5 127q130 111 375 111q77 0 150 -12t110 -31q8 -72 27 -332q-141 -18 -154 -19l-41 191q-3 14 -12 20q-43 37 -131 37q-99 0 -162 -51q-68 -56 -68 -147q0 -32 4.5 -55t18.5 -44t30 -35t50 -32.5t66 -32t91 -37.5q170 -69 251 -154t81 -221q0 -91 -34.5 -169.5
t-98.5 -133.5q-93 -78 -225 -100l-139 -137q74 -10 111.5 -48.5t37.5 -97.5q0 -87 -86 -146t-233 -59q-11 42 -15 93q174 7 174 96q0 41 -28 59q-31 25 -105 25q-10 25 -22 57z" />
    <glyph glyph-name="Scedilla" unicode="&#xf6c1;" horiz-adv-x="1046" 
d="M283 -164l153 144q-53 0 -82 2q-149 7 -243 43q-15 139 -33 348q63 13 158 24l45 -209q3 -14 14 -22q62 -43 168 -43q59 0 111.5 16.5t82.5 46.5q58 58 58 144q0 52 -10.5 85t-51 63.5t-69 44.5t-114.5 51q-9 4 -13 6q-159 67 -246.5 155t-87.5 219q0 85 37.5 160
t99.5 127q130 111 375 111q77 0 150 -12t110 -31q8 -72 27 -332q-141 -18 -154 -19l-41 191q-3 14 -12 20q-43 37 -131 37q-99 0 -162 -51q-68 -56 -68 -147q0 -32 4.5 -55t18.5 -44t30 -35t50 -32.5t66 -32t91 -37.5q170 -69 251 -154t81 -221q0 -91 -34.5 -169.5
t-98.5 -133.5q-93 -78 -225 -100l-139 -137q74 -10 111.5 -48.5t37.5 -97.5q0 -87 -86 -146t-233 -59q-11 42 -15 93q174 7 174 96q0 41 -28 59q-31 25 -105 25q-10 25 -22 57z" />
    <glyph glyph-name="scedilla" unicode="&#x15f;" horiz-adv-x="862" 
d="M225 -150l142 130h-31q-142 3 -238 36q-5 42 -15 127t-15 127q72 17 137 25l28 -125q7 -17 17 -25q52 -36 129 -36q84 0 121 24q53 29 53 92q0 25 -7 42.5t-17.5 29.5t-39.5 24.5t-55 21t-82 24.5q-131 38 -190.5 97t-59.5 150q0 75 43.5 135.5t106.5 92.5q102 55 262 55
q74 0 133.5 -10.5t85.5 -22.5q17 -143 25 -246q-134 -20 -137 -20l-31 121q-4 17 -12 22q-41 27 -105 27t-104 -29q-45 -29 -45 -92q0 -48 35 -69t161 -58q62 -17 103 -34.5t79 -46t56 -71t18 -100.5q0 -75 -39.5 -136t-111.5 -101q-46 -25 -109 -37l-135 -127
q57 -11 92 -49t35 -92q0 -85 -78 -138.5t-215 -54.5q-5 25 -10 90q157 10 157 94q0 33 -24 54q-27 27 -92 24q-1 3 -21 55z" />
    <glyph glyph-name="scedilla" unicode="&#xf6c2;" horiz-adv-x="862" 
d="M225 -150l142 130h-31q-142 3 -238 36q-5 42 -15 127t-15 127q72 17 137 25l28 -125q7 -17 17 -25q52 -36 129 -36q84 0 121 24q53 29 53 92q0 25 -7 42.5t-17.5 29.5t-39.5 24.5t-55 21t-82 24.5q-131 38 -190.5 97t-59.5 150q0 75 43.5 135.5t106.5 92.5q102 55 262 55
q74 0 133.5 -10.5t85.5 -22.5q17 -143 25 -246q-134 -20 -137 -20l-31 121q-4 17 -12 22q-41 27 -105 27t-104 -29q-45 -29 -45 -92q0 -48 35 -69t161 -58q62 -17 103 -34.5t79 -46t56 -71t18 -100.5q0 -75 -39.5 -136t-111.5 -101q-46 -25 -109 -37l-135 -127
q57 -11 92 -49t35 -92q0 -85 -78 -138.5t-215 -54.5q-5 25 -10 90q157 10 157 94q0 33 -24 54q-27 27 -92 24q-1 3 -21 55z" />
    <glyph glyph-name="Scaron" unicode="&#x160;" horiz-adv-x="1046" 
d="M236 397l45 -209q3 -17 14 -22q62 -43 168 -43q59 0 111.5 16.5t82.5 46.5q58 58 58 144q0 52 -10.5 85t-51 63.5t-69 44.5t-114.5 51q-9 4 -13 6q-159 67 -246.5 155t-87.5 219q0 85 37.5 160t99.5 127q130 111 375 111q77 0 150 -12t110 -31q8 -72 27 -332
q-141 -18 -154 -19l-41 191q-7 16 -12 20q-43 37 -131 37q-99 0 -162 -51q-68 -56 -68 -147q0 -32 4.5 -55t18.5 -44t30 -35t50 -32.5t66 -32t91 -37.5q169 -68 250.5 -154t81.5 -221q0 -91 -34.5 -169.5t-98.5 -133.5q-135 -114 -395 -114q-75 0 -163 12t-144 33
q-16 157 -33 348q63 13 158 24zM578 1606q119 73 237 151q31 -29 68 -82q-47 -37 -147.5 -119.5t-119.5 -97.5q-54 0 -79 2q-100 85 -263 215q31 45 66 80q41 -26 129.5 -81.5t108.5 -67.5z" />
    <glyph glyph-name="scaron" unicode="&#x161;" horiz-adv-x="862" 
d="M203 295l30 -125q7 -17 17 -25q52 -36 129 -36q84 0 121 24q53 29 53 92q0 25 -7 42.5t-17.5 29.5t-39.5 24.5t-55 21t-82 24.5q-131 38 -190.5 97t-59.5 150q0 75 43.5 135.5t106.5 92.5q102 55 262 55q74 0 133.5 -10.5t85.5 -22.5q17 -143 25 -246q-134 -20 -137 -20
l-31 121q-4 17 -12 22q-41 27 -105 27t-104 -29q-45 -29 -45 -92q0 -48 35 -69t161 -58q62 -17 103 -34.5t79 -46t56 -71t18 -100.5q0 -75 -39.5 -136t-111.5 -101q-91 -51 -273 -51q-157 0 -256 36q-5 42 -15 127t-15 127q68 16 137 25zM461 1151q48 45 203 195
q19 -14 75 -70q-35 -41 -116.5 -136.5t-112.5 -131.5q-47 -3 -98 0q-34 38 -112 130.5t-118 137.5q39 39 78 67q27 -25 61 -57.5t75.5 -72.5t64.5 -62z" />
    <glyph glyph-name="Tcommaaccent" unicode="&#x162;" horiz-adv-x="1204" 
d="M322 129l153 6q8 0 8 8v1051q-135 0 -213 -8q-24 -3 -34 -12.5t-13 -26.5l-35 -199q-96 8 -157 15q4 60 11 183t11 185q16 0 81.5 -1t109.5 -1h372q310 0 361 2h184q14 -211 19 -366q-27 -3 -82.5 -8.5t-77.5 -8.5l-31 199q-3 19 -12.5 27.5t-34.5 9.5q-68 10 -215 10
l-4 -1059l170 -6q0 -86 -2 -129q-37 0 -135.5 1t-147.5 1q-45 0 -144 -1t-145 -1q0 64 3 129zM596 -82h2q53 0 96 -50.5t43 -115.5q0 -101 -60 -190t-159 -144q-9 13 -29.5 37.5t-29.5 36.5q123 83 123 180q0 68 -93 92q-7 64 25.5 109t81.5 45z" />
    <glyph glyph-name="tcommaaccent" unicode="&#x163;" horiz-adv-x="790" 
d="M406 -20h-3q-93 0 -155 57q-41 35 -52.5 70t-11.5 90q0 63 1 167.5t1 116.5q0 29 1 131t1 119h-141q0 90 4 131q22 1 66.5 4t64.5 4q5 0 10 4.5t5 10.5q3 86 10 182q33 18 85 39.5t88 34t40 12.5t4 -6q0 -129 -4 -277q52 0 161 1t158 1q0 -8 -6 -143q-44 0 -152 1t-163 1
v-205q-2 -84 -2 -282q0 -53 33.5 -82t82.5 -29q75 0 207 31q13 -63 19 -125q-165 -59 -352 -59zM436 -115h2q53 0 95 -45t42 -104q0 -91 -59 -171.5t-156 -131.5q-37 37 -59 65q121 77 121 164q0 62 -92 84q-6 58 26.5 98.5t79.5 40.5z" />
    <glyph glyph-name="Tcaron" unicode="&#x164;" horiz-adv-x="1204" 
d="M322 129l153 6q8 0 8 8v1051q-135 0 -213 -8q-24 -3 -34 -12.5t-13 -26.5l-35 -199q-96 8 -157 15q4 60 11 183t11 185q16 0 81.5 -1t109.5 -1h372q310 0 361 2h184q14 -211 19 -366q-27 -3 -82.5 -8.5t-77.5 -8.5l-31 199q-3 19 -12.5 27.5t-34.5 9.5q-68 10 -215 10
l-4 -1059l170 -6q0 -86 -2 -129q-37 0 -135.5 1t-147.5 1q-45 0 -144 -1t-145 -1q0 64 3 129zM621 1606q119 73 237 151q31 -29 68 -82q-47 -37 -147.5 -119.5t-119.5 -97.5q-54 0 -79 2q-100 85 -263 215q31 45 66 80q41 -26 129.5 -81.5t108.5 -67.5z" />
    <glyph glyph-name="tcaron" unicode="&#x165;" horiz-adv-x="790" 
d="M406 -20h-3q-93 0 -155 57q-41 35 -52.5 70t-11.5 90q0 63 1 167.5t1 116.5q0 29 1 131t1 119h-141q0 90 4 131q22 1 66.5 4t64.5 4q5 0 10 4.5t5 10.5q3 86 10 182q33 18 85 39.5t88 34t40 12.5t4 -6q0 -129 -4 -277q52 0 161 1t158 1q0 -8 -6 -143q-44 0 -152 1t-163 1
v-205q-2 -84 -2 -282q0 -53 33.5 -82t82.5 -29q75 0 207 31q13 -63 19 -125q-165 -59 -352 -59zM635 1405h2q53 0 95 -46t42 -104q0 -91 -59 -172.5t-156 -132.5q-34 34 -59 66q121 79 121 166q0 61 -93 84q-6 59 26.5 99t80.5 40z" />
    <glyph glyph-name="Umacron" unicode="&#x16a;" horiz-adv-x="1376" 
d="M438 1198l-4 -651q-1 -129 18.5 -200t61.5 -126q75 -90 211 -90q72 0 118 22.5t85 63.5q39 40 62.5 127t23.5 207q0 446 -2 639q0 6 -8 6l-160 6q0 20 1 63t1 64h254q40 0 116 1t109 1q0 -86 -2 -129l-117 -6l-4 -631q-3 -306 -147 -454q-127 -131 -350 -131
q-247 0 -375 120q-81 77 -110.5 183.5t-29.5 251.5v651q0 12 -10 12l-110 4q0 88 2 129q35 0 120.5 -1t126.5 -1q51 0 147 1t138 1q0 -88 -2 -129zM963 1626q3 -60 0 -121q-74 0 -245 1t-257 1q-3 54 0 115q86 1 251 2t251 2z" />
    <glyph glyph-name="umacron" unicode="&#x16b;" horiz-adv-x="1116" 
d="M733 86h-10q-124 -71 -178 -88.5t-121 -17.5q-64 0 -127.5 43t-103 109t-39.5 130q0 89 1 249.5t1 227.5l-111 2q0 45 4 127q40 2 181 7t153 6q6 0 6 -9q-6 -450 -6 -483q0 -54 0.5 -74.5t7.5 -55t21 -56.5q39 -62 114 -62q88 0 193 78q1 69 1 163t-0.5 204t-0.5 153
l-119 4q0 22 1 65.5t1 63.5q266 7 348 7q2 0 2 -9q0 -110 -2 -351.5t-2 -362.5q0 -23 13 -23l126 2q0 -82 -2 -121q-21 -9 -110.5 -21.5t-163.5 -12.5q-33 26 -78 106zM803 1186q3 -60 0 -121q-63 0 -217 1t-228 1q-3 56 0 115q300 4 445 4z" />
    <glyph glyph-name="Uring" unicode="&#x16e;" horiz-adv-x="1376" 
d="M438 1198l-4 -651q-1 -129 18.5 -200t61.5 -126q75 -90 211 -90q72 0 118 22.5t85 63.5q39 40 62.5 127t23.5 207q0 446 -2 639q0 6 -8 6l-160 6q0 20 1 63t1 64h254q40 0 116 1t109 1q0 -86 -2 -129l-117 -6l-4 -631q-3 -306 -147 -454q-127 -131 -350 -131
q-247 0 -375 120q-81 77 -110.5 183.5t-29.5 251.5v651q0 12 -10 12l-110 4q0 88 2 129q35 0 120.5 -1t126.5 -1q51 0 147 1t138 1q0 -88 -2 -129zM711 1812h2q98 0 159.5 -53t61.5 -135q0 -83 -64.5 -137.5t-158.5 -54.5q-97 0 -160.5 50t-63.5 138q0 75 64.5 133.5
t159.5 58.5zM713 1724h-2q-44 0 -72.5 -30.5t-28.5 -73.5q0 -44 30 -72t73 -28q45 0 70.5 28.5t25.5 73.5t-25.5 73.5t-70.5 28.5z" />
    <glyph glyph-name="uring" unicode="&#x16f;" horiz-adv-x="1116" 
d="M733 86h-10q-124 -71 -178 -88.5t-121 -17.5q-64 0 -127.5 43t-103 109t-39.5 130q0 89 1 249.5t1 227.5l-111 2q0 45 4 127q40 2 181 7t153 6q6 0 6 -9q-6 -450 -6 -483q0 -54 0.5 -74.5t7.5 -55t21 -56.5q39 -62 114 -62q88 0 193 78q1 69 1 163t-0.5 204t-0.5 153
l-119 4q0 22 1 65.5t1 63.5q266 7 348 7q2 0 2 -9q0 -110 -2 -351.5t-2 -362.5q0 -23 13 -23l126 2q0 -82 -2 -121q-21 -9 -110.5 -21.5t-163.5 -12.5q-33 26 -78 106zM535 1384h2q94 0 152.5 -51.5t58.5 -130.5q0 -82 -62 -137t-154 -55t-154.5 51.5t-62.5 136.5
q0 72 64 129t156 57zM535 1298h-3q-43 0 -70.5 -30t-27.5 -72t29.5 -71t71.5 -29q47 0 71.5 28.5t24.5 73.5t-25 72.5t-71 27.5z" />
    <glyph glyph-name="Uhungarumlaut" unicode="&#x170;" horiz-adv-x="1376" 
d="M438 1198l-4 -651q-1 -129 18.5 -200t61.5 -126q75 -90 211 -90q72 0 118 22.5t85 63.5q39 40 62.5 127t23.5 207q0 446 -2 639q0 6 -8 6l-160 6q0 20 1 63t1 64h254q40 0 116 1t109 1q0 -86 -2 -129l-117 -6l-4 -631q-3 -306 -147 -454q-127 -131 -350 -131
q-247 0 -375 120q-81 77 -110.5 183.5t-29.5 251.5v651q0 12 -10 12l-110 4q0 88 2 129q35 0 120.5 -1t126.5 -1q51 0 147 1t138 1q0 -88 -2 -129zM741 1798q37 -35 88 -106q-53 -37 -158.5 -111t-158.5 -111q-28 30 -66 78q30 26 91 77t111.5 94t92.5 79zM1028 1790
q34 -34 88 -104q-142 -101 -313 -226q-42 46 -66 78q157 133 291 252z" />
    <glyph glyph-name="uhungarumlaut" unicode="&#x171;" horiz-adv-x="1116" 
d="M733 86h-10q-124 -71 -178 -88.5t-121 -17.5q-64 0 -127.5 43t-103 109t-39.5 130q0 89 1 249.5t1 227.5l-111 2q0 45 4 127q40 2 181 7t153 6q6 0 6 -9q-6 -450 -6 -483q0 -54 0.5 -74.5t7.5 -55t21 -56.5q39 -62 114 -62q88 0 193 78q1 69 1 163t-0.5 204t-0.5 153
l-119 4q0 22 1 65.5t1 63.5q266 7 348 7q2 0 2 -9q0 -110 -2 -351.5t-2 -362.5q0 -23 13 -23l126 2q0 -82 -2 -121q-21 -9 -110.5 -21.5t-163.5 -12.5q-33 26 -78 106zM561 1348q32 -26 96 -99q-268 -222 -286 -237q-15 12 -72 69q57 57 262 267zM852 1337q40 -32 96 -96
q-51 -43 -147 -126t-135 -116q-47 43 -70 72q40 41 128 133t128 133z" />
    <glyph glyph-name="Uogonek" unicode="&#x172;" horiz-adv-x="1376" 
d="M506 -276v2q0 65 43.5 131.5t132.5 122.5q-232 10 -352 120q-82 77 -111 182.5t-29 252.5v651q0 12 -10 12l-110 4q0 88 2 129q36 0 121 -1t126 -1q51 0 147 1t138 1q0 -88 -2 -129l-164 -6l-4 -651q-1 -128 18.5 -198.5t61.5 -125.5q75 -90 211 -90q72 0 118 22.5
t85 63.5q39 40 62.5 127t23.5 207q0 447 -2 637q0 8 -8 8l-160 4q0 22 1 65.5t1 63.5h254q40 0 116 1t109 1q0 -86 -2 -129l-117 -6l-4 -633q-3 -304 -147 -452q-45 -45 -100.5 -75.5t-145.5 -55.5q-65 -19 -106 -85.5t-41 -134.5q0 -48 31.5 -77t74.5 -29q23 0 84 16
q18 -52 25 -86q-70 -39 -154 -39q-88 0 -152.5 47.5t-64.5 131.5z" />
    <glyph glyph-name="uogonek" unicode="&#x173;" horiz-adv-x="1116" 
d="M670 -252v2q0 58 42 119t124 113q-8 -2 -25 -2q-33 26 -78 106h-10q-124 -71 -178 -88.5t-121 -17.5q-64 0 -127.5 43t-103 109t-39.5 130q0 89 1 249.5t1 227.5l-111 2q0 45 4 127q37 1 161 6.5t173 6.5q6 0 6 -9q-6 -450 -6 -483q0 -54 0.5 -74.5t7.5 -55t21 -56.5
q39 -62 114 -62q88 0 193 78q1 69 1 163t-0.5 204t-0.5 153l-119 4q0 22 1 65.5t1 63.5q33 1 164.5 4t183.5 3q2 0 2 -9q0 -110 -2 -352.5t-2 -363.5q0 -23 13 -23l126 4q0 -84 -2 -123q-5 -2 -28 -6t-56.5 -10t-58.5 -14q-46 -17 -77 -54.5t-41.5 -71.5t-10.5 -65
q0 -45 27.5 -76.5t66.5 -31.5q46 0 86 16q13 -39 23 -82q-61 -37 -142 -37t-142.5 44.5t-61.5 123.5z" />
    <glyph glyph-name="Ydieresis" unicode="&#x178;" horiz-adv-x="1204" 
d="M322 129l147 6q10 0 10 10v361q-83 147 -373 682q-4 8 -10 8l-96 6q0 88 2 127h225q58 0 167 1t153 1q0 -88 -2 -129l-158 -8q93 -206 262 -535h10q179 327 265 527q1 3 -1 5.5t-5 2.5l-144 6q0 88 2 129h271q31 0 92 1t86 1q0 -88 -2 -129l-99 -6q-38 -64 -184.5 -317
t-218.5 -369l-2 -373l172 -6q0 -88 -2 -131q-38 0 -137.5 1t-149.5 1q-44 0 -141 -1t-142 -1q0 68 3 129zM481 1673h2q48 0 74.5 -31.5t26.5 -70.5q0 -44 -29.5 -74.5t-77.5 -30.5q-43 0 -73.5 30t-30.5 75q0 40 28 71t80 31zM858 1673h2q49 0 77 -31.5t28 -70.5
q0 -45 -30.5 -75t-72.5 -30q-49 0 -78.5 30.5t-29.5 74.5q0 40 27 71t77 31z" />
    <glyph glyph-name="Zacute" unicode="&#x179;" horiz-adv-x="1212" 
d="M344 156l2 -9q424 0 520 21q44 12 60 57l65 197q82 -12 160 -29q-58 -263 -92 -395q-9 0 -103.5 0.5t-237.5 1t-269 0.5h-345q-21 44 -49 121q207 269 783 1053l-4 10h-252q-158 0 -205 -8q-30 -10 -43 -50l-68 -211q-64 10 -157 29q54 300 71 389q63 0 199 -4h692
q32 -87 49 -162q-450 -610 -776 -1011zM760 1772q38 -47 92 -138q-49 -26 -179 -96t-192 -102q-47 68 -59 90q57 42 180.5 131.5t157.5 114.5z" />
    <glyph glyph-name="zacute" unicode="&#x17a;" horiz-adv-x="954" 
d="M328 135l2 -8q215 0 309 6q57 3 68 39l61 162q33 -6 137 -31q-31 -136 -76 -305l-113 1q-114 1 -200 1h-248h-180q-23 55 -39 113q119 133 561 626l-2 11q-219 0 -276 -2q-46 0 -56 -31l-55 -162q-25 3 -143 25q11 54 32.5 154.5t30.5 144.5q11 0 39 -1t74.5 -2t91.5 -2
h488q23 -67 40 -151q-38 -46 -145.5 -161.5t-235 -250t-165.5 -176.5zM629 1356q37 -34 108 -117q-51 -39 -163.5 -126t-167.5 -128q-21 23 -72 82q47 45 147.5 144.5t147.5 144.5z" />
    <glyph glyph-name="Zdotaccent" unicode="&#x17b;" horiz-adv-x="1212" 
d="M344 156l2 -9q424 0 520 21q44 12 60 57l65 197q82 -12 160 -29q-58 -263 -92 -395q-9 0 -103.5 0.5t-237.5 1t-269 0.5h-345q-21 44 -49 121q207 269 783 1053l-4 10h-252q-158 0 -205 -8q-30 -10 -43 -50l-68 -211q-64 10 -157 29q54 300 71 389q63 0 199 -4h692
q32 -87 49 -162q-450 -610 -776 -1011zM621 1700h2q53 0 82.5 -33.5t29.5 -77.5q0 -48 -32.5 -81t-84.5 -33q-47 0 -80.5 32t-33.5 80q0 44 31.5 78.5t85.5 34.5z" />
    <glyph glyph-name="zdotaccent" unicode="&#x17c;" horiz-adv-x="954" 
d="M328 135l2 -8q215 0 309 6q57 3 68 39l61 162q33 -6 137 -31q-31 -136 -76 -305l-113 1q-114 1 -200 1h-248h-180q-23 55 -39 113q119 133 561 626l-2 11q-219 0 -276 -2q-46 0 -56 -31l-55 -162q-25 3 -143 25q11 54 32.5 154.5t30.5 144.5q11 0 39 -1t74.5 -2t91.5 -2
h488q23 -67 40 -151q-38 -46 -145.5 -161.5t-235 -250t-165.5 -176.5zM479 1262h2q54 0 82.5 -33t28.5 -78q0 -47 -32 -80t-83 -33q-47 0 -79.5 32t-32.5 81q0 44 30.5 77.5t83.5 33.5z" />
    <glyph glyph-name="Zcaron" unicode="&#x17d;" horiz-adv-x="1212" 
d="M344 156l2 -9q424 0 520 21q44 12 60 57l65 197q82 -12 160 -29q-58 -263 -92 -395q-9 0 -103.5 0.5t-237.5 1t-269 0.5h-345q-21 44 -49 121q207 269 783 1053l-4 10h-252q-158 0 -205 -8q-30 -10 -43 -50l-68 -211q-64 10 -157 29q54 300 71 389q63 0 199 -4h692
q32 -87 49 -162q-450 -610 -776 -1011zM651 1606q132 81 238 151q29 -26 67 -82q-46 -36 -142.5 -115.5t-123.5 -101.5q-55 0 -80 2q-113 97 -262 215q31 45 66 80q8 -5 237 -149z" />
    <glyph glyph-name="zcaron" unicode="&#x17e;" horiz-adv-x="954" 
d="M328 135l2 -8q215 0 309 6q57 3 68 39l61 162q33 -6 137 -31q-31 -136 -76 -305l-113 1q-114 1 -200 1h-248h-180q-23 55 -39 113q119 133 561 626l-2 11q-219 0 -276 -2q-46 0 -56 -31l-55 -162q-25 3 -143 25q11 54 32.5 154.5t30.5 144.5q11 0 39 -1t74.5 -2t91.5 -2
h488q23 -67 40 -151q-38 -46 -145.5 -161.5t-235 -250t-165.5 -176.5zM481 1151q48 45 203 195q23 -17 76 -70q-36 -41 -117.5 -136.5t-112.5 -131.5q-47 -3 -98 0q-34 39 -111.5 131t-117.5 137q39 39 78 67q35 -33 107 -102.5t93 -89.5z" />
    <glyph glyph-name="florin" unicode="&#x192;" horiz-adv-x="1107" 
d="M924 1341h2q94 0 166 -28q0 -28 -28.5 -90.5t-53.5 -83.5q-122 37 -181 37q-36 0 -70.5 -15t-53.5 -43q-32 -40 -48.5 -115.5t-23.5 -242.5q57 0 179.5 1t188.5 1q0 -74 -6 -139h-368q-1 -11 -6.5 -132.5t-8.5 -178.5t-11.5 -147.5t-18.5 -144.5q-20 -114 -97 -205
t-173 -136.5t-189 -45.5q-88 0 -141 23q0 24 26 81.5t49 80.5q83 -25 140 -25q71 0 121.5 61t60.5 179q10 136 24 590h-243q0 51 4 133q172 4 233 4q11 0 11 14q8 182 38.5 267t116.5 161q151 139 361 139z" />
    <glyph glyph-name="Scommaaccent" unicode="&#x218;" horiz-adv-x="1046" 
d="M236 397l45 -209q3 -17 14 -22q62 -43 168 -43q59 0 111.5 16.5t82.5 46.5q58 58 58 144q0 52 -10.5 85t-51 63.5t-69 44.5t-114.5 51q-9 4 -13 6q-159 67 -246.5 155t-87.5 219q0 85 37.5 160t99.5 127q130 111 375 111q77 0 150 -12t110 -31q8 -72 27 -332
q-141 -18 -154 -19l-41 191q-7 16 -12 20q-43 37 -131 37q-99 0 -162 -51q-68 -56 -68 -147q0 -32 4.5 -55t18.5 -44t30 -35t50 -32.5t66 -32t91 -37.5q169 -68 250.5 -154t81.5 -221q0 -91 -34.5 -169.5t-98.5 -133.5q-135 -114 -395 -114q-75 0 -163 12t-144 33
q-16 157 -33 348q63 13 158 24zM516 -104h2q53 0 96 -50.5t43 -115.5q0 -101 -60 -190t-159 -144q-9 13 -29.5 37t-29.5 37q123 83 123 180q0 68 -92 92q-7 64 25 109t81 45z" />
    <glyph glyph-name="scommaaccent" unicode="&#x219;" horiz-adv-x="862" 
d="M203 295l30 -125q7 -17 17 -25q52 -36 129 -36q84 0 121 24q53 29 53 92q0 25 -7 42.5t-17.5 29.5t-39.5 24.5t-55 21t-82 24.5q-131 38 -190.5 97t-59.5 150q0 75 43.5 135.5t106.5 92.5q102 55 262 55q74 0 133.5 -10.5t85.5 -22.5q17 -143 25 -246q-134 -20 -137 -20
l-31 121q-4 17 -12 22q-41 27 -105 27t-104 -29q-45 -29 -45 -92q0 -48 35 -69t161 -58q62 -17 103 -34.5t79 -46t56 -71t18 -100.5q0 -75 -39.5 -136t-111.5 -101q-91 -51 -273 -51q-157 0 -256 36q-5 42 -15 127t-15 127q68 16 137 25zM434 -125h2q53 0 95 -45t42 -104
q0 -91 -59 -172t-156 -132q-34 34 -59 66q121 77 121 164q0 62 -92 84q-6 58 26.5 98.5t79.5 40.5z" />
    <glyph glyph-name="uni021A" unicode="&#x21a;" horiz-adv-x="1204" 
d="M322 129l153 6q8 0 8 8v1051q-135 0 -213 -8q-24 -3 -34 -12.5t-13 -26.5l-35 -199q-96 8 -157 15q4 60 11 183t11 185q16 0 81.5 -1t109.5 -1h372q310 0 361 2h184q14 -211 19 -366q-27 -3 -82.5 -8.5t-77.5 -8.5l-31 199q-3 19 -12.5 27.5t-34.5 9.5q-68 10 -215 10
l-4 -1059l170 -6q0 -86 -2 -129q-37 0 -135.5 1t-147.5 1q-45 0 -144 -1t-145 -1q0 64 3 129zM596 -82h2q53 0 96 -50.5t43 -115.5q0 -101 -60 -190t-159 -144q-9 13 -29.5 37.5t-29.5 36.5q123 83 123 180q0 68 -93 92q-7 64 25.5 109t81.5 45z" />
    <glyph glyph-name="uni021B" unicode="&#x21b;" horiz-adv-x="790" 
d="M406 -20h-3q-93 0 -155 57q-41 35 -52.5 70t-11.5 90q0 63 1 167.5t1 116.5q0 29 1 131t1 119h-141q0 90 4 131q22 1 66.5 4t64.5 4q5 0 10 4.5t5 10.5q3 86 10 182q33 18 85 39.5t88 34t40 12.5t4 -6q0 -129 -4 -277q52 0 161 1t158 1q0 -8 -6 -143q-44 0 -152 1t-163 1
v-205q-2 -84 -2 -282q0 -53 33.5 -82t82.5 -29q75 0 207 31q13 -63 19 -125q-165 -59 -352 -59zM436 -115h2q53 0 95 -45t42 -104q0 -91 -59 -171.5t-156 -131.5q-37 37 -59 65q121 77 121 164q0 62 -92 84q-6 58 26.5 98.5t79.5 40.5z" />
    <glyph glyph-name="circumflex" unicode="&#x2c6;" horiz-adv-x="782" 
d="M393 1174q-10 -10 -200 -193q-31 25 -78 68q33 38 112 131t117 137q33 2 98 2q38 -43 121 -140.5t109 -127.5q-53 -53 -76 -70q-124 120 -203 193z" />
    <glyph glyph-name="caron" unicode="&#x2c7;" horiz-adv-x="782" 
d="M393 1151q48 45 203 195q23 -17 76 -70q-36 -41 -117.5 -136.5t-112.5 -131.5q-47 -3 -98 0q-34 39 -111.5 131t-117.5 137q39 39 78 67q35 -33 107 -102.5t93 -89.5z" />
    <glyph glyph-name="uni02C9" unicode="&#x2c9;" horiz-adv-x="782" 
d="M614 1174q3 -61 0 -121q-62 0 -215.5 1t-228.5 1q-3 55 0 114q375 5 444 5z" />
    <glyph glyph-name="breve" unicode="&#x2d8;" horiz-adv-x="782" 
d="M389 1016h-2q-98 0 -170.5 63t-87.5 154q51 22 102 31q22 -57 64.5 -90t99.5 -33q56 0 97.5 34t58.5 80q43 -5 104 -20q-15 -83 -90 -151t-176 -68z" />
    <glyph glyph-name="dotaccent" unicode="&#x2d9;" horiz-adv-x="782" 
d="M393 1268h2q54 0 82.5 -33t28.5 -78q0 -47 -32 -80t-83 -33q-47 0 -79.5 32t-32.5 81q0 44 30.5 77.5t83.5 33.5z" />
    <glyph glyph-name="ring" unicode="&#x2da;" horiz-adv-x="782" 
d="M395 1384h2q94 0 152.5 -51.5t58.5 -130.5q0 -82 -61.5 -137t-153.5 -55t-154.5 51.5t-62.5 136.5q0 72 63.5 129t155.5 57zM395 1298h-2q-43 0 -70.5 -30t-27.5 -72t29 -71t71 -29q47 0 72 28.5t25 73.5t-25.5 72.5t-71.5 27.5z" />
    <glyph glyph-name="ogonek" unicode="&#x2db;" horiz-adv-x="782" 
d="M412 -233v2q0 62 47 126.5t139 116.5h92q-131 -101 -131 -213q0 -47 28 -72.5t70 -25.5q40 0 80 16q2 -6 10.5 -36t12.5 -46q-59 -36 -142 -36t-144.5 44.5t-61.5 123.5z" />
    <glyph glyph-name="tilde" unicode="&#x2dc;" horiz-adv-x="782" 
d="M272 1260h2q14 0 29 -3.5t25 -7t25.5 -12t22.5 -13t23 -16t21 -14.5t20 -14t20.5 -14t17 -9t21.5 -8t21 -2q56 0 68 104q49 3 92 0q-5 -104 -44 -168.5t-120 -64.5q-24 0 -50 10t-40 19.5t-43 29.5q-8 5 -24 16.5t-23.5 16.5t-19.5 11.5t-23 9t-23 2.5q-56 0 -73 -105
q-14 -1 -30 -1t-35 0.5t-28 0.5q8 102 49.5 167t118.5 65z" />
    <glyph glyph-name="hungarumlaut" unicode="&#x2dd;" horiz-adv-x="782" 
d="M352 1348q36 -29 97 -99q-221 -183 -287 -237q-15 12 -72 69q57 57 262 267zM643 1337q40 -32 96 -96q-51 -43 -147 -126t-135 -116q-47 43 -70 72q40 41 128 133t128 133z" />
    <glyph glyph-name="Delta" unicode="&#x394;" horiz-adv-x="1275" 
d="M57 0v121l449 1214h270l443 -1212v-123h-1162zM305 188h653l-233 658q-67 189 -90 291h-12q-32 -125 -80 -267z" />
    <glyph glyph-name="Delta" unicode="&#x2206;" horiz-adv-x="1275" 
d="M57 0v121l449 1214h270l443 -1212v-123h-1162zM305 188h653l-233 658q-67 189 -90 291h-12q-32 -125 -80 -267z" />
    <glyph glyph-name="Omega" unicode="&#x3a9;" horiz-adv-x="1460" 
d="M1382 178v-178h-540v139q121 86 198.5 230.5t77.5 324.5q0 90 -25.5 174t-72.5 151.5t-121 108.5t-164 41q-119 0 -210 -67.5t-137 -175t-46 -234.5q0 -170 80 -325t196 -228v-139h-542v178h274v10q-106 86 -177 222.5t-71 306.5q0 135 48 253t132 202.5t202.5 133
t254.5 48.5q141 0 259 -49.5t196 -134.5t121 -197.5t43 -237.5q0 -179 -72 -317t-180 -230v-10h276z" />
    <glyph glyph-name="Omega" unicode="&#x2126;" horiz-adv-x="1460" 
d="M1382 178v-178h-540v139q121 86 198.5 230.5t77.5 324.5q0 90 -25.5 174t-72.5 151.5t-121 108.5t-164 41q-119 0 -210 -67.5t-137 -175t-46 -234.5q0 -170 80 -325t196 -228v-139h-542v178h274v10q-106 86 -177 222.5t-71 306.5q0 135 48 253t132 202.5t202.5 133
t254.5 48.5q141 0 259 -49.5t196 -134.5t121 -197.5t43 -237.5q0 -179 -72 -317t-180 -230v-10h276z" />
    <glyph glyph-name="pi" unicode="&#x3c0;" horiz-adv-x="1163" 
d="M1085 795h-124v-502q0 -195 24 -293h-219q-33 58 -33 274v521h-272q-7 -201 -42 -442.5t-81 -352.5h-219q50 143 84.5 377t36.5 418q-66 0 -97 -2q-43 -3 -90 -13l-26 133q76 56 305 56h778z" />
    <glyph glyph-name="figuredash" unicode="&#x2012;" horiz-adv-x="1107" 
d="M78 678h4q84 0 245.5 1t239.5 1q185 0 467 4q0 -82 -6 -143h-459h-495q0 51 4 137z" />
    <glyph glyph-name="endash" unicode="&#x2013;" horiz-adv-x="1024" 
d="M530 424h-2h-458q0 53 4 139q75 0 227 1t227 1q180 0 426 4q0 -81 -6 -145h-418z" />
    <glyph glyph-name="emdash" unicode="&#x2014;" horiz-adv-x="2048" 
d="M1010 424h-2h-938q1 22 2 69.5t2 69.5q154 0 464 1t463 1q375 0 977 4q0 -81 -6 -145h-962z" />
    <glyph glyph-name="quoteleft" unicode="&#x2018;" horiz-adv-x="479" 
d="M264 887h-2q-61 0 -110.5 56.5t-49.5 131.5q0 118 74.5 227.5t185.5 163.5q41 -41 70 -86q-141 -96 -141 -206q0 -25 10 -44.5t29 -31t33.5 -17.5t35.5 -12q7 -81 -31.5 -131.5t-103.5 -50.5z" />
    <glyph glyph-name="quoteright" unicode="&#x2019;" horiz-adv-x="479" 
d="M221 1432h2q62 0 111 -56.5t49 -132.5q0 -117 -74.5 -227.5t-185.5 -163.5q-44 47 -70 88q142 95 142 207q0 74 -107 106q-9 77 29.5 128t103.5 51z" />
    <glyph glyph-name="quotesinglbase" unicode="&#x201a;" horiz-adv-x="524" 
d="M252 256h2q62 0 111 -56t49 -132q0 -117 -74.5 -228t-185.5 -164q-44 47 -70 88q141 94 141 207q0 75 -106 107q-9 77 29.5 127.5t103.5 50.5z" />
    <glyph glyph-name="quotedblleft" unicode="&#x201c;" horiz-adv-x="837" 
d="M256 930h-2q-59 0 -105.5 53.5t-46.5 124.5q0 109 71 213t177 154q43 -46 66 -84q-135 -93 -135 -193q0 -24 10 -42t28.5 -28.5t32 -15.5t33.5 -10q10 -74 -28 -123t-101 -49zM633 930h-2q-59 0 -105.5 53.5t-46.5 124.5q0 109 71 213t177 154q36 -39 64 -84
q-134 -95 -134 -193q0 -19 8 -35t17.5 -25t27 -17.5t27 -11.5t25.5 -7q9 -74 -29.5 -123t-99.5 -49z" />
    <glyph glyph-name="quotedblright" unicode="&#x201d;" horiz-adv-x="837" 
d="M211 1432h2q58 0 105 -54t47 -125q0 -110 -70.5 -212.5t-175.5 -153.5q-43 46 -66 84q133 91 133 192q0 23 -9.5 41.5t-27.5 30t-32 18t-35 13.5q-7 73 30.5 119.5t98.5 46.5zM588 1432h2q58 0 104.5 -54t46.5 -125q0 -111 -70 -213.5t-175 -152.5q-42 50 -66 84
q133 91 133 192q0 71 -104 101q-6 74 31 121t98 47z" />
    <glyph glyph-name="quotedblbase" unicode="&#x201e;" horiz-adv-x="882" 
d="M244 244h2q58 0 104.5 -53.5t46.5 -124.5q0 -110 -70 -212.5t-175 -154.5q-51 60 -66 84q133 94 133 192q0 69 -104 103q-7 73 30.5 119.5t98.5 46.5zM621 244h2q58 0 104.5 -53.5t46.5 -124.5q0 -110 -70.5 -212.5t-175.5 -154.5q-37 44 -65 84q133 94 133 192
q0 67 -104 103q-6 73 31 119.5t98 46.5z" />
    <glyph glyph-name="dagger" unicode="&#x2020;" horiz-adv-x="1030" 
d="M612 1339h2q0 -4 2 -8q-1 -65 -10 -442q111 2 336 2q0 -87 -8 -152h-330q-20 -919 -22 -1077q-39 -19 -154 -29q-4 174 -14.5 558t-14.5 548h-315q3 90 6 146q200 4 293 4q14 0 14 14q-4 268 -8 369q42 22 118.5 44.5t104.5 22.5z" />
    <glyph glyph-name="daggerdbl" unicode="&#x2021;" horiz-adv-x="1030" 
d="M612 1339h2q0 -4 2 -8q-2 -67 -5.5 -231.5t-4.5 -208.5q111 2 340 2q0 -87 -8 -152h-334q-4 -138 -8 -438q56 0 172 -1t172 -1q0 -80 -8 -145q-50 0 -170 -1t-172 -1q-3 -139 -8 -492q-51 -19 -154 -27q-6 166 -14 517q-195 0 -328 -2q0 82 6 155q52 0 155 -1t150 -1
q11 0 11 14q-1 62 -3.5 209t-3.5 215h-319q0 17 6 146q196 4 295 4q14 0 14 14q-3 165 -10 369q28 19 110.5 42t114.5 23z" />
    <glyph glyph-name="bullet" unicode="&#x2022;" horiz-adv-x="729" 
d="M369 778h2q113 0 174 -76t61 -174q0 -101 -68 -174t-171 -73q-105 0 -173.5 67.5t-68.5 171.5t67.5 181t176.5 77z" />
    <glyph glyph-name="onedotenleader" unicode="&#x2024;" horiz-adv-x="587" 
d="M299 256h2q63 0 98 -41t35 -96q0 -60 -38.5 -99.5t-100.5 -39.5q-58 0 -98.5 38.5t-40.5 98.5q0 55 39 97t104 42z" />
    <glyph glyph-name="twodotenleader" unicode="&#x2025;" horiz-adv-x="1175" 
d="M299 256h2q63 0 98 -41t35 -96q0 -60 -38.5 -99.5t-100.5 -39.5q-58 0 -98.5 38.5t-40.5 98.5q0 55 39 97t104 42zM887 256h2q63 0 98 -41t35 -96q0 -60 -38.5 -99.5t-100.5 -39.5q-58 0 -99 38.5t-41 98.5q0 55 39.5 97t104.5 42z" />
    <glyph glyph-name="ellipsis" unicode="&#x2026;" horiz-adv-x="1763" 
d="M299 256h2q63 0 98 -41t35 -96q0 -60 -38.5 -99.5t-100.5 -39.5q-58 0 -98.5 38.5t-40.5 98.5q0 55 39 97t104 42zM887 256h2q63 0 98 -41t35 -96q0 -60 -38.5 -99.5t-100.5 -39.5q-58 0 -99 38.5t-41 98.5q0 55 39.5 97t104.5 42zM1475 256h2q63 0 98 -41t35 -96
q0 -59 -39 -99t-101 -40q-58 0 -98.5 38.5t-40.5 98.5q0 55 39.5 97t104.5 42z" />
    <glyph glyph-name="perthousand" unicode="&#x2030;" horiz-adv-x="2392" 
d="M1079 1237l-10 6q-63 -1 -209.5 -2t-220.5 -2q38 -30 63 -96t25 -142q0 -193 -123 -301q-85 -73 -207 -73q-113 0 -192 61q-54 40 -88.5 116t-34.5 177q0 88 32.5 161t88.5 120q87 73 225 73q157 0 416.5 7.5t359.5 15.5q29 -36 56 -82q-155 -257 -388 -655
q-33 -56 -401 -684q-73 33 -109 57q363 623 400 688q275 481 317 555zM410 1235h-2q-52 0 -86 -37q-58 -65 -58 -217q0 -165 53 -215q39 -39 89 -39t81 31q58 58 58 229q0 146 -49 209q-27 39 -86 39zM1247 688h2q124 0 201 -67q47 -44 75.5 -114.5t28.5 -160.5
q0 -91 -31 -169.5t-85 -125.5q-83 -74 -205 -74q-118 0 -197 58q-53 39 -88 114t-35 168q0 89 34.5 169t90.5 128q86 74 209 74zM2001 688h2q130 0 203 -70q46 -43 75 -113t29 -159q0 -90 -32 -169.5t-85 -125.5q-83 -74 -206 -74q-118 0 -197 58q-53 39 -88 114.5
t-35 167.5q0 88 34 168t91 127q88 76 209 76zM1239 588h-2q-52 0 -86 -39q-55 -62 -55 -225q0 -157 49 -209q37 -37 90 -37q50 0 86 33q53 56 53 219q0 158 -49 217q-28 41 -86 41zM1993 588h-2q-52 0 -86 -39q-56 -62 -56 -225q0 -155 49 -207q34 -39 93 -39q48 0 84 33
q55 55 55 223q0 152 -47 213q-33 41 -90 41z" />
    <glyph glyph-name="guilsinglleft" unicode="&#x2039;" horiz-adv-x="563" 
d="M287 453q107 -175 198 -308q-35 -32 -82 -67q-136 148 -307 319q-2 33 -2 103q228 235 309 321q29 -18 80 -69q-104 -153 -196 -299z" />
    <glyph glyph-name="guilsinglright" unicode="&#x203a;" horiz-adv-x="563" 
d="M279 453q-93 147 -199 299q53 53 80 71q61 -64 311 -321q0 -37 -4 -103q-237 -247 -307 -321q-26 19 -80 69q76 111 199 306z" />
    <glyph glyph-name="fraction" unicode="&#x2044;" horiz-adv-x="923" 
d="M127 -35q-58 28 -104 53q63 105 186.5 316.5t165.5 283.5q212 376 413 736q70 -27 115 -56q-100 -171 -424 -737q-102 -176 -352 -596z" />
    <glyph glyph-name="zerosuperior" unicode="&#x2070;" 
d="M655 1200v-2q0 -201 -104 -297q-71 -65 -195 -65q-114 0 -184 67q-92 92 -92 264q0 210 108 310q69 69 195 69q121 0 188 -76q84 -91 84 -270zM371 1456h-2q-42 0 -70 -43q-39 -66 -39 -239q0 -156 37 -209q22 -37 70 -37q47 0 67 33q41 54 41 217q0 167 -31 231
q-24 47 -73 47z" />
    <glyph glyph-name="foursuperior" unicode="&#x2074;" 
d="M549 936l86 -2v-82h-180h-195q0 55 2 80l137 4q7 0 7 4v76h-314q-30 54 -47 102q3 4 62.5 81t97.5 126q167 206 176 217q62 0 172 -4q0 -62 -1 -205t-1 -211h125q0 -28 -4 -102h-123v-84zM408 1403h-15q-62 -84 -110 -146q-86 -118 -88 -122q-3 -5 -1.5 -9t7.5 -4h205z
" />
    <glyph glyph-name="fivesuperior" unicode="&#x2075;" 
d="M139 1176l-14 14q15 151 41 342h227h223q0 -41 -8 -119q-59 0 -164 1t-151 1q-6 -29 -25 -125q62 4 90 4q124 0 198.5 -55.5t74.5 -148.5q0 -126 -96 -193q-82 -61 -250 -61q-114 0 -166 14q-21 130 -27 190q71 16 115 21l29 -107q2 -6 8 -12q20 -10 67 -10q66 0 105 31
q41 35 41 94q0 60 -46 93.5t-135 33.5q-65 0 -137 -8z" />
    <glyph glyph-name="sixsuperior" unicode="&#x2076;" 
d="M260 1231h6q77 53 166 53q94 0 152 -51q30 -27 48.5 -68t18.5 -86q0 -116 -84 -184q-71 -59 -198 -59q-123 0 -195 63q-88 81 -88 246q0 93 30 175t87 138q91 88 248 88q71 0 137 -16q16 -143 18 -170q-106 -18 -114 -19l-23 89q-3 10 -10 12q-16 8 -41 8q-55 0 -92 -43
q-54 -63 -66 -176zM379 924h2q47 0 72 32q24 36 24 99q0 72 -37 106q-21 21 -63 21q-26 0 -58 -16t-55 -46q-3 -112 43 -164q26 -32 72 -32z" />
    <glyph glyph-name="sevensuperior" unicode="&#x2077;" 
d="M494 1403l-2 6q-213 3 -242 -2q-17 0 -25 -23l-26 -90q-21 2 -65.5 10t-49.5 9q30 185 35 221q39 -2 125 -2h379q18 -45 34 -111q-179 -276 -229 -446q-14 -52 -14 -127q-89 -6 -174 -6q-3 71 22 139q43 112 232 422z" />
    <glyph glyph-name="eightsuperior" unicode="&#x2078;" 
d="M500 1223v-6q75 -25 115 -70.5t38 -102.5q0 -89 -69 -145q-81 -63 -232 -63q-140 0 -211 51q-65 46 -65 127q0 57 40 105.5t111 76.5v8q-121 54 -121 156q0 37 19.5 74t54.5 61q74 51 201 51q123 0 184 -45q60 -44 60 -115q0 -104 -125 -163zM264 1372v-2q0 -34 29.5 -58
t103.5 -50q74 41 74 108q0 40 -22 62q-23 26 -74 26q-52 0 -78 -20q-33 -22 -33 -66zM487 1022v2q0 44 -35 71t-122 60q-39 -22 -62.5 -56t-23.5 -71q0 -49 37 -78q32 -26 86 -26q52 0 84 22q36 22 36 76z" />
    <glyph glyph-name="ninesuperior" unicode="&#x2079;" 
d="M469 1151l-6 2q-70 -53 -164 -53q-100 0 -160 57q-61 57 -61 146q0 103 84 180q76 63 198 63q128 0 195 -67q88 -84 88 -248q0 -98 -31 -179t-88 -132q-90 -84 -243 -84q-98 0 -154 16q-4 29 -13.5 85.5t-13.5 80.5q52 14 113 24l29 -86q3 -7 14 -18q15 -6 47 -6
q70 0 103 41q54 63 63 178zM350 1458h-2q-44 0 -67 -33q-31 -43 -31 -100q0 -62 31 -96q23 -29 71 -29q27 0 59 15t54 42q3 112 -43 168q-23 33 -72 33z" />
    <glyph glyph-name="parenleftsuperior" unicode="&#x207d;" horiz-adv-x="530" 
d="M150 1161v2q0 164 83.5 292.5t198.5 195.5q28 -26 53 -66q-74 -61 -123 -171t-49 -245q0 -258 172 -430q-37 -41 -63 -59q-57 43 -97.5 82t-84.5 98t-67 135t-23 166z" />
    <glyph glyph-name="parenrightsuperior" unicode="&#x207e;" horiz-adv-x="530" 
d="M385 1176v-2q0 -302 -279 -496q-25 25 -57 61q172 172 172 430q0 259 -170 418q38 42 60 62q52 -31 98 -74t87 -101.5t65 -135.5t24 -162z" />
    <glyph glyph-name="nsuperior" unicode="&#x207f;" horiz-adv-x="911" 
d="M154 1180l-113 2q0 17 1 48.5t1 45.5q30 3 93.5 14t114 20t56.5 9q4 0 4 -4q5 -37 15 -94l4 -2q109 68 154 85t100 17q52 0 93.5 -32t67.5 -77q33 -53 33 -127q0 -130 -4 -342l92 -4q0 -65 -2 -98h-182h-166v98l78 4q6 0 6 7v241q0 113 -16 144q-17 29 -37.5 38t-48.5 9
q-32 0 -80.5 -21t-85.5 -51q0 -52 -1 -184t-1 -183l90 -4v-98h-182h-177v98l89 4q6 0 6 7z" />
    <glyph glyph-name="zeroinferior" unicode="&#x2080;" 
d="M655 117v-2q0 -201 -104 -297q-72 -66 -195 -66q-113 0 -184 68q-92 92 -92 264q0 209 108 309q70 70 195 70q121 0 188 -76q84 -91 84 -270zM371 373h-2q-42 0 -70 -43q-39 -66 -39 -240q0 -156 37 -209q22 -37 70 -37q47 0 67 33q41 54 41 217q0 168 -31 232
q-24 47 -73 47z" />
    <glyph glyph-name="oneinferior" unicode="&#x2081;" 
d="M481 -135l162 -2v-94h-242h-270q0 61 2 94l176 2q4 0 4 6v424q-88 -17 -180 -35q-12 68 -16 96q58 17 148 47.5t147.5 49t68.5 18.5q2 0 2 -6q0 -90 -1 -297t-1 -303z" />
    <glyph glyph-name="twoinferior" unicode="&#x2082;" 
d="M623 258v-2q0 -48 -20 -94t-57 -85.5t-66 -65t-68 -54.5q-47 -36 -95 -66l2 -10q37 0 164.5 5t145.5 5q4 0 4 -4q0 -63 -6 -118h-353h-165q-3 11 -13 40.5t-14 45.5q105 67 184 135q38 31 63.5 55.5t54 59t43.5 71t15 74.5q0 51 -30 84q-22 28 -78 28q-57 0 -84 -24
q-6 -3 -6 -12l-21 -115q-20 1 -58 4t-56 4q6 108 12 205q94 41 233 41q140 0 203 -57q66 -60 66 -150z" />
    <glyph glyph-name="threeinferior" unicode="&#x2083;" 
d="M211 -20l25 -105q2 -6 8 -12q26 -15 71 -15q69 0 99 27q41 26 41 78q0 55 -43 85t-123 30h-76q-2 35 -2 98q231 -3 231 117q0 40 -24 61q-26 23 -82 23q-50 0 -82 -21q-6 -6 -6 -10l-19 -100q-10 0 -51 2.5t-65 3.5q4 63 8 182q103 39 237 39q140 0 199 -45
q28 -21 46 -51.5t18 -61.5q0 -124 -152 -166v-8q82 -11 125 -59t43 -107q0 -102 -90 -158q-78 -55 -244 -55q-110 0 -188 17q-6 49 -23 194q110 16 119 17z" />
    <glyph glyph-name="fourinferior" unicode="&#x2084;" 
d="M549 -147l86 -3v-81h-180h-195q0 54 2 79l137 5q7 0 7 4v75h-314q-29 53 -47 103q3 4 62.5 81t97.5 126q167 206 176 217q62 0 172 -4q0 -63 -1 -205t-1 -211h125q0 -28 -4 -102h-123v-84zM408 319h-15q-52 -71 -110 -145q-82 -114 -88 -123q-3 -5 -1.5 -8.5t7.5 -3.5
h205z" />
    <glyph glyph-name="fiveinferior" unicode="&#x2085;" 
d="M139 92l-14 14q15 155 41 343h227h223q0 -41 -8 -119q-59 0 -164 1t-151 1q-6 -29 -25 -125q62 4 90 4q123 0 198 -56t75 -149q0 -125 -96 -192q-83 -62 -250 -62q-111 0 -166 15q-21 130 -27 190q63 14 115 20l29 -106q2 -6 8 -12q22 -11 67 -11q66 0 105 31
q41 35 41 94q0 60 -46 93.5t-135 33.5q-65 0 -137 -8z" />
    <glyph glyph-name="sixinferior" unicode="&#x2086;" 
d="M260 147h6q78 54 166 54q94 0 152 -51q30 -27 48.5 -68t18.5 -86q0 -116 -84 -184q-72 -60 -198 -60q-122 0 -195 64q-88 81 -88 245q0 93 30 175.5t87 138.5q91 88 248 88q67 0 137 -17q16 -143 18 -170q-92 -16 -114 -18l-23 88q-3 10 -10 12q-18 9 -41 9
q-55 0 -92 -43q-54 -63 -66 -177zM379 -160h2q46 0 72 33q24 36 24 98q0 73 -37 107q-20 20 -63 20q-26 0 -58 -15.5t-55 -45.5q-3 -112 43 -164q26 -33 72 -33z" />
    <glyph glyph-name="seveninferior" unicode="&#x2087;" 
d="M494 319l-2 7q-213 3 -242 -2q-17 0 -25 -23l-26 -90q-14 2 -115 18q29 179 35 222q39 -2 125 -2h379q18 -45 34 -111q-179 -275 -229 -447q-14 -52 -14 -127q-89 -6 -174 -6q-3 71 22 140q42 109 232 421z" />
    <glyph glyph-name="eightinferior" unicode="&#x2088;" 
d="M500 139v-6q75 -25 115 -70t38 -102q0 -89 -69 -145q-83 -64 -232 -64q-140 0 -211 51q-65 46 -65 127q0 58 40 107t111 76v8q-121 54 -121 155q0 38 19.5 75t54.5 61q74 51 201 51q123 0 184 -45q60 -44 60 -115q0 -105 -125 -164zM264 289v-2q0 -34 30 -58.5t103 -50.5
q74 41 74 109q0 39 -22 61q-24 27 -74 27q-51 0 -78 -21q-33 -22 -33 -65zM487 -61v2q0 44 -35 71t-122 60q-39 -22 -62.5 -56t-23.5 -71q0 -49 37 -78q34 -27 86 -27q51 0 84 23q36 22 36 76z" />
    <glyph glyph-name="nineinferior" unicode="&#x2089;" 
d="M469 68l-6 2q-71 -54 -164 -54q-98 0 -160 58q-61 57 -61 145q0 103 84 180q77 64 198 64q127 0 195 -68q88 -84 88 -248q0 -98 -31 -179t-88 -132q-90 -84 -243 -84q-95 0 -154 17q-4 29 -13.5 85t-13.5 80q62 17 113 25l29 -86q3 -7 14 -18q18 -7 47 -7q70 0 103 41
q54 63 63 179zM350 375h-2q-44 0 -67 -33q-31 -43 -31 -100q0 -63 31 -97q22 -28 71 -28q27 0 59 15t54 42q3 112 -43 168q-23 33 -72 33z" />
    <glyph glyph-name="parenleftinferior" unicode="&#x208d;" horiz-adv-x="530" 
d="M150 78v2q0 164 83.5 292t198.5 195q30 -27 53 -65q-74 -61 -123 -171t-49 -245q0 -258 172 -430q-37 -41 -63 -59q-57 43 -97.5 82t-84.5 98t-67 135t-23 166z" />
    <glyph glyph-name="parenrightinferior" unicode="&#x208e;" horiz-adv-x="530" 
d="M385 92v-2q0 -302 -279 -496q-17 17 -57 62q172 172 172 430q0 259 -170 418q33 37 60 61q52 -31 98 -74t87 -101.5t65 -135.5t24 -162z" />
    <glyph glyph-name="colonmonetary" unicode="&#x20a1;" horiz-adv-x="1116" 
d="M754 66l-21 -224q-29 -4 -94 -4l18 221q-57 0 -129 11l-20 -228q-31 -4 -96 -4l22 254q-175 53 -266.5 190.5t-91.5 305.5q0 148 52.5 277t155 223.5t242.5 134.5l19 239q44 8 108 8l-20 -225q55 8 121 8l16 207q41 10 109 10l-21 -223q69 -3 133 -20.5t103 -42.5
q0 -37 -27.5 -89.5t-56.5 -76.5q-90 62 -168 74l-78 -885q114 8 256 57q20 -76 27 -127q-143 -54 -293 -71zM668 205l75 905q-53 5 -125 -6l-75 -879q55 -17 125 -20zM449 266l67 805q-94 -46 -155.5 -162.5t-61.5 -271.5q0 -140 37 -226.5t113 -144.5z" />
    <glyph glyph-name="Euro" unicode="&#x20ac;" horiz-adv-x="1107" 
d="M0 682v96h111q59 248 251 404q93 76 214.5 116.5t236.5 40.5q157 0 240 -39q15 -184 24 -372q-16 -2 -47.5 -6.5t-57.5 -7.5t-50 -5l-39 215q-7 22 -17 29q-28 18 -49.5 24.5t-62.5 6.5q-59 0 -125.5 -29t-118.5 -82q-117 -120 -150 -295h426v-96h-436q-2 -14 -2 -47
q0 -34 4 -92h434v-94h-415q22 -109 98 -193q47 -49 126 -82t150 -33q149 0 314 74q17 -65 28 -141q-80 -32 -122 -47t-117 -31t-148 -16q-107 0 -209.5 30.5t-179.5 89.5q-162 124 -205 349h-106v94h92q-2 16 -2 49q0 44 6 90h-96z" />
    <glyph glyph-name="afii61289" unicode="&#x2113;" horiz-adv-x="1044" 
d="M879 328l106 -101q-145 -250 -420 -250q-148 0 -232.5 80.5t-105.5 223.5q0 7 -6 16q-20 -16 -55.5 -39t-44.5 -29l-64 119q98 66 164 119v491q0 229 92.5 342t245.5 113q129 0 205 -86t76 -229q0 -174 -99.5 -333.5t-304.5 -340.5v-29q0 -231 185 -231q142 0 258 164z
M436 993v-364q228 239 228 465q0 83 -29 125.5t-78 42.5q-54 0 -87.5 -66t-33.5 -203z" />
    <glyph glyph-name="trademark" unicode="&#x2122;" horiz-adv-x="1308" 
d="M164 889h67v364q-61 0 -79 -6l-17 -98q-67 5 -82 6q4 66 8 176q80 -2 240 -2q41 0 116 1t111 1q1 -24 4.5 -82t4.5 -94q-41 -3 -84 -6l-17 98q-20 6 -80 6v-364h70v-78q-17 0 -59.5 1t-67.5 1q-24 0 -69 -1t-66 -1v78zM578 887l63 2q0 59 1 184.5t1 177.5l-63 2v76h217
q16 -47 52 -168t52 -170h10q16 53 56.5 180t50.5 158h209v-76l-64 -2q2 -111 2 -362l64 -2v-76q-17 0 -55 1t-58 1q-21 0 -54 -1t-46 -1v76l43 2q2 94 2 285h-10q-51 -161 -117 -336h-78q-58 162 -113 340h-10v-289l45 -2v-76q-12 0 -44 1t-50 1q-19 0 -54 -1t-52 -1v76z
" />
    <glyph glyph-name="estimated" unicode="&#x212e;" horiz-adv-x="1701" 
d="M1608 635h-1225q-10 0 -10 -10l2 -369q0 -27 16 -43q90 -94 211 -147.5t256 -53.5q143 0 269.5 60.5t218.5 165.5h108q-104 -123 -261 -195t-337 -72q-155 0 -295.5 53.5t-242.5 144.5t-162 217t-60 265q0 138 60 264t161.5 217t241.5 145t293 54q154 0 294 -54t241 -145
t161 -217t60 -264v-16zM1331 682v373q0 25 -18 43q-89 91 -208 141.5t-251 50.5q-134 0 -254 -51.5t-209 -144.5q-18 -18 -18 -47v-365q0 -10 10 -10h940q8 0 8 10z" />
    <glyph glyph-name="onethird" unicode="&#x2153;" horiz-adv-x="1638" 
d="M471 737l162 -2v-94h-242h-270q0 61 2 94l176 2q4 0 4 6v424q-177 -33 -180 -34q-14 71 -17 96q60 17 149 46.5t147 48.5t69 19q2 0 2 -6q0 -90 -1 -297t-1 -303zM487 -35q-66 30 -106 53q106 178 350 603q251 441 414 733q70 -25 117 -56q-100 -171 -424 -737
q-55 -95 -181.5 -309t-169.5 -287zM1100 211l26 -105q2 -4 9 -12q25 -14 71 -14q70 0 99 26q41 26 41 78q0 55 -43 85t-123 30h-76q-2 35 -2 98q229 -3 229 117q0 40 -24 61q-23 23 -80 23q-52 0 -82 -20q-6 -6 -6 -11l-19 -100q-20 1 -58 3t-58 3q4 63 8 182q103 39 237 39
q142 0 197 -45q63 -49 63 -112q0 -124 -149 -166v-9q82 -11 125 -58.5t43 -106.5q0 -102 -90 -158q-78 -55 -244 -55q-115 0 -188 16q-2 16 -10.5 85t-14.5 110q87 13 119 16z" />
    <glyph glyph-name="twothirds" unicode="&#x2154;" horiz-adv-x="1638" 
d="M623 1128v-2q0 -147 -211 -297q-29 -24 -95 -65l2 -10q37 0 164.5 5t145.5 5q4 0 4 -4q0 -64 -6 -119h-353h-165q-3 11 -13 40.5t-14 45.5q105 67 184 135q38 31 63.5 55.5t54 59t43.5 71t15 74.5q0 51 -30 84q-23 29 -78 29q-56 0 -84 -25q-6 -3 -6 -12l-21 -115
q-20 1 -58 4.5t-56 4.5q5 101 12 204q94 41 233 41q140 0 203 -57q66 -60 66 -152zM498 -35q-71 32 -109 53q93 154 352 600q296 524 414 736q70 -25 117 -56q-100 -171 -424 -737q-56 -97 -182.5 -311.5t-167.5 -284.5zM1110 211l25 -105q2 -6 8 -12q25 -14 71 -14
q70 0 99 26q41 26 41 78q0 55 -43 85t-123 30h-76q-2 35 -2 98q231 -3 231 117q0 40 -24 61q-26 23 -82 23q-52 0 -82 -20q-6 -6 -6 -11l-19 -100q-10 1 -51 3t-65 3q4 63 8 182q103 39 237 39q144 0 199 -45q64 -49 64 -112q0 -124 -152 -166v-9q82 -11 125 -58.5
t43 -106.5q0 -102 -90 -158q-78 -55 -244 -55q-115 0 -188 16q-6 42 -23 195q87 13 119 16z" />
    <glyph glyph-name="oneeighth" unicode="&#x215b;" horiz-adv-x="1638" 
d="M479 737l162 -2v-94h-242h-270q0 61 2 94l176 2q4 0 4 6v424q-177 -33 -180 -34q-11 56 -16 96q60 17 148.5 46.5t146.5 48.5t69 19q2 0 2 -6q0 -90 -1 -297t-1 -303zM496 -35q-71 33 -107 53q144 245 350 603q251 441 414 733q70 -25 117 -56q-100 -171 -424 -737
q-56 -97 -182.5 -311.5t-167.5 -284.5zM1389 371v-6q75 -25 115 -70t38 -102q0 -90 -69 -146q-81 -63 -232 -63q-140 0 -211 51q-65 46 -65 127q0 57 39.5 105t111.5 77v8q-121 54 -121 156q0 80 74 135q74 51 201 51q123 0 184 -45q59 -43 59 -114q0 -106 -124 -164z
M1153 520v-2q0 -34 29.5 -58t103.5 -50q74 41 74 108q0 39 -23 62q-23 26 -73 26q-52 0 -78 -20q-33 -22 -33 -66zM1376 170v2q0 43 -35.5 70.5t-121.5 58.5q-39 -21 -62.5 -54t-23.5 -71q0 -50 36 -78q33 -26 86 -26q52 0 84 22q37 23 37 76z" />
    <glyph glyph-name="threeeighths" unicode="&#x215c;" horiz-adv-x="1638" 
d="M236 852l24 -104q2 -8 8 -13q24 -14 72 -14q68 0 98 27q41 26 41 77q0 55 -43 85t-123 30h-75q-2 35 -2 98q231 -3 231 117q0 40 -25 62t-82 22q-51 0 -81 -20q-7 -7 -7 -11l-18 -100q-13 1 -36.5 2t-43 2t-37.5 2q4 63 8 182q103 39 238 39q144 0 199 -45
q63 -49 63 -112q0 -124 -151 -166v-8q82 -11 125 -59t43 -107q0 -101 -91 -158q-78 -55 -243 -55q-116 0 -189 16q-5 36 -12.5 108t-9.5 87q87 13 119 16zM481 -35q-77 37 -106 53q150 252 350 600q203 354 416 736q63 -23 114 -56q-243 -427 -424 -737
q-56 -97 -182.5 -311.5t-167.5 -284.5zM1372 371v-6q75 -25 115.5 -69.5t40.5 -102.5q0 -89 -70 -146q-81 -63 -231 -63q-140 0 -211 51q-66 47 -66 127q0 57 40 105.5t112 76.5v8q-121 54 -121 156q0 80 74 135q74 51 198 51t185 -45q59 -43 59 -114q0 -105 -125 -164z
M1139 520v-2q0 -34 29.5 -58t103.5 -50q71 41 71 108q0 40 -22 62q-23 26 -74 26q-50 0 -76 -20q-32 -21 -32 -66zM1362 170v2q0 44 -35.5 71t-122.5 60q-39 -22 -62.5 -56t-23.5 -71q0 -49 37 -78q33 -26 86 -26q52 0 84 22q37 23 37 76z" />
    <glyph glyph-name="fiveeighths" unicode="&#x215d;" horiz-adv-x="1638" 
d="M174 963l-14 14q15 152 41 342h227h223q0 -43 -8 -117h-315q-7 -30 -25 -123q62 4 90 4q124 0 198.5 -55.5t74.5 -148.5q0 -125 -97 -193q-82 -61 -250 -61q-113 0 -165 14q-21 130 -27 190q71 16 115 21l28 -107q2 -5 9 -12q20 -10 67 -10q66 0 105 31q41 35 41 92
q0 60 -46 93.5t-135 33.5q-65 0 -137 -8zM475 -35q-66 30 -106 53q144 245 350 603q251 441 414 733q68 -24 116 -56q-100 -171 -424 -737q-56 -97 -182.5 -311.5t-167.5 -284.5zM1366 371v-6q75 -25 115.5 -70t40.5 -102q0 -89 -70 -146q-81 -63 -233 -63q-140 0 -211 51
q-66 47 -66 127q0 58 40.5 106t113.5 76v8q-121 54 -121 156q0 80 74 135q74 51 198 51t185 -45q59 -43 59 -114q0 -105 -125 -164zM1133 520v-2q0 -34 29.5 -58t103.5 -50q71 41 71 108q0 40 -22 62q-23 26 -74 26q-50 0 -76 -20q-32 -21 -32 -66zM1356 170v2
q0 44 -35.5 71t-124.5 60q-38 -23 -62 -56.5t-24 -70.5q0 -49 37 -78q33 -26 88 -26q52 0 84 22q37 23 37 76z" />
    <glyph glyph-name="seveneighths" unicode="&#x215e;" horiz-adv-x="1638" 
d="M553 1190l-2 6q-213 3 -242 -2q-16 0 -24 -23l-27 -90q-21 2 -65.5 10t-49.5 9q30 185 35 221q39 -2 125 -2h379q28 -81 35 -111q-181 -276 -230 -446q-14 -49 -14 -125q-89 -6 -174 -6q-3 69 23 137q45 116 231 422zM408 -35q-87 42 -107 53q90 150 350 603
q145 251 414 733q70 -25 117 -56q-100 -171 -424 -737q-100 -176 -350 -596zM1298 373v-8q75 -23 115.5 -68t40.5 -104q0 -89 -70 -146q-81 -63 -231 -63q-140 0 -211 51q-65 46 -65 127q0 57 39.5 106t111.5 78v6q-121 57 -121 156q0 80 74 135q74 51 199 51q123 0 184 -45
q59 -43 59 -114q0 -56 -35 -97t-90 -65zM1065 520v-2q0 -33 30 -57.5t103 -48.5q72 41 72 106q0 39 -23 62q-23 26 -73 26t-76 -20q-33 -22 -33 -66zM1288 170v2q0 44 -35.5 71t-122.5 60q-39 -22 -62.5 -56t-23.5 -71q0 -49 37 -78q33 -26 86 -26q52 0 84 22q37 23 37 76z
" />
    <glyph glyph-name="partialdiff" unicode="&#x2202;" horiz-adv-x="1126" 
d="M182 1204l-65 148q163 106 364 106q114 0 216 -46.5t181 -132.5t125 -221.5t46 -301.5q0 -186 -48 -335.5t-129 -243.5t-184 -143.5t-217 -49.5q-102 0 -183.5 38.5t-130.5 101.5t-74.5 138.5t-25.5 155.5q0 205 126.5 343t316.5 138q103 0 191.5 -52.5t119.5 -105.5
q4 -2 6 0v52q0 222 -104 353.5t-260 131.5q-152 0 -271 -74zM543 725h-2q-108 0 -181 -90t-73 -221q0 -115 57.5 -182.5t151.5 -67.5h2q113 0 192.5 113.5t97.5 273.5q-22 70 -88.5 122t-156.5 52z" />
    <glyph glyph-name="product" unicode="&#x220f;" horiz-adv-x="1312" 
d="M1083 1141v-1278h-215v1278h-424v-1278h-215v1278h-184v188h1223v-188h-185z" />
    <glyph glyph-name="summation" unicode="&#x2211;" horiz-adv-x="1071" 
d="M39 -137v131l471 596l-447 588v151h938v-190h-639v-11l398 -528l-420 -537v-12h721v-188h-1022z" />
    <glyph glyph-name="minus" unicode="&#x2212;" horiz-adv-x="1107" 
d="M977 414h-848q0 51 4 141q94 0 850 6q0 -79 -6 -147z" />
    <glyph glyph-name="uni2215" unicode="&#x2215;" horiz-adv-x="923" 
d="M127 -35q-58 28 -104 53q63 105 186.5 316.5t165.5 283.5q212 376 413 736q70 -27 115 -56q-100 -171 -424 -737q-102 -176 -352 -596z" />
    <glyph glyph-name="uni2219" unicode="&#x2219;" horiz-adv-x="546" 
d="M276 672h3q63 0 98 -41t35 -96q0 -58 -39 -98t-101 -40q-58 0 -98.5 38t-40.5 97q0 55 39 97.5t104 42.5z" />
    <glyph glyph-name="radical" unicode="&#x221a;" horiz-adv-x="1159" 
d="M1198 1683l-459 -1853h-168l-319 844l-154 -64l-43 117l316 131l233 -651q27 -92 39 -137h4q9 57 29 141l352 1472h170z" />
    <glyph glyph-name="infinity" unicode="&#x221e;" horiz-adv-x="1503" 
d="M1114 217h-2q-43 0 -87.5 14.5t-74.5 30.5t-74.5 53t-62 53.5t-63.5 61.5q-4 -4 -30.5 -30t-33 -31.5t-31.5 -28t-34.5 -29t-34 -24.5t-38.5 -24.5t-38 -18t-44 -15.5t-45 -8t-50 -4q-136 0 -222 90.5t-86 229.5q0 131 91.5 225t232.5 94q54 0 104.5 -17.5t101 -54.5
t80 -64t79.5 -77q98 94 133 122q118 91 245 91q136 0 222 -90t86 -229q0 -131 -91.5 -225.5t-232.5 -94.5zM1112 371h2q68 0 115 49t47 117q0 72 -45 118.5t-113 46.5q-37 0 -72.5 -13t-73.5 -43t-57.5 -48t-60.5 -59q10 -10 35 -35.5t39 -39t39.5 -34t45.5 -31.5
t46.5 -19.5t52.5 -8.5zM383 371h2q37 0 72 13t73 44t57 49t60 60q-44 44 -69 67q-102 98 -189 98q-69 0 -116.5 -48.5t-47.5 -116.5q0 -72 45 -119t113 -47z" />
    <glyph glyph-name="integral" unicode="&#x222b;" 
d="M686 1593l-27 -143q-27 8 -65 8q-64 0 -94 -47q-28 -37 -39.5 -108t-11.5 -201q0 -152 12.5 -459.5t13.5 -462.5q0 -262 -78 -375q-35 -61 -94.5 -91.5t-128.5 -30.5q-76 0 -125 22l29 145q38 -10 76 -10q53 0 88 43q55 65 55 293q0 170 -14 483.5t-15 456.5
q0 155 27.5 251.5t87.5 160.5q77 80 201 80q44 0 102 -15z" />
    <glyph glyph-name="approxequal" unicode="&#x2248;" horiz-adv-x="1107" 
d="M920 768l81 -88q-43 -63 -112.5 -104t-145.5 -41q-59 0 -114 20q-20 6 -51 20t-39 17q-12 5 -40.5 18t-45.5 19q-43 16 -93 16q-92 0 -182 -98l-78 92q47 61 115.5 101t146.5 40q55 0 111 -18q18 -6 48 -20t44 -19q58 -28 80 -35q49 -18 96 -18q86 0 179 98zM928 432
l80 -86q-46 -66 -116 -107.5t-147 -41.5q-52 0 -108 18q-20 7 -53 22.5t-41 18.5q-14 5 -42.5 18.5t-45.5 20.5q-47 14 -93 14q-92 0 -180 -100l-78 96q46 59 116.5 99t144.5 40q44 0 106 -16q23 -7 61 -24l37 -17q12 -5 37.5 -18t40.5 -19q52 -18 98 -18q95 0 183 100z" />
    <glyph glyph-name="notequal" unicode="&#x2260;" horiz-adv-x="1107" 
d="M672 586l-72 -197h383q0 -47 -4 -141q-276 0 -430 -2q-8 -22 -33 -90.5t-35 -98.5q-52 20 -131 54q27 72 47 135q-46 -1 -137 -2t-133 -2q0 79 6 147h316q13 33 36 98.5t35 98.5h-391q0 51 4 141q278 0 436 2q37 100 68 189q34 -11 135 -56q-8 -24 -25 -70.5t-22 -60.5
q182 0 260 2q0 -79 -6 -147h-307z" />
    <glyph glyph-name="lessequal" unicode="&#x2264;" horiz-adv-x="1107" 
d="M406 748q100 -90 477 -396q-49 -68 -82 -104q-179 137 -576 436q-4 39 -4 121q85 61 283 203.5t301 216.5q30 -34 76 -109q-351 -268 -475 -368zM135 -4q0 129 6 141h840q0 -45 -4 -135q-51 0 -425.5 -2.5t-416.5 -3.5z" />
    <glyph glyph-name="greaterequal" unicode="&#x2265;" horiz-adv-x="1107" 
d="M698 735q-31 27 -135 111t-213 171.5t-125 100.5q43 70 78 107q185 -134 578 -426q4 -78 2 -121q-501 -371 -582 -430q-39 42 -82 102q22 18 230 184.5t249 200.5zM127 -4q0 122 6 137q340 0 840 4q0 -94 -4 -139q-781 0 -842 -2z" />
    <glyph glyph-name="lozenge" unicode="&#x25ca;" horiz-adv-x="1101" 
d="M1016 655l-375 -725h-180l-375 725l375 727h180zM819 651l-246 502q-21 42 -24 51h-4q-5 -15 -23 -51l-241 -494l247 -501q11 -22 23 -52h4q4 10 25 52z" />
    <glyph glyph-name="Euro.fitted" unicode="&#xe000;" horiz-adv-x="1243" 
d="M63 682v96h111q59 249 250 404q190 157 473 157q177 0 260 -39q17 -215 25 -372q-154 -19 -156 -19l-39 215q-3 18 -14 29q-47 31 -135 31q-159 0 -267 -111q-112 -115 -149 -295h471v-96h-481q-2 -14 -2 -47q0 -34 4 -92h479v-94h-459q19 -108 96 -193
q52 -54 131.5 -84.5t163.5 -30.5q78 0 175.5 22.5t162.5 51.5q20 -73 29 -141q-241 -94 -412 -94q-247 0 -405 120q-165 127 -205 349h-107v94h93q-2 16 -2 49q0 44 6 90h-97z" />
    <glyph glyph-name="Euro.oldstyle" unicode="&#xe001;" horiz-adv-x="1112" 
d="M35 504v86h94q42 214 215 344q162 127 412 127q154 0 239 -29q19 -236 23 -319q-117 -14 -154 -17l-35 174q-3 19 -12 25q-41 20 -104 20q-131 0 -221 -86q-96 -96 -119 -239l434 2v-88h-440q0 -23 2 -37q0 -34 6 -61h426v-87h-400q19 -52 66 -102q41 -41 107.5 -62.5
t138.5 -21.5q125 0 286 53q21 -91 27 -135q-206 -71 -367 -71q-224 0 -358 98q-124 90 -166 241h-100v87h82q0 8 -1 24.5t-1 24.5q0 33 2 49h-82z" />
    <glyph glyph-name="cent.fitted" unicode="&#xe005;" horiz-adv-x="1017" 
d="M82 606v2q0 187 120 325t328 171v209q72 13 134 16q0 -33 -1 -105.5t-1 -111.5q6 2 26 2q130 0 236 -49q0 -36 -24.5 -93t-49.5 -71q-125 64 -195 66q-8 -378 -10 -605q111 3 254 62q25 -88 31 -115q-155 -70 -285 -84q0 -41 -1 -117t-1 -110l-63 -6t-62 -6q0 149 2 231
q-65 1 -126.5 15.5t-118.5 45t-99.5 74t-68 109.5t-25.5 145zM303 649v-2q0 -130 66 -207q56 -62 151 -78q1 91 3 295.5t3 307.5q-98 -18 -160.5 -110.5t-62.5 -205.5z" />
    <glyph glyph-name="degree.oldstyle" unicode="&#xe006;" horiz-adv-x="704" 
d="M354 1262h2q114 0 183 -66t69 -170q0 -102 -75 -172t-181 -70q-107 0 -180.5 63.5t-73.5 172.5q0 96 74 169t182 73zM356 1157h-2q-51 0 -82.5 -39.5t-31.5 -95.5q0 -60 32.5 -96.5t81.5 -36.5q54 0 83.5 37t29.5 96q0 61 -28.5 98t-82.5 37z" />
    <glyph glyph-name="dollar.fitted" unicode="&#xe007;" horiz-adv-x="1007" 
d="M94 915v3q0 71 40.5 137.5t103.5 109.5q105 75 251 84q1 34 2.5 100t2.5 101q51 13 129 16q-1 -28 -3.5 -99.5t-3.5 -113.5q172 3 283 -59q0 -32 -27 -86t-55 -74q-116 76 -207 88q-1 -57 -4 -178t-4 -186q81 -25 138.5 -52.5t103 -66.5t68 -91.5t22.5 -119.5
q0 -79 -30 -146t-83 -112q-110 -96 -282 -109q-1 -34 -2 -100.5t-2 -101.5q-92 -9 -121 -9q4 136 4 207q-93 -2 -195.5 20t-169.5 58q6 33 35 84t57 72q165 -98 277 -107q6 381 6 398q-50 19 -77.5 30t-68.5 30.5t-63.5 36t-50 42t-41.5 52.5t-23.5 63t-9.5 79zM291 950v-2
q0 -63 43 -97t147 -67q1 38 2.5 108t2.5 126.5t1 103.5q-84 -3 -137 -47q-59 -46 -59 -125zM741 371v2q0 71 -45 111t-147 69q-1 -63 -4 -186t-4 -181q89 6 143 52q57 48 57 133z" />
    <glyph glyph-name="florin.fitted" unicode="&#xe00a;" horiz-adv-x="999" 
d="M860 1341h2q94 0 166 -28q0 -28 -28.5 -90.5t-53.5 -83.5q-122 37 -180 37q-36 0 -71 -15t-54 -43q-32 -40 -48.5 -115.5t-23.5 -242.5q57 0 180 1t189 1q0 -74 -6 -139q-38 0 -115.5 0.5t-140.5 0.5t-113 -1q-1 -11 -6.5 -132.5t-8.5 -178.5t-11.5 -147.5t-18.5 -144.5
q-20 -114 -97 -205t-173 -136.5t-189 -45.5q-88 0 -141 23q0 24 26.5 81.5t49.5 80.5q83 -25 139 -25q71 0 121.5 61t60.5 179q12 159 25 590h-244q0 51 4 133q172 4 234 4q10 0 10 14q7 181 38.5 266t117.5 162q151 139 360 139z" />
    <glyph glyph-name="florin.oldstyle" unicode="&#xe00b;" horiz-adv-x="921" 
d="M762 1061h2q86 0 149 -23q0 -30 -25.5 -85.5t-49.5 -75.5q-27 9 -74.5 19.5t-75.5 10.5q-77 0 -110 -47q-47 -66 -52 -268q47 0 148 1t155 1q0 -49 -4 -131h-305q-18 -371 -39 -479q-24 -134 -144.5 -229t-250.5 -95q-80 0 -133 16q0 30 23.5 79.5t46.5 72.5
q76 -21 116 -21q64 0 103.5 48.5t46.5 148.5q11 148 18 459h-201q0 25 5 127q36 0 101 1t93 1q8 0 8 12q4 96 20 158t42 100.5t76 83.5q73 66 147.5 90.5t163.5 24.5z" />
    <glyph glyph-name="numbersign.oldstyle" unicode="&#xe00c;" horiz-adv-x="1114" 
d="M403 1034q49 4 144 4q-24 -131 -51 -293h221q37 223 47 289q45 2 143 2q-24 -141 -51 -288h201q0 -68 -6 -123q-140 0 -220 2q-7 -46 -21.5 -138.5t-21.5 -138.5h216q0 -73 -7 -123h-231q-40 -238 -55 -319q-89 -4 -131 -2q6 34 25 145.5t28 173.5h-227q-10 -58 -29 -165
t-27 -152q-80 -4 -129 -2q27 155 51 319q-37 0 -108 -1t-98 -1q0 75 6 127h223q34 224 41 277h-221q0 63 6 118h235q39 233 47 289zM473 627q-7 -46 -22.5 -138.5t-22.5 -138.5q38 0 113 -1t112 -1q9 60 43 279h-223z" />
    <glyph glyph-name="orn.001" unicode="&#xe00d;" horiz-adv-x="2048" 
d="M1260 1300q5 -79 6 -259.5t2 -233.5q-103 -4 -490 -4q0 52 -0.5 159t-0.5 190.5t1 143.5q137 9 482 4zM684 723q3 -70 2.5 -243t1.5 -249q-192 -9 -487 -6q-5 206 2 496q138 6 481 2zM1845 723q0 -371 -2 -496q-241 -7 -483 0q-7 258 0 498q87 1 269 -0.5t216 -1.5z
M1262 139q5 -376 2 -493q-321 -5 -484 0q-3 68 -3 157.5t1.5 193.5t1.5 146q345 0 482 -4z" />
    <glyph glyph-name="orn.002" unicode="&#xe00e;" horiz-adv-x="2048" 
d="M1055 1503q154 -304 274 -614q0 -3 -8 -15q-234 -8 -602 -4q82 223 280 633h56zM2044 504q0 -42 -2 -62q-381 -201 -612 -295q-4 93 -4.5 199.5t0.5 251.5t1 188q410 -163 617 -282zM0 436v51q279 146 625 293q4 -170 4 -643q-15 7 -79.5 35.5t-91 40.5t-86 39t-97 45
t-89.5 43t-97.5 48.5t-88.5 47.5zM719 53l8 21q44 0 181 1t239 0.5t186 -3.5q-127 -341 -264 -625q-6 0 -20 -0.5t-25 -0.5t-20 1q-113 210 -285 606z" />
    <glyph glyph-name="orn.003" unicode="&#xe00f;" horiz-adv-x="2048" 
d="M684 1298q2 -73 3 -242t3 -245q-164 -6 -493 -6q0 80 -1 252.5t-1 238.5q130 7 489 2zM1847 1298q0 -201 -4 -491q-273 -3 -489 0q-2 173 2 496q183 3 491 -5zM1266 717q4 -278 4 -492q-255 -7 -494 0q-4 107 2 494q347 0 488 -2zM684 137q6 -198 2 -493q-142 -5 -487 0
q-10 250 0 489q192 8 485 4zM1849 133q0 -237 -8 -491q-175 -2 -487 2q0 339 4 491q214 6 491 -2z" />
    <glyph glyph-name="orn.004" unicode="&#xe010;" horiz-adv-x="2048" 
d="M31 1481q139 2 944 2q17 -449 2 -996q-180 -4 -946 -4v998zM166 1331q0 -22 -2 -143.5t-2.5 -187.5t1 -173t5.5 -190q47 -2 107.5 -3t104 -1t126.5 1.5t110.5 2t126 3.5t107.5 3q2 150 -10 692q-164 2 -230 2t-228 -2.5t-216 -3.5zM334 1159q67 4 340 4q4 -98 4 -352
q-106 -4 -344 0q-3 183 0 348zM1360 1161q52 2 344 2q4 -94 4 -354q-220 -7 -346 0q-2 56 -2 352zM1067 463q343 3 946 -2q4 -542 0 -996q-378 -5 -948 3q-7 520 2 995zM1202 315q-12 -386 -4 -696q45 -1 199.5 -3.5t232.5 -3t250 0.5q5 474 0 692q-476 12 -678 10z
M1370 131q94 4 342 4q4 -115 4 -352q-55 -2 -113 -2t-127 1t-106 1v348zM334 125h344q3 -46 3.5 -106.5t-0.5 -142.5t-1 -105q-229 -4 -346 -2q-4 229 0 356z" />
    <glyph glyph-name="orn.005" unicode="&#xe011;" horiz-adv-x="1875" 
d="M174 535l14 8q981 0 1368 8q4 620 -2 862q97 5 152 0q-2 -395 -2 -995l-16 -10q-135 -1 -421.5 -1t-517 -1t-425.5 -5q-3 -105 -4 -234t-0.5 -216t2.5 -225.5t2 -184.5q-86 -4 -138 -2l-14 10q2 215 1.5 544t0.5 442zM410 836v571q370 4 575 2q2 -93 1.5 -280.5
t0.5 -288.5q-125 -4 -577 -4zM553 971q201 -4 295 2q0 168 -6 303q-69 -3 -299 -8q5 -229 10 -297zM891 -457q-4 360 -4 574q380 0 579 -2q0 -55 0.5 -174t0.5 -218t-1 -178q-253 -5 -575 -2zM1034 -326l6 -2q222 5 289 9q0 164 -6 299q-45 -1 -148.5 -2.5t-148.5 -2.5
q0 -205 8 -301z" />
    <glyph glyph-name="orn.006" unicode="&#xe012;" horiz-adv-x="2048" 
d="M1554 879v-174h478v-138q-145 -4 -478 -4v-172q328 0 478 -4v-133q-139 -2 -478 -2v-168q61 0 231.5 -2t246.5 -2v-135q-147 -2 -484 -2v-480q-24 0 -72.5 1t-64.5 1q0 59 -3 229.5t-3 231.5q-51 -2 -166 -2q-1 -57 -1 -138t0.5 -180t0.5 -141q-19 -2 -135 -2v463h-166
q0 -40 0.5 -141.5t0.5 -184t-1 -137.5q-26 -1 -75 0.5t-62 1.5q0 55 -1 225.5t-1 233.5h-160q-2 -84 -4 -258.5t-2 -200.5h-135q-1 65 -1 240.5t-1 235.5q-330 0 -480 2q-2 43 -2 135q67 1 237 3t243 3q-2 61 -2 172q-68 2 -240 -0.5t-236 -1.5v133q399 6 476 6v174
q-64 1 -234.5 1t-241.5 1q-2 23 -2 138h478v172q-61 0 -230.5 2t-245.5 2q-2 23 -2 135q72 0 245 1t237 1v467q22 0 69 1t66 1q1 -62 2 -226.5t2 -230.5q51 2 168 2q0 42 -0.5 143t-0.5 180t1 128q43 2 133 2q6 -333 6 -453h162q2 72 2.5 243t1.5 210q20 2 43.5 2t50.5 -1
t39 -1q1 -52 2 -223t2 -230q27 0 82 -1t82 -1q0 225 4 455q19 1 43 1t52 -0.5t40 -0.5v-465q65 -1 239.5 -2t244.5 -2q4 -86 4 -133q-61 -1 -238 -3t-244 -3zM1405 887q-274 6 -770 6q0 -62 -1 -207t-1 -295.5t2 -314.5q414 -11 780 -4q0 202 -5 492t-5 323z" />
    <glyph glyph-name="orn.007" unicode="&#xe013;" horiz-adv-x="2048" 
d="M1024 -442l-18 28q555 1182 897 1852l39 4q7 -558 2 -1884q-137 1 -458.5 0t-461.5 0zM856 -416l-18 -22q-84 -3 -207 -3.5t-299 0.5t-230 1q0 271 -0.5 678.5t-0.5 676.5t1 465l21 13q504 9 731 0q0 -1078 2 -1809zM1217 -297l8 -14q404 5 567 12q12 487 29 1262l-17 2
q-311 -634 -587 -1262z" />
    <glyph glyph-name="orn.008" unicode="&#xe014;" horiz-adv-x="2048" 
d="M838 1393l18 -19v-1814q-164 -5 -733 0l-19 12q-2 440 -2 1823q54 0 230 1t299 0.5t207 -3.5zM1942 -487l-37 2q-366 715 -897 1853q10 25 12 29q140 1 463.5 0t460.5 0q5 -1323 -2 -1884zM1239 1264l-10 -15q236 -565 577 -1255l15 2q-5 309 -29 1259q-166 9 -553 9z
" />
    <glyph glyph-name="orn.009" unicode="&#xe015;" horiz-adv-x="2048" 
d="M1040 -422l-12 -29q-140 -1 -463.5 0t-460.5 0q-5 1444 2 1887l37 -2q334 -655 897 -1856zM1210 -446l-20 16q2 731 2 1823q91 -1 367 0.5t368 -0.5l17 -13q2 -442 2 -1826q-71 0 -231 -1t-288.5 -1t-216.5 2zM813 -319l10 16q-194 458 -575 1255h-17q3 -179 8.5 -628
t8.5 -631q223 -12 565 -12z" />
    <glyph glyph-name="orn.010" unicode="&#xe016;" horiz-adv-x="2048" 
d="M1028 1395l14 -29q-619 -1309 -899 -1851l-37 -2q-3 215 -3.5 537.5t0.5 773t1 571.5h924zM1192 1374l16 19h738q0 -417 -1 -1024t-1 -801l-19 -12q-596 0 -733 4v1814zM821 1241l-8 16q-401 5 -557 0q-9 -256 -20 -1263l16 -2q399 850 569 1249z" />
    <glyph glyph-name="orn.011" unicode="&#xe017;" horiz-adv-x="1761" 
d="M481 -645l-12 8q70 195 141 371q-286 0 -411 2v1435q712 7 1362 5q6 -999 4 -1438q-135 -2 -408 -2q21 -61 68 -185t67 -184l-12 -14q-678 0 -799 2zM883 451h18q34 -88 107 -286.5t104 -281.5q11 0 125.5 2t171.5 4q8 565 8 1143q-613 -3 -1065 -12q-8 -1104 -8 -1135
q192 -4 324 -4q13 34 94.5 253.5t120.5 316.5z" />
    <glyph glyph-name="orn.012" unicode="&#xe018;" horiz-adv-x="1761" 
d="M1350 1546l6 -14q-15 -59 -51 -188t-52 -189h306q0 -864 -3 -1407q-783 -4 -1349 -2q0 94 -1 388.5t-0.5 536.5t3.5 482q102 2 293 2q-112 342 -125 379l12 12q82 0 289 1t379.5 1t292.5 -2zM870 375l21 -2q226 807 283 1030q-234 10 -592 6l-9 -12q15 -51 84 -296
t118.5 -414t94.5 -312z" />
    <glyph glyph-name="orn.013" unicode="&#xe019;" horiz-adv-x="2048" 
d="M182 47l-14 10q-4 451 2 797l8 10q40 -16 156.5 -63.5t185.5 -75.5v451q181 0 474.5 1t504.5 1t379 -2q7 -685 4 -1440q-362 -4 -1358 -4q-2 79 -2 448q-157 -64 -340 -133zM1194 455l2 -19q-250 -104 -524 -209q0 -104 4 -338q391 -8 1061 -8q-3 716 -11 1141
q-8 0 -409.5 4t-644.5 4q-4 -238 -2 -364q133 -51 524 -211z" />
    <glyph glyph-name="orn.014" unicode="&#xe01a;" horiz-adv-x="2048" 
d="M1866 -14l-15 -6q-108 36 -333 98q2 -4 1 -161.5t-1 -162.5q-1008 0 -1334 4q-7 702 -2 1393q110 0 365.5 1t497.5 1t471 -2q2 -115 2 -311q269 96 335 118l13 -10q5 -637 0 -962zM739 465l-2 -21q674 -194 992 -282q4 401 0 590l-11 12q-67 -21 -433.5 -130t-545.5 -169
z" />
    <glyph glyph-name="orn.015" unicode="&#xe01b;" horiz-adv-x="2048" 
d="M0 115v1384h2048v-1372l-14 2q-37 47 -81.5 99t-70.5 80t-81.5 88t-69.5 75h-15q-105 -107 -307 -336h-10q-130 182 -330 438h-12q-76 -89 -206 -246.5t-146 -176.5l-17 -3q-212 254 -315 361h-21q-132 -149 -338 -393h-14zM0 -549v318q135 0 597.5 -1.5t832.5 -1
t618 4.5v-320h-2048z" />
    <glyph glyph-name="orn.016" unicode="&#xe01c;" horiz-adv-x="806" 
d="M424 809h-43q-132 221 -344 608l10 17q597 0 705 -2q-127 -265 -328 -623zM397 684h2q81 0 134 -59t53 -144q0 -92 -51.5 -153.5t-135.5 -61.5q-85 0 -143.5 57.5t-58.5 143.5q0 94 58.5 155.5t141.5 61.5zM377 145h39q106 -171 346 -610l-10 -16q-52 0 -212.5 -1
t-278.5 -0.5t-214 3.5q169 345 330 624z" />
    <glyph glyph-name="orn.017" unicode="&#xe01d;" horiz-adv-x="2048" 
d="M1352 446v46q94 57 192 114.5t224 129.5t178 102l16 -11q0 -54 1 -216t0.5 -280.5t-3.5 -215.5q-395 207 -608 331zM694 494l2 -39q-344 -210 -596 -351l-16 11q0 54 -1 216.5t-0.5 281t3.5 214.5q303 -155 608 -333zM1208 471v-2q0 -85 -49.5 -140t-124.5 -55
q-91 0 -142.5 55.5t-51.5 137.5q0 83 52.5 145t129.5 62q80 0 133 -57t53 -146z" />
    <glyph glyph-name="orn.018" unicode="&#xe01e;" horiz-adv-x="1175" 
d="M0 645v68q329 4 514 2q132 -87 234 -180t231 -230q138 0 197 2v-67q-310 -4 -514 -2q-84 47 -251 192.5t-229 216.5q-24 0 -87.5 -1t-94.5 -1z" />
    <glyph glyph-name="orn.019" unicode="&#xe01f;" horiz-adv-x="1175" 
d="M1176 713v-66q-29 0 -93.5 1t-89.5 1q-61 -71 -227.5 -217.5t-251.5 -193.5q-201 -2 -514 2v65h197q129 137 231 230t234 180q185 2 514 -2z" />
    <glyph glyph-name="orn.020" unicode="&#xe020;" horiz-adv-x="2011" 
d="M100 190l9 7q262 -166 297 -191v-6q-50 -1 -161 0t-157 0q-11 91 12 190zM297 788h6q77 -253 78 -256q-34 -6 -217 -36q9 58 48 150t85 142zM840 1102l6 -6q-41 -134 -82 -240q-110 52 -238 121q42 43 138.5 83.5t175.5 41.5zM1470 969l-4 -8q-124 -64 -213 -107
q-16 40 -48.5 122t-47.5 122q85 -6 175 -45t138 -84zM1706 774l6 6q59 -69 95 -162.5t46 -160.5q-42 11 -117.5 35t-103.5 32q36 129 74 250zM1485 102h-10q-22 209 -150 365q-117 127 -309 127q-119 0 -200.5 -35t-158.5 -115q-126 -166 -141 -362l-10 2q-224 158 -375 270
l2 6q193 39 414 78l2 4q-95 276 -141 424l4 11q174 -79 415 -199v-2q53 146 162 430h12q111 -237 187 -430h2q104 55 401 198l6 -8q-72 -245 -129 -430v2q337 -95 379 -108v-11q-148 -95 -362 -217zM1919 8l-6 -8h-334v8q61 34 187 103.5t132 72.5q15 -45 21 -176zM659 0
l-6 10q0 93 30 181.5t73 136.5q49 55 105 84.5t145 29.5q76 0 141.5 -33.5t107.5 -99.5q72 -122 82 -305q-69 -4 -366 -4h-312z" />
    <glyph glyph-name="orn.021" unicode="&#xe021;" horiz-adv-x="1814" 
d="M1079 156l2 -4q133 2 356.5 17t252.5 28q6 -52 -3 -115t-26 -80q-64 0 -275 -1t-342 -1q-721 4 -899 6q-30 44 -30 191q54 -13 264.5 -27t349.5 -18l2 4q-178 171 -314 312.5t-233 272.5q4 45 34 93.5t63 66.5q75 -117 268 -337t272 -283h4q0 169 -22 950q27 24 84 38
t102 7q-4 -113 -10 -497t-2 -515l4 -2q107 114 267.5 316t234.5 321q23 2 61 -49.5t47 -104.5q-65 -105 -223 -282.5t-289 -306.5z" />
    <glyph glyph-name="orn.022" unicode="&#xe022;" horiz-adv-x="2048" 
d="M1022 993l10 11q493 7 1006 4l6 -9q-170 -399 -473 -1052h-15q-346 643 -534 1046zM522 1006h15q232 -515 464 -1053l-6 -8q-603 -7 -999 2q-8 4 -10 8q263 543 536 1051zM1210 891l-6 -6q332 -643 344 -666h11q190 393 311 666l-4 6q-185 9 -656 0zM514 731l-8 -2
q-184 -351 -336 -663l6 -7q212 -5 645 4l4 7q-108 244 -311 661z" />
    <glyph glyph-name="orn.023" unicode="&#xe023;" horiz-adv-x="2048" 
d="M1559 172l-17 -2q-214 340 -500 844l11 18q117 3 278.5 3.5t391.5 -0.5t302 -1l9 -20q-307 -566 -475 -842zM1001 -70l-10 -18q-255 -3 -964 2l-13 20q251 452 494 836h16q223 -372 477 -840z" />
    <glyph glyph-name="orn.024" unicode="&#xe024;" horiz-adv-x="1376" 
d="M1026 -98l-25 2q-307 423 -677 901q-268 -347 -324 -422v205q257 353 317 438h25q510 -684 674 -895h18q118 153 342 457v-205q-34 -47 -154 -213t-196 -268zM1040 557l-22 -2q-260 391 -291 438l4 23q262 6 598 2l8 -23q-118 -179 -297 -438zM627 -53l-6 -23
q-84 -2 -598 -2l-7 23q83 132 287 440h23q155 -220 301 -438z" />
    <glyph glyph-name="orn.025" unicode="&#xe025;" horiz-adv-x="2048" 
d="M1522 -49l-13 -10q-169 1 -503 2t-502 2l-12 6q-2 499 2 1517l12 5q992 -460 1421 -670l2 -17q-230 -484 -407 -835zM1444 61l10 5q135 293 301 677l-4 15q-558 261 -1124 506l-9 -9q-1 -103 5 -1181q57 -1 357 -6.5t464 -6.5zM1380 248l-6 -6q-362 51 -657 102l-4 10
q231 320 438 574l6 2q93 -266 223 -682zM1257 348l3 4q-72 207 -146 383h-6q-223 -289 -248 -323l2 -6q175 -30 395 -58z" />
    <glyph glyph-name="orn.026" unicode="&#xe026;" horiz-adv-x="2048" 
d="M33 -55l-4 12q55 117 162.5 348.5t173 372t159 337t174.5 361.5l17 2q403 -188 833 -405l11 -12q-1 -168 -2.5 -502t-2.5 -504l-6 -12q-497 -2 -1515 2zM238 78l8 -8q202 -1 1181 4q1 134 5.5 407t5.5 412l-4 10q-292 139 -676 303l-15 -4q-167 -357 -505 -1124zM557 616
l-2 7q345 126 670 239l6 -6q-42 -398 -88 -690l-8 -4q-176 126 -578 454zM750 582v-7q297 -242 325 -264l6 2q28 212 43 426l-4 2q-19 -8 -370 -159z" />
    <glyph glyph-name="orn.027" unicode="&#xe027;" horiz-adv-x="2048" 
d="M500 -23l-11 13q1 167 2.5 501t2.5 504l6 13q500 2 1515 -2l4 -13q-43 -92 -201.5 -433t-261 -557.5t-206.5 -430.5l-17 -2q-428 203 -833 407zM610 55l4 -10q307 -142 676 -301l15 4q183 394 505 1124l-8 9q-202 1 -1181 -4q-1 -133 -5.5 -406t-5.5 -416zM821 96l-6 6
q56 447 90 682l10 4q271 -194 572 -454l2 -6q-251 -96 -668 -232zM924 217l4 -2q216 85 366 154v6q-212 180 -321 264l-6 -2q-19 -142 -43 -420z" />
    <glyph glyph-name="orn.028" unicode="&#xe028;" horiz-adv-x="2048" 
d="M526 999l13 11q170 -1 504 -2t501 -2l12 -9q2 -498 -2 -1517l-12 -4q-997 462 -1421 669l-2 17q211 448 407 837zM604 887l-10 -4q-134 -287 -301 -678l4 -15q394 -183 1124 -505l9 8q1 105 -5 1184q-132 1 -405 5t-416 5zM664 700l6 7q186 -23 663 -101l4 -12
q-36 -51 -78.5 -108.5t-96.5 -126t-89.5 -113.5t-99.5 -124.5t-84 -105.5l-6 -2q-153 458 -219 686zM784 600l-2 -4q86 -257 136 -393h6q192 239 266 334l-2 6q-153 27 -404 57z" />
    <glyph glyph-name="orn.029" unicode="&#xe029;" horiz-adv-x="2048" 
d="M1587 1161l-2 -26q-71 -84 -144.5 -174t-158 -194t-133.5 -163q231 -233 516 -493h18q75 95 204.5 264.5t160.5 210.5v-203q-40 -54 -107 -145t-126 -171.5t-117 -158.5l-31 2q-199 194 -715 678q326 386 447 540q-92 71 -270.5 206.5t-215.5 164.5h203
q188 -137 471 -338zM981 1077v-26q-125 -144 -397 -478l2 -24q372 -359 665 -623h-202q-93 86 -284.5 260t-287.5 263q-3 109 0 215q33 40 96 115t113.5 136t95.5 117l-2 19q-86 74 -303 249q-3 87 0 170q56 -44 158.5 -125t186.5 -146.5t159 -121.5zM1456 635
q162 200 201 246q30 -26 64 -57t76.5 -71t62.5 -59q-183 -231 -203 -256q-140 136 -201 197z" />
    <glyph glyph-name="orn.030" unicode="&#xe02a;" horiz-adv-x="2048" 
d="M913 1499h205q-235 -184 -467 -371q90 -115 445 -540q-77 -74 -326 -308.5t-389 -369.5l-31 -2q-269 367 -350 475v203q54 -68 177.5 -229.5t189.5 -245.5h18q291 265 514 493q-32 40 -101.5 126.5t-110.5 136.5t-103.5 125.5t-120.5 142.5v26q53 40 205 153.5t245 184.5
zM1462 549l2 24q-243 303 -397 478l2 26q137 104 502 396q3 -83 0 -170q-193 -159 -303 -252v-19q59 -74 303 -368q3 -106 0 -215q-96 -89 -287.5 -263t-284.5 -260q-99 -3 -200 0q313 283 663 623zM594 635q-31 -31 -98.5 -96.5t-102.5 -100.5q-20 25 -203 256
q12 11 86.5 81.5t114.5 105.5q52 -59 203 -246z" />
    <glyph glyph-name="orn.031" unicode="&#xe02b;" horiz-adv-x="2048" 
d="M1116 -549h-205q362 273 486 371q-164 208 -445 538q54 51 313 296t402 384l31 2q38 -49 160 -208.5t190 -247.5v-205q-266 339 -367 461h-18q-265 -241 -514 -496q59 -71 203 -247.5t233 -282.5v-27q-51 -37 -143.5 -103t-171 -122.5t-154.5 -112.5zM586 399l-2 -24
q252 -310 397 -475l-2 -27q-126 -94 -502 -395q-3 83 0 170q193 159 303 252v18q-82 103 -303 369q-3 107 0 215q63 58 264 240.5t308 281.5q3 2 101 1t99 -1q-254 -227 -663 -625zM1454 315q72 76 201 195q125 -150 203 -254q-6 -5 -83 -77.5t-118 -108.5
q-35 41 -101.5 122.5t-101.5 122.5z" />
    <glyph glyph-name="orn.032" unicode="&#xe02c;" horiz-adv-x="2048" 
d="M1116 -549h-203q-73 56 -149 113.5t-163.5 122.5t-139.5 104l2 27q94 110 245 294.5t191 233.5q-249 258 -516 498h-18q-58 -71 -365 -461v205q31 40 152.5 199t197.5 257l31 -2q142 -137 394.5 -376t320.5 -304q-291 -345 -447 -540q295 -234 467 -371zM1464 377l-2 24
q-371 364 -665 625q2 0 101 1t101 -1q107 -99 308 -281.5t264 -240.5q3 -107 0 -217q-224 -265 -305 -367l2 -18q56 -49 163 -137.5t140 -116.5q3 -87 0 -170q-378 303 -504 397v27q104 120 397 475zM592 315q-134 -167 -201 -245q-40 36 -117 108t-86 80q110 139 203 254
q92 -83 201 -197z" />
    <glyph glyph-name="orn.033" unicode="&#xe02d;" horiz-adv-x="2048" 
d="M1821 723l2 -31q-155 -302 -434 -776q-101 0 -283.5 -2t-337 -2t-301.5 4q-12 984 0 1524l22 8q743 -373 1332 -725zM1130 956l-14 5q-277 -303 -520 -611l4 -12q331 -100 721 -188l10 10q-58 262 -201 796z" />
    <glyph glyph-name="orn.034" unicode="&#xe02e;" horiz-adv-x="2048" 
d="M778 1272l29 2q302 -153 778 -434q0 -101 2 -283.5t2 -337t-4 -301.5q-1048 -8 -1526 2l-8 21q427 830 727 1331zM528 612l-2 -14q258 -261 578 -547l14 4q103 358 191 758l-11 10q-417 -105 -770 -211z" />
    <glyph glyph-name="orn.035" unicode="&#xe02f;" horiz-adv-x="2048" 
d="M1272 -322l-31 -2q-257 134 -776 435q0 100 -2 283t-2 337.5t4 302.5q1047 8 1524 -2l8 -20q-396 -781 -725 -1334zM1505 371l4 12q-291 269 -610 520l-14 -4q-66 -312 -127 -754l10 -10q319 91 737 236z" />
    <glyph glyph-name="orn.036" unicode="&#xe030;" horiz-adv-x="2048" 
d="M227 227l-2 31q152 295 434 776q101 0 283.5 2t337 2t301.5 -4q12 -980 0 -1523l-22 -9q-304 154 -675 355t-657 370zM887 -20l14 -5q258 254 549 576l-4 12q-271 92 -739 219l-9 -10q61 -285 189 -792z" />
    <glyph glyph-name="sterling.fitted" unicode="&#xe031;" horiz-adv-x="1124" 
d="M733 1339h2q122 0 207 -32q18 -198 23 -324q-27 -3 -81.5 -10t-66.5 -8l-39 196q-4 22 -16 27q-38 12 -90 12q-79 0 -131 -55q-54 -60 -54 -187q0 -42 27 -258q52 0 350 5q3 -64 -4 -140h-323q0 -13 1 -37.5t1 -33.5q0 -192 -133 -338q-12 -12 -9 -16.5t21 -4.5
q343 0 397 15q25 5 41 43l66 200q56 -9 147 -33q-13 -60 -40.5 -181t-41.5 -181q-17 0 -250 1t-411 1h-285q0 47 4 133l148 6q19 0 30 11q90 97 90 299q0 64 -8 116h-203q0 47 4 129q111 0 166 2q10 0 7 9q-29 174 -29 237q0 185 139 293q134 104 344 104z" />
    </font>
</defs>
</svg>
