<svg xmlns="http://www.w3.org/2000/svg" width="18.782" height="18.782" viewBox="0 0 18.782 18.782">
  <g id="Layer_2" data-name="Layer 2" transform="translate(-1.361 -3)">
    <path id="Path_11540" data-name="Path 11540" d="M16.742,17.225a2.1,2.1,0,0,0-1.625-.5,2.127,2.127,0,0,0-1.463.832l-.056.084a1.117,1.117,0,0,1-1.117.436A7.51,7.51,0,0,1,6.346,11.9a1.117,1.117,0,0,1,.436-1.089l.084-.061A2.116,2.116,0,0,0,7.2,7.683l-.854-1a2.183,2.183,0,0,0-3.512.229l-.949,1.5a4.215,4.215,0,0,0-.436,2.9A15.109,15.109,0,0,0,13.119,22.976a4.037,4.037,0,0,0,.854.089,4.227,4.227,0,0,0,2.071-.558l1.468-.916a2.183,2.183,0,0,0,.229-3.49Z" transform="translate(0 -1.283)" fill="#fff"/>
    <path id="Path_11541" data-name="Path 11541" d="M17.558,12.117a3.908,3.908,0,0,1,3.908,3.908.558.558,0,1,0,1.117,0A5.025,5.025,0,0,0,17.558,11a.558.558,0,1,0,0,1.117Z" transform="translate(-6.907 -3.533)" fill="#fff"/>
    <path id="Path_11542" data-name="Path 11542" d="M17.558,8.117A6.142,6.142,0,0,1,23.7,14.258a.558.558,0,1,0,1.117,0A7.258,7.258,0,0,0,17.558,7a.558.558,0,1,0,0,1.117Z" transform="translate(-6.907 -1.767)" fill="#fff"/>
    <path id="Path_11543" data-name="Path 11543" d="M17.558,3a.558.558,0,1,0,0,1.117,8.375,8.375,0,0,1,8.375,8.375.558.558,0,0,0,1.117,0A9.492,9.492,0,0,0,17.558,3Z" transform="translate(-6.907)" fill="#fff"/>
  </g>
</svg>
