<svg xmlns="http://www.w3.org/2000/svg" xmlns:xlink="http://www.w3.org/1999/xlink" width="620.873" height="864.708" viewBox="0 0 620.873 864.708">
  <defs>
    <linearGradient id="linear-gradient" y1="1" x2="1.223" y2="-0.293" gradientUnits="objectBoundingBox">
      <stop offset="0" stop-color="#ffff25"/>
      <stop offset="0.061" stop-color="#fee716"/>
      <stop offset="0.131" stop-color="#fdd50a"/>
      <stop offset="0.204" stop-color="#fdc903"/>
      <stop offset="0.281" stop-color="#fdc601"/>
      <stop offset="0.6" stop-color="#fb7a1f"/>
      <stop offset="1" stop-color="#f8451b"/>
    </linearGradient>
    <clipPath id="clip-path">
      <rect id="Rectangle_627" data-name="Rectangle 627" width="620.873" height="864.708" fill="none"/>
    </clipPath>
    <clipPath id="clip-path-2">
      <rect id="Rectangle_186" data-name="Rectangle 186" width="15.252" height="14.995" fill="none"/>
    </clipPath>
    <clipPath id="clip-path-4">
      <path id="Path_11725" data-name="Path 11725" d="M1.89,11.974A6.318,6.318,0,0,0,6.3,9.5a4.81,4.81,0,0,0,.694-4.477A6.612,6.612,0,0,0,3.742,1.27a5.487,5.487,0,0,1,2.229.442,6.086,6.086,0,0,1,3.55,5.6v.012a3.4,3.4,0,0,1-.187,1.088l-.013.039a5.792,5.792,0,0,1-5.173,3.936c-.057,0-.112,0-.167,0a5.474,5.474,0,0,1-2.09-.416M2.828.075a1.064,1.064,0,0,0-.9.964,1.074,1.074,0,0,0,.7,1.134l.118.043A5.305,5.305,0,0,1,5.794,5.444a3.526,3.526,0,0,1-.5,3.283,5.035,5.035,0,0,1-4,2.006H1.169a1.056,1.056,0,0,0-1.047.786,1.075,1.075,0,0,0,.5,1.245,6.73,6.73,0,0,0,3.357.9c.07,0,.14,0,.208,0a7.071,7.071,0,0,0,6.331-4.783l.017-.047a4.654,4.654,0,0,0,.257-1.488V7.321A7.371,7.371,0,0,0,6.469.543,6.757,6.757,0,0,0,3.82,0a6.518,6.518,0,0,0-.992.075" transform="translate(-0.079)" fill="url(#linear-gradient)"/>
    </clipPath>
    <clipPath id="clip-path-6">
      <rect id="Rectangle_188" data-name="Rectangle 188" width="8.711" height="19.665" fill="none"/>
    </clipPath>
    <clipPath id="clip-path-8">
      <rect id="Rectangle_189" data-name="Rectangle 189" width="10.036" height="18.855" fill="none"/>
    </clipPath>
    <clipPath id="clip-path-10">
      <rect id="Rectangle_190" data-name="Rectangle 190" width="13.306" height="13.298" fill="none"/>
    </clipPath>
  </defs>
  <g id="Group_60487" data-name="Group 60487" transform="translate(-1006 -2095)">
    <g id="Group_59637" data-name="Group 59637" transform="translate(1006 2095)" opacity="0.3">
      <g id="Group_59632" data-name="Group 59632" clip-path="url(#clip-path)">
        <rect id="Rectangle_626" data-name="Rectangle 626" width="618.917" height="862.783" rx="12" transform="translate(0.978 0.963)" fill="none" stroke="#123d6b" stroke-width="1"/>
      </g>
    </g>
    <text id="The_Torah_archetypes_of_the_personal_planets_represent_the_e_ssence_of_each_planet_expressed_through_Jewish_concepts_or_practices." data-name="The Torah archetypes of the personal planets represent the e ssence of
each planet expressed through Jewish concepts or practices." transform="translate(1316 2174)" fill="#294e7d" font-size="16" font-family="ChaparralPro-Regular, Chaparral Pro"><tspan x="-228" y="0">The Torah archetypes of the personal planets represent the e ssence of</tspan><tspan x="-195" y="19">each planet expressed through Jewish concepts or practices.</tspan></text>
    <g id="Group_59662" data-name="Group 59662" transform="translate(1035.225 2338)">
      <g id="Group_59640" data-name="Group 59640" transform="translate(0 2.75)">
        <line id="Line_104" data-name="Line 104" x2="562.422" fill="none" stroke="#5abfc0" stroke-width="0.5"/>
      </g>
    </g>
    <g id="Group_59673" data-name="Group 59673" transform="translate(1107 2695.75)">
      <g id="Group_59640-2" data-name="Group 59640" transform="translate(0)">
        <line id="Line_104-2" data-name="Line 104" x2="417.446" fill="none" stroke="#808234" stroke-width="0.6"/>
      </g>
    </g>
    <g id="Group_59663" data-name="Group 59663" transform="translate(1035.225 2375)">
      <g id="Group_59640-3" data-name="Group 59640" transform="translate(0 2.75)">
        <line id="Line_104-3" data-name="Line 104" x2="562.422" fill="none" stroke="#5abfc0" stroke-width="0.5"/>
      </g>
    </g>
    <g id="Group_59674" data-name="Group 59674" transform="translate(1107 2732.75)">
      <g id="Group_59640-4" data-name="Group 59640" transform="translate(0)">
        <line id="Line_104-4" data-name="Line 104" x2="417.446" fill="none" stroke="#808234" stroke-width="0.6"/>
      </g>
    </g>
    <g id="Group_59664" data-name="Group 59664" transform="translate(1035.225 2412)">
      <g id="Group_59640-5" data-name="Group 59640" transform="translate(0 2.75)">
        <line id="Line_104-5" data-name="Line 104" x2="562.422" fill="none" stroke="#5abfc0" stroke-width="0.5"/>
      </g>
    </g>
    <g id="Group_59677" data-name="Group 59677" transform="translate(1107 2769.75)">
      <g id="Group_59640-6" data-name="Group 59640" transform="translate(0)">
        <line id="Line_104-6" data-name="Line 104" x2="417.446" fill="none" stroke="#808234" stroke-width="0.6"/>
      </g>
    </g>
    <g id="Group_59665" data-name="Group 59665" transform="translate(1035.225 2449)">
      <g id="Group_59640-7" data-name="Group 59640" transform="translate(0 2.75)">
        <line id="Line_104-7" data-name="Line 104" x2="562.422" fill="none" stroke="#5abfc0" stroke-width="0.5"/>
      </g>
    </g>
    <g id="Group_59678" data-name="Group 59678" transform="translate(1107 2806.75)">
      <g id="Group_59640-8" data-name="Group 59640" transform="translate(0)">
        <line id="Line_104-8" data-name="Line 104" x2="417.446" fill="none" stroke="#808234" stroke-width="0.6"/>
      </g>
    </g>
    <g id="Group_59666" data-name="Group 59666" transform="translate(1035.225 2486)">
      <g id="Group_59640-9" data-name="Group 59640" transform="translate(0 2.75)">
        <line id="Line_104-9" data-name="Line 104" x2="562.422" fill="none" stroke="#5abfc0" stroke-width="0.5"/>
      </g>
    </g>
    <g id="Group_59681" data-name="Group 59681" transform="translate(1107 2843.75)">
      <g id="Group_59640-10" data-name="Group 59640" transform="translate(0)">
        <line id="Line_104-10" data-name="Line 104" x2="417.446" fill="none" stroke="#808234" stroke-width="0.6"/>
      </g>
    </g>
    <g id="Group_59667" data-name="Group 59667" transform="translate(1035.225 2523.604)">
      <g id="Group_59640-11" data-name="Group 59640" transform="translate(0 2.75)">
        <line id="Line_104-11" data-name="Line 104" x2="562.422" fill="none" stroke="#5abfc0" stroke-width="0.5"/>
      </g>
    </g>
    <g id="Group_59683" data-name="Group 59683" transform="translate(1107 2881.354)">
      <g id="Group_59640-12" data-name="Group 59640" transform="translate(0)">
        <line id="Line_104-12" data-name="Line 104" x2="417.446" fill="none" stroke="#808234" stroke-width="0.6"/>
      </g>
    </g>
    <text id="Personal_Planets_Torah_Archetypes" data-name="Personal Planets
Torah Archetypes" transform="translate(1048.226 2297)" fill="#294e7d" font-size="19" font-family="ChaparralPro-Semibold, Chaparral Pro" font-weight="600"><tspan x="0" y="0">Personal Planets</tspan><tspan x="0" y="23">Torah Archetypes</tspan></text>
    <text id="Examples_from_Judaism_That_Embody_the_Energy_of_Each_Planet." data-name="Examples from Judaism That
Embody the Energy of Each Planet." transform="translate(1417.226 2297)" fill="#294e7d" font-size="19" font-family="ChaparralPro-Semibold, Chaparral Pro" font-weight="600"><tspan x="-118" y="0">Examples from Judaism That</tspan><tspan x="-142" y="23">Embody the Energy of Each Planet.</tspan></text>
    <text id="Jewish_Names_of_Personal_Planets" data-name="Jewish Names of Personal Planets" transform="translate(1316 2663)" fill="#294e7d" font-size="19" font-family="ChaparralPro-Semibold, Chaparral Pro" font-weight="600"><tspan x="-138" y="0">Jewish Names of Personal Planets</tspan></text>
    <text id="Sun" transform="translate(1080.226 2364)" fill="#294e7d" font-size="16" font-family="ChaparralPro-Regular, Chaparral Pro"><tspan x="-12" y="0">Sun</tspan></text>
    <text id="Sun-2" data-name="Sun" transform="translate(1150.226 2719)" fill="#294e7d" font-size="16" font-family="ChaparralPro-Regular, Chaparral Pro"><tspan x="-12" y="0">Sun</tspan></text>
    <text id="Core-Self_Essence_Torah_M_Sinai_The_Five_Books_of_Moses_Emotions_Feelings_Desires_Ego_Middos_Mussar_Thinking_Communicating_Gemara_Halachah_Litvish_Intuition_Values_Passions_Chazzanus_Kabbalah_Chassidus_Instinct_Action_Shochet_Mohel" data-name="Core-Self, Essence = Torah M’Sinai, The Five Books of Moses
Emotions, Feelings, Desires, Ego = Middos, Mussar
Thinking, Communicating = Gemara, Halachah, Litvish
Intuition, Values, Passions = Chazzanus, Kabbalah, Chassidus
Instinct, Action = Shochet, Mohel" transform="translate(1397.226 2363)" fill="#294e7d" font-size="16" font-family="ChaparralPro-Regular, Chaparral Pro"><tspan x="-194" y="0">Core-Self, Essence = </tspan><tspan y="0" font-family="ChaparralPro-Italic, Chaparral Pro" font-style="italic">Torah M’Sinai,</tspan><tspan y="0" xml:space="preserve"> The Five Books of Moses</tspan><tspan x="-163" y="37">Emotions, Feelings, Desires, Ego = </tspan><tspan y="37" font-family="ChaparralPro-Italic, Chaparral Pro" font-style="italic">Middos, Mussar</tspan><tspan x="-179" y="74">Thinking, Communicating = Gemara, Halachah, Litvish</tspan><tspan x="-197" y="111">Intuition, Values, Passions = </tspan><tspan y="111" font-family="ChaparralPro-Italic, Chaparral Pro" font-style="italic">Chazzanus,</tspan><tspan y="111" xml:space="preserve"> Kabbalah, </tspan><tspan y="111" font-family="ChaparralPro-Italic, Chaparral Pro" font-style="italic">Chassidus</tspan><tspan x="-183" y="148">Instinct, Action = </tspan><tspan y="148" font-family="ChaparralPro-Italic, Chaparral Pro" font-style="italic">Shochet</tspan><tspan y="148">, Mohel, Shaking Lulav, Tefillin</tspan></text>
    <text id="Chamah_or_Shemesh_Levanah_or_Yareiach_Kochav_Nogah_Maadim" data-name="Chamah or Shemesh
Levanah or Yareiach
Kochav
Nogah
Maadim" transform="translate(1406.226 2718)" fill="#294e7d" font-size="16" font-family="ChaparralPro-Italic, Chaparral Pro" font-style="italic"><tspan x="-62" y="0">Chamah or Shemesh</tspan><tspan x="-62" y="37">Levanah or Yareiach</tspan><tspan x="-22" y="74">Kochav</tspan><tspan x="-20" y="111">Nogah</tspan><tspan x="-25" y="148">Maadim</tspan></text>
    <text id="Moon" transform="translate(1080.226 2401)" fill="#294e7d" font-size="16" font-family="ChaparralPro-Regular, Chaparral Pro"><tspan x="-19" y="0">Moon</tspan></text>
    <text id="Moon-2" data-name="Moon" transform="translate(1150.226 2756)" fill="#294e7d" font-size="16" font-family="ChaparralPro-Regular, Chaparral Pro"><tspan x="-19" y="0">Moon</tspan></text>
    <text id="Mercury" transform="translate(1080.226 2435)" fill="#294e7d" font-size="16" font-family="ChaparralPro-Regular, Chaparral Pro"><tspan x="-27" y="0">Mercury</tspan></text>
    <text id="Mercury-2" data-name="Mercury" transform="translate(1150.226 2790)" fill="#294e7d" font-size="16" font-family="ChaparralPro-Regular, Chaparral Pro"><tspan x="-27" y="0">Mercury</tspan></text>
    <text id="Venus" transform="translate(1080.226 2478)" fill="#294e7d" font-size="16" font-family="ChaparralPro-Regular, Chaparral Pro"><tspan x="-20" y="0">Venus</tspan></text>
    <text id="Venus-2" data-name="Venus" transform="translate(1150.226 2833)" fill="#294e7d" font-size="16" font-family="ChaparralPro-Regular, Chaparral Pro"><tspan x="-20" y="0">Venus</tspan></text>
    <text id="Mars" transform="translate(1080.226 2515)" fill="#294e7d" font-size="16" font-family="ChaparralPro-Regular, Chaparral Pro"><tspan x="-16" y="0">Mars</tspan></text>
    <text id="Mars-2" data-name="Mars" transform="translate(1150.226 2870)" fill="#294e7d" font-size="16" font-family="ChaparralPro-Regular, Chaparral Pro"><tspan x="-16" y="0">Mars</tspan></text>
    <g id="Group_59668" data-name="Group 59668" transform="translate(1146.1 2351.502)">
      <g id="Group_59206" data-name="Group 59206" transform="translate(0 0)" clip-path="url(#clip-path-2)">
        <path id="Path_11723" data-name="Path 11723" d="M7.627,1.474A6.085,6.085,0,0,0,1.5,7.5a6.085,6.085,0,0,0,6.129,6.024A6.083,6.083,0,0,0,13.754,7.5,6.084,6.084,0,0,0,7.627,1.474m0,12.7A6.746,6.746,0,0,1,.832,7.5,6.745,6.745,0,0,1,7.627.818,6.744,6.744,0,0,1,14.42,7.5a6.745,6.745,0,0,1-6.794,6.679m0-13.521A6.909,6.909,0,0,0,.668,7.5,6.909,6.909,0,0,0,7.627,14.34,6.909,6.909,0,0,0,14.585,7.5,6.909,6.909,0,0,0,7.627.657M7.627,15A7.571,7.571,0,0,1,0,7.5,7.572,7.572,0,0,1,7.627,0a7.571,7.571,0,0,1,7.625,7.5A7.57,7.57,0,0,1,7.627,15" transform="translate(0 0)" fill="#726f24"/>
        <path id="Path_11724" data-name="Path 11724" d="M7.341,5.915A1.311,1.311,0,1,1,6.03,4.625a1.3,1.3,0,0,1,1.311,1.29" transform="translate(1.621 1.588)" fill="#726f24"/>
      </g>
    </g>
    <g id="Group_59675" data-name="Group 59675" transform="translate(1258.1 2706.502)">
      <g id="Group_59206-2" data-name="Group 59206" transform="translate(0 0)" clip-path="url(#clip-path-2)">
        <path id="Path_11723-2" data-name="Path 11723" d="M7.627,1.474A6.085,6.085,0,0,0,1.5,7.5a6.085,6.085,0,0,0,6.129,6.024A6.083,6.083,0,0,0,13.754,7.5,6.084,6.084,0,0,0,7.627,1.474m0,12.7A6.746,6.746,0,0,1,.832,7.5,6.745,6.745,0,0,1,7.627.818,6.744,6.744,0,0,1,14.42,7.5a6.745,6.745,0,0,1-6.794,6.679m0-13.521A6.909,6.909,0,0,0,.668,7.5,6.909,6.909,0,0,0,7.627,14.34,6.909,6.909,0,0,0,14.585,7.5,6.909,6.909,0,0,0,7.627.657M7.627,15A7.571,7.571,0,0,1,0,7.5,7.572,7.572,0,0,1,7.627,0a7.571,7.571,0,0,1,7.625,7.5A7.57,7.57,0,0,1,7.627,15" transform="translate(0 0)" fill="#726f24"/>
        <path id="Path_11724-2" data-name="Path 11724" d="M7.341,5.915A1.311,1.311,0,1,1,6.03,4.625a1.3,1.3,0,0,1,1.311,1.29" transform="translate(1.621 1.588)" fill="#726f24"/>
      </g>
    </g>
    <g id="Group_59669" data-name="Group 59669" transform="translate(1147.29 2387.839)">
      <g id="Group_59208" data-name="Group 59208" transform="translate(0.079)" clip-path="url(#clip-path-4)">
        <rect id="Rectangle_187" data-name="Rectangle 187" width="10.814" height="13.661" transform="translate(-0.095 0)" fill="url(#linear-gradient)"/>
      </g>
    </g>
    <g id="Group_59676" data-name="Group 59676" transform="translate(1259.29 2742.839)">
      <g id="Group_59208-2" data-name="Group 59208" transform="translate(0.079)" clip-path="url(#clip-path-4)">
        <rect id="Rectangle_187-2" data-name="Rectangle 187" width="10.814" height="13.661" transform="translate(-0.095 0)" fill="url(#linear-gradient)"/>
      </g>
    </g>
    <g id="Group_59670" data-name="Group 59670" transform="translate(1149.37 2426.168)">
      <g id="Group_59210" data-name="Group 59210" transform="translate(0 0)" clip-path="url(#clip-path-6)">
        <path id="Path_11726" data-name="Path 11726" d="M4.357,10.529A2.816,2.816,0,1,1,7.185,7.712a2.826,2.826,0,0,1-2.829,2.816M8.711,7.712a4.332,4.332,0,0,0-1.96-3.618A3.958,3.958,0,0,0,8.6.782a.785.785,0,0,0-1.57,0A2.577,2.577,0,0,1,4.357,3.234,2.577,2.577,0,0,1,1.677.782a.785.785,0,0,0-1.57,0A3.953,3.953,0,0,0,1.961,4.095a4.325,4.325,0,0,0,1.632,7.884v1.885H2.742a.759.759,0,1,0,0,1.518h.852v3.524a.762.762,0,0,0,1.524,0V15.381h.852a.759.759,0,1,0,0-1.518H5.118V11.979A4.344,4.344,0,0,0,8.711,7.712" transform="translate(0 0)" fill="#6d2f61"/>
      </g>
    </g>
    <g id="Group_59679" data-name="Group 59679" transform="translate(1261.37 2781.168)">
      <g id="Group_59210-2" data-name="Group 59210" transform="translate(0 0)" clip-path="url(#clip-path-6)">
        <path id="Path_11726-2" data-name="Path 11726" d="M4.357,10.529A2.816,2.816,0,1,1,7.185,7.712a2.826,2.826,0,0,1-2.829,2.816M8.711,7.712a4.332,4.332,0,0,0-1.96-3.618A3.958,3.958,0,0,0,8.6.782a.785.785,0,0,0-1.57,0A2.577,2.577,0,0,1,4.357,3.234,2.577,2.577,0,0,1,1.677.782a.785.785,0,0,0-1.57,0A3.953,3.953,0,0,0,1.961,4.095a4.325,4.325,0,0,0,1.632,7.884v1.885H2.742a.759.759,0,1,0,0,1.518h.852v3.524a.762.762,0,0,0,1.524,0V15.381h.852a.759.759,0,1,0,0-1.518H5.118V11.979A4.344,4.344,0,0,0,8.711,7.712" transform="translate(0 0)" fill="#6d2f61"/>
      </g>
    </g>
    <g id="Group_59671" data-name="Group 59671" transform="translate(1147.37 2464.572)">
      <g id="Group_59212" data-name="Group 59212" transform="translate(0 0)" clip-path="url(#clip-path-8)">
        <path id="Path_11727" data-name="Path 11727" d="M1.758,5.017A3.26,3.26,0,1,1,5.019,8.277,3.263,3.263,0,0,1,1.758,5.017m8.278,0a5.018,5.018,0,1,0-5.9,4.941v2.18H3.158a.879.879,0,0,0,0,1.758h.981v4.081a.879.879,0,0,0,1.758,0V13.9h.981a.879.879,0,1,0,0-1.758H5.9V9.958a5.024,5.024,0,0,0,4.139-4.941" transform="translate(0 0)" fill="#005d63"/>
      </g>
    </g>
    <g id="Group_59680" data-name="Group 59680" transform="translate(1259.37 2819.572)">
      <g id="Group_59212-2" data-name="Group 59212" transform="translate(0 0)" clip-path="url(#clip-path-8)">
        <path id="Path_11727-2" data-name="Path 11727" d="M1.758,5.017A3.26,3.26,0,1,1,5.019,8.277,3.263,3.263,0,0,1,1.758,5.017m8.278,0a5.018,5.018,0,1,0-5.9,4.941v2.18H3.158a.879.879,0,0,0,0,1.758h.981v4.081a.879.879,0,0,0,1.758,0V13.9h.981a.879.879,0,1,0,0-1.758H5.9V9.958a5.024,5.024,0,0,0,4.139-4.941" transform="translate(0 0)" fill="#005d63"/>
      </g>
    </g>
    <g id="Group_59672" data-name="Group 59672" transform="translate(1146.1 2503.02)">
      <g id="Group_59214" data-name="Group 59214" transform="translate(0 0)" clip-path="url(#clip-path-10)">
        <path id="Path_11728" data-name="Path 11728" d="M7.335,8.977A3.125,3.125,0,1,1,4.211,5.853,3.13,3.13,0,0,1,7.335,8.977ZM12.765.42a.348.348,0,0,0-.252-.1L7.663.507a.344.344,0,0,0,.026.688l3.906-.148L6.717,5.8a.376.376,0,0,0-.09.141,3.873,3.873,0,1,0,.506.481.437.437,0,0,0,.116-.077l4.933-4.811v3.3a.344.344,0,0,0,.687,0V.669A.348.348,0,0,0,12.765.42Z" transform="translate(0.056 0.056)" fill="none" stroke="#e60019" stroke-width="0.65"/>
      </g>
    </g>
    <g id="Group_59682" data-name="Group 59682" transform="translate(1258.1 2858.02)">
      <g id="Group_59214-2" data-name="Group 59214" transform="translate(0 0)" clip-path="url(#clip-path-10)">
        <path id="Path_11728-2" data-name="Path 11728" d="M7.335,8.977A3.125,3.125,0,1,1,4.211,5.853,3.13,3.13,0,0,1,7.335,8.977ZM12.765.42a.348.348,0,0,0-.252-.1L7.663.507a.344.344,0,0,0,.026.688l3.906-.148L6.717,5.8a.376.376,0,0,0-.09.141,3.873,3.873,0,1,0,.506.481.437.437,0,0,0,.116-.077l4.933-4.811v3.3a.344.344,0,0,0,.687,0V.669A.348.348,0,0,0,12.765.42Z" transform="translate(0.056 0.056)" fill="none" stroke="#e60019" stroke-width="0.65"/>
      </g>
    </g>
  </g>
</svg>
