<svg id="Group_59122" data-name="Group 59122" xmlns="http://www.w3.org/2000/svg" width="35.426" height="35.426" viewBox="0 0 35.426 35.426">
  <circle id="Ellipse_1647" data-name="Ellipse 1647" cx="17.713" cy="17.713" r="17.713" transform="translate(0 0)" fill="#17142e"/>
  <g id="Group_59125" data-name="Group 59125" transform="translate(8.54 8.986)">
    <path id="Path_119" data-name="Path 119" d="M294.322-46.487a1.023,1.023,0,0,0-1.023,1.023,1.023,1.023,0,0,0,1.023,1.023,1.023,1.023,0,0,0,1.023-1.023A1.023,1.023,0,0,0,294.322-46.487Z" transform="translate(-280.972 49.604)" fill="#fff"/>
    <path id="Path_120" data-name="Path 120" d="M289.913-45.2a4.3,4.3,0,0,0-4.3,4.3,4.3,4.3,0,0,0,4.3,4.3,4.3,4.3,0,0,0,4.3-4.3A4.3,4.3,0,0,0,289.913-45.2Zm0,7.052a2.757,2.757,0,0,1-2.754-2.753,2.757,2.757,0,0,1,2.754-2.753,2.756,2.756,0,0,1,2.753,2.753A2.756,2.756,0,0,1,289.913-38.146Z" transform="translate(-281.112 49.627)" fill="#fff"/>
    <path id="Path_121" data-name="Path 121" d="M293.406-32.092h-6.969a5.249,5.249,0,0,1-5.244-5.244V-44.3a5.249,5.249,0,0,1,5.244-5.244h6.969A5.249,5.249,0,0,1,298.65-44.3v6.969A5.249,5.249,0,0,1,293.406-32.092Zm-6.969-15.814a3.605,3.605,0,0,0-3.6,3.6v6.969a3.605,3.605,0,0,0,3.6,3.6h6.969a3.605,3.605,0,0,0,3.6-3.6V-44.3a3.605,3.605,0,0,0-3.6-3.6Z" transform="translate(-281.193 49.548)" fill="#fff"/>
  </g>
</svg>
