<svg id="Group_59124" data-name="Group 59124" xmlns="http://www.w3.org/2000/svg" width="35.426" height="35.426" viewBox="0 0 35.426 35.426">
  <circle id="Ellipse_1647" data-name="Ellipse 1647" cx="17.713" cy="17.713" r="17.713" transform="translate(0 0)" fill="#17142e"/>
  <g id="Group_59126" data-name="Group 59126" transform="translate(10.624 10.781)">
    <path id="Path_124" data-name="Path 124" d="M356.4-40.913h2.884v9.263H356.4Zm1.442-4.6a1.67,1.67,0,0,1,1.67,1.668,1.671,1.671,0,0,1-1.67,1.671,1.671,1.671,0,0,1-1.671-1.671,1.669,1.669,0,0,1,1.671-1.668" transform="translate(-356.167 45.515)" fill="#fff"/>
    <path id="Path_125" data-name="Path 125" d="M361-40.991h2.761v1.268h.038a3.028,3.028,0,0,1,2.727-1.5c2.915,0,3.453,1.917,3.453,4.412v5.08H367.1v-4.5c0-1.075-.021-2.457-1.5-2.457-1.5,0-1.727,1.17-1.727,2.378v4.582H361Z" transform="translate(-356.079 45.593)" fill="#fff"/>
  </g>
</svg>
