<svg xmlns="http://www.w3.org/2000/svg" width="16.782" height="12.99" viewBox="0 0 16.782 12.99">
  <path id="mail" d="M27.227,78.625l5.044,5.046a2.839,2.839,0,0,0,4,0l5.044-5.046a.115.115,0,0,0-.016-.176,3.164,3.164,0,0,0-1.815-.571H29.057a3.164,3.164,0,0,0-1.815.571.115.115,0,0,0-.016.176Zm-1.348,2.431a3.153,3.153,0,0,1,.363-1.471.115.115,0,0,1,.183-.028l4.98,4.98a4.057,4.057,0,0,0,5.731,0l4.98-4.98a.115.115,0,0,1,.183.028,3.154,3.154,0,0,1,.363,1.471V87.69a3.181,3.181,0,0,1-3.178,3.178H29.057a3.181,3.181,0,0,1-3.178-3.178Z" transform="translate(-25.879 -77.878)" fill="#fff" fill-rule="evenodd"/>
</svg>
