<svg xmlns="http://www.w3.org/2000/svg" xmlns:xlink="http://www.w3.org/1999/xlink" width="620.873" height="864.708" viewBox="0 0 620.873 864.708">
  <defs>
    <clipPath id="clip-path">
      <rect id="Rectangle_627" data-name="Rectangle 627" width="620.873" height="864.708" fill="none"/>
    </clipPath>
    <clipPath id="clip-path-2">
      <rect id="Rectangle_631" data-name="Rectangle 631" width="593.068" height="839.811" rx="12" fill="none"/>
    </clipPath>
    <clipPath id="clip-path-3">
      <path id="Path_12017" data-name="Path 12017" d="M201.122,85.016a53.119,53.119,0,1,0,53.119-53.123,53.118,53.118,0,0,0-53.119,53.123" transform="translate(-201.122 -31.893)" fill="none"/>
    </clipPath>
    <clipPath id="clip-path-5">
      <path id="Rectangle_638" data-name="Rectangle 638" d="M5.669,0H328.978a5.67,5.67,0,0,1,5.67,5.67V122.795a5.67,5.67,0,0,1-5.67,5.67H5.67A5.67,5.67,0,0,1,0,122.795V5.669A5.669,5.669,0,0,1,5.669,0Z" fill="none"/>
    </clipPath>
    <clipPath id="clip-path-7">
      <path id="Rectangle_646" data-name="Rectangle 646" d="M5.669,0H96.587a5.669,5.669,0,0,1,5.669,5.669v94.9a5.669,5.669,0,0,1-5.669,5.669H5.67A5.67,5.67,0,0,1,0,100.57V5.669A5.669,5.669,0,0,1,5.669,0Z" fill="none"/>
    </clipPath>
    <clipPath id="clip-path-11">
      <path id="Path_12019" data-name="Path 12019" d="M201.122,236.244a53.119,53.119,0,1,0,53.119-53.123,53.119,53.119,0,0,0-53.119,53.123" transform="translate(-201.122 -183.121)" fill="none"/>
    </clipPath>
    <clipPath id="clip-path-13">
      <path id="Path_12021" data-name="Path 12021" d="M85.539,243.054a38.246,38.246,0,1,0,38.245-38.247,38.244,38.244,0,0,0-38.245,38.247" transform="translate(-85.539 -204.807)" fill="none"/>
    </clipPath>
    <clipPath id="clip-path-15">
      <path id="Path_12023" data-name="Path 12023" d="M332.578,243.054a38.246,38.246,0,1,0,38.247-38.247,38.244,38.244,0,0,0-38.247,38.247" transform="translate(-332.578 -204.807)" fill="none"/>
    </clipPath>
    <clipPath id="clip-path-19">
      <path id="Path_12025" data-name="Path 12025" d="M201.122,385.771a53.119,53.119,0,1,0,53.119-53.123,53.118,53.118,0,0,0-53.119,53.123" transform="translate(-201.122 -332.648)" fill="none"/>
    </clipPath>
  </defs>
  <g id="Group_60488" data-name="Group 60488" transform="translate(-1005 -3280)">
    <g id="Group_59684" data-name="Group 59684" transform="translate(1005 3280)" opacity="0.3">
      <g id="Group_59632" data-name="Group 59632" clip-path="url(#clip-path)">
        <rect id="Rectangle_626" data-name="Rectangle 626" width="618.917" height="862.783" rx="12" transform="translate(0.978 0.963)" fill="none" stroke="#123d6b" stroke-width="1"/>
      </g>
    </g>
    <g id="Group_59725" data-name="Group 59725" transform="translate(956.704 3273.267)">
      <g id="Group_59686" data-name="Group 59686" transform="translate(71.228 24.669)">
        <g id="Group_59685" data-name="Group 59685" clip-path="url(#clip-path-2)">
          <line id="Line_105" data-name="Line 105" x2="107.833" transform="translate(307.424 66.659)" fill="none" stroke="#bbd4ef" stroke-width="3"/>
          <line id="Line_106" data-name="Line 106" x2="107.833" transform="translate(310.08 350.054)" fill="none" stroke="#d2e8d2" stroke-width="3"/>
          <line id="Line_107" data-name="Line 107" x2="107.833" transform="translate(310.08 630.261)" fill="none" stroke="#d9cce5" stroke-width="3"/>
          <line id="Line_108" data-name="Line 108" y2="107.833" transform="translate(528.005 357.756)" fill="none" stroke="#d2e8d2" stroke-width="3"/>
          <line id="Line_109" data-name="Line 109" y2="107.833" transform="translate(65.066 357.756)" fill="none" stroke="#d2e8d2" stroke-width="3"/>
          <line id="Line_110" data-name="Line 110" y2="107.833" transform="translate(296.535 357.756)" fill="none" stroke="#d2e8d2" stroke-width="3"/>
          <line id="Line_111" data-name="Line 111" y2="107.833" transform="translate(296.535 637.697)" fill="none" stroke="#d9cce5" stroke-width="3"/>
          <line id="Line_112" data-name="Line 112" x2="422.302" transform="translate(71.04 481.835)" fill="none" stroke="#d2e8d2" stroke-width="3"/>
          <line id="Line_113" data-name="Line 113" y2="107.833" transform="translate(296.535 66.017)" fill="none" stroke="#bbd4ef" stroke-width="3"/>
          <path id="Path_12016" data-name="Path 12016" d="M254.241,138.133a53.12,53.12,0,1,0-53.119-53.119,53.119,53.119,0,0,0,53.119,53.119" transform="translate(42.293 -18.356)" fill="#bbd4ef"/>
        </g>
      </g>
      <g id="Group_59688" data-name="Group 59688" transform="translate(314.643 38.206)">
        <g id="Group_59687" data-name="Group 59687" clip-path="url(#clip-path-3)">
          <rect id="Rectangle_632" data-name="Rectangle 632" width="397.086" height="113.084" transform="translate(-145.424 -59.766)" fill="#bbd4ef"/>
          <rect id="Rectangle_633" data-name="Rectangle 633" width="397.086" height="113.084" transform="translate(-145.424 52.926)" fill="#fae8ca"/>
        </g>
      </g>
      <g id="Group_59690" data-name="Group 59690" transform="translate(71.228 24.669)">
        <g id="Group_59689" data-name="Group 59689" clip-path="url(#clip-path-2)">
          <path id="Rectangle_634" data-name="Rectangle 634" d="M5.669,0H328.976a5.67,5.67,0,0,1,5.67,5.67V122.8a5.669,5.669,0,0,1-5.669,5.669H5.67A5.67,5.67,0,0,1,0,122.795V5.669A5.669,5.669,0,0,1,5.669,0Z" transform="translate(129.073 135.271)" fill="#bbd4ef"/>
        </g>
      </g>
      <g id="Group_59692" data-name="Group 59692" transform="translate(200.3 159.94)">
        <g id="Group_59691" data-name="Group 59691" clip-path="url(#clip-path-5)">
          <rect id="Rectangle_636" data-name="Rectangle 636" width="397.086" height="113.084" transform="translate(-31.214 -48.655)" fill="#bbd4ef"/>
          <rect id="Rectangle_637" data-name="Rectangle 637" width="397.086" height="113.084" transform="translate(-31.214 64.037)" fill="#fae8ca"/>
        </g>
      </g>
      <g id="Group_59694" data-name="Group 59694" transform="translate(71.228 24.669)">
        <g id="Group_59693" data-name="Group 59693" clip-path="url(#clip-path-2)">
          <path id="Rectangle_639" data-name="Rectangle 639" d="M5.669,0H96.586a5.67,5.67,0,0,1,5.67,5.67v94.9a5.67,5.67,0,0,1-5.67,5.67H5.67A5.67,5.67,0,0,1,0,100.57V5.669A5.669,5.669,0,0,1,5.669,0Z" transform="translate(371.965 13.537)" fill="#bbd4ef"/>
          <path id="Rectangle_640" data-name="Rectangle 640" d="M5.669,0H96.586a5.67,5.67,0,0,1,5.67,5.67v94.9a5.67,5.67,0,0,1-5.67,5.67H5.67A5.67,5.67,0,0,1,0,100.57V5.669A5.669,5.669,0,0,1,5.669,0Z" transform="translate(371.965 296.932)" fill="#d2e8d2"/>
          <rect id="Rectangle_641" data-name="Rectangle 641" width="102.256" height="106.24" rx="5.67" transform="translate(371.965 577.139)" fill="#d9cce5"/>
          <path id="Rectangle_642" data-name="Rectangle 642" d="M5.669,0H96.587a5.669,5.669,0,0,1,5.669,5.669v94.9a5.67,5.67,0,0,1-5.67,5.67H5.67A5.67,5.67,0,0,1,0,100.57V5.669A5.669,5.669,0,0,1,5.669,0Z" transform="translate(476.877 428.712)" fill="#bbd4ef"/>
        </g>
      </g>
      <g id="Group_59696" data-name="Group 59696" transform="translate(548.103 453.382)">
        <g id="Group_59695" data-name="Group 59695" clip-path="url(#clip-path-7)">
          <rect id="Rectangle_644" data-name="Rectangle 644" width="397.086" height="113.084" transform="translate(-147.414 -59.766)" fill="#d2e8d2"/>
          <rect id="Rectangle_645" data-name="Rectangle 645" width="397.086" height="113.084" transform="translate(-147.414 52.924)" fill="#fae8ca"/>
        </g>
      </g>
      <g id="Group_59698" data-name="Group 59698" transform="translate(71.228 24.669)">
        <g id="Group_59697" data-name="Group 59697" clip-path="url(#clip-path-2)">
          <path id="Rectangle_647" data-name="Rectangle 647" d="M5.669,0H96.586a5.67,5.67,0,0,1,5.67,5.67v94.9a5.67,5.67,0,0,1-5.67,5.67H5.67A5.67,5.67,0,0,1,0,100.57V5.669A5.669,5.669,0,0,1,5.669,0Z" transform="translate(13.937 428.712)" fill="#bbd4ef"/>
        </g>
      </g>
      <g id="Group_59700" data-name="Group 59700" transform="translate(85.165 453.382)">
        <g id="Group_59699" data-name="Group 59699" clip-path="url(#clip-path-7)">
          <rect id="Rectangle_649" data-name="Rectangle 649" width="397.086" height="113.084" transform="translate(-147.414 -59.766)" fill="#d2e8d2"/>
          <rect id="Rectangle_650" data-name="Rectangle 650" width="397.086" height="113.084" transform="translate(-147.414 52.924)" fill="#fae8ca"/>
        </g>
      </g>
      <g id="Group_59702" data-name="Group 59702" transform="translate(71.228 24.669)">
        <g id="Group_59701" data-name="Group 59701" clip-path="url(#clip-path-2)">
          <path id="Path_12018" data-name="Path 12018" d="M254.241,289.362a53.12,53.12,0,1,0-53.119-53.119,53.119,53.119,0,0,0,53.119,53.119" transform="translate(42.293 113.811)" fill="#bbd4ef"/>
        </g>
      </g>
      <g id="Group_59704" data-name="Group 59704" transform="translate(314.643 321.6)">
        <g id="Group_59703" data-name="Group 59703" clip-path="url(#clip-path-11)">
          <rect id="Rectangle_653" data-name="Rectangle 653" width="397.086" height="113.084" transform="translate(-145.424 -59.766)" fill="#d2e8d2"/>
          <rect id="Rectangle_654" data-name="Rectangle 654" width="397.086" height="113.084" transform="translate(-145.424 52.926)" fill="#fae8ca"/>
        </g>
      </g>
      <g id="Group_59706" data-name="Group 59706" transform="translate(71.228 24.669)">
        <g id="Group_59705" data-name="Group 59705" clip-path="url(#clip-path-2)">
          <path id="Path_12020" data-name="Path 12020" d="M123.784,281.3a38.245,38.245,0,1,0-38.245-38.244A38.244,38.244,0,0,0,123.784,281.3" transform="translate(-58.721 132.763)" fill="#bbd4ef"/>
        </g>
      </g>
      <g id="Group_59708" data-name="Group 59708" transform="translate(98.046 362.239)">
        <g id="Group_59707" data-name="Group 59707" clip-path="url(#clip-path-13)">
          <rect id="Rectangle_656" data-name="Rectangle 656" width="397.086" height="113.084" transform="translate(-160.296 -74.641)" fill="#d2e8d2"/>
          <rect id="Rectangle_657" data-name="Rectangle 657" width="397.086" height="113.084" transform="translate(-160.296 38.051)" fill="#fae8ca"/>
        </g>
      </g>
      <g id="Group_59710" data-name="Group 59710" transform="translate(71.228 24.669)">
        <g id="Group_59709" data-name="Group 59709" clip-path="url(#clip-path-2)">
          <path id="Path_12022" data-name="Path 12022" d="M370.824,281.3a38.245,38.245,0,1,0-38.245-38.244A38.244,38.244,0,0,0,370.824,281.3" transform="translate(157.18 132.763)" fill="#bbd4ef"/>
        </g>
      </g>
      <g id="Group_59712" data-name="Group 59712" transform="translate(560.985 362.239)">
        <g id="Group_59711" data-name="Group 59711" transform="translate(0)" clip-path="url(#clip-path-15)">
          <rect id="Rectangle_659" data-name="Rectangle 659" width="397.086" height="113.084" transform="translate(-160.296 -74.641)" fill="#d2e8d2"/>
          <rect id="Rectangle_660" data-name="Rectangle 660" width="397.086" height="113.084" transform="translate(-160.296 38.051)" fill="#fae8ca"/>
        </g>
      </g>
      <g id="Group_59714" data-name="Group 59714" transform="translate(71.228 24.669)">
        <g id="Group_59713" data-name="Group 59713" clip-path="url(#clip-path-2)">
          <path id="Rectangle_661" data-name="Rectangle 661" d="M5.67,0H328.976a5.67,5.67,0,0,1,5.67,5.67V122.8a5.669,5.669,0,0,1-5.669,5.669H5.67A5.67,5.67,0,0,1,0,122.795V5.67A5.67,5.67,0,0,1,5.67,0Z" transform="translate(129.215 419.463)" fill="#bbd4ef"/>
        </g>
      </g>
      <g id="Group_59716" data-name="Group 59716" transform="translate(200.443 444.132)">
        <g id="Group_59715" data-name="Group 59715" clip-path="url(#clip-path-5)">
          <rect id="Rectangle_663" data-name="Rectangle 663" width="397.086" height="113.084" transform="translate(-31.224 -48.653)" fill="#d2e8d2"/>
          <rect id="Rectangle_664" data-name="Rectangle 664" width="397.086" height="113.084" transform="translate(-31.224 64.037)" fill="#fae8ca"/>
        </g>
      </g>
      <g id="Group_59718" data-name="Group 59718" transform="translate(71.228 24.669)">
        <g id="Group_59717" data-name="Group 59717" clip-path="url(#clip-path-2)">
          <path id="Path_12024" data-name="Path 12024" d="M254.241,438.889a53.12,53.12,0,1,0-53.119-53.119,53.119,53.119,0,0,0,53.119,53.119" transform="translate(42.293 244.49)" fill="#bbd4ef"/>
        </g>
      </g>
      <g id="Group_59720" data-name="Group 59720" transform="translate(314.643 601.806)">
        <g id="Group_59719" data-name="Group 59719" clip-path="url(#clip-path-19)">
          <rect id="Rectangle_667" data-name="Rectangle 667" width="397.086" height="113.084" transform="translate(-145.424 -59.764)" fill="#d9cce5"/>
          <rect id="Rectangle_668" data-name="Rectangle 668" width="397.086" height="113.084" transform="translate(-145.424 52.926)" fill="#fae8ca"/>
        </g>
      </g>
      <g id="Group_59722" data-name="Group 59722" transform="translate(71.228 24.669)">
        <g id="Group_59721" data-name="Group 59721" clip-path="url(#clip-path-2)">
          <path id="Rectangle_669" data-name="Rectangle 669" d="M5.669,0H328.976a5.67,5.67,0,0,1,5.67,5.67V122.8a5.669,5.669,0,0,1-5.669,5.669H5.67A5.67,5.67,0,0,1,0,122.795V5.669A5.669,5.669,0,0,1,5.669,0Z" transform="translate(129.215 697.811)" fill="#bbd4ef"/>
        </g>
      </g>
      <g id="Group_59724" data-name="Group 59724" transform="translate(200.443 722.479)">
        <g id="Group_59723" data-name="Group 59723" clip-path="url(#clip-path-5)">
          <rect id="Rectangle_671" data-name="Rectangle 671" width="397.086" height="113.084" transform="translate(-31.224 -48.653)" fill="#d9cce5"/>
          <rect id="Rectangle_672" data-name="Rectangle 672" width="397.086" height="113.084" transform="translate(-31.224 64.039)" fill="#fae8ca"/>
        </g>
      </g>
    </g>
    <text id="Birth_Chart" data-name="Birth
Chart" transform="translate(1324 3360)" fill="#294e7d" font-size="16" font-family="ChaparralPro-Semibold, Chaparral Pro" font-weight="600"><tspan x="-18" y="0">Birth</tspan><tspan x="-19" y="19">Chart</tspan></text>
    <text id="Couples_Chart" data-name="Couples
Chart" transform="translate(1324 3924)" fill="#294e7d" font-size="16" font-family="ChaparralPro-Semibold, Chaparral Pro" font-weight="600"><tspan x="-26" y="0">Couples</tspan><tspan x="-19" y="19">Chart</tspan></text>
    <text id="Development_Chart" data-name="Development
Chart" transform="translate(1325 3644)" fill="#294e7d" font-size="16" font-family="ChaparralPro-Semibold, Chaparral Pro" font-weight="600"><tspan x="-45" y="0">Development</tspan><tspan x="-19" y="19">Chart</tspan></text>
    <text id="Astrology_of_the_Personality" data-name="Astrology
of the
Personality" transform="translate(1454 3345)" fill="#294e7d" font-size="16" font-family="ChaparralPro-Regular, Chaparral Pro"><tspan x="-31" y="0">Astrology</tspan><tspan x="-19" y="21">of the</tspan><tspan x="-36" y="42">Personality</tspan></text>
    <text id="Transit_Char" data-name="Transit
Char" transform="translate(1093 3669)" fill="#294e7d" font-size="16" font-family="ChaparralPro-Regular, Chaparral Pro"><tspan x="-23" y="0">Transit</tspan><tspan x="-15" y="21">Char</tspan></text>
    <text id="Short_term_or_yearly_energies" data-name="Short term
or yearly
energies" transform="translate(1093 3767)" fill="#294e7d" font-size="16" font-family="ChaparralPro-Regular, Chaparral Pro"><tspan x="-36" y="0">Short term</tspan><tspan x="-28" y="21">or yearly</tspan><tspan x="-27" y="42">energies</tspan></text>
    <text id="Long_term_cycles_and_once_in_a_lifetime_energies" data-name="Long term
cycles and
once in
a lifetime
energies" transform="translate(1558 3746)" fill="#294e7d" font-size="16" font-family="ChaparralPro-Regular, Chaparral Pro"><tspan x="-34" y="0">Long term</tspan><tspan x="-33" y="19">cycles and</tspan><tspan x="-23" y="38">once in</tspan><tspan x="-30" y="57">a lifetime</tspan><tspan x="-27" y="76">energies</tspan></text>
    <text id="Life_Cycle_Chart" data-name="Life Cycle
Chart" transform="translate(1558 3669)" fill="#294e7d" font-size="16" font-family="ChaparralPro-Regular, Chaparral Pro"><tspan x="-31" y="0">Life Cycle</tspan><tspan x="-18" y="21">Chart</tspan></text>
    <text id="Astrological_Timing_for_Growth_and_Change" data-name="Astrological
Timing for
Growth and
Change" transform="translate(1450 3622)" fill="#294e7d" font-size="16" font-family="ChaparralPro-Regular, Chaparral Pro"><tspan x="-39" y="0">Astrological</tspan><tspan x="-34" y="21">Timing for</tspan><tspan x="-39" y="42">Growth and</tspan><tspan x="-24" y="63">Change</tspan></text>
    <text id="Astrology_of_the_Chemistry_Between_Two_People" data-name="Astrology
of the
“Chemistry”
Between Two
People" transform="translate(1451 3891)" fill="#294e7d" font-size="16" font-family="ChaparralPro-Regular, Chaparral Pro"><tspan x="-31" y="0">Astrology</tspan><tspan x="-19" y="20">of the</tspan><tspan x="-40" y="40">“Chemistry”</tspan><tspan x="-43" y="60">Between Two</tspan><tspan x="-21" y="80">People</tspan></text>
    <text id="A_birth_chart_is_the_blueprint_of_your_psychological_makeup._It_reveals_your_hidden_strengths_validates_aspects_of_yourself_provides_solutions_for_internal_conflicts_clarifies_your_life_s_purpose_and_is_a_roadmap_for_self-fulfillment." data-name="A birth chart is the blueprint of your
psychological makeup. It reveals your hidden
strengths, validates aspects of yourself,
provides solutions for internal conflicts,
clarifies your life’s purpose and is a roadmap
for self-fulfillment." transform="translate(1322 3453)" fill="#294e7d" font-size="16" font-family="ChaparralPro-Regular, Chaparral Pro"><tspan x="-119" y="0">A birth chart is the blueprint of your</tspan><tspan x="-146" y="20">psychological makeup. It reveals your hidden</tspan><tspan x="-128" y="40">strengths, validates aspects of yourself,</tspan><tspan x="-130" y="60">provides solutions for internal conflicts,</tspan><tspan x="-144" y="80">clarifies your life’s purpose and is a roadmap</tspan><tspan x="-62" y="100">for self-fulfillment.</tspan></text>
    <text id="A_development_chart_highlights_times_in_your_life_that_are_designated_for_personal_growth._They_will_not_tell_you_specific_details_rather_they_will_highlight_different_parts_of_yourself_that_are_potentially_ripe_for_change_and_growth_at_specific_times." data-name="A development chart highlights times in your
life that are designated for personal growth.
They will not tell you specific details, rather,
they will highlight different parts of yourself
that are potentially ripe for change and growth
at specific times." transform="translate(1329 3737)" fill="#294e7d" font-size="16" font-family="ChaparralPro-Regular, Chaparral Pro"><tspan x="-148" y="0">A development chart highlights times in your</tspan><tspan x="-143" y="20">life that are designated for personal growth.</tspan><tspan x="-142" y="40">They will not tell you specific details, rather,</tspan><tspan x="-145" y="60">they will highlight different parts of yourself</tspan><tspan x="-153" y="80">that are potentially ripe for change and growth</tspan><tspan x="-54" y="100">at specific times.</tspan></text>
    <text id="A_couples_chart_can_pinpoint_the_specific_areas_of_chemistry_between_two_people._It_can_help_explain_why_you_may_be_drawn_or_repelled_by_certain_people_and_help_you_understand_the_areas_of_conflict_between_you_and_a_significant_person_in_your_life" data-name="A couples chart can pinpoint the specific areas
of “chemistry” between two people. It can help
explain why you may be drawn or repelled by
certain people and help you understand the
areas of conflict between you and a significant
person in your life" transform="translate(1324 4015)" fill="#294e7d" font-size="16" font-family="ChaparralPro-Regular, Chaparral Pro"><tspan x="-150" y="0">A couples chart can pinpoint the specific areas</tspan><tspan x="-152" y="20">of “chemistry” between two people. It can help</tspan><tspan x="-146" y="40">explain why you may be drawn or repelled by</tspan><tspan x="-141" y="60">certain people and help you understand the</tspan><tspan x="-150" y="80">areas of conflict between you and a significant</tspan><tspan x="-59" y="100">person in your life</tspan></text>
  </g>
</svg>
