<?xml version="1.0" encoding="utf-8"?>
<!-- Generator: Adobe Illustrator 27.9.0, SVG Export Plug-In . SVG Version: 6.00 Build 0)  -->
<svg version="1.1" id="Layer_1" xmlns="http://www.w3.org/2000/svg" xmlns:xlink="http://www.w3.org/1999/xlink" x="0px" y="0px"
	 viewBox="0 0 282.5 342.9" style="enable-background:new 0 0 282.5 342.9;" xml:space="preserve">
<style type="text/css">
	.st0{fill:none;stroke:url(#SVGID_1_);stroke-width:2;stroke-miterlimit:10;}
	.st1{fill:none;stroke:url(#SVGID_00000002350424513495213840000018306999716222934913_);stroke-width:2;stroke-miterlimit:10;}
	.st2{fill:none;stroke:url(#SVGID_00000142865607082427472120000013937695467743725460_);stroke-width:2;stroke-miterlimit:10;}
	.st3{fill:none;stroke:url(#SVGID_00000067211986467261498200000002181421809118918529_);stroke-width:2;stroke-miterlimit:10;}
	.st4{fill:#231F20;stroke:#231F20;stroke-width:0.25;stroke-miterlimit:10;}
	.st5{fill:url(#SVGID_00000101095311748986333770000012864649175602735262_);}
	.st6{fill:url(#SVGID_00000145027508678622343020000013912132048163971223_);}
	.st7{fill:url(#SVGID_00000163772057987786639030000001746559025105566136_);}
	.st8{fill:url(#SVGID_00000017491271990235410990000004353676255379944606_);}
	.st9{fill:url(#SVGID_00000041977476976912121580000012981965902211250581_);}
	.st10{fill:url(#SVGID_00000121256415557000043530000003144674626868490634_);}
	.st11{fill:url(#SVGID_00000099649180957800268830000007609051996933826184_);}
	.st12{fill:url(#SVGID_00000102533402597428657890000002553086565614937740_);}
	.st13{fill:url(#SVGID_00000058578333538597720280000000951681800075998903_);}
	.st14{fill:url(#SVGID_00000089569090552738510470000015957856468680258231_);}
	.st15{fill:url(#SVGID_00000067216371256736306390000011517201788973316521_);}
	.st16{fill:url(#SVGID_00000014612564071487127250000010595800170155503777_);}
	.st17{opacity:0.2;fill:#C1B49A;}
</style>
<g>
	
		<linearGradient id="SVGID_1_" gradientUnits="userSpaceOnUse" x1="3179.3596" y1="-204.1588" x2="3250.6367" y2="-204.1588" gradientTransform="matrix(3.6087 0 0 3.6087 -11459.7422 931.0747)">
		<stop  offset="0" style="stop-color:#951B1E"/>
		<stop  offset="0.5" style="stop-color:#AF605D"/>
		<stop  offset="0.5961" style="stop-color:#9A4D4B"/>
		<stop  offset="0.7616" style="stop-color:#7B3031"/>
		<stop  offset="0.9021" style="stop-color:#681F21"/>
		<stop  offset="1" style="stop-color:#61191B"/>
	</linearGradient>
	<circle class="st0" cx="142.2" cy="194.3" r="125"/>
	
		<linearGradient id="SVGID_00000133530231331881877110000010598185642679213474_" gradientUnits="userSpaceOnUse" x1="88.9133" y1="127.3039" x2="233.9568" y2="127.3039" gradientTransform="matrix(0.4894 0 0 0.4894 63.2077 132.0303)">
		<stop  offset="0" style="stop-color:#282881"/>
		<stop  offset="9.601454e-02" style="stop-color:#2A2C84"/>
		<stop  offset="0.1966" style="stop-color:#2F398C"/>
		<stop  offset="0.2994" style="stop-color:#384E99"/>
		<stop  offset="0.4029" style="stop-color:#446BAC"/>
		<stop  offset="0.4888" style="stop-color:#5089BF"/>
		<stop  offset="0.6047" style="stop-color:#3A5C99"/>
		<stop  offset="0.7245" style="stop-color:#273478"/>
		<stop  offset="0.8345" style="stop-color:#191860"/>
		<stop  offset="0.9299" style="stop-color:#100651"/>
		<stop  offset="1" style="stop-color:#0D004C"/>
	</linearGradient>
	
		<circle style="fill:none;stroke:url(#SVGID_00000133530231331881877110000010598185642679213474_);stroke-width:2;stroke-miterlimit:10;" cx="142.2" cy="194.3" r="35"/>
	
		<linearGradient id="SVGID_00000096750081601285464730000003899354077586899345_" gradientUnits="userSpaceOnUse" x1="27.8542" y1="127.3039" x2="295.0159" y2="127.3039" gradientTransform="matrix(0.4894 0 0 0.4894 63.2077 132.0303)">
		<stop  offset="0" style="stop-color:#67C3A8"/>
		<stop  offset="0.4888" style="stop-color:#98D3BC"/>
		<stop  offset="1" style="stop-color:#00676B"/>
	</linearGradient>
	
		<circle style="fill:none;stroke:url(#SVGID_00000096750081601285464730000003899354077586899345_);stroke-width:2;stroke-miterlimit:10;" cx="142.2" cy="194.3" r="64.9"/>
	
		<linearGradient id="SVGID_00000116946401295152536570000005332651924761947776_" gradientUnits="userSpaceOnUse" x1="-33.4256" y1="127.3039" x2="356.2958" y2="127.3039" gradientTransform="matrix(0.4894 0 0 0.4894 63.2077 132.0303)">
		<stop  offset="0" style="stop-color:#E5A21D"/>
		<stop  offset="9.460323e-02" style="stop-color:#E5A421"/>
		<stop  offset="0.1838" style="stop-color:#E7A92C"/>
		<stop  offset="0.2709" style="stop-color:#E9B33F"/>
		<stop  offset="0.3566" style="stop-color:#ECBF5A"/>
		<stop  offset="0.4407" style="stop-color:#F1D07C"/>
		<stop  offset="0.5" style="stop-color:#F4DE99"/>
		<stop  offset="0.5566" style="stop-color:#ECD28F"/>
		<stop  offset="0.6603" style="stop-color:#D6B074"/>
		<stop  offset="0.7993" style="stop-color:#B37B48"/>
		<stop  offset="0.9669" style="stop-color:#82310D"/>
		<stop  offset="1" style="stop-color:#782200"/>
	</linearGradient>
	
		<circle style="fill:none;stroke:url(#SVGID_00000116946401295152536570000005332651924761947776_);stroke-width:2;stroke-miterlimit:10;" cx="142.2" cy="194.3" r="94.9"/>
	<g>
		<path class="st4" d="M128,175.7h-2.5v-0.9h6v0.9h-2.5v7.2H128V175.7z"/>
		<path class="st4" d="M132.3,174.3h1.1v3.6h0c0.2-0.3,0.4-0.6,0.8-0.7c0.3-0.2,0.7-0.3,1.1-0.3c0.8,0,2,0.5,2,2.5v3.5h-1.1v-3.3
			c0-0.9-0.3-1.7-1.3-1.7c-0.7,0-1.2,0.5-1.4,1.1c-0.1,0.1-0.1,0.3-0.1,0.5v3.5h-1.1V174.3z"/>
		<path class="st4" d="M139.6,180.1c0,1.4,0.9,2,2,2c0.8,0,1.2-0.1,1.6-0.3l0.2,0.8c-0.4,0.2-1,0.4-1.9,0.4c-1.8,0-2.9-1.2-2.9-2.9
			c0-1.8,1-3.1,2.7-3.1c1.9,0,2.4,1.7,2.4,2.7c0,0.2,0,0.4,0,0.5H139.6z M142.7,179.4c0-0.7-0.3-1.7-1.5-1.7c-1.1,0-1.5,1-1.6,1.7
			H142.7z"/>
		<path class="st4" d="M149.5,176L149.5,176l-1.4,0.7l-0.2-0.8l1.7-0.9h0.9v7.8h-1V176z"/>
		<path class="st4" d="M153.4,182.8v-0.6l0.8-0.8c2-1.9,2.9-2.9,2.9-4.1c0-0.8-0.4-1.5-1.5-1.5c-0.7,0-1.3,0.4-1.7,0.7l-0.3-0.7
			c0.5-0.5,1.3-0.8,2.2-0.8c1.7,0,2.4,1.2,2.4,2.3c0,1.4-1,2.6-2.7,4.2l-0.6,0.6v0h3.5v0.9H153.4z"/>
		<path class="st4" d="M125.3,190.7h-2.5v-0.9h6v0.9h-2.5v7.2h-1.1V190.7z"/>
		<path class="st4" d="M134,196.3c0,0.6,0,1.1,0,1.6h-0.9l-0.1-0.9h0c-0.3,0.5-0.9,1.1-1.9,1.1c-0.9,0-2-0.5-2-2.5V192h1.1v3.2
			c0,1.1,0.3,1.8,1.3,1.8c0.7,0,1.2-0.5,1.4-1c0.1-0.2,0.1-0.3,0.1-0.5V192h1.1V196.3z"/>
		<path class="st4" d="M135.8,193.9c0-0.7,0-1.3,0-1.8h0.9l0,1.1h0c0.3-0.8,0.9-1.3,1.6-1.3c0.1,0,0.2,0,0.3,0v1c-0.1,0-0.2,0-0.4,0
			c-0.7,0-1.3,0.6-1.4,1.4c0,0.1,0,0.3,0,0.5v3.1h-1V193.9z"/>
		<path class="st4" d="M139.7,193.6c0-0.6,0-1.1,0-1.6h0.9l0.1,1h0c0.3-0.6,1-1.1,1.9-1.1c0.8,0,2.1,0.5,2.1,2.5v3.5h-1.1v-3.3
			c0-0.9-0.3-1.7-1.3-1.7c-0.7,0-1.2,0.5-1.4,1.1c0,0.1-0.1,0.3-0.1,0.5v3.5h-1.1V193.6z"/>
		<path class="st4" d="M147.6,190.4c0,0.4-0.3,0.6-0.7,0.6c-0.4,0-0.6-0.3-0.6-0.6c0-0.4,0.3-0.7,0.7-0.7
			C147.3,189.8,147.6,190,147.6,190.4z M146.4,197.8V192h1.1v5.8H146.4z"/>
		<path class="st4" d="M149.2,193.6c0-0.6,0-1.1,0-1.6h0.9l0.1,1h0c0.3-0.6,1-1.1,1.9-1.1c0.8,0,2.1,0.5,2.1,2.5v3.5h-1.1v-3.3
			c0-0.9-0.3-1.7-1.3-1.7c-0.7,0-1.2,0.5-1.4,1.1c0,0.1-0.1,0.3-0.1,0.5v3.5h-1.1V193.6z"/>
		<path class="st4" d="M160.8,197c0,1.3-0.3,2.1-0.8,2.7c-0.6,0.5-1.4,0.7-2.1,0.7c-0.7,0-1.5-0.2-1.9-0.5l0.3-0.8
			c0.4,0.2,1,0.5,1.7,0.5c1.1,0,1.9-0.6,1.9-2v-0.6h0c-0.3,0.5-0.9,1-1.8,1c-1.4,0-2.5-1.2-2.5-2.8c0-2,1.3-3.1,2.6-3.1
			c1,0,1.6,0.5,1.8,1h0l0-0.9h0.9c0,0.4,0,0.9,0,1.6V197z M159.8,194.3c0-0.2,0-0.3-0.1-0.5c-0.2-0.6-0.7-1.1-1.5-1.1
			c-1,0-1.7,0.9-1.7,2.2c0,1.1,0.6,2.1,1.7,2.1c0.6,0,1.2-0.4,1.5-1.1c0.1-0.2,0.1-0.4,0.1-0.6V194.3z"/>
		<path class="st4" d="M127.8,204.9c0.5-0.1,1.2-0.2,2-0.2c1,0,1.8,0.2,2.3,0.7c0.4,0.4,0.7,1,0.7,1.7c0,0.7-0.2,1.3-0.6,1.7
			c-0.6,0.6-1.5,0.9-2.5,0.9c-0.3,0-0.6,0-0.8-0.1v3.2h-1V204.9z M128.8,208.8c0.2,0.1,0.5,0.1,0.9,0.1c1.3,0,2-0.6,2-1.7
			c0-1.1-0.8-1.6-1.9-1.6c-0.5,0-0.8,0-1,0.1V208.8z"/>
		<path class="st4" d="M139.1,209.9c0,2.1-1.5,3.1-2.9,3.1c-1.6,0-2.8-1.2-2.8-3c0-1.9,1.3-3.1,2.9-3.1
			C138,206.9,139.1,208.1,139.1,209.9z M134.5,210c0,1.3,0.7,2.2,1.8,2.2c1,0,1.8-0.9,1.8-2.3c0-1-0.5-2.2-1.7-2.2
			C135,207.7,134.5,208.9,134.5,210z"/>
		<path class="st4" d="M141.6,205.4c0,0.4-0.3,0.6-0.7,0.6c-0.4,0-0.6-0.3-0.6-0.6c0-0.4,0.3-0.7,0.7-0.7
			C141.3,204.8,141.6,205,141.6,205.4z M140.4,212.8V207h1.1v5.8H140.4z"/>
		<path class="st4" d="M143.2,208.6c0-0.6,0-1.1,0-1.6h0.9l0.1,1h0c0.3-0.6,1-1.1,1.9-1.1c0.8,0,2.1,0.5,2.1,2.5v3.5h-1.1v-3.3
			c0-0.9-0.3-1.7-1.3-1.7c-0.7,0-1.2,0.5-1.4,1.1c0,0.1-0.1,0.3-0.1,0.5v3.5h-1.1V208.6z"/>
		<path class="st4" d="M151.1,205.7v1.4h1.5v0.8h-1.5v3.1c0,0.7,0.2,1.1,0.8,1.1c0.3,0,0.5,0,0.6-0.1l0,0.8
			c-0.2,0.1-0.5,0.2-0.9,0.2c-0.5,0-0.9-0.2-1.1-0.5c-0.3-0.3-0.4-0.8-0.4-1.5v-3.2h-0.9V207h0.9V206L151.1,205.7z"/>
		<path class="st4" d="M153.7,211.8c0.3,0.2,0.9,0.4,1.4,0.4c0.8,0,1.1-0.4,1.1-0.9c0-0.5-0.3-0.8-1.1-1.1c-1-0.4-1.5-0.9-1.5-1.6
			c0-0.9,0.8-1.7,2-1.7c0.6,0,1.1,0.2,1.4,0.4l-0.3,0.8c-0.2-0.1-0.6-0.3-1.2-0.3c-0.6,0-1,0.4-1,0.8c0,0.5,0.3,0.7,1.1,1
			c1,0.4,1.5,0.9,1.5,1.8c0,1-0.8,1.8-2.2,1.8c-0.6,0-1.2-0.2-1.6-0.4L153.7,211.8z"/>
	</g>
	
		<linearGradient id="SVGID_00000165211802324033763460000005154942490288068526_" gradientUnits="userSpaceOnUse" x1="-360.0679" y1="628.0093" x2="-352.9407" y2="628.0093" gradientTransform="matrix(1 0 0 1 498.7121 -383.6154)">
		<stop  offset="0" style="stop-color:#67C3A8"/>
		<stop  offset="0.4888" style="stop-color:#98D3BC"/>
		<stop  offset="1" style="stop-color:#00676B"/>
	</linearGradient>
	<path style="fill:url(#SVGID_00000165211802324033763460000005154942490288068526_);" d="M145.8,244.4c0,3.2-2.6,5.8-5.8,5.8
		s0.6-2.6,0.6-5.8s-3.9-5.8-0.6-5.8S145.8,241.2,145.8,244.4z"/>
	
		<linearGradient id="SVGID_00000062192177571775668120000016770338927726438583_" gradientUnits="userSpaceOnUse" x1="-24.6142" y1="457.6653" x2="-17.487" y2="457.6653" gradientTransform="matrix(-1 0 0 -1 121.1572 542.0592)">
		<stop  offset="0" style="stop-color:#951B1E"/>
		<stop  offset="0.5" style="stop-color:#AF605D"/>
		<stop  offset="0.5961" style="stop-color:#9A4D4B"/>
		<stop  offset="0.7616" style="stop-color:#7B3031"/>
		<stop  offset="0.9021" style="stop-color:#681F21"/>
		<stop  offset="1" style="stop-color:#61191B"/>
	</linearGradient>
	<path style="fill:url(#SVGID_00000062192177571775668120000016770338927726438583_);" d="M138.6,84.4c0-3.2,2.6-5.8,5.8-5.8
		c3.2,0-0.6,2.6-0.6,5.8c0,3.2,3.9,5.8,0.6,5.8C141.3,90.2,138.6,87.6,138.6,84.4z"/>
	
		<linearGradient id="SVGID_00000026866151234312254820000006466105972586196894_" gradientUnits="userSpaceOnUse" x1="488.1909" y1="-163.4272" x2="499.8784" y2="-163.4272" gradientTransform="matrix(0 -1 1 0 255.695 688.3626)">
		<stop  offset="0" style="stop-color:#282881"/>
		<stop  offset="9.601454e-02" style="stop-color:#2A2C84"/>
		<stop  offset="0.1966" style="stop-color:#2F398C"/>
		<stop  offset="0.2994" style="stop-color:#384E99"/>
		<stop  offset="0.4029" style="stop-color:#446BAC"/>
		<stop  offset="0.4888" style="stop-color:#5089BF"/>
		<stop  offset="0.6047" style="stop-color:#3A5C99"/>
		<stop  offset="0.7245" style="stop-color:#273478"/>
		<stop  offset="0.8345" style="stop-color:#191860"/>
		<stop  offset="0.9299" style="stop-color:#100651"/>
		<stop  offset="1" style="stop-color:#0D004C"/>
	</linearGradient>
	<circle style="fill:url(#SVGID_00000026866151234312254820000006466105972586196894_);" cx="92.3" cy="194.3" r="5.8"/>
	
		<linearGradient id="SVGID_00000084494932397508430830000010587123767101527964_" gradientUnits="userSpaceOnUse" x1="488.1909" y1="-63.4212" x2="499.8784" y2="-63.4212" gradientTransform="matrix(0 -1 1 0 255.695 688.3626)">
		<stop  offset="0" style="stop-color:#E5A21D"/>
		<stop  offset="9.460323e-02" style="stop-color:#E5A421"/>
		<stop  offset="0.1838" style="stop-color:#E7A92C"/>
		<stop  offset="0.2709" style="stop-color:#E9B33F"/>
		<stop  offset="0.3566" style="stop-color:#ECBF5A"/>
		<stop  offset="0.4407" style="stop-color:#F1D07C"/>
		<stop  offset="0.5" style="stop-color:#F4DE99"/>
		<stop  offset="0.5566" style="stop-color:#ECD28F"/>
		<stop  offset="0.6603" style="stop-color:#D6B074"/>
		<stop  offset="0.7993" style="stop-color:#B37B48"/>
		<stop  offset="0.9669" style="stop-color:#82310D"/>
		<stop  offset="1" style="stop-color:#782200"/>
	</linearGradient>
	<circle style="fill:url(#SVGID_00000084494932397508430830000010587123767101527964_);" cx="192.3" cy="194.3" r="5.8"/>
	
		<linearGradient id="SVGID_00000068658576652099737100000007236807629319304086_" gradientUnits="userSpaceOnUse" x1="-360.0679" y1="658.0693" x2="-352.9407" y2="658.0693" gradientTransform="matrix(1 0 0 1 498.7121 -383.6154)">
		<stop  offset="0" style="stop-color:#67C3A8"/>
		<stop  offset="0.4888" style="stop-color:#98D3BC"/>
		<stop  offset="1" style="stop-color:#00676B"/>
	</linearGradient>
	<path style="fill:url(#SVGID_00000068658576652099737100000007236807629319304086_);" d="M145.8,274.5c0,3.2-2.6,5.8-5.8,5.8
		s0.6-2.6,0.6-5.8s-3.9-5.8-0.6-5.8S145.8,271.2,145.8,274.5z"/>
	
		<linearGradient id="SVGID_00000080914220297552445100000008223631838240975507_" gradientUnits="userSpaceOnUse" x1="-24.6142" y1="427.6053" x2="-17.487" y2="427.6053" gradientTransform="matrix(-1 0 0 -1 121.1572 542.0592)">
		<stop  offset="0" style="stop-color:#951B1E"/>
		<stop  offset="0.5" style="stop-color:#AF605D"/>
		<stop  offset="0.5961" style="stop-color:#9A4D4B"/>
		<stop  offset="0.7616" style="stop-color:#7B3031"/>
		<stop  offset="0.9021" style="stop-color:#681F21"/>
		<stop  offset="1" style="stop-color:#61191B"/>
	</linearGradient>
	<path style="fill:url(#SVGID_00000080914220297552445100000008223631838240975507_);" d="M138.6,114.5c0-3.2,2.6-5.8,5.8-5.8
		c3.2,0-0.6,2.6-0.6,5.8c0,3.2,3.9,5.8,0.6,5.8C141.3,120.3,138.6,117.7,138.6,114.5z"/>
	
		<linearGradient id="SVGID_00000110454575242101699860000011455777398616698787_" gradientUnits="userSpaceOnUse" x1="488.1909" y1="-193.3612" x2="499.8784" y2="-193.3612" gradientTransform="matrix(0 -1 1 0 255.695 688.3626)">
		<stop  offset="0" style="stop-color:#282881"/>
		<stop  offset="9.601454e-02" style="stop-color:#2A2C84"/>
		<stop  offset="0.1966" style="stop-color:#2F398C"/>
		<stop  offset="0.2994" style="stop-color:#384E99"/>
		<stop  offset="0.4029" style="stop-color:#446BAC"/>
		<stop  offset="0.4888" style="stop-color:#5089BF"/>
		<stop  offset="0.6047" style="stop-color:#3A5C99"/>
		<stop  offset="0.7245" style="stop-color:#273478"/>
		<stop  offset="0.8345" style="stop-color:#191860"/>
		<stop  offset="0.9299" style="stop-color:#100651"/>
		<stop  offset="1" style="stop-color:#0D004C"/>
	</linearGradient>
	<circle style="fill:url(#SVGID_00000110454575242101699860000011455777398616698787_);" cx="62.3" cy="194.3" r="5.8"/>
	
		<linearGradient id="SVGID_00000135663703275446954690000008348635532731376809_" gradientUnits="userSpaceOnUse" x1="488.1909" y1="-33.3612" x2="499.8784" y2="-33.3612" gradientTransform="matrix(0 -1 1 0 255.695 688.3626)">
		<stop  offset="0" style="stop-color:#E5A21D"/>
		<stop  offset="9.460323e-02" style="stop-color:#E5A421"/>
		<stop  offset="0.1838" style="stop-color:#E7A92C"/>
		<stop  offset="0.2709" style="stop-color:#E9B33F"/>
		<stop  offset="0.3566" style="stop-color:#ECBF5A"/>
		<stop  offset="0.4407" style="stop-color:#F1D07C"/>
		<stop  offset="0.5" style="stop-color:#F4DE99"/>
		<stop  offset="0.5566" style="stop-color:#ECD28F"/>
		<stop  offset="0.6603" style="stop-color:#D6B074"/>
		<stop  offset="0.7993" style="stop-color:#B37B48"/>
		<stop  offset="0.9669" style="stop-color:#82310D"/>
		<stop  offset="1" style="stop-color:#782200"/>
	</linearGradient>
	<circle style="fill:url(#SVGID_00000135663703275446954690000008348635532731376809_);" cx="222.3" cy="194.3" r="5.8"/>
	
		<linearGradient id="SVGID_00000022530787090396449110000016635124246786803618_" gradientUnits="userSpaceOnUse" x1="-360.0679" y1="688.0033" x2="-352.9407" y2="688.0033" gradientTransform="matrix(1 0 0 1 498.7121 -383.6154)">
		<stop  offset="0" style="stop-color:#67C3A8"/>
		<stop  offset="0.4888" style="stop-color:#98D3BC"/>
		<stop  offset="1" style="stop-color:#00676B"/>
	</linearGradient>
	<path style="fill:url(#SVGID_00000022530787090396449110000016635124246786803618_);" d="M145.8,304.4c0,3.2-2.6,5.8-5.8,5.8
		s0.6-2.6,0.6-5.8c0-3.2-3.9-5.8-0.6-5.8S145.8,301.2,145.8,304.4z"/>
	
		<linearGradient id="SVGID_00000165222876255522883590000004166326953094832526_" gradientUnits="userSpaceOnUse" x1="-24.6142" y1="397.6713" x2="-17.487" y2="397.6713" gradientTransform="matrix(-1 0 0 -1 121.1572 542.0592)">
		<stop  offset="0" style="stop-color:#951B1E"/>
		<stop  offset="0.5" style="stop-color:#AF605D"/>
		<stop  offset="0.5961" style="stop-color:#9A4D4B"/>
		<stop  offset="0.7616" style="stop-color:#7B3031"/>
		<stop  offset="0.9021" style="stop-color:#681F21"/>
		<stop  offset="1" style="stop-color:#61191B"/>
	</linearGradient>
	<path style="fill:url(#SVGID_00000165222876255522883590000004166326953094832526_);" d="M138.6,144.4c0-3.2,2.6-5.8,5.8-5.8
		c3.2,0-0.6,2.6-0.6,5.8s3.9,5.8,0.6,5.8C141.3,150.2,138.6,147.6,138.6,144.4z"/>
	
		<linearGradient id="SVGID_00000098917213011728898730000001993754474275809932_" gradientUnits="userSpaceOnUse" x1="488.1909" y1="-223.4212" x2="499.8784" y2="-223.4212" gradientTransform="matrix(0 -1 1 0 255.695 688.3626)">
		<stop  offset="0" style="stop-color:#282881"/>
		<stop  offset="9.601454e-02" style="stop-color:#2A2C84"/>
		<stop  offset="0.1966" style="stop-color:#2F398C"/>
		<stop  offset="0.2994" style="stop-color:#384E99"/>
		<stop  offset="0.4029" style="stop-color:#446BAC"/>
		<stop  offset="0.4888" style="stop-color:#5089BF"/>
		<stop  offset="0.6047" style="stop-color:#3A5C99"/>
		<stop  offset="0.7245" style="stop-color:#273478"/>
		<stop  offset="0.8345" style="stop-color:#191860"/>
		<stop  offset="0.9299" style="stop-color:#100651"/>
		<stop  offset="1" style="stop-color:#0D004C"/>
	</linearGradient>
	<circle style="fill:url(#SVGID_00000098917213011728898730000001993754474275809932_);" cx="32.3" cy="194.3" r="5.8"/>
	
		<linearGradient id="SVGID_00000122002033979095135380000014394899923331997064_" gradientUnits="userSpaceOnUse" x1="488.1909" y1="-3.4272" x2="499.8784" y2="-3.4272" gradientTransform="matrix(0 -1 1 0 255.695 688.3626)">
		<stop  offset="0" style="stop-color:#E5A21D"/>
		<stop  offset="9.460323e-02" style="stop-color:#E5A421"/>
		<stop  offset="0.1838" style="stop-color:#E7A92C"/>
		<stop  offset="0.2709" style="stop-color:#E9B33F"/>
		<stop  offset="0.3566" style="stop-color:#ECBF5A"/>
		<stop  offset="0.4407" style="stop-color:#F1D07C"/>
		<stop  offset="0.5" style="stop-color:#F4DE99"/>
		<stop  offset="0.5566" style="stop-color:#ECD28F"/>
		<stop  offset="0.6603" style="stop-color:#D6B074"/>
		<stop  offset="0.7993" style="stop-color:#B37B48"/>
		<stop  offset="0.9669" style="stop-color:#82310D"/>
		<stop  offset="1" style="stop-color:#782200"/>
	</linearGradient>
	<circle style="fill:url(#SVGID_00000122002033979095135380000014394899923331997064_);" cx="252.3" cy="194.3" r="5.8"/>
	<path class="st17" d="M230.3,50.8H54.1c-3.5,0-6.4-2.9-6.4-6.4V30.2c0-3.5,2.9-6.4,6.4-6.4l176.2,0c3.5,0,6.4,2.9,6.4,6.4v14.2
		C236.7,47.9,233.8,50.8,230.3,50.8z"/>
	<g>
		<path class="st4" d="M64,32.3c0.6-0.1,1.3-0.2,2.3-0.2c1.2,0,2,0.3,2.6,0.8c0.5,0.4,0.8,1.1,0.8,1.9c0,0.8-0.2,1.5-0.7,1.9
			c-0.6,0.7-1.6,1-2.8,1c-0.4,0-0.7,0-0.9-0.1v3.6H64V32.3z M65.1,36.7c0.3,0.1,0.6,0.1,1,0.1c1.4,0,2.3-0.7,2.3-1.9
			c0-1.2-0.9-1.8-2.1-1.8c-0.5,0-0.9,0-1.1,0.1V36.7z"/>
		<path class="st4" d="M75.3,39.7c0,0.6,0,1.1,0.1,1.6h-1.1l-0.1-0.8h0c-0.4,0.5-1.1,1-2,1c-1.3,0-2-0.9-2-1.9
			c0-1.6,1.4-2.4,3.9-2.4V37c0-0.5-0.1-1.5-1.5-1.5c-0.6,0-1.2,0.2-1.7,0.5l-0.3-0.8c0.5-0.4,1.3-0.6,2.1-0.6c2,0,2.5,1.4,2.5,2.7
			V39.7z M74.2,38c-1.3,0-2.8,0.2-2.8,1.5c0,0.8,0.5,1.1,1.1,1.1c0.9,0,1.4-0.5,1.6-1.1c0-0.1,0.1-0.3,0.1-0.4V38z"/>
		<path class="st4" d="M77.3,36.8c0-0.8,0-1.4-0.1-2h1l0,1.3h0.1c0.3-0.9,1-1.4,1.8-1.4c0.1,0,0.2,0,0.3,0v1.1c-0.1,0-0.2,0-0.4,0
			c-0.8,0-1.4,0.6-1.6,1.5c0,0.2-0.1,0.4-0.1,0.6v3.5h-1.2V36.8z"/>
		<path class="st4" d="M83.4,33.2v1.6h1.7v0.9h-1.7v3.5c0,0.8,0.2,1.3,0.9,1.3c0.3,0,0.5,0,0.7-0.1l0.1,0.9
			c-0.2,0.1-0.6,0.2-1.1,0.2c-0.6,0-1-0.2-1.3-0.5c-0.3-0.4-0.5-0.9-0.5-1.7v-3.6h-1v-0.9h1v-1.2L83.4,33.2z"/>
		<path class="st4" d="M88.9,41.3v-0.7l0.9-0.9c2.2-2.1,3.3-3.3,3.3-4.6c0-0.9-0.4-1.7-1.7-1.7c-0.8,0-1.5,0.4-1.9,0.7l-0.4-0.8
			c0.6-0.5,1.5-0.9,2.5-0.9c1.9,0,2.7,1.3,2.7,2.6c0,1.6-1.2,2.9-3,4.7l-0.7,0.6v0h3.9v1H88.9z"/>
		<path class="st4" d="M96.7,36.7c-0.5,0-0.8-0.4-0.8-0.8c0-0.5,0.3-0.9,0.8-0.9s0.8,0.4,0.8,0.9C97.6,36.3,97.3,36.7,96.7,36.7
			L96.7,36.7z M96.7,41.4c-0.5,0-0.8-0.4-0.8-0.8c0-0.5,0.3-0.9,0.8-0.9s0.8,0.4,0.8,0.9C97.6,41.1,97.3,41.4,96.7,41.4L96.7,41.4z"
			/>
		<path class="st4" d="M103.1,33.2h-2.8v-1h6.7v1h-2.8v8.1h-1.2V33.2z"/>
		<path class="st4" d="M108,31.7h1.2v4.1h0c0.2-0.3,0.5-0.6,0.9-0.8c0.4-0.2,0.8-0.3,1.2-0.3c0.9,0,2.3,0.5,2.3,2.8v3.9h-1.2v-3.8
			c0-1.1-0.4-1.9-1.5-1.9c-0.8,0-1.4,0.5-1.6,1.2c-0.1,0.2-0.1,0.3-0.1,0.6v3.9H108V31.7z"/>
		<path class="st4" d="M116.1,38.2c0,1.6,1.1,2.3,2.2,2.3c0.9,0,1.4-0.1,1.8-0.3l0.2,0.9c-0.4,0.2-1.1,0.4-2.2,0.4
			c-2,0-3.2-1.3-3.2-3.3c0-2,1.2-3.5,3.1-3.5c2.1,0,2.7,1.9,2.7,3.1c0,0.2,0,0.4,0,0.6H116.1z M119.6,37.4c0-0.8-0.3-1.9-1.6-1.9
			c-1.2,0-1.7,1.1-1.8,1.9H119.6z"/>
		<path class="st4" d="M127.3,33.6L127.3,33.6l-1.6,0.8l-0.2-0.9l1.9-1h1v8.8h-1.1V33.6z"/>
		<path class="st4" d="M131.6,41.3v-0.7l0.9-0.9c2.2-2.1,3.3-3.3,3.3-4.6c0-0.9-0.4-1.7-1.7-1.7c-0.8,0-1.5,0.4-1.9,0.7l-0.4-0.8
			c0.6-0.5,1.5-0.9,2.5-0.9c1.9,0,2.7,1.3,2.7,2.6c0,1.6-1.2,2.9-3,4.7l-0.7,0.6v0h3.9v1H131.6z"/>
		<path class="st4" d="M143,33.2h-2.8v-1h6.7v1h-2.8v8.1H143V33.2z"/>
		<path class="st4" d="M152.8,39.5c0,0.7,0,1.3,0.1,1.8h-1.1l-0.1-1.1h0c-0.3,0.5-1,1.2-2.2,1.2c-1,0-2.3-0.6-2.3-2.9v-3.8h1.2v3.6
			c0,1.2,0.4,2.1,1.5,2.1c0.8,0,1.4-0.6,1.6-1.1c0.1-0.2,0.1-0.4,0.1-0.6v-4h1.2V39.5z"/>
		<path class="st4" d="M154.8,36.8c0-0.8,0-1.4-0.1-2h1l0,1.3h0.1c0.3-0.9,1-1.4,1.8-1.4c0.1,0,0.2,0,0.3,0v1.1c-0.1,0-0.2,0-0.4,0
			c-0.8,0-1.4,0.6-1.6,1.5c0,0.2-0.1,0.4-0.1,0.6v3.5h-1.2V36.8z"/>
		<path class="st4" d="M159.3,36.5c0-0.7,0-1.2-0.1-1.8h1.1l0.1,1.1h0c0.3-0.6,1.1-1.2,2.2-1.2c0.9,0,2.3,0.5,2.3,2.8v3.9h-1.2v-3.8
			c0-1.1-0.4-1.9-1.5-1.9c-0.8,0-1.4,0.6-1.6,1.2c-0.1,0.1-0.1,0.4-0.1,0.6v3.9h-1.2V36.5z"/>
		<path class="st4" d="M168.1,32.9c0,0.4-0.3,0.7-0.8,0.7c-0.4,0-0.7-0.3-0.7-0.7c0-0.4,0.3-0.7,0.7-0.7
			C167.8,32.2,168.1,32.5,168.1,32.9z M166.7,41.3v-6.5h1.2v6.5H166.7z"/>
		<path class="st4" d="M169.9,36.5c0-0.7,0-1.2-0.1-1.8h1.1l0.1,1.1h0c0.3-0.6,1.1-1.2,2.2-1.2c0.9,0,2.3,0.5,2.3,2.8v3.9h-1.2v-3.8
			c0-1.1-0.4-1.9-1.5-1.9c-0.8,0-1.4,0.6-1.6,1.2c-0.1,0.1-0.1,0.4-0.1,0.6v3.9h-1.2V36.5z"/>
		<path class="st4" d="M183,40.3c0,1.5-0.3,2.4-0.9,3c-0.6,0.6-1.6,0.8-2.4,0.8c-0.8,0-1.6-0.2-2.2-0.5l0.3-0.9
			c0.4,0.3,1.1,0.5,1.9,0.5c1.2,0,2.1-0.6,2.1-2.3v-0.7h0c-0.4,0.6-1.1,1.1-2.1,1.1c-1.6,0-2.8-1.4-2.8-3.2c0-2.2,1.4-3.5,2.9-3.5
			c1.1,0,1.8,0.6,2,1.1h0l0.1-1h1c0,0.5-0.1,1-0.1,1.8V40.3z M181.8,37.3c0-0.2,0-0.4-0.1-0.5c-0.2-0.7-0.8-1.3-1.7-1.3
			c-1.1,0-1.9,1-1.9,2.5c0,1.3,0.6,2.3,1.9,2.3c0.7,0,1.4-0.5,1.6-1.2c0.1-0.2,0.1-0.4,0.1-0.6V37.3z"/>
		<path class="st4" d="M187.8,32.3c0.6-0.1,1.3-0.2,2.3-0.2c1.2,0,2,0.3,2.6,0.8c0.5,0.4,0.8,1.1,0.8,1.9c0,0.8-0.2,1.5-0.7,1.9
			c-0.6,0.7-1.6,1-2.8,1c-0.4,0-0.7,0-0.9-0.1v3.6h-1.2V32.3z M189,36.7c0.3,0.1,0.6,0.1,1,0.1c1.4,0,2.3-0.7,2.3-1.9
			c0-1.2-0.9-1.8-2.1-1.8c-0.5,0-0.9,0-1.1,0.1V36.7z"/>
		<path class="st4" d="M200.6,38c0,2.4-1.7,3.5-3.3,3.5c-1.8,0-3.1-1.3-3.1-3.4c0-2.2,1.4-3.5,3.2-3.5C199.3,34.6,200.6,36,200.6,38
			z M195.4,38c0,1.4,0.8,2.5,2,2.5c1.1,0,2-1.1,2-2.5c0-1.1-0.6-2.5-2-2.5C196,35.5,195.4,36.8,195.4,38z"/>
		<path class="st4" d="M203.4,32.9c0,0.4-0.3,0.7-0.8,0.7c-0.4,0-0.7-0.3-0.7-0.7c0-0.4,0.3-0.7,0.7-0.7
			C203.1,32.2,203.4,32.5,203.4,32.9z M202.1,41.3v-6.5h1.2v6.5H202.1z"/>
		<path class="st4" d="M205.2,36.5c0-0.7,0-1.2-0.1-1.8h1.1l0.1,1.1h0c0.3-0.6,1.1-1.2,2.2-1.2c0.9,0,2.3,0.5,2.3,2.8v3.9h-1.2v-3.8
			c0-1.1-0.4-1.9-1.5-1.9c-0.8,0-1.4,0.6-1.6,1.2c-0.1,0.1-0.1,0.4-0.1,0.6v3.9h-1.2V36.5z"/>
		<path class="st4" d="M214.1,33.2v1.6h1.7v0.9h-1.7v3.5c0,0.8,0.2,1.3,0.9,1.3c0.3,0,0.5,0,0.7-0.1l0.1,0.9
			c-0.2,0.1-0.6,0.2-1.1,0.2c-0.6,0-1-0.2-1.3-0.5c-0.3-0.4-0.5-0.9-0.5-1.7v-3.6h-1v-0.9h1v-1.2L214.1,33.2z"/>
		<path class="st4" d="M217,40.1c0.4,0.2,1,0.5,1.6,0.5c0.9,0,1.3-0.4,1.3-1c0-0.6-0.3-0.9-1.2-1.2c-1.2-0.4-1.7-1.1-1.7-1.9
			c0-1.1,0.9-1.9,2.3-1.9c0.7,0,1.2,0.2,1.6,0.4l-0.3,0.9c-0.3-0.2-0.7-0.4-1.3-0.4c-0.7,0-1.1,0.4-1.1,0.9c0,0.5,0.4,0.8,1.2,1.1
			c1.1,0.4,1.7,1,1.7,2c0,1.1-0.9,2-2.4,2c-0.7,0-1.4-0.2-1.8-0.5L217,40.1z"/>
	</g>
</g>
</svg>
