<svg xmlns="http://www.w3.org/2000/svg" xmlns:xlink="http://www.w3.org/1999/xlink" width="670.661" height="663.641" viewBox="0 0 670.661 663.641">
  <defs>
    <linearGradient id="linear-gradient" x1="0.051" y1="0.08" x2="0.961" y2="0.752" gradientUnits="objectBoundingBox">
      <stop offset="0" stop-color="#928ad6" stop-opacity="0.588"/>
      <stop offset="1" stop-color="#928ad6" stop-opacity="0"/>
    </linearGradient>
  </defs>
  <g id="Group_60417" data-name="Group 60417" transform="translate(-1292.49 -6133.875)">
    <g id="Group_59376" data-name="Group 59376" transform="translate(1 3375)">
      <path id="Path_11792" data-name="Path 11792" d="M5019.084,1824.146c153.7-79.389,390.783,157.608,415.945,353.547s11.184-429.388-369.977-506.738c-107.172,14.911-86.662,67.7-86.662,67.7S4954.319,1761.242,5019.084,1824.146Z" transform="translate(-3490 1207)" opacity="0.29" fill="url(#linear-gradient)"/>
      <path id="Path_11793" data-name="Path 11793" d="M5188.143,1789.458c305.513,78.427,303.5,386.078,371.88,389.8s-113.81-430.954-494.97-508.3c-38.1,48.85-10.035,99.752-10.035,99.752S4897.81,1742.5,5188.143,1789.458Z" transform="translate(-3612 1087.92)" opacity="0.18" fill="url(#linear-gradient)"/>
      <g id="star" transform="translate(1291.49 2758.875)">
        <g id="Group_59242" data-name="Group 59242" transform="translate(0)">
          <g id="Group_59225" data-name="Group 59225" transform="translate(64.291 155.752)">
            <path id="Path_11733" data-name="Path 11733" d="M1301.51,756.26l30.663-16.681,12.215-74.268-30.663,16.681Z" transform="translate(-1301.51 -665.31)" fill="#7f6507"/>
          </g>
          <g id="Group_59226" data-name="Group 59226" transform="translate(24.269 93.757)">
            <path id="Path_11734" data-name="Path 11734" d="M1353.747,605.736l30.663-16.681-52.237-61.995-30.663,16.681Z" transform="translate(-1301.51 -527.06)" fill="#a18009"/>
          </g>
          <g id="Group_59227" data-name="Group 59227" transform="translate(64.291 202.603)">
            <path id="Path_11735" data-name="Path 11735" d="M1251.337,786.471,1282,769.79l-62.937,27.417L1188.4,813.888Z" transform="translate(-1188.4 -769.79)" fill="#a07f09"/>
          </g>
          <g id="Group_59228" data-name="Group 59228" transform="translate(24.269 93.389)">
            <path id="Path_11736" data-name="Path 11736" d="M1330.195,542.921l30.663-16.681-71.385.368-30.663,16.682Z" transform="translate(-1258.81 -526.24)" fill="#1a1744"/>
          </g>
          <g id="Group_59229" data-name="Group 59229" transform="translate(0 81.362)">
            <path id="Path_11737" data-name="Path 11737" d="M1363.486,516.1l30.659-16.677-88.322.453-30.663,16.681Z" transform="translate(-1275.16 -499.42)" fill="#978de8"/>
          </g>
          <g id="Group_59230" data-name="Group 59230" transform="translate(127.227 202.603)">
            <path id="Path_11738" data-name="Path 11738" d="M1109.3,831.771l30.663-16.681-64.309-45.3-30.663,16.681Z" transform="translate(-1044.99 -769.79)" fill="#ac890a"/>
          </g>
          <g id="Group_59231" data-name="Group 59231" transform="translate(178.545 169.299)">
            <path id="Path_11739" data-name="Path 11739" d="M1057.981,790.806l30.663-16.681-12.991-78.6L1044.99,712.2Z" transform="translate(-1044.99 -695.52)" fill="#141233"/>
          </g>
          <g id="Group_59232" data-name="Group 59232" transform="translate(190.89 175.276)">
            <path id="Path_11740" data-name="Path 11740" d="M1026.662,822.795l30.663-16.681-16.072-97.264-30.663,16.681Z" transform="translate(-1010.59 -708.85)" fill="#2e257c"/>
          </g>
          <g id="Group_59233" data-name="Group 59233" transform="translate(95.654 27.632)">
            <path id="Path_11741" data-name="Path 11741" d="M1189.67,462.039l30.663-16.681,31-65.757-30.663,16.681Z" transform="translate(-1189.67 -379.6)" fill="#7f6507"/>
          </g>
          <g id="Group_59234" data-name="Group 59234" transform="translate(126.658 27.632)">
            <path id="Path_11742" data-name="Path 11742" d="M1149.7,470.429l30.663-16.681-32.5-74.147L1117.2,396.281Z" transform="translate(-1117.2 -379.6)" fill="#151338"/>
          </g>
          <g id="Group_59235" data-name="Group 59235" transform="translate(126.685)">
            <path id="Path_11743" data-name="Path 11743" d="M1140.156,426.4l30.663-16.681-40.206-91.743-30.663,16.681Z" transform="translate(-1099.95 -317.98)" fill="#2e257c"/>
          </g>
          <g id="Group_59236" data-name="Group 59236" transform="translate(24.269 44.313)">
            <path id="Path_11744" data-name="Path 11744" d="M1130.908,591.771l64.309,45.3-12.991-78.609,51.3-46.116-70.685-21.4-32.5-74.147-31,65.757-71.385.368,52.237,61.995-12.215,74.268Z" transform="translate(-1027.95 -416.8)" fill="#2a2556"/>
          </g>
          <g id="Group_59237" data-name="Group 59237" transform="translate(178.545 123.178)">
            <path id="Path_11745" data-name="Path 11745" d="M959.57,655.467l30.663-16.677,51.3-46.12-30.663,16.681Z" transform="translate(-959.57 -592.67)" fill="#131131"/>
          </g>
          <g id="Group_59238" data-name="Group 59238" transform="translate(159.155 101.779)">
            <path id="Path_11746" data-name="Path 11746" d="M1030.255,583.03l30.663-16.681-70.685-21.4L959.57,561.631Z" transform="translate(-959.57 -544.95)" fill="#1a1745"/>
          </g>
          <g id="Group_59239" data-name="Group 59239" transform="translate(0 16.677)">
            <path id="Path_11747" data-name="Path 11747" d="M973.28,436.99l64.632,76.708L1022.8,605.584l77.874-33.914,79.569,56.044-16.072-97.264,63.466-57.058-87.461-26.48-40.21-91.743-38.359,81.362Zm64.291,148.2,12.215-74.268-52.237-61.995,71.385-.368,31-65.757,32.5,74.147,70.685,21.4-51.291,46.116,12.991,78.6-64.313-45.3-62.937,27.421" transform="translate(-973.28 -355.17)" fill="#d0cbff"/>
          </g>
          <g id="Group_59240" data-name="Group 59240" transform="translate(190.89 118.223)">
            <path id="Path_11748" data-name="Path 11748" d="M904.9,655.355l30.663-16.681,63.466-57.053L968.366,598.3Z" transform="translate(-904.9 -581.62)" fill="#2e257c"/>
          </g>
          <g id="Group_59241" data-name="Group 59241" transform="translate(166.891 91.743)">
            <path id="Path_11749" data-name="Path 11749" d="M992.365,565.727l30.663-16.677-87.465-26.48L904.9,539.251Z" transform="translate(-904.9 -522.57)" fill="#978de8"/>
          </g>
        </g>
      </g>
    </g>
  </g>
</svg>
