<svg xmlns="http://www.w3.org/2000/svg" width="102.917" height="20.493" viewBox="0 0 102.917 20.493">
  <g id="Flat" transform="translate(0 -12.814)">
    <g id="Group_12" data-name="Group 12" transform="translate(0 12.814)">
      <path id="Path_39" data-name="Path 39" d="M10.269,12.814l2.425,7.828h7.844l-6.345,4.837,2.425,7.828-6.349-4.84-6.345,4.84,2.425-7.828L0,20.642H7.844Z" transform="translate(0 -12.814)" fill="#eec831"/>
    </g>
    <g id="Group_13" data-name="Group 13" transform="translate(20.593 12.814)">
      <path id="Path_40" data-name="Path 40" d="M16.675,12.814,19.1,20.642h7.847L20.6,25.479l2.425,7.828-6.345-4.84-6.349,4.84,2.425-7.828L6.4,20.642H14.25Z" transform="translate(-6.403 -12.814)" fill="#eec831"/>
    </g>
    <g id="Group_14" data-name="Group 14" transform="translate(41.189 12.814)">
      <path id="Path_41" data-name="Path 41" d="M23.076,12.814,25.5,20.642h7.844L27,25.479l2.425,7.828-6.349-4.84-6.349,4.84,2.425-7.828-6.345-4.837h7.844Z" transform="translate(-12.807 -12.814)" fill="#eec831"/>
    </g>
    <g id="Group_15" data-name="Group 15" transform="translate(61.782 12.814)">
      <path id="Path_42" data-name="Path 42" d="M29.479,12.814,31.9,20.642h7.847L33.4,25.479l2.425,7.828-6.349-4.84-6.345,4.84,2.425-7.828L19.21,20.642h7.847Z" transform="translate(-19.21 -12.814)" fill="#eec831"/>
    </g>
    <g id="Group_16" data-name="Group 16" transform="translate(82.378 12.814)">
      <path id="Path_43" data-name="Path 43" d="M35.883,12.814l2.425,7.828h7.844L39.8,25.479l2.425,7.828-6.345-4.84-6.349,4.84,2.425-7.828-6.345-4.837h7.844Z" transform="translate(-25.614 -12.814)" fill="#eec831"/>
    </g>
  </g>
</svg>
