<svg xmlns="http://www.w3.org/2000/svg" width="118.925" height="118.925" viewBox="0 0 118.925 118.925">
  <g id="Group_60525" data-name="Group 60525" transform="translate(-900.732 -566.732)">
    <circle id="Ellipse_2528" data-name="Ellipse 2528" cx="55" cy="55" r="55" transform="translate(905 571)" fill="#fff"/>
    <g id="图层_x0020_1" transform="translate(900.732 566.732)">
      <path id="Path_41698" data-name="Path 41698" d="M0,0H118.925V118.925H0Z" fill="none" fill-rule="evenodd"/>
      <path id="Path_41699" data-name="Path 41699" d="M53.346,1.318a52.03,52.03,0,1,1-52.03,52.03,52.037,52.037,0,0,1,52.03-52.03Zm-10.8,68.93L29.8,57.5a5.574,5.574,0,0,1,7.883-7.883l8.98,8.987,22.34-22.34a5.574,5.574,0,1,1,7.883,7.883L50.6,70.434a5.588,5.588,0,0,1-7.883,0c-.061-.061-.12-.123-.177-.186Z" transform="translate(6.138 6.145)" fill="#1b1837" fill-rule="evenodd"/>
    </g>
  </g>
</svg>
