<svg id="Group_59123" data-name="Group 59123" xmlns="http://www.w3.org/2000/svg" width="35.426" height="35.426" viewBox="0 0 35.426 35.426">
  <circle id="Ellipse_1647" data-name="Ellipse 1647" cx="17.713" cy="17.713" r="17.713" transform="translate(0 0)" fill="#17142e"/>
  <path id="Path_11684" data-name="Path 11684" d="M332.046-45.957a6.708,6.708,0,0,1-1.641.468c.264-.045.652-.522.807-.716a3.021,3.021,0,0,0,.545-.994c.014-.029.024-.064,0-.086a.092.092,0,0,0-.086.007,8.388,8.388,0,0,1-1.947.745.13.13,0,0,1-.134-.036,1.632,1.632,0,0,0-.17-.174,3.464,3.464,0,0,0-.944-.578,3.279,3.279,0,0,0-1.446-.232,3.462,3.462,0,0,0-1.373.387,3.548,3.548,0,0,0-1.107.9,3.4,3.4,0,0,0-.661,1.325,3.589,3.589,0,0,0-.036,1.4c.011.078,0,.089-.067.078a10.4,10.4,0,0,1-6.69-3.406c-.078-.089-.12-.089-.184.007a3.394,3.394,0,0,0,.578,4.009c.131.124.266.248.411.361a3.409,3.409,0,0,1-1.291-.361c-.078-.05-.117-.021-.124.067a1.981,1.981,0,0,0,.021.383,3.43,3.43,0,0,0,2.114,2.735,1.969,1.969,0,0,0,.429.131,3.846,3.846,0,0,1-1.266.039c-.093-.017-.127.029-.093.117a3.562,3.562,0,0,0,2.661,2.228c.12.021.241.021.361.049-.007.011-.014.011-.021.021a4.2,4.2,0,0,1-1.817.963,6.5,6.5,0,0,1-2.759.353c-.148-.021-.179-.02-.219,0s-.006.06.042.1c.188.124.38.234.575.341a9.128,9.128,0,0,0,1.844.737,9.822,9.822,0,0,0,9.537-2.23,10.005,10.005,0,0,0,2.64-7.3c0-.1.123-.163.2-.218a6.476,6.476,0,0,0,1.3-1.35.411.411,0,0,0,.086-.259v-.014C332.114-46,332.113-45.987,332.046-45.957Z" transform="translate(-305.836 58.591)" fill="#fff"/>
</svg>
